<?xml version="1.0" encoding="utf-8" standalone="no"?>
<!DOCTYPE svg PUBLIC "-//W3C//DTD SVG 1.1//EN"
  "http://www.w3.org/Graphics/SVG/1.1/DTD/svg11.dtd">
<svg xmlns:xlink="http://www.w3.org/1999/xlink" width="785.275852pt" height="318.565909pt" viewBox="0 0 785.275852 318.565909" xmlns="http://www.w3.org/2000/svg" version="1.1">
 <metadata>
  <rdf:RDF xmlns:dc="http://purl.org/dc/elements/1.1/" xmlns:cc="http://creativecommons.org/ns#" xmlns:rdf="http://www.w3.org/1999/02/22-rdf-syntax-ns#">
   <cc:Work>
    <dc:type rdf:resource="http://purl.org/dc/dcmitype/StillImage"/>
    <dc:date>2026-04-29T23:05:44.415375</dc:date>
    <dc:format>image/svg+xml</dc:format>
    <dc:creator>
     <cc:Agent>
      <dc:title>Matplotlib v3.10.8, https://matplotlib.org/</dc:title>
     </cc:Agent>
    </dc:creator>
   </cc:Work>
  </rdf:RDF>
 </metadata>
 <defs>
  <style type="text/css">*{stroke-linejoin: round; stroke-linecap: butt}</style>
 </defs>
 <g id="figure_1">
  <g id="patch_1">
   <path d="M 0 318.565909 
L 785.275852 318.565909 
L 785.275852 0 
L 0 0 
z
" style="fill: #faf8f3"/>
  </g>
  <g id="axes_1">
   <g id="patch_2">
    <path d="M 40.603125 281.009659 
L 387.475852 281.009659 
L 387.475852 31.99625 
L 40.603125 31.99625 
z
" style="fill: #faf8f3"/>
   </g>
   <g id="PathCollection_1">
    <defs>
     <path id="me8553c48e4" d="M 0 3.162278 
C 0.838646 3.162278 1.643056 2.82908 2.236068 2.236068 
C 2.82908 1.643056 3.162278 0.838646 3.162278 0 
C 3.162278 -0.838646 2.82908 -1.643056 2.236068 -2.236068 
C 1.643056 -2.82908 0.838646 -3.162278 0 -3.162278 
C -0.838646 -3.162278 -1.643056 -2.82908 -2.236068 -2.236068 
C -2.82908 -1.643056 -3.162278 -0.838646 -3.162278 0 
C -3.162278 0.838646 -2.82908 1.643056 -2.236068 2.236068 
C -1.643056 2.82908 -0.838646 3.162278 0 3.162278 
z
" style="stroke: #ffffff; stroke-opacity: 0.7; stroke-width: 0.5"/>
    </defs>
    <g clip-path="url(#pa5ce45421a)">
     <use xlink:href="#me8553c48e4" x="56.746366" y="177.182321" style="fill: #0a3d62; fill-opacity: 0.7; stroke: #ffffff; stroke-opacity: 0.7; stroke-width: 0.5"/>
     <use xlink:href="#me8553c48e4" x="56.746366" y="194.781594" style="fill: #0a3d62; fill-opacity: 0.7; stroke: #ffffff; stroke-opacity: 0.7; stroke-width: 0.5"/>
     <use xlink:href="#me8553c48e4" x="58.439713" y="269.690868" style="fill: #0a3d62; fill-opacity: 0.7; stroke: #ffffff; stroke-opacity: 0.7; stroke-width: 0.5"/>
     <use xlink:href="#me8553c48e4" x="56.370067" y="172.590823" style="fill: #0a3d62; fill-opacity: 0.7; stroke: #ffffff; stroke-opacity: 0.7; stroke-width: 0.5"/>
     <use xlink:href="#me8553c48e4" x="67.282748" y="206.582008" style="fill: #0a3d62; fill-opacity: 0.7; stroke: #ffffff; stroke-opacity: 0.7; stroke-width: 0.5"/>
     <use xlink:href="#me8553c48e4" x="75.561333" y="173.366354" style="fill: #0a3d62; fill-opacity: 0.7; stroke: #ffffff; stroke-opacity: 0.7; stroke-width: 0.5"/>
     <use xlink:href="#me8553c48e4" x="82.146572" y="166.985846" style="fill: #0a3d62; fill-opacity: 0.7; stroke: #ffffff; stroke-opacity: 0.7; stroke-width: 0.5"/>
     <use xlink:href="#me8553c48e4" x="86.850313" y="161.988957" style="fill: #0a3d62; fill-opacity: 0.7; stroke: #ffffff; stroke-opacity: 0.7; stroke-width: 0.5"/>
     <use xlink:href="#me8553c48e4" x="94.3763" y="145.879057" style="fill: #0a3d62; fill-opacity: 0.7; stroke: #ffffff; stroke-opacity: 0.7; stroke-width: 0.5"/>
     <use xlink:href="#me8553c48e4" x="100.961538" y="144.477813" style="fill: #0a3d62; fill-opacity: 0.7; stroke: #ffffff; stroke-opacity: 0.7; stroke-width: 0.5"/>
     <use xlink:href="#me8553c48e4" x="106.041579" y="149.527579" style="fill: #0a3d62; fill-opacity: 0.7; stroke: #ffffff; stroke-opacity: 0.7; stroke-width: 0.5"/>
     <use xlink:href="#me8553c48e4" x="107.170477" y="178.742196" style="fill: #0a3d62; fill-opacity: 0.7; stroke: #ffffff; stroke-opacity: 0.7; stroke-width: 0.5"/>
     <use xlink:href="#me8553c48e4" x="109.428273" y="207.806994" style="fill: #0a3d62; fill-opacity: 0.7; stroke: #ffffff; stroke-opacity: 0.7; stroke-width: 0.5"/>
     <use xlink:href="#me8553c48e4" x="117.706859" y="171.559719" style="fill: #0a3d62; fill-opacity: 0.7; stroke: #ffffff; stroke-opacity: 0.7; stroke-width: 0.5"/>
     <use xlink:href="#me8553c48e4" x="122.7869" y="143.385019" style="fill: #0a3d62; fill-opacity: 0.7; stroke: #ffffff; stroke-opacity: 0.7; stroke-width: 0.5"/>
     <use xlink:href="#me8553c48e4" x="131.253635" y="138.053241" style="fill: #0a3d62; fill-opacity: 0.7; stroke: #ffffff; stroke-opacity: 0.7; stroke-width: 0.5"/>
     <use xlink:href="#me8553c48e4" x="135.957377" y="155.326438" style="fill: #0a3d62; fill-opacity: 0.7; stroke: #ffffff; stroke-opacity: 0.7; stroke-width: 0.5"/>
     <use xlink:href="#me8553c48e4" x="145.55301" y="143.816849" style="fill: #0a3d62; fill-opacity: 0.7; stroke: #ffffff; stroke-opacity: 0.7; stroke-width: 0.5"/>
     <use xlink:href="#me8553c48e4" x="155.713092" y="156.710057" style="fill: #0a3d62; fill-opacity: 0.7; stroke: #ffffff; stroke-opacity: 0.7; stroke-width: 0.5"/>
     <use xlink:href="#me8553c48e4" x="167.190221" y="142.591862" style="fill: #0a3d62; fill-opacity: 0.7; stroke: #ffffff; stroke-opacity: 0.7; stroke-width: 0.5"/>
     <use xlink:href="#me8553c48e4" x="179.2318" y="160.508397" style="fill: #0a3d62; fill-opacity: 0.7; stroke: #ffffff; stroke-opacity: 0.7; stroke-width: 0.5"/>
     <use xlink:href="#me8553c48e4" x="186.757787" y="159.547796" style="fill: #0a3d62; fill-opacity: 0.7; stroke: #ffffff; stroke-opacity: 0.7; stroke-width: 0.5"/>
     <use xlink:href="#me8553c48e4" x="187.134086" y="114.25853" style="fill: #0a3d62; fill-opacity: 0.7; stroke: #ffffff; stroke-opacity: 0.7; stroke-width: 0.5"/>
     <use xlink:href="#me8553c48e4" x="192.590427" y="140.044946" style="fill: #0a3d62; fill-opacity: 0.7; stroke: #ffffff; stroke-opacity: 0.7; stroke-width: 0.5"/>
     <use xlink:href="#me8553c48e4" x="204.255706" y="111.993626" style="fill: #0a3d62; fill-opacity: 0.7; stroke: #ffffff; stroke-opacity: 0.7; stroke-width: 0.5"/>
     <use xlink:href="#me8553c48e4" x="213.851339" y="116.638001" style="fill: #0a3d62; fill-opacity: 0.7; stroke: #ffffff; stroke-opacity: 0.7; stroke-width: 0.5"/>
     <use xlink:href="#me8553c48e4" x="222.694373" y="118.26838" style="fill: #0a3d62; fill-opacity: 0.7; stroke: #ffffff; stroke-opacity: 0.7; stroke-width: 0.5"/>
     <use xlink:href="#me8553c48e4" x="230.596659" y="100.510475" style="fill: #0a3d62; fill-opacity: 0.7; stroke: #ffffff; stroke-opacity: 0.7; stroke-width: 0.5"/>
     <use xlink:href="#me8553c48e4" x="237.370047" y="134.2549" style="fill: #0a3d62; fill-opacity: 0.7; stroke: #ffffff; stroke-opacity: 0.7; stroke-width: 0.5"/>
     <use xlink:href="#me8553c48e4" x="229.279612" y="86.365842" style="fill: #0a3d62; fill-opacity: 0.7; stroke: #ffffff; stroke-opacity: 0.7; stroke-width: 0.5"/>
     <use xlink:href="#me8553c48e4" x="229.467761" y="114.108712" style="fill: #0a3d62; fill-opacity: 0.7; stroke: #ffffff; stroke-opacity: 0.7; stroke-width: 0.5"/>
     <use xlink:href="#me8553c48e4" x="238.122646" y="92.667034" style="fill: #0a3d62; fill-opacity: 0.7; stroke: #ffffff; stroke-opacity: 0.7; stroke-width: 0.5"/>
     <use xlink:href="#me8553c48e4" x="243.014537" y="86.030953" style="fill: #0a3d62; fill-opacity: 0.7; stroke: #ffffff; stroke-opacity: 0.7; stroke-width: 0.5"/>
     <use xlink:href="#me8553c48e4" x="248.094578" y="170.405235" style="fill: #0a3d62; fill-opacity: 0.7; stroke: #ffffff; stroke-opacity: 0.7; stroke-width: 0.5"/>
     <use xlink:href="#me8553c48e4" x="258.066511" y="118.074497" style="fill: #0a3d62; fill-opacity: 0.7; stroke: #ffffff; stroke-opacity: 0.7; stroke-width: 0.5"/>
     <use xlink:href="#me8553c48e4" x="267.097695" y="121.714206" style="fill: #0a3d62; fill-opacity: 0.7; stroke: #ffffff; stroke-opacity: 0.7; stroke-width: 0.5"/>
     <use xlink:href="#me8553c48e4" x="274.435532" y="147.386055" style="fill: #0a3d62; fill-opacity: 0.7; stroke: #ffffff; stroke-opacity: 0.7; stroke-width: 0.5"/>
     <use xlink:href="#me8553c48e4" x="282.149668" y="154.31296" style="fill: #0a3d62; fill-opacity: 0.7; stroke: #ffffff; stroke-opacity: 0.7; stroke-width: 0.5"/>
     <use xlink:href="#me8553c48e4" x="293.062349" y="136.960447" style="fill: #0a3d62; fill-opacity: 0.7; stroke: #ffffff; stroke-opacity: 0.7; stroke-width: 0.5"/>
     <use xlink:href="#me8553c48e4" x="300.964635" y="150.073976" style="fill: #0a3d62; fill-opacity: 0.7; stroke: #ffffff; stroke-opacity: 0.7; stroke-width: 0.5"/>
     <use xlink:href="#me8553c48e4" x="313.946962" y="96.579942" style="fill: #0a3d62; fill-opacity: 0.7; stroke: #ffffff; stroke-opacity: 0.7; stroke-width: 0.5"/>
     <use xlink:href="#me8553c48e4" x="332.761929" y="99.5675" style="fill: #0a3d62; fill-opacity: 0.7; stroke: #ffffff; stroke-opacity: 0.7; stroke-width: 0.5"/>
     <use xlink:href="#me8553c48e4" x="338.218269" y="84.664961" style="fill: #0a3d62; fill-opacity: 0.7; stroke: #ffffff; stroke-opacity: 0.7; stroke-width: 0.5"/>
     <use xlink:href="#me8553c48e4" x="352.329494" y="43.315041" style="fill: #0a3d62; fill-opacity: 0.7; stroke: #ffffff; stroke-opacity: 0.7; stroke-width: 0.5"/>
     <use xlink:href="#me8553c48e4" x="362.865876" y="87.264753" style="fill: #0a3d62; fill-opacity: 0.7; stroke: #ffffff; stroke-opacity: 0.7; stroke-width: 0.5"/>
     <use xlink:href="#me8553c48e4" x="371.70891" y="77.570612" style="fill: #0a3d62; fill-opacity: 0.7; stroke: #ffffff; stroke-opacity: 0.7; stroke-width: 0.5"/>
    </g>
   </g>
   <g id="matplotlib.axis_1">
    <g id="xtick_1">
     <g id="line2d_1">
      <path d="M 60.133061 281.009659 
L 60.133061 31.99625 
" clip-path="url(#pa5ce45421a)" style="fill: none; stroke: #d8d4c7; stroke-opacity: 0.7; stroke-width: 0.5; stroke-linecap: square"/>
     </g>
     <g id="line2d_2">
      <defs>
       <path id="m876864759d" d="M 0 0 
L 0 3.5 
" style="stroke: #5a6470; stroke-width: 0.8"/>
      </defs>
      <g>
       <use xlink:href="#m876864759d" x="60.133061" y="281.009659" style="fill: #5a6470; stroke: #5a6470; stroke-width: 0.8"/>
      </g>
     </g>
     <g id="text_1">
      <!-- 7.5 -->
      <g style="fill: #5a6470" transform="translate(52.181498 295.608097) scale(0.1 -0.1)">
       <defs>
        <path id="DejaVuSerif-37" d="M 3609 4347 
L 1784 0 
L 1319 0 
L 3059 4153 
L 903 4153 
L 903 3578 
L 538 3578 
L 538 4666 
L 3609 4666 
L 3609 4347 
z
" transform="scale(0.015625)"/>
        <path id="DejaVuSerif-2e" d="M 603 325 
Q 603 500 722 622 
Q 841 744 1019 744 
Q 1191 744 1312 622 
Q 1434 500 1434 325 
Q 1434 153 1312 31 
Q 1191 -91 1019 -91 
Q 841 -91 722 29 
Q 603 150 603 325 
z
" transform="scale(0.015625)"/>
        <path id="DejaVuSerif-35" d="M 3219 4666 
L 3219 4153 
L 1081 4153 
L 1081 2816 
Q 1244 2928 1461 2984 
Q 1678 3041 1947 3041 
Q 2703 3041 3140 2622 
Q 3578 2203 3578 1478 
Q 3578 738 3136 323 
Q 2694 -91 1894 -91 
Q 1572 -91 1234 -12 
Q 897 66 544 225 
L 544 1131 
L 897 1131 
Q 925 688 1179 453 
Q 1434 219 1894 219 
Q 2388 219 2653 544 
Q 2919 869 2919 1478 
Q 2919 2084 2655 2407 
Q 2391 2731 1894 2731 
Q 1613 2731 1398 2631 
Q 1184 2531 1019 2322 
L 750 2322 
L 750 4666 
L 3219 4666 
z
" transform="scale(0.015625)"/>
       </defs>
       <use xlink:href="#DejaVuSerif-37"/>
       <use xlink:href="#DejaVuSerif-2e" transform="translate(63.623047 0)"/>
       <use xlink:href="#DejaVuSerif-35" transform="translate(95.410156 0)"/>
      </g>
     </g>
    </g>
    <g id="xtick_2">
     <g id="line2d_3">
      <path d="M 107.170477 281.009659 
L 107.170477 31.99625 
" clip-path="url(#pa5ce45421a)" style="fill: none; stroke: #d8d4c7; stroke-opacity: 0.7; stroke-width: 0.5; stroke-linecap: square"/>
     </g>
     <g id="line2d_4">
      <g>
       <use xlink:href="#m876864759d" x="107.170477" y="281.009659" style="fill: #5a6470; stroke: #5a6470; stroke-width: 0.8"/>
      </g>
     </g>
     <g id="text_2">
      <!-- 10.0 -->
      <g style="fill: #5a6470" transform="translate(96.037665 295.608097) scale(0.1 -0.1)">
       <defs>
        <path id="DejaVuSerif-31" d="M 909 0 
L 909 331 
L 1722 331 
L 1722 4213 
L 781 3603 
L 781 4013 
L 1919 4750 
L 2350 4750 
L 2350 331 
L 3163 331 
L 3163 0 
L 909 0 
z
" transform="scale(0.015625)"/>
        <path id="DejaVuSerif-30" d="M 2034 219 
Q 2513 219 2750 744 
Q 2988 1269 2988 2328 
Q 2988 3391 2750 3916 
Q 2513 4441 2034 4441 
Q 1556 4441 1318 3916 
Q 1081 3391 1081 2328 
Q 1081 1269 1318 744 
Q 1556 219 2034 219 
z
M 2034 -91 
Q 1275 -91 848 546 
Q 422 1184 422 2328 
Q 422 3475 848 4112 
Q 1275 4750 2034 4750 
Q 2797 4750 3222 4112 
Q 3647 3475 3647 2328 
Q 3647 1184 3222 546 
Q 2797 -91 2034 -91 
z
" transform="scale(0.015625)"/>
       </defs>
       <use xlink:href="#DejaVuSerif-31"/>
       <use xlink:href="#DejaVuSerif-30" transform="translate(63.623047 0)"/>
       <use xlink:href="#DejaVuSerif-2e" transform="translate(127.246094 0)"/>
       <use xlink:href="#DejaVuSerif-30" transform="translate(159.033203 0)"/>
      </g>
     </g>
    </g>
    <g id="xtick_3">
     <g id="line2d_5">
      <path d="M 154.207894 281.009659 
L 154.207894 31.99625 
" clip-path="url(#pa5ce45421a)" style="fill: none; stroke: #d8d4c7; stroke-opacity: 0.7; stroke-width: 0.5; stroke-linecap: square"/>
     </g>
     <g id="line2d_6">
      <g>
       <use xlink:href="#m876864759d" x="154.207894" y="281.009659" style="fill: #5a6470; stroke: #5a6470; stroke-width: 0.8"/>
      </g>
     </g>
     <g id="text_3">
      <!-- 12.5 -->
      <g style="fill: #5a6470" transform="translate(143.075082 295.608097) scale(0.1 -0.1)">
       <defs>
        <path id="DejaVuSerif-32" d="M 819 3553 
L 469 3553 
L 469 4384 
Q 803 4563 1142 4656 
Q 1481 4750 1806 4750 
Q 2534 4750 2956 4397 
Q 3378 4044 3378 3438 
Q 3378 2753 2422 1800 
Q 2347 1728 2309 1691 
L 1131 513 
L 3078 513 
L 3078 1088 
L 3444 1088 
L 3444 0 
L 434 0 
L 434 341 
L 1850 1753 
Q 2319 2222 2519 2614 
Q 2719 3006 2719 3438 
Q 2719 3909 2473 4175 
Q 2228 4441 1797 4441 
Q 1350 4441 1106 4219 
Q 863 3997 819 3553 
z
" transform="scale(0.015625)"/>
       </defs>
       <use xlink:href="#DejaVuSerif-31"/>
       <use xlink:href="#DejaVuSerif-32" transform="translate(63.623047 0)"/>
       <use xlink:href="#DejaVuSerif-2e" transform="translate(127.246094 0)"/>
       <use xlink:href="#DejaVuSerif-35" transform="translate(159.033203 0)"/>
      </g>
     </g>
    </g>
    <g id="xtick_4">
     <g id="line2d_7">
      <path d="M 201.245311 281.009659 
L 201.245311 31.99625 
" clip-path="url(#pa5ce45421a)" style="fill: none; stroke: #d8d4c7; stroke-opacity: 0.7; stroke-width: 0.5; stroke-linecap: square"/>
     </g>
     <g id="line2d_8">
      <g>
       <use xlink:href="#m876864759d" x="201.245311" y="281.009659" style="fill: #5a6470; stroke: #5a6470; stroke-width: 0.8"/>
      </g>
     </g>
     <g id="text_4">
      <!-- 15.0 -->
      <g style="fill: #5a6470" transform="translate(190.112499 295.608097) scale(0.1 -0.1)">
       <use xlink:href="#DejaVuSerif-31"/>
       <use xlink:href="#DejaVuSerif-35" transform="translate(63.623047 0)"/>
       <use xlink:href="#DejaVuSerif-2e" transform="translate(127.246094 0)"/>
       <use xlink:href="#DejaVuSerif-30" transform="translate(159.033203 0)"/>
      </g>
     </g>
    </g>
    <g id="xtick_5">
     <g id="line2d_9">
      <path d="M 248.282728 281.009659 
L 248.282728 31.99625 
" clip-path="url(#pa5ce45421a)" style="fill: none; stroke: #d8d4c7; stroke-opacity: 0.7; stroke-width: 0.5; stroke-linecap: square"/>
     </g>
     <g id="line2d_10">
      <g>
       <use xlink:href="#m876864759d" x="248.282728" y="281.009659" style="fill: #5a6470; stroke: #5a6470; stroke-width: 0.8"/>
      </g>
     </g>
     <g id="text_5">
      <!-- 17.5 -->
      <g style="fill: #5a6470" transform="translate(237.149916 295.608097) scale(0.1 -0.1)">
       <use xlink:href="#DejaVuSerif-31"/>
       <use xlink:href="#DejaVuSerif-37" transform="translate(63.623047 0)"/>
       <use xlink:href="#DejaVuSerif-2e" transform="translate(127.246094 0)"/>
       <use xlink:href="#DejaVuSerif-35" transform="translate(159.033203 0)"/>
      </g>
     </g>
    </g>
    <g id="xtick_6">
     <g id="line2d_11">
      <path d="M 295.320145 281.009659 
L 295.320145 31.99625 
" clip-path="url(#pa5ce45421a)" style="fill: none; stroke: #d8d4c7; stroke-opacity: 0.7; stroke-width: 0.5; stroke-linecap: square"/>
     </g>
     <g id="line2d_12">
      <g>
       <use xlink:href="#m876864759d" x="295.320145" y="281.009659" style="fill: #5a6470; stroke: #5a6470; stroke-width: 0.8"/>
      </g>
     </g>
     <g id="text_6">
      <!-- 20.0 -->
      <g style="fill: #5a6470" transform="translate(284.187333 295.608097) scale(0.1 -0.1)">
       <use xlink:href="#DejaVuSerif-32"/>
       <use xlink:href="#DejaVuSerif-30" transform="translate(63.623047 0)"/>
       <use xlink:href="#DejaVuSerif-2e" transform="translate(127.246094 0)"/>
       <use xlink:href="#DejaVuSerif-30" transform="translate(159.033203 0)"/>
      </g>
     </g>
    </g>
    <g id="xtick_7">
     <g id="line2d_13">
      <path d="M 342.357562 281.009659 
L 342.357562 31.99625 
" clip-path="url(#pa5ce45421a)" style="fill: none; stroke: #d8d4c7; stroke-opacity: 0.7; stroke-width: 0.5; stroke-linecap: square"/>
     </g>
     <g id="line2d_14">
      <g>
       <use xlink:href="#m876864759d" x="342.357562" y="281.009659" style="fill: #5a6470; stroke: #5a6470; stroke-width: 0.8"/>
      </g>
     </g>
     <g id="text_7">
      <!-- 22.5 -->
      <g style="fill: #5a6470" transform="translate(331.224749 295.608097) scale(0.1 -0.1)">
       <use xlink:href="#DejaVuSerif-32"/>
       <use xlink:href="#DejaVuSerif-32" transform="translate(63.623047 0)"/>
       <use xlink:href="#DejaVuSerif-2e" transform="translate(127.246094 0)"/>
       <use xlink:href="#DejaVuSerif-35" transform="translate(159.033203 0)"/>
      </g>
     </g>
    </g>
    <g id="text_8">
     <!-- Real GDP (chained 2012$, trillions) -->
     <g style="fill: #1f2328" transform="translate(124.041051 309.286222) scale(0.1 -0.1)">
      <defs>
       <path id="DejaVuSerif-52" d="M 3066 2316 
Q 3284 2256 3442 2114 
Q 3600 1972 3725 1716 
L 4403 331 
L 4972 331 
L 4972 0 
L 3872 0 
L 3144 1484 
Q 2934 1916 2759 2042 
Q 2584 2169 2278 2169 
L 1581 2169 
L 1581 331 
L 2241 331 
L 2241 0 
L 353 0 
L 353 331 
L 947 331 
L 947 4331 
L 353 4331 
L 353 4666 
L 2719 4666 
Q 3400 4666 3770 4341 
Q 4141 4016 4141 3419 
Q 4141 2938 3870 2661 
Q 3600 2384 3066 2316 
z
M 1581 2503 
L 2503 2503 
Q 2975 2503 3200 2726 
Q 3425 2950 3425 3419 
Q 3425 3888 3200 4109 
Q 2975 4331 2503 4331 
L 1581 4331 
L 1581 2503 
z
" transform="scale(0.015625)"/>
       <path id="DejaVuSerif-65" d="M 3469 1600 
L 991 1600 
L 991 1575 
Q 991 903 1244 561 
Q 1497 219 1991 219 
Q 2369 219 2611 417 
Q 2853 616 2950 1006 
L 3413 1006 
Q 3275 459 2904 184 
Q 2534 -91 1931 -91 
Q 1203 -91 761 389 
Q 319 869 319 1663 
Q 319 2450 753 2931 
Q 1188 3413 1894 3413 
Q 2647 3413 3050 2948 
Q 3453 2484 3469 1600 
z
M 2791 1931 
Q 2772 2513 2545 2808 
Q 2319 3103 1894 3103 
Q 1497 3103 1269 2806 
Q 1041 2509 991 1931 
L 2791 1931 
z
" transform="scale(0.015625)"/>
       <path id="DejaVuSerif-61" d="M 2547 1044 
L 2547 1747 
L 1806 1747 
Q 1378 1747 1168 1562 
Q 959 1378 959 997 
Q 959 650 1171 447 
Q 1384 244 1747 244 
Q 2106 244 2326 466 
Q 2547 688 2547 1044 
z
M 3122 2075 
L 3122 331 
L 3634 331 
L 3634 0 
L 2547 0 
L 2547 359 
Q 2356 128 2106 18 
Q 1856 -91 1522 -91 
Q 969 -91 644 203 
Q 319 497 319 997 
Q 319 1513 691 1797 
Q 1063 2081 1741 2081 
L 2547 2081 
L 2547 2309 
Q 2547 2688 2317 2895 
Q 2088 3103 1672 3103 
Q 1328 3103 1125 2947 
Q 922 2791 872 2484 
L 575 2484 
L 575 3156 
Q 875 3284 1158 3348 
Q 1441 3413 1709 3413 
Q 2400 3413 2761 3070 
Q 3122 2728 3122 2075 
z
" transform="scale(0.015625)"/>
       <path id="DejaVuSerif-6c" d="M 1313 331 
L 1856 331 
L 1856 0 
L 184 0 
L 184 331 
L 738 331 
L 738 4531 
L 184 4531 
L 184 4863 
L 1313 4863 
L 1313 331 
z
" transform="scale(0.015625)"/>
       <path id="DejaVuSerif-20" transform="scale(0.015625)"/>
       <path id="DejaVuSerif-47" d="M 4097 3272 
Q 3988 3856 3641 4136 
Q 3294 4416 2675 4416 
Q 1869 4416 1472 3897 
Q 1075 3378 1075 2328 
Q 1075 1300 1484 772 
Q 1894 244 2688 244 
Q 3041 244 3362 331 
Q 3684 419 3975 594 
L 3975 1797 
L 3097 1797 
L 3097 2131 
L 4609 2131 
L 4609 391 
Q 4194 150 3714 29 
Q 3234 -91 2688 -91 
Q 1631 -91 995 570 
Q 359 1231 359 2328 
Q 359 3434 996 4092 
Q 1634 4750 2713 4750 
Q 3113 4750 3539 4658 
Q 3966 4566 4447 4378 
L 4447 3272 
L 4097 3272 
z
" transform="scale(0.015625)"/>
       <path id="DejaVuSerif-44" d="M 1581 331 
L 2163 331 
Q 3072 331 3558 850 
Q 4044 1369 4044 2338 
Q 4044 3306 3559 3818 
Q 3075 4331 2163 4331 
L 1581 4331 
L 1581 331 
z
M 353 0 
L 353 331 
L 947 331 
L 947 4331 
L 353 4331 
L 353 4666 
L 2209 4666 
Q 3416 4666 4089 4050 
Q 4763 3434 4763 2338 
Q 4763 1238 4088 619 
Q 3413 0 2209 0 
L 353 0 
z
" transform="scale(0.015625)"/>
       <path id="DejaVuSerif-50" d="M 1581 2375 
L 2406 2375 
Q 2872 2375 3115 2626 
Q 3359 2878 3359 3353 
Q 3359 3831 3115 4081 
Q 2872 4331 2406 4331 
L 1581 4331 
L 1581 2375 
z
M 353 0 
L 353 331 
L 947 331 
L 947 4331 
L 353 4331 
L 353 4666 
L 2559 4666 
Q 3259 4666 3668 4311 
Q 4078 3956 4078 3353 
Q 4078 2753 3668 2397 
Q 3259 2041 2559 2041 
L 1581 2041 
L 1581 331 
L 2303 331 
L 2303 0 
L 353 0 
z
" transform="scale(0.015625)"/>
       <path id="DejaVuSerif-28" d="M 2041 -997 
Q 1281 -656 893 83 
Q 506 822 506 1931 
Q 506 3044 893 3783 
Q 1281 4522 2041 4863 
L 2041 4556 
Q 1559 4225 1350 3623 
Q 1141 3022 1141 1931 
Q 1141 844 1350 242 
Q 1559 -359 2041 -691 
L 2041 -997 
z
" transform="scale(0.015625)"/>
       <path id="DejaVuSerif-63" d="M 3291 997 
Q 3169 466 2822 187 
Q 2475 -91 1925 -91 
Q 1200 -91 759 389 
Q 319 869 319 1663 
Q 319 2459 759 2936 
Q 1200 3413 1925 3413 
Q 2241 3413 2553 3339 
Q 2866 3266 3181 3116 
L 3181 2266 
L 2847 2266 
Q 2781 2703 2561 2903 
Q 2341 3103 1931 3103 
Q 1466 3103 1228 2742 
Q 991 2381 991 1663 
Q 991 944 1227 581 
Q 1463 219 1931 219 
Q 2303 219 2525 412 
Q 2747 606 2828 997 
L 3291 997 
z
" transform="scale(0.015625)"/>
       <path id="DejaVuSerif-68" d="M 263 0 
L 263 331 
L 781 331 
L 781 4531 
L 231 4531 
L 231 4863 
L 1356 4863 
L 1356 2731 
Q 1516 3069 1770 3241 
Q 2025 3413 2363 3413 
Q 2913 3413 3172 3097 
Q 3431 2781 3431 2113 
L 3431 331 
L 3944 331 
L 3944 0 
L 2356 0 
L 2356 331 
L 2853 331 
L 2853 1931 
Q 2853 2541 2704 2764 
Q 2556 2988 2175 2988 
Q 1775 2988 1565 2697 
Q 1356 2406 1356 1850 
L 1356 331 
L 1856 331 
L 1856 0 
L 263 0 
z
" transform="scale(0.015625)"/>
       <path id="DejaVuSerif-69" d="M 622 4353 
Q 622 4497 726 4603 
Q 831 4709 978 4709 
Q 1122 4709 1226 4603 
Q 1331 4497 1331 4353 
Q 1331 4206 1228 4103 
Q 1125 4000 978 4000 
Q 831 4000 726 4103 
Q 622 4206 622 4353 
z
M 1356 331 
L 1900 331 
L 1900 0 
L 231 0 
L 231 331 
L 781 331 
L 781 2988 
L 231 2988 
L 231 3322 
L 1356 3322 
L 1356 331 
z
" transform="scale(0.015625)"/>
       <path id="DejaVuSerif-6e" d="M 263 0 
L 263 331 
L 781 331 
L 781 2988 
L 231 2988 
L 231 3322 
L 1356 3322 
L 1356 2731 
Q 1516 3069 1770 3241 
Q 2025 3413 2363 3413 
Q 2913 3413 3172 3097 
Q 3431 2781 3431 2113 
L 3431 331 
L 3944 331 
L 3944 0 
L 2356 0 
L 2356 331 
L 2853 331 
L 2853 1931 
Q 2853 2541 2703 2767 
Q 2553 2994 2175 2994 
Q 1775 2994 1565 2701 
Q 1356 2409 1356 1850 
L 1356 331 
L 1856 331 
L 1856 0 
L 263 0 
z
" transform="scale(0.015625)"/>
       <path id="DejaVuSerif-64" d="M 3359 331 
L 3909 331 
L 3909 0 
L 2784 0 
L 2784 519 
Q 2616 206 2355 57 
Q 2094 -91 1709 -91 
Q 1097 -91 708 395 
Q 319 881 319 1663 
Q 319 2444 706 2928 
Q 1094 3413 1709 3413 
Q 2094 3413 2355 3264 
Q 2616 3116 2784 2803 
L 2784 4531 
L 2241 4531 
L 2241 4863 
L 3359 4863 
L 3359 331 
z
M 2784 1497 
L 2784 1825 
Q 2784 2422 2554 2737 
Q 2325 3053 1888 3053 
Q 1444 3053 1217 2703 
Q 991 2353 991 1663 
Q 991 975 1217 622 
Q 1444 269 1888 269 
Q 2325 269 2554 583 
Q 2784 897 2784 1497 
z
" transform="scale(0.015625)"/>
       <path id="DejaVuSerif-24" d="M 2156 213 
Q 2509 244 2695 416 
Q 2881 588 2881 884 
Q 2881 1153 2697 1340 
Q 2513 1528 2156 1625 
L 2156 213 
z
M 1844 3709 
Q 1522 3688 1344 3523 
Q 1166 3359 1166 3084 
Q 1166 2834 1330 2668 
Q 1494 2503 1844 2400 
L 1844 3709 
z
M 550 225 
L 550 1088 
L 888 1088 
Q 900 659 1137 440 
Q 1375 222 1844 213 
L 1844 1728 
Q 1125 1928 834 2189 
Q 544 2450 544 2881 
Q 544 3381 887 3684 
Q 1231 3988 1844 4025 
L 1844 4863 
L 2156 4863 
L 2156 4025 
Q 2472 4000 2764 3923 
Q 3056 3847 3334 3719 
L 3334 2900 
L 2994 2900 
Q 2956 3263 2740 3472 
Q 2525 3681 2156 3709 
L 2156 2297 
Q 2925 2088 3233 1817 
Q 3541 1547 3541 1094 
Q 3541 575 3178 262 
Q 2816 -50 2156 -97 
L 2156 -941 
L 1844 -941 
L 1844 -97 
Q 1544 -91 1222 -11 
Q 900 69 550 225 
z
" transform="scale(0.015625)"/>
       <path id="DejaVuSerif-2c" d="M 231 -622 
Q 525 -406 662 -114 
Q 800 178 800 594 
L 800 709 
L 1416 709 
Q 1391 175 1164 -208 
Q 938 -591 481 -872 
L 231 -622 
z
" transform="scale(0.015625)"/>
       <path id="DejaVuSerif-74" d="M 691 2988 
L 184 2988 
L 184 3322 
L 691 3322 
L 691 4353 
L 1269 4353 
L 1269 3322 
L 2350 3322 
L 2350 2988 
L 1269 2988 
L 1269 878 
Q 1269 456 1350 337 
Q 1431 219 1650 219 
Q 1875 219 1978 351 
Q 2081 484 2088 781 
L 2522 781 
Q 2497 328 2275 118 
Q 2053 -91 1600 -91 
Q 1103 -91 897 129 
Q 691 350 691 878 
L 691 2988 
z
" transform="scale(0.015625)"/>
       <path id="DejaVuSerif-72" d="M 3059 3328 
L 3059 2497 
L 2728 2497 
Q 2713 2744 2591 2866 
Q 2469 2988 2234 2988 
Q 1809 2988 1582 2694 
Q 1356 2400 1356 1850 
L 1356 331 
L 2022 331 
L 2022 0 
L 263 0 
L 263 331 
L 781 331 
L 781 2994 
L 231 2994 
L 231 3322 
L 1356 3322 
L 1356 2731 
Q 1525 3078 1790 3245 
Q 2056 3413 2438 3413 
Q 2578 3413 2733 3391 
Q 2888 3369 3059 3328 
z
" transform="scale(0.015625)"/>
       <path id="DejaVuSerif-6f" d="M 1925 219 
Q 2388 219 2623 584 
Q 2859 950 2859 1663 
Q 2859 2375 2623 2739 
Q 2388 3103 1925 3103 
Q 1463 3103 1227 2739 
Q 991 2375 991 1663 
Q 991 950 1228 584 
Q 1466 219 1925 219 
z
M 1925 -91 
Q 1200 -91 759 389 
Q 319 869 319 1663 
Q 319 2456 758 2934 
Q 1197 3413 1925 3413 
Q 2653 3413 3092 2934 
Q 3531 2456 3531 1663 
Q 3531 869 3092 389 
Q 2653 -91 1925 -91 
z
" transform="scale(0.015625)"/>
       <path id="DejaVuSerif-73" d="M 359 184 
L 359 959 
L 691 959 
Q 703 588 923 403 
Q 1144 219 1575 219 
Q 1963 219 2166 364 
Q 2369 509 2369 788 
Q 2369 1006 2220 1140 
Q 2072 1275 1594 1428 
L 1178 1569 
Q 750 1706 558 1912 
Q 366 2119 366 2438 
Q 366 2894 700 3153 
Q 1034 3413 1625 3413 
Q 1888 3413 2178 3344 
Q 2469 3275 2778 3144 
L 2778 2419 
L 2447 2419 
Q 2434 2741 2221 2922 
Q 2009 3103 1644 3103 
Q 1281 3103 1095 2975 
Q 909 2847 909 2591 
Q 909 2381 1050 2254 
Q 1191 2128 1613 1997 
L 2069 1856 
Q 2541 1709 2748 1489 
Q 2956 1269 2956 922 
Q 2956 450 2595 179 
Q 2234 -91 1600 -91 
Q 1278 -91 972 -22 
Q 666 47 359 184 
z
" transform="scale(0.015625)"/>
       <path id="DejaVuSerif-29" d="M 453 -997 
L 453 -691 
Q 934 -359 1145 242 
Q 1356 844 1356 1931 
Q 1356 3022 1145 3623 
Q 934 4225 453 4556 
L 453 4863 
Q 1216 4522 1603 3783 
Q 1991 3044 1991 1931 
Q 1991 822 1603 83 
Q 1216 -656 453 -997 
z
" transform="scale(0.015625)"/>
      </defs>
      <use xlink:href="#DejaVuSerif-52"/>
      <use xlink:href="#DejaVuSerif-65" transform="translate(75.292969 0)"/>
      <use xlink:href="#DejaVuSerif-61" transform="translate(134.472656 0)"/>
      <use xlink:href="#DejaVuSerif-6c" transform="translate(194.091797 0)"/>
      <use xlink:href="#DejaVuSerif-20" transform="translate(226.074219 0)"/>
      <use xlink:href="#DejaVuSerif-47" transform="translate(257.861328 0)"/>
      <use xlink:href="#DejaVuSerif-44" transform="translate(337.744141 0)"/>
      <use xlink:href="#DejaVuSerif-50" transform="translate(417.919922 0)"/>
      <use xlink:href="#DejaVuSerif-20" transform="translate(485.205078 0)"/>
      <use xlink:href="#DejaVuSerif-28" transform="translate(516.992188 0)"/>
      <use xlink:href="#DejaVuSerif-63" transform="translate(556.005859 0)"/>
      <use xlink:href="#DejaVuSerif-68" transform="translate(612.011719 0)"/>
      <use xlink:href="#DejaVuSerif-61" transform="translate(676.416016 0)"/>
      <use xlink:href="#DejaVuSerif-69" transform="translate(736.035156 0)"/>
      <use xlink:href="#DejaVuSerif-6e" transform="translate(768.017578 0)"/>
      <use xlink:href="#DejaVuSerif-65" transform="translate(832.421875 0)"/>
      <use xlink:href="#DejaVuSerif-64" transform="translate(891.601562 0)"/>
      <use xlink:href="#DejaVuSerif-20" transform="translate(955.615234 0)"/>
      <use xlink:href="#DejaVuSerif-32" transform="translate(987.402344 0)"/>
      <use xlink:href="#DejaVuSerif-30" transform="translate(1051.025391 0)"/>
      <use xlink:href="#DejaVuSerif-31" transform="translate(1114.648438 0)"/>
      <use xlink:href="#DejaVuSerif-32" transform="translate(1178.271484 0)"/>
      <use xlink:href="#DejaVuSerif-24" transform="translate(1241.894531 0)"/>
      <use xlink:href="#DejaVuSerif-2c" transform="translate(1305.517578 0)"/>
      <use xlink:href="#DejaVuSerif-20" transform="translate(1337.304688 0)"/>
      <use xlink:href="#DejaVuSerif-74" transform="translate(1369.091797 0)"/>
      <use xlink:href="#DejaVuSerif-72" transform="translate(1409.277344 0)"/>
      <use xlink:href="#DejaVuSerif-69" transform="translate(1457.080078 0)"/>
      <use xlink:href="#DejaVuSerif-6c" transform="translate(1489.0625 0)"/>
      <use xlink:href="#DejaVuSerif-6c" transform="translate(1521.044922 0)"/>
      <use xlink:href="#DejaVuSerif-69" transform="translate(1553.027344 0)"/>
      <use xlink:href="#DejaVuSerif-6f" transform="translate(1585.009766 0)"/>
      <use xlink:href="#DejaVuSerif-6e" transform="translate(1645.214844 0)"/>
      <use xlink:href="#DejaVuSerif-73" transform="translate(1709.619141 0)"/>
      <use xlink:href="#DejaVuSerif-29" transform="translate(1760.9375 0)"/>
     </g>
    </g>
   </g>
   <g id="matplotlib.axis_2">
    <g id="ytick_1">
     <g id="line2d_15">
      <path d="M 40.603125 267.047011 
L 387.475852 267.047011 
" clip-path="url(#pa5ce45421a)" style="fill: none; stroke: #d8d4c7; stroke-opacity: 0.7; stroke-width: 0.5; stroke-linecap: square"/>
     </g>
     <g id="line2d_16">
      <defs>
       <path id="m761749a626" d="M 0 0 
L -3.5 0 
" style="stroke: #5a6470; stroke-width: 0.8"/>
      </defs>
      <g>
       <use xlink:href="#m761749a626" x="40.603125" y="267.047011" style="fill: #5a6470; stroke: #5a6470; stroke-width: 0.8"/>
      </g>
     </g>
     <g id="text_9">
      <!-- 40 -->
      <g style="fill: #5a6470" transform="translate(20.878125 270.84623) scale(0.1 -0.1)">
       <defs>
        <path id="DejaVuSerif-34" d="M 2234 1581 
L 2234 4063 
L 641 1581 
L 2234 1581 
z
M 3609 0 
L 1484 0 
L 1484 331 
L 2234 331 
L 2234 1247 
L 197 1247 
L 197 1588 
L 2241 4750 
L 2859 4750 
L 2859 1581 
L 3750 1581 
L 3750 1247 
L 2859 1247 
L 2859 331 
L 3609 331 
L 3609 0 
z
" transform="scale(0.015625)"/>
       </defs>
       <use xlink:href="#DejaVuSerif-34"/>
       <use xlink:href="#DejaVuSerif-30" transform="translate(63.623047 0)"/>
      </g>
     </g>
    </g>
    <g id="ytick_2">
     <g id="line2d_17">
      <path d="M 40.603125 222.982732 
L 387.475852 222.982732 
" clip-path="url(#pa5ce45421a)" style="fill: none; stroke: #d8d4c7; stroke-opacity: 0.7; stroke-width: 0.5; stroke-linecap: square"/>
     </g>
     <g id="line2d_18">
      <g>
       <use xlink:href="#m761749a626" x="40.603125" y="222.982732" style="fill: #5a6470; stroke: #5a6470; stroke-width: 0.8"/>
      </g>
     </g>
     <g id="text_10">
      <!-- 45 -->
      <g style="fill: #5a6470" transform="translate(20.878125 226.781951) scale(0.1 -0.1)">
       <use xlink:href="#DejaVuSerif-34"/>
       <use xlink:href="#DejaVuSerif-35" transform="translate(63.623047 0)"/>
      </g>
     </g>
    </g>
    <g id="ytick_3">
     <g id="line2d_19">
      <path d="M 40.603125 178.918453 
L 387.475852 178.918453 
" clip-path="url(#pa5ce45421a)" style="fill: none; stroke: #d8d4c7; stroke-opacity: 0.7; stroke-width: 0.5; stroke-linecap: square"/>
     </g>
     <g id="line2d_20">
      <g>
       <use xlink:href="#m761749a626" x="40.603125" y="178.918453" style="fill: #5a6470; stroke: #5a6470; stroke-width: 0.8"/>
      </g>
     </g>
     <g id="text_11">
      <!-- 50 -->
      <g style="fill: #5a6470" transform="translate(20.878125 182.717672) scale(0.1 -0.1)">
       <use xlink:href="#DejaVuSerif-35"/>
       <use xlink:href="#DejaVuSerif-30" transform="translate(63.623047 0)"/>
      </g>
     </g>
    </g>
    <g id="ytick_4">
     <g id="line2d_21">
      <path d="M 40.603125 134.854174 
L 387.475852 134.854174 
" clip-path="url(#pa5ce45421a)" style="fill: none; stroke: #d8d4c7; stroke-opacity: 0.7; stroke-width: 0.5; stroke-linecap: square"/>
     </g>
     <g id="line2d_22">
      <g>
       <use xlink:href="#m761749a626" x="40.603125" y="134.854174" style="fill: #5a6470; stroke: #5a6470; stroke-width: 0.8"/>
      </g>
     </g>
     <g id="text_12">
      <!-- 55 -->
      <g style="fill: #5a6470" transform="translate(20.878125 138.653393) scale(0.1 -0.1)">
       <use xlink:href="#DejaVuSerif-35"/>
       <use xlink:href="#DejaVuSerif-35" transform="translate(63.623047 0)"/>
      </g>
     </g>
    </g>
    <g id="ytick_5">
     <g id="line2d_23">
      <path d="M 40.603125 90.789895 
L 387.475852 90.789895 
" clip-path="url(#pa5ce45421a)" style="fill: none; stroke: #d8d4c7; stroke-opacity: 0.7; stroke-width: 0.5; stroke-linecap: square"/>
     </g>
     <g id="line2d_24">
      <g>
       <use xlink:href="#m761749a626" x="40.603125" y="90.789895" style="fill: #5a6470; stroke: #5a6470; stroke-width: 0.8"/>
      </g>
     </g>
     <g id="text_13">
      <!-- 60 -->
      <g style="fill: #5a6470" transform="translate(20.878125 94.589114) scale(0.1 -0.1)">
       <defs>
        <path id="DejaVuSerif-36" d="M 2094 219 
Q 2534 219 2771 542 
Q 3009 866 3009 1472 
Q 3009 2078 2771 2401 
Q 2534 2725 2094 2725 
Q 1647 2725 1412 2412 
Q 1178 2100 1178 1509 
Q 1178 888 1415 553 
Q 1653 219 2094 219 
z
M 1075 2569 
Q 1288 2803 1556 2918 
Q 1825 3034 2163 3034 
Q 2859 3034 3264 2615 
Q 3669 2197 3669 1472 
Q 3669 763 3233 336 
Q 2797 -91 2069 -91 
Q 1278 -91 853 498 
Q 428 1088 428 2181 
Q 428 3406 931 4078 
Q 1434 4750 2350 4750 
Q 2597 4750 2869 4703 
Q 3141 4656 3425 4563 
L 3425 3794 
L 3072 3794 
Q 3034 4109 2831 4275 
Q 2628 4441 2284 4441 
Q 1678 4441 1381 3981 
Q 1084 3522 1075 2569 
z
" transform="scale(0.015625)"/>
       </defs>
       <use xlink:href="#DejaVuSerif-36"/>
       <use xlink:href="#DejaVuSerif-30" transform="translate(63.623047 0)"/>
      </g>
     </g>
    </g>
    <g id="ytick_6">
     <g id="line2d_25">
      <path d="M 40.603125 46.725617 
L 387.475852 46.725617 
" clip-path="url(#pa5ce45421a)" style="fill: none; stroke: #d8d4c7; stroke-opacity: 0.7; stroke-width: 0.5; stroke-linecap: square"/>
     </g>
     <g id="line2d_26">
      <g>
       <use xlink:href="#m761749a626" x="40.603125" y="46.725617" style="fill: #5a6470; stroke: #5a6470; stroke-width: 0.8"/>
      </g>
     </g>
     <g id="text_14">
      <!-- 65 -->
      <g style="fill: #5a6470" transform="translate(20.878125 50.524835) scale(0.1 -0.1)">
       <use xlink:href="#DejaVuSerif-36"/>
       <use xlink:href="#DejaVuSerif-35" transform="translate(63.623047 0)"/>
      </g>
     </g>
    </g>
    <g id="text_15">
     <!-- Skier visits (millions) -->
     <g style="fill: #1f2328" transform="translate(14.798438 210.084205) rotate(-90) scale(0.1 -0.1)">
      <defs>
       <path id="DejaVuSerif-53" d="M 594 225 
L 594 1288 
L 953 1284 
Q 969 753 1261 498 
Q 1553 244 2150 244 
Q 2706 244 2998 464 
Q 3291 684 3291 1106 
Q 3291 1444 3114 1625 
Q 2938 1806 2369 1978 
L 1753 2163 
Q 1084 2366 811 2669 
Q 538 2972 538 3500 
Q 538 4094 959 4422 
Q 1381 4750 2144 4750 
Q 2469 4750 2856 4679 
Q 3244 4609 3681 4475 
L 3681 3481 
L 3328 3481 
Q 3275 3975 2998 4195 
Q 2722 4416 2156 4416 
Q 1663 4416 1405 4214 
Q 1147 4013 1147 3628 
Q 1147 3294 1340 3103 
Q 1534 2913 2163 2725 
L 2741 2553 
Q 3375 2363 3645 2067 
Q 3916 1772 3916 1275 
Q 3916 597 3481 253 
Q 3047 -91 2188 -91 
Q 1803 -91 1404 -12 
Q 1006 66 594 225 
z
" transform="scale(0.015625)"/>
       <path id="DejaVuSerif-6b" d="M 1831 0 
L 219 0 
L 219 331 
L 738 331 
L 738 4531 
L 184 4531 
L 184 4863 
L 1313 4863 
L 1313 1697 
L 2713 2988 
L 2234 2988 
L 2234 3322 
L 3738 3322 
L 3738 2988 
L 3169 2988 
L 2181 2075 
L 3444 331 
L 3922 331 
L 3922 0 
L 2284 0 
L 2284 331 
L 2759 331 
L 1766 1697 
L 1313 1275 
L 1313 331 
L 1831 331 
L 1831 0 
z
" transform="scale(0.015625)"/>
       <path id="DejaVuSerif-76" d="M 1581 0 
L 359 2988 
L -19 2988 
L -19 3322 
L 1509 3322 
L 1509 2988 
L 978 2988 
L 1913 703 
L 2847 2988 
L 2350 2988 
L 2350 3322 
L 3597 3322 
L 3597 2988 
L 3225 2988 
L 2003 0 
L 1581 0 
z
" transform="scale(0.015625)"/>
       <path id="DejaVuSerif-6d" d="M 3316 2675 
Q 3481 3041 3739 3227 
Q 3997 3413 4341 3413 
Q 4863 3413 5119 3089 
Q 5375 2766 5375 2113 
L 5375 331 
L 5894 331 
L 5894 0 
L 4300 0 
L 4300 331 
L 4800 331 
L 4800 2047 
Q 4800 2556 4650 2772 
Q 4500 2988 4153 2988 
Q 3769 2988 3567 2697 
Q 3366 2406 3366 1850 
L 3366 331 
L 3866 331 
L 3866 0 
L 2291 0 
L 2291 331 
L 2791 331 
L 2791 2069 
Q 2791 2566 2641 2777 
Q 2491 2988 2144 2988 
Q 1759 2988 1557 2697 
Q 1356 2406 1356 1850 
L 1356 331 
L 1856 331 
L 1856 0 
L 263 0 
L 263 331 
L 781 331 
L 781 2994 
L 231 2994 
L 231 3322 
L 1356 3322 
L 1356 2731 
Q 1516 3063 1762 3238 
Q 2009 3413 2322 3413 
Q 2709 3413 2968 3220 
Q 3228 3028 3316 2675 
z
" transform="scale(0.015625)"/>
      </defs>
      <use xlink:href="#DejaVuSerif-53"/>
      <use xlink:href="#DejaVuSerif-6b" transform="translate(68.505859 0)"/>
      <use xlink:href="#DejaVuSerif-69" transform="translate(129.101562 0)"/>
      <use xlink:href="#DejaVuSerif-65" transform="translate(161.083984 0)"/>
      <use xlink:href="#DejaVuSerif-72" transform="translate(220.263672 0)"/>
      <use xlink:href="#DejaVuSerif-20" transform="translate(268.066406 0)"/>
      <use xlink:href="#DejaVuSerif-76" transform="translate(299.853516 0)"/>
      <use xlink:href="#DejaVuSerif-69" transform="translate(356.347656 0)"/>
      <use xlink:href="#DejaVuSerif-73" transform="translate(388.330078 0)"/>
      <use xlink:href="#DejaVuSerif-69" transform="translate(439.648438 0)"/>
      <use xlink:href="#DejaVuSerif-74" transform="translate(471.630859 0)"/>
      <use xlink:href="#DejaVuSerif-73" transform="translate(511.816406 0)"/>
      <use xlink:href="#DejaVuSerif-20" transform="translate(563.134766 0)"/>
      <use xlink:href="#DejaVuSerif-28" transform="translate(594.921875 0)"/>
      <use xlink:href="#DejaVuSerif-6d" transform="translate(633.935547 0)"/>
      <use xlink:href="#DejaVuSerif-69" transform="translate(728.759766 0)"/>
      <use xlink:href="#DejaVuSerif-6c" transform="translate(760.742188 0)"/>
      <use xlink:href="#DejaVuSerif-6c" transform="translate(792.724609 0)"/>
      <use xlink:href="#DejaVuSerif-69" transform="translate(824.707031 0)"/>
      <use xlink:href="#DejaVuSerif-6f" transform="translate(856.689453 0)"/>
      <use xlink:href="#DejaVuSerif-6e" transform="translate(916.894531 0)"/>
      <use xlink:href="#DejaVuSerif-73" transform="translate(981.298828 0)"/>
      <use xlink:href="#DejaVuSerif-29" transform="translate(1032.617188 0)"/>
     </g>
    </g>
   </g>
   <g id="line2d_27">
    <path d="M 56.370067 185.014537 
L 62.805554 182.85964 
L 69.24104 180.704744 
L 75.676527 178.549847 
L 82.112014 176.39495 
L 88.5475 174.240053 
L 94.982987 172.085157 
L 101.418473 169.93026 
L 107.85396 167.775363 
L 114.289446 165.620466 
L 120.724933 163.46557 
L 127.16042 161.310673 
L 133.595906 159.155776 
L 140.031393 157.00088 
L 146.466879 154.845983 
L 152.902366 152.691086 
L 159.337853 150.536189 
L 165.773339 148.381293 
L 172.208826 146.226396 
L 178.644312 144.071499 
L 185.079799 141.916602 
L 191.515286 139.761706 
L 197.950772 137.606809 
L 204.386259 135.451912 
L 210.821745 133.297016 
L 217.257232 131.142119 
L 223.692719 128.987222 
L 230.128205 126.832325 
L 236.563692 124.677429 
L 242.999178 122.522532 
L 249.434665 120.367635 
L 255.870151 118.212738 
L 262.305638 116.057842 
L 268.741125 113.902945 
L 275.176611 111.748048 
L 281.612098 109.593151 
L 288.047584 107.438255 
L 294.483071 105.283358 
L 300.918558 103.128461 
L 307.354044 100.973565 
L 313.789531 98.818668 
L 320.225017 96.663771 
L 326.660504 94.508874 
L 333.095991 92.353978 
L 339.531477 90.199081 
L 345.966964 88.044184 
L 352.40245 85.889287 
L 358.837937 83.734391 
L 365.273424 81.579494 
L 371.70891 79.424597 
" clip-path="url(#pa5ce45421a)" style="fill: none; stroke: #a8323e; stroke-opacity: 0.7; stroke-width: 1.5; stroke-linecap: square"/>
   </g>
   <g id="patch_3">
    <path d="M 40.603125 281.009659 
L 40.603125 31.99625 
" style="fill: none; stroke: #1f2328; stroke-width: 0.8; stroke-linejoin: miter; stroke-linecap: square"/>
   </g>
   <g id="patch_4">
    <path d="M 40.603125 281.009659 
L 387.475852 281.009659 
" style="fill: none; stroke: #1f2328; stroke-width: 0.8; stroke-linejoin: miter; stroke-linecap: square"/>
   </g>
   <g id="text_16">
    <!-- Visits vs Real GDP -->
    <g transform="translate(40.603125 14.798437) scale(0.1 -0.1)">
     <defs>
      <path id="DejaVuSerif-Bold-56" d="M 5056 4666 
L 5056 4288 
L 4666 4288 
L 2906 0 
L 2163 0 
L 403 4288 
L -38 4288 
L -38 4666 
L 2150 4666 
L 2150 4288 
L 1697 4288 
L 2956 1197 
L 4225 4288 
L 3669 4288 
L 3669 4666 
L 5056 4666 
z
" transform="scale(0.015625)"/>
      <path id="DejaVuSerif-Bold-69" d="M 588 4263 
Q 588 4516 763 4689 
Q 938 4863 1191 4863 
Q 1438 4863 1611 4689 
Q 1784 4516 1784 4263 
Q 1784 4016 1611 3842 
Q 1438 3669 1191 3669 
Q 938 3669 763 3841 
Q 588 4013 588 4263 
z
M 1797 378 
L 2272 378 
L 2272 0 
L 219 0 
L 219 378 
L 691 378 
L 691 2944 
L 219 2944 
L 219 3322 
L 1797 3322 
L 1797 378 
z
" transform="scale(0.015625)"/>
      <path id="DejaVuSerif-Bold-73" d="M 300 97 
L 300 1025 
L 653 1025 
Q 697 653 931 458 
Q 1166 263 1569 263 
Q 1906 263 2086 380 
Q 2266 497 2266 716 
Q 2266 916 2152 1025 
Q 2038 1134 1709 1216 
L 1253 1331 
Q 738 1459 506 1698 
Q 275 1938 275 2344 
Q 275 2884 650 3148 
Q 1025 3413 1806 3413 
Q 2100 3413 2433 3364 
Q 2766 3316 3169 3213 
L 3169 2375 
L 2816 2375 
Q 2788 2716 2573 2887 
Q 2359 3059 1959 3059 
Q 1622 3059 1448 2951 
Q 1275 2844 1275 2638 
Q 1275 2469 1375 2372 
Q 1475 2275 1734 2209 
L 2188 2094 
Q 2841 1928 3091 1684 
Q 3341 1441 3341 1006 
Q 3341 444 2939 176 
Q 2538 -91 1691 -91 
Q 1381 -91 1034 -44 
Q 688 3 300 97 
z
" transform="scale(0.015625)"/>
      <path id="DejaVuSerif-Bold-74" d="M 634 2944 
L 153 2944 
L 153 3322 
L 634 3322 
L 634 4353 
L 1741 4353 
L 1741 3322 
L 2663 3322 
L 2663 2944 
L 1741 2944 
L 1741 909 
Q 1741 475 1809 369 
Q 1878 263 2059 263 
Q 2259 263 2356 397 
Q 2453 531 2459 813 
L 2925 813 
Q 2897 313 2651 111 
Q 2406 -91 1806 -91 
Q 1122 -91 878 123 
Q 634 338 634 909 
L 634 2944 
z
" transform="scale(0.015625)"/>
      <path id="DejaVuSerif-Bold-20" transform="scale(0.015625)"/>
      <path id="DejaVuSerif-Bold-76" d="M 1428 0 
L 250 2944 
L -116 2944 
L -116 3322 
L 1791 3322 
L 1791 2944 
L 1388 2944 
L 2228 844 
L 3066 2944 
L 2631 2944 
L 2631 3322 
L 3878 3322 
L 3878 2944 
L 3494 2944 
L 2316 0 
L 1428 0 
z
" transform="scale(0.015625)"/>
      <path id="DejaVuSerif-Bold-52" d="M 3397 2278 
Q 3675 2238 3865 2094 
Q 4056 1950 4197 1678 
L 4878 378 
L 5356 378 
L 5356 0 
L 3822 0 
L 3078 1409 
Q 2863 1847 2711 1967 
Q 2559 2088 2291 2088 
L 2100 2088 
L 2100 378 
L 2700 378 
L 2700 0 
L 300 0 
L 300 378 
L 897 378 
L 897 4288 
L 300 4288 
L 300 4666 
L 2963 4666 
Q 3775 4666 4217 4339 
Q 4659 4013 4659 3413 
Q 4659 2925 4345 2642 
Q 4031 2359 3397 2278 
z
M 2100 2463 
L 2509 2463 
Q 2947 2463 3183 2700 
Q 3419 2938 3419 3378 
Q 3419 3819 3183 4053 
Q 2947 4288 2509 4288 
L 2100 4288 
L 2100 2463 
z
" transform="scale(0.015625)"/>
      <path id="DejaVuSerif-Bold-65" d="M 2566 1875 
Q 2566 2531 2444 2795 
Q 2322 3059 2028 3059 
Q 1744 3059 1620 2800 
Q 1497 2541 1497 1931 
L 1497 1875 
L 2566 1875 
z
M 3781 1503 
L 1497 1503 
L 1497 1478 
Q 1497 834 1690 548 
Q 1884 263 2316 263 
Q 2675 263 2897 453 
Q 3119 644 3181 1006 
L 3700 1006 
Q 3566 441 3166 175 
Q 2766 -91 2047 -91 
Q 1184 -91 723 364 
Q 263 819 263 1663 
Q 263 2488 734 2950 
Q 1206 3413 2047 3413 
Q 2872 3413 3312 2927 
Q 3753 2441 3781 1503 
z
" transform="scale(0.015625)"/>
      <path id="DejaVuSerif-Bold-61" d="M 3525 2041 
L 3525 378 
L 4000 378 
L 4000 0 
L 2419 0 
L 2419 422 
Q 2200 159 1931 34 
Q 1663 -91 1319 -91 
Q 809 -91 536 182 
Q 263 456 263 966 
Q 263 1525 655 1803 
Q 1047 2081 1838 2081 
L 2419 2081 
L 2419 2278 
Q 2419 2681 2228 2873 
Q 2038 3066 1638 3066 
Q 1306 3066 1126 2930 
Q 947 2794 872 2484 
L 519 2484 
L 519 3200 
Q 816 3306 1134 3359 
Q 1453 3413 1806 3413 
Q 2697 3413 3111 3081 
Q 3525 2750 3525 2041 
z
M 2419 1044 
L 2419 1709 
L 2003 1709 
Q 1694 1709 1528 1540 
Q 1363 1372 1363 1056 
Q 1363 741 1483 584 
Q 1603 428 1850 428 
Q 2106 428 2262 597 
Q 2419 766 2419 1044 
z
" transform="scale(0.015625)"/>
      <path id="DejaVuSerif-Bold-6c" d="M 1797 378 
L 2272 378 
L 2272 0 
L 219 0 
L 219 378 
L 691 378 
L 691 4488 
L 219 4488 
L 219 4863 
L 1797 4863 
L 1797 378 
z
" transform="scale(0.015625)"/>
      <path id="DejaVuSerif-Bold-47" d="M 4403 3200 
Q 4263 3819 3934 4095 
Q 3606 4372 3009 4372 
Q 2284 4372 1945 3880 
Q 1606 3388 1606 2328 
Q 1606 1278 1931 783 
Q 2256 288 2944 288 
Q 3206 288 3431 347 
Q 3656 406 3841 525 
L 3841 1806 
L 3278 1806 
L 3278 2181 
L 4959 2181 
L 4959 391 
Q 4434 147 3911 28 
Q 3388 -91 2841 -91 
Q 1641 -91 955 556 
Q 269 1203 269 2328 
Q 269 3456 955 4103 
Q 1641 4750 2841 4750 
Q 3341 4750 3825 4650 
Q 4309 4550 4800 4347 
L 4800 3200 
L 4403 3200 
z
" transform="scale(0.015625)"/>
      <path id="DejaVuSerif-Bold-44" d="M 2100 378 
L 2534 378 
Q 3266 378 3605 847 
Q 3944 1316 3944 2338 
Q 3944 3353 3606 3820 
Q 3269 4288 2534 4288 
L 2100 4288 
L 2100 378 
z
M 300 0 
L 300 378 
L 897 378 
L 897 4288 
L 300 4288 
L 300 4666 
L 2694 4666 
Q 3950 4666 4615 4066 
Q 5281 3466 5281 2338 
Q 5281 1203 4614 601 
Q 3947 0 2694 0 
L 300 0 
z
" transform="scale(0.015625)"/>
      <path id="DejaVuSerif-Bold-50" d="M 300 0 
L 300 378 
L 897 378 
L 897 4288 
L 300 4288 
L 300 4666 
L 2956 4666 
Q 3734 4666 4193 4295 
Q 4653 3925 4653 3303 
Q 4653 2678 4192 2304 
Q 3731 1931 2956 1931 
L 2100 1931 
L 2100 378 
L 2853 378 
L 2853 0 
L 300 0 
z
M 2100 2309 
L 2450 2309 
Q 2856 2309 3098 2579 
Q 3341 2850 3341 3303 
Q 3341 3753 3100 4020 
Q 2859 4288 2450 4288 
L 2100 4288 
L 2100 2309 
z
" transform="scale(0.015625)"/>
     </defs>
     <use xlink:href="#DejaVuSerif-Bold-56"/>
     <use xlink:href="#DejaVuSerif-Bold-69" transform="translate(75.837891 0)"/>
     <use xlink:href="#DejaVuSerif-Bold-73" transform="translate(113.826172 0)"/>
     <use xlink:href="#DejaVuSerif-Bold-69" transform="translate(170.125 0)"/>
     <use xlink:href="#DejaVuSerif-Bold-74" transform="translate(208.113281 0)"/>
     <use xlink:href="#DejaVuSerif-Bold-73" transform="translate(254.304688 0)"/>
     <use xlink:href="#DejaVuSerif-Bold-20" transform="translate(310.603516 0)"/>
     <use xlink:href="#DejaVuSerif-Bold-76" transform="translate(345.417969 0)"/>
     <use xlink:href="#DejaVuSerif-Bold-73" transform="translate(403.523438 0)"/>
     <use xlink:href="#DejaVuSerif-Bold-20" transform="translate(459.822266 0)"/>
     <use xlink:href="#DejaVuSerif-Bold-52" transform="translate(494.636719 0)"/>
     <use xlink:href="#DejaVuSerif-Bold-65" transform="translate(577.742188 0)"/>
     <use xlink:href="#DejaVuSerif-Bold-61" transform="translate(641.365234 0)"/>
     <use xlink:href="#DejaVuSerif-Bold-6c" transform="translate(706.160156 0)"/>
     <use xlink:href="#DejaVuSerif-Bold-20" transform="translate(744.148438 0)"/>
     <use xlink:href="#DejaVuSerif-Bold-47" transform="translate(778.962891 0)"/>
     <use xlink:href="#DejaVuSerif-Bold-44" transform="translate(864.363281 0)"/>
     <use xlink:href="#DejaVuSerif-Bold-50" transform="translate(951.082031 0)"/>
    </g>
    <!-- r = 0.765, p &lt; 0.001, n = 46 -->
    <g transform="translate(40.603125 25.99625) scale(0.1 -0.1)">
     <defs>
      <path id="DejaVuSerif-Bold-72" d="M 3438 3359 
L 3438 2369 
L 3084 2369 
Q 3066 2634 2941 2764 
Q 2816 2894 2578 2894 
Q 2216 2894 2006 2575 
Q 1797 2256 1797 1691 
L 1797 378 
L 2400 378 
L 2400 0 
L 219 0 
L 219 378 
L 691 378 
L 691 2944 
L 184 2944 
L 184 3322 
L 1797 3322 
L 1797 2731 
Q 1959 3078 2226 3245 
Q 2494 3413 2881 3413 
Q 2978 3413 3117 3398 
Q 3256 3384 3438 3359 
z
" transform="scale(0.015625)"/>
      <path id="DejaVuSerif-Bold-3d" d="M 678 1650 
L 4684 1650 
L 4684 941 
L 678 941 
L 678 1650 
z
M 678 3072 
L 4684 3072 
L 4684 2363 
L 678 2363 
L 678 3072 
z
" transform="scale(0.015625)"/>
      <path id="DejaVuSerif-Bold-30" d="M 2228 275 
Q 2603 275 2742 615 
Q 2881 956 2881 2328 
Q 2881 3691 2742 4037 
Q 2603 4384 2228 4384 
Q 1853 4384 1714 4043 
Q 1575 3703 1575 2328 
Q 1575 956 1714 615 
Q 1853 275 2228 275 
z
M 2228 -91 
Q 1294 -91 797 532 
Q 300 1156 300 2328 
Q 300 3500 797 4125 
Q 1294 4750 2228 4750 
Q 3159 4750 3656 4125 
Q 4153 3500 4153 2328 
Q 4153 1156 3656 532 
Q 3159 -91 2228 -91 
z
" transform="scale(0.015625)"/>
      <path id="DejaVuSerif-Bold-2e" d="M 519 506 
Q 519 750 694 925 
Q 869 1100 1113 1100 
Q 1359 1100 1534 925 
Q 1709 750 1709 506 
Q 1709 259 1534 84 
Q 1359 -91 1113 -91 
Q 869 -91 694 84 
Q 519 259 519 506 
z
" transform="scale(0.015625)"/>
      <path id="DejaVuSerif-Bold-37" d="M 3922 3872 
L 1997 0 
L 1363 0 
L 3238 3781 
L 934 3781 
L 934 3150 
L 506 3150 
L 506 4666 
L 3922 4666 
L 3922 3872 
z
" transform="scale(0.015625)"/>
      <path id="DejaVuSerif-Bold-36" d="M 1575 2766 
Q 1778 2928 2029 3009 
Q 2281 3091 2578 3091 
Q 3294 3091 3701 2672 
Q 4109 2253 4109 1522 
Q 4109 750 3650 329 
Q 3191 -91 2344 -91 
Q 1388 -91 895 486 
Q 403 1063 403 2181 
Q 403 3453 950 4101 
Q 1497 4750 2572 4750 
Q 2853 4750 3175 4703 
Q 3497 4656 3866 4563 
L 3866 3738 
L 3488 3738 
Q 3409 4056 3192 4220 
Q 2975 4384 2631 4384 
Q 2075 4384 1826 4003 
Q 1578 3622 1575 2766 
z
M 2272 275 
Q 2594 275 2731 548 
Q 2869 822 2869 1497 
Q 2869 2172 2731 2445 
Q 2594 2719 2272 2719 
Q 1950 2719 1814 2445 
Q 1678 2172 1678 1497 
Q 1678 822 1814 548 
Q 1950 275 2272 275 
z
" transform="scale(0.015625)"/>
      <path id="DejaVuSerif-Bold-35" d="M 3609 4666 
L 3609 3847 
L 1113 3847 
L 1113 2822 
Q 1319 2981 1572 3062 
Q 1825 3144 2106 3144 
Q 2969 3144 3469 2708 
Q 3969 2272 3969 1522 
Q 3969 759 3469 334 
Q 2969 -91 2069 -91 
Q 1688 -91 1311 -28 
Q 934 34 525 166 
L 525 1184 
L 900 1184 
Q 919 725 1139 500 
Q 1359 275 1791 275 
Q 2250 275 2472 583 
Q 2694 891 2694 1522 
Q 2694 2144 2476 2451 
Q 2259 2759 1819 2759 
Q 1581 2759 1395 2661 
Q 1209 2563 1050 2356 
L 738 2356 
L 738 4666 
L 3609 4666 
z
" transform="scale(0.015625)"/>
      <path id="DejaVuSerif-Bold-2c" d="M 84 -616 
Q 409 -353 562 -28 
Q 716 297 716 728 
L 716 997 
L 1606 997 
L 1606 972 
Q 1606 281 1317 -217 
Q 1028 -716 428 -1056 
L 84 -616 
z
" transform="scale(0.015625)"/>
      <path id="DejaVuSerif-Bold-70" d="M 1728 1825 
L 1728 1497 
Q 1728 916 1876 656 
Q 2025 397 2356 397 
Q 2697 397 2836 672 
Q 2975 947 2975 1663 
Q 2975 2378 2836 2651 
Q 2697 2925 2356 2925 
Q 2025 2925 1876 2665 
Q 1728 2406 1728 1825 
z
M 622 2944 
L 147 2944 
L 147 3322 
L 1728 3322 
L 1728 2900 
Q 1869 3159 2106 3286 
Q 2344 3413 2694 3413 
Q 3403 3413 3811 2945 
Q 4219 2478 4219 1663 
Q 4219 847 3811 378 
Q 3403 -91 2694 -91 
Q 2344 -91 2106 36 
Q 1869 163 1728 422 
L 1728 -953 
L 2241 -953 
L 2241 -1331 
L 147 -1331 
L 147 -953 
L 622 -953 
L 622 2944 
z
" transform="scale(0.015625)"/>
      <path id="DejaVuSerif-Bold-3c" d="M 4684 3059 
L 1625 2003 
L 4684 953 
L 4684 206 
L 678 1656 
L 678 2363 
L 4684 3809 
L 4684 3059 
z
" transform="scale(0.015625)"/>
      <path id="DejaVuSerif-Bold-31" d="M 878 0 
L 878 378 
L 1753 378 
L 1753 4153 
L 781 3578 
L 781 4044 
L 1953 4750 
L 2938 4750 
L 2938 378 
L 3816 378 
L 3816 0 
L 878 0 
z
" transform="scale(0.015625)"/>
      <path id="DejaVuSerif-Bold-6e" d="M 219 0 
L 219 378 
L 691 378 
L 691 2944 
L 219 2944 
L 219 3322 
L 1797 3322 
L 1797 2853 
Q 1997 3150 2253 3281 
Q 2509 3413 2900 3413 
Q 3459 3413 3745 3083 
Q 4031 2753 4031 2113 
L 4031 378 
L 4506 378 
L 4506 0 
L 2522 0 
L 2522 378 
L 2925 378 
L 2925 2144 
Q 2925 2566 2817 2730 
Q 2709 2894 2444 2894 
Q 2109 2894 1953 2648 
Q 1797 2403 1797 1869 
L 1797 378 
L 2203 378 
L 2203 0 
L 219 0 
z
" transform="scale(0.015625)"/>
      <path id="DejaVuSerif-Bold-34" d="M 4084 0 
L 1516 0 
L 1516 378 
L 2209 378 
L 2209 1228 
L 263 1228 
L 263 1588 
L 2216 4750 
L 3391 4750 
L 3391 1631 
L 4191 1631 
L 4191 1228 
L 3391 1228 
L 3391 378 
L 4084 378 
L 4084 0 
z
M 2209 1631 
L 2209 3897 
L 819 1631 
L 2209 1631 
z
" transform="scale(0.015625)"/>
     </defs>
     <use xlink:href="#DejaVuSerif-Bold-72"/>
     <use xlink:href="#DejaVuSerif-Bold-20" transform="translate(52.685547 0)"/>
     <use xlink:href="#DejaVuSerif-Bold-3d" transform="translate(87.5 0)"/>
     <use xlink:href="#DejaVuSerif-Bold-20" transform="translate(171.289062 0)"/>
     <use xlink:href="#DejaVuSerif-Bold-30" transform="translate(206.103516 0)"/>
     <use xlink:href="#DejaVuSerif-Bold-2e" transform="translate(275.683594 0)"/>
     <use xlink:href="#DejaVuSerif-Bold-37" transform="translate(310.498047 0)"/>
     <use xlink:href="#DejaVuSerif-Bold-36" transform="translate(380.078125 0)"/>
     <use xlink:href="#DejaVuSerif-Bold-35" transform="translate(449.658203 0)"/>
     <use xlink:href="#DejaVuSerif-Bold-2c" transform="translate(519.238281 0)"/>
     <use xlink:href="#DejaVuSerif-Bold-20" transform="translate(554.052734 0)"/>
     <use xlink:href="#DejaVuSerif-Bold-70" transform="translate(588.867188 0)"/>
     <use xlink:href="#DejaVuSerif-Bold-20" transform="translate(658.789062 0)"/>
     <use xlink:href="#DejaVuSerif-Bold-3c" transform="translate(693.603516 0)"/>
     <use xlink:href="#DejaVuSerif-Bold-20" transform="translate(777.392578 0)"/>
     <use xlink:href="#DejaVuSerif-Bold-30" transform="translate(812.207031 0)"/>
     <use xlink:href="#DejaVuSerif-Bold-2e" transform="translate(881.787109 0)"/>
     <use xlink:href="#DejaVuSerif-Bold-30" transform="translate(916.601562 0)"/>
     <use xlink:href="#DejaVuSerif-Bold-30" transform="translate(986.181641 0)"/>
     <use xlink:href="#DejaVuSerif-Bold-31" transform="translate(1055.761719 0)"/>
     <use xlink:href="#DejaVuSerif-Bold-2c" transform="translate(1125.341797 0)"/>
     <use xlink:href="#DejaVuSerif-Bold-20" transform="translate(1160.15625 0)"/>
     <use xlink:href="#DejaVuSerif-Bold-6e" transform="translate(1194.970703 0)"/>
     <use xlink:href="#DejaVuSerif-Bold-20" transform="translate(1267.675781 0)"/>
     <use xlink:href="#DejaVuSerif-Bold-3d" transform="translate(1302.490234 0)"/>
     <use xlink:href="#DejaVuSerif-Bold-20" transform="translate(1386.279297 0)"/>
     <use xlink:href="#DejaVuSerif-Bold-34" transform="translate(1421.09375 0)"/>
     <use xlink:href="#DejaVuSerif-Bold-36" transform="translate(1490.673828 0)"/>
    </g>
   </g>
  </g>
  <g id="axes_2">
   <g id="patch_5">
    <path d="M 431.203125 281.009659 
L 778.075852 281.009659 
L 778.075852 31.99625 
L 431.203125 31.99625 
z
" style="fill: #faf8f3"/>
   </g>
   <g id="PathCollection_2">
    <defs>
     <path id="m46b889299c" d="M 0 3.162278 
C 0.838646 3.162278 1.643056 2.82908 2.236068 2.236068 
C 2.82908 1.643056 3.162278 0.838646 3.162278 0 
C 3.162278 -0.838646 2.82908 -1.643056 2.236068 -2.236068 
C 1.643056 -2.82908 0.838646 -3.162278 0 -3.162278 
C -0.838646 -3.162278 -1.643056 -2.82908 -2.236068 -2.236068 
C -2.82908 -1.643056 -3.162278 -0.838646 -3.162278 0 
C -3.162278 0.838646 -2.82908 1.643056 -2.236068 2.236068 
C -1.643056 2.82908 -0.838646 3.162278 0 3.162278 
z
" style="stroke: #ffffff; stroke-opacity: 0.7; stroke-width: 0.5"/>
    </defs>
    <g clip-path="url(#pd9089790ee)">
     <use xlink:href="#m46b889299c" x="446.970067" y="177.182321" style="fill: #2a5d3e; fill-opacity: 0.7; stroke: #ffffff; stroke-opacity: 0.7; stroke-width: 0.5"/>
     <use xlink:href="#m46b889299c" x="449.22393" y="194.781594" style="fill: #2a5d3e; fill-opacity: 0.7; stroke: #ffffff; stroke-opacity: 0.7; stroke-width: 0.5"/>
     <use xlink:href="#m46b889299c" x="450.967485" y="269.690868" style="fill: #2a5d3e; fill-opacity: 0.7; stroke: #ffffff; stroke-opacity: 0.7; stroke-width: 0.5"/>
     <use xlink:href="#m46b889299c" x="454.295122" y="172.590823" style="fill: #2a5d3e; fill-opacity: 0.7; stroke: #ffffff; stroke-opacity: 0.7; stroke-width: 0.5"/>
     <use xlink:href="#m46b889299c" x="466.76579" y="206.582008" style="fill: #2a5d3e; fill-opacity: 0.7; stroke: #ffffff; stroke-opacity: 0.7; stroke-width: 0.5"/>
     <use xlink:href="#m46b889299c" x="478.672991" y="173.366354" style="fill: #2a5d3e; fill-opacity: 0.7; stroke: #ffffff; stroke-opacity: 0.7; stroke-width: 0.5"/>
     <use xlink:href="#m46b889299c" x="482.97872" y="166.985846" style="fill: #2a5d3e; fill-opacity: 0.7; stroke: #ffffff; stroke-opacity: 0.7; stroke-width: 0.5"/>
     <use xlink:href="#m46b889299c" x="488.305067" y="161.988957" style="fill: #2a5d3e; fill-opacity: 0.7; stroke: #ffffff; stroke-opacity: 0.7; stroke-width: 0.5"/>
     <use xlink:href="#m46b889299c" x="496.108536" y="145.879057" style="fill: #2a5d3e; fill-opacity: 0.7; stroke: #ffffff; stroke-opacity: 0.7; stroke-width: 0.5"/>
     <use xlink:href="#m46b889299c" x="506.123343" y="144.477813" style="fill: #2a5d3e; fill-opacity: 0.7; stroke: #ffffff; stroke-opacity: 0.7; stroke-width: 0.5"/>
     <use xlink:href="#m46b889299c" x="509.132038" y="149.527579" style="fill: #2a5d3e; fill-opacity: 0.7; stroke: #ffffff; stroke-opacity: 0.7; stroke-width: 0.5"/>
     <use xlink:href="#m46b889299c" x="508.642992" y="178.742196" style="fill: #2a5d3e; fill-opacity: 0.7; stroke: #ffffff; stroke-opacity: 0.7; stroke-width: 0.5"/>
     <use xlink:href="#m46b889299c" x="512.11947" y="207.806994" style="fill: #2a5d3e; fill-opacity: 0.7; stroke: #ffffff; stroke-opacity: 0.7; stroke-width: 0.5"/>
     <use xlink:href="#m46b889299c" x="525.05792" y="171.559719" style="fill: #2a5d3e; fill-opacity: 0.7; stroke: #ffffff; stroke-opacity: 0.7; stroke-width: 0.5"/>
     <use xlink:href="#m46b889299c" x="525.568229" y="143.385019" style="fill: #2a5d3e; fill-opacity: 0.7; stroke: #ffffff; stroke-opacity: 0.7; stroke-width: 0.5"/>
     <use xlink:href="#m46b889299c" x="527.014103" y="138.053241" style="fill: #2a5d3e; fill-opacity: 0.7; stroke: #ffffff; stroke-opacity: 0.7; stroke-width: 0.5"/>
     <use xlink:href="#m46b889299c" x="531.213518" y="155.326438" style="fill: #2a5d3e; fill-opacity: 0.7; stroke: #ffffff; stroke-opacity: 0.7; stroke-width: 0.5"/>
     <use xlink:href="#m46b889299c" x="538.007002" y="143.816849" style="fill: #2a5d3e; fill-opacity: 0.7; stroke: #ffffff; stroke-opacity: 0.7; stroke-width: 0.5"/>
     <use xlink:href="#m46b889299c" x="549.96736" y="156.710057" style="fill: #2a5d3e; fill-opacity: 0.7; stroke: #ffffff; stroke-opacity: 0.7; stroke-width: 0.5"/>
     <use xlink:href="#m46b889299c" x="563.160965" y="142.591862" style="fill: #2a5d3e; fill-opacity: 0.7; stroke: #ffffff; stroke-opacity: 0.7; stroke-width: 0.5"/>
     <use xlink:href="#m46b889299c" x="572.101997" y="160.508397" style="fill: #2a5d3e; fill-opacity: 0.7; stroke: #ffffff; stroke-opacity: 0.7; stroke-width: 0.5"/>
     <use xlink:href="#m46b889299c" x="584.381299" y="159.547796" style="fill: #2a5d3e; fill-opacity: 0.7; stroke: #ffffff; stroke-opacity: 0.7; stroke-width: 0.5"/>
     <use xlink:href="#m46b889299c" x="585.678333" y="114.25853" style="fill: #2a5d3e; fill-opacity: 0.7; stroke: #ffffff; stroke-opacity: 0.7; stroke-width: 0.5"/>
     <use xlink:href="#m46b889299c" x="597.617429" y="140.044946" style="fill: #2a5d3e; fill-opacity: 0.7; stroke: #ffffff; stroke-opacity: 0.7; stroke-width: 0.5"/>
     <use xlink:href="#m46b889299c" x="606.313939" y="111.993626" style="fill: #2a5d3e; fill-opacity: 0.7; stroke: #ffffff; stroke-opacity: 0.7; stroke-width: 0.5"/>
     <use xlink:href="#m46b889299c" x="624.355475" y="116.638001" style="fill: #2a5d3e; fill-opacity: 0.7; stroke: #ffffff; stroke-opacity: 0.7; stroke-width: 0.5"/>
     <use xlink:href="#m46b889299c" x="616.031066" y="118.26838" style="fill: #2a5d3e; fill-opacity: 0.7; stroke: #ffffff; stroke-opacity: 0.7; stroke-width: 0.5"/>
     <use xlink:href="#m46b889299c" x="627.087753" y="100.510475" style="fill: #2a5d3e; fill-opacity: 0.7; stroke: #ffffff; stroke-opacity: 0.7; stroke-width: 0.5"/>
     <use xlink:href="#m46b889299c" x="628.735625" y="134.2549" style="fill: #2a5d3e; fill-opacity: 0.7; stroke: #ffffff; stroke-opacity: 0.7; stroke-width: 0.5"/>
     <use xlink:href="#m46b889299c" x="630.744965" y="86.365842" style="fill: #2a5d3e; fill-opacity: 0.7; stroke: #ffffff; stroke-opacity: 0.7; stroke-width: 0.5"/>
     <use xlink:href="#m46b889299c" x="626.758179" y="114.108712" style="fill: #2a5d3e; fill-opacity: 0.7; stroke: #ffffff; stroke-opacity: 0.7; stroke-width: 0.5"/>
     <use xlink:href="#m46b889299c" x="637.006877" y="92.667034" style="fill: #2a5d3e; fill-opacity: 0.7; stroke: #ffffff; stroke-opacity: 0.7; stroke-width: 0.5"/>
     <use xlink:href="#m46b889299c" x="641.036189" y="86.030953" style="fill: #2a5d3e; fill-opacity: 0.7; stroke: #ffffff; stroke-opacity: 0.7; stroke-width: 0.5"/>
     <use xlink:href="#m46b889299c" x="662.724306" y="170.405235" style="fill: #2a5d3e; fill-opacity: 0.7; stroke: #ffffff; stroke-opacity: 0.7; stroke-width: 0.5"/>
     <use xlink:href="#m46b889299c" x="638.431489" y="118.074497" style="fill: #2a5d3e; fill-opacity: 0.7; stroke: #ffffff; stroke-opacity: 0.7; stroke-width: 0.5"/>
     <use xlink:href="#m46b889299c" x="658.184685" y="121.714206" style="fill: #2a5d3e; fill-opacity: 0.7; stroke: #ffffff; stroke-opacity: 0.7; stroke-width: 0.5"/>
     <use xlink:href="#m46b889299c" x="665.881841" y="147.386055" style="fill: #2a5d3e; fill-opacity: 0.7; stroke: #ffffff; stroke-opacity: 0.7; stroke-width: 0.5"/>
     <use xlink:href="#m46b889299c" x="670.719141" y="154.31296" style="fill: #2a5d3e; fill-opacity: 0.7; stroke: #ffffff; stroke-opacity: 0.7; stroke-width: 0.5"/>
     <use xlink:href="#m46b889299c" x="683.413069" y="136.960447" style="fill: #2a5d3e; fill-opacity: 0.7; stroke: #ffffff; stroke-opacity: 0.7; stroke-width: 0.5"/>
     <use xlink:href="#m46b889299c" x="703.634048" y="150.073976" style="fill: #2a5d3e; fill-opacity: 0.7; stroke: #ffffff; stroke-opacity: 0.7; stroke-width: 0.5"/>
     <use xlink:href="#m46b889299c" x="706.780952" y="96.579942" style="fill: #2a5d3e; fill-opacity: 0.7; stroke: #ffffff; stroke-opacity: 0.7; stroke-width: 0.5"/>
     <use xlink:href="#m46b889299c" x="733.455209" y="99.5675" style="fill: #2a5d3e; fill-opacity: 0.7; stroke: #ffffff; stroke-opacity: 0.7; stroke-width: 0.5"/>
     <use xlink:href="#m46b889299c" x="728.724223" y="84.664961" style="fill: #2a5d3e; fill-opacity: 0.7; stroke: #ffffff; stroke-opacity: 0.7; stroke-width: 0.5"/>
     <use xlink:href="#m46b889299c" x="752.411049" y="43.315041" style="fill: #2a5d3e; fill-opacity: 0.7; stroke: #ffffff; stroke-opacity: 0.7; stroke-width: 0.5"/>
     <use xlink:href="#m46b889299c" x="760.097573" y="87.264753" style="fill: #2a5d3e; fill-opacity: 0.7; stroke: #ffffff; stroke-opacity: 0.7; stroke-width: 0.5"/>
     <use xlink:href="#m46b889299c" x="762.30891" y="77.570612" style="fill: #2a5d3e; fill-opacity: 0.7; stroke: #ffffff; stroke-opacity: 0.7; stroke-width: 0.5"/>
    </g>
   </g>
   <g id="matplotlib.axis_3">
    <g id="xtick_8">
     <g id="line2d_28">
      <path d="M 469.338596 281.009659 
L 469.338596 31.99625 
" clip-path="url(#pd9089790ee)" style="fill: none; stroke: #d8d4c7; stroke-opacity: 0.7; stroke-width: 0.5; stroke-linecap: square"/>
     </g>
     <g id="line2d_29">
      <g>
       <use xlink:href="#m876864759d" x="469.338596" y="281.009659" style="fill: #5a6470; stroke: #5a6470; stroke-width: 0.8"/>
      </g>
     </g>
     <g id="text_17">
      <!-- 25 -->
      <g style="fill: #5a6470" transform="translate(462.976096 295.608097) scale(0.1 -0.1)">
       <use xlink:href="#DejaVuSerif-32"/>
       <use xlink:href="#DejaVuSerif-35" transform="translate(63.623047 0)"/>
      </g>
     </g>
    </g>
    <g id="xtick_9">
     <g id="line2d_30">
      <path d="M 522.495745 281.009659 
L 522.495745 31.99625 
" clip-path="url(#pd9089790ee)" style="fill: none; stroke: #d8d4c7; stroke-opacity: 0.7; stroke-width: 0.5; stroke-linecap: square"/>
     </g>
     <g id="line2d_31">
      <g>
       <use xlink:href="#m876864759d" x="522.495745" y="281.009659" style="fill: #5a6470; stroke: #5a6470; stroke-width: 0.8"/>
      </g>
     </g>
     <g id="text_18">
      <!-- 30 -->
      <g style="fill: #5a6470" transform="translate(516.133245 295.608097) scale(0.1 -0.1)">
       <defs>
        <path id="DejaVuSerif-33" d="M 622 4469 
Q 988 4606 1323 4678 
Q 1659 4750 1953 4750 
Q 2638 4750 3022 4454 
Q 3406 4159 3406 3634 
Q 3406 3213 3140 2930 
Q 2875 2647 2388 2547 
Q 2963 2466 3280 2130 
Q 3597 1794 3597 1259 
Q 3597 606 3158 257 
Q 2719 -91 1894 -91 
Q 1528 -91 1179 -12 
Q 831 66 488 225 
L 488 1131 
L 838 1131 
Q 869 681 1141 450 
Q 1413 219 1906 219 
Q 2384 219 2661 495 
Q 2938 772 2938 1253 
Q 2938 1803 2653 2086 
Q 2369 2369 1819 2369 
L 1522 2369 
L 1522 2688 
L 1678 2688 
Q 2225 2688 2498 2914 
Q 2772 3141 2772 3597 
Q 2772 4006 2547 4223 
Q 2322 4441 1900 4441 
Q 1478 4441 1245 4241 
Q 1013 4041 972 3647 
L 622 3647 
L 622 4469 
z
" transform="scale(0.015625)"/>
       </defs>
       <use xlink:href="#DejaVuSerif-33"/>
       <use xlink:href="#DejaVuSerif-30" transform="translate(63.623047 0)"/>
      </g>
     </g>
    </g>
    <g id="xtick_10">
     <g id="line2d_32">
      <path d="M 575.652895 281.009659 
L 575.652895 31.99625 
" clip-path="url(#pd9089790ee)" style="fill: none; stroke: #d8d4c7; stroke-opacity: 0.7; stroke-width: 0.5; stroke-linecap: square"/>
     </g>
     <g id="line2d_33">
      <g>
       <use xlink:href="#m876864759d" x="575.652895" y="281.009659" style="fill: #5a6470; stroke: #5a6470; stroke-width: 0.8"/>
      </g>
     </g>
     <g id="text_19">
      <!-- 35 -->
      <g style="fill: #5a6470" transform="translate(569.290395 295.608097) scale(0.1 -0.1)">
       <use xlink:href="#DejaVuSerif-33"/>
       <use xlink:href="#DejaVuSerif-35" transform="translate(63.623047 0)"/>
      </g>
     </g>
    </g>
    <g id="xtick_11">
     <g id="line2d_34">
      <path d="M 628.810045 281.009659 
L 628.810045 31.99625 
" clip-path="url(#pd9089790ee)" style="fill: none; stroke: #d8d4c7; stroke-opacity: 0.7; stroke-width: 0.5; stroke-linecap: square"/>
     </g>
     <g id="line2d_35">
      <g>
       <use xlink:href="#m876864759d" x="628.810045" y="281.009659" style="fill: #5a6470; stroke: #5a6470; stroke-width: 0.8"/>
      </g>
     </g>
     <g id="text_20">
      <!-- 40 -->
      <g style="fill: #5a6470" transform="translate(622.447545 295.608097) scale(0.1 -0.1)">
       <use xlink:href="#DejaVuSerif-34"/>
       <use xlink:href="#DejaVuSerif-30" transform="translate(63.623047 0)"/>
      </g>
     </g>
    </g>
    <g id="xtick_12">
     <g id="line2d_36">
      <path d="M 681.967194 281.009659 
L 681.967194 31.99625 
" clip-path="url(#pd9089790ee)" style="fill: none; stroke: #d8d4c7; stroke-opacity: 0.7; stroke-width: 0.5; stroke-linecap: square"/>
     </g>
     <g id="line2d_37">
      <g>
       <use xlink:href="#m876864759d" x="681.967194" y="281.009659" style="fill: #5a6470; stroke: #5a6470; stroke-width: 0.8"/>
      </g>
     </g>
     <g id="text_21">
      <!-- 45 -->
      <g style="fill: #5a6470" transform="translate(675.604694 295.608097) scale(0.1 -0.1)">
       <use xlink:href="#DejaVuSerif-34"/>
       <use xlink:href="#DejaVuSerif-35" transform="translate(63.623047 0)"/>
      </g>
     </g>
    </g>
    <g id="xtick_13">
     <g id="line2d_38">
      <path d="M 735.124344 281.009659 
L 735.124344 31.99625 
" clip-path="url(#pd9089790ee)" style="fill: none; stroke: #d8d4c7; stroke-opacity: 0.7; stroke-width: 0.5; stroke-linecap: square"/>
     </g>
     <g id="line2d_39">
      <g>
       <use xlink:href="#m876864759d" x="735.124344" y="281.009659" style="fill: #5a6470; stroke: #5a6470; stroke-width: 0.8"/>
      </g>
     </g>
     <g id="text_22">
      <!-- 50 -->
      <g style="fill: #5a6470" transform="translate(728.761844 295.608097) scale(0.1 -0.1)">
       <use xlink:href="#DejaVuSerif-35"/>
       <use xlink:href="#DejaVuSerif-30" transform="translate(63.623047 0)"/>
      </g>
     </g>
    </g>
    <g id="text_23">
     <!-- Real disposable income/capita (chained 2017$, thousands) -->
     <g style="fill: #1f2328" transform="translate(455.548082 309.286222) scale(0.1 -0.1)">
      <defs>
       <path id="DejaVuSerif-70" d="M 1313 1825 
L 1313 1497 
Q 1313 897 1542 583 
Q 1772 269 2209 269 
Q 2650 269 2876 622 
Q 3103 975 3103 1663 
Q 3103 2353 2876 2703 
Q 2650 3053 2209 3053 
Q 1772 3053 1542 2737 
Q 1313 2422 1313 1825 
z
M 738 2988 
L 184 2988 
L 184 3322 
L 1313 3322 
L 1313 2803 
Q 1481 3116 1742 3264 
Q 2003 3413 2388 3413 
Q 3000 3413 3387 2928 
Q 3775 2444 3775 1663 
Q 3775 881 3387 395 
Q 3000 -91 2388 -91 
Q 2003 -91 1742 57 
Q 1481 206 1313 519 
L 1313 -997 
L 1856 -997 
L 1856 -1331 
L 184 -1331 
L 184 -997 
L 738 -997 
L 738 2988 
z
" transform="scale(0.015625)"/>
       <path id="DejaVuSerif-62" d="M 738 331 
L 738 4531 
L 184 4531 
L 184 4863 
L 1313 4863 
L 1313 2803 
Q 1481 3116 1742 3264 
Q 2003 3413 2388 3413 
Q 3000 3413 3387 2928 
Q 3775 2444 3775 1663 
Q 3775 881 3387 395 
Q 3000 -91 2388 -91 
Q 2003 -91 1742 57 
Q 1481 206 1313 519 
L 1313 0 
L 184 0 
L 184 331 
L 738 331 
z
M 1313 1497 
Q 1313 897 1542 583 
Q 1772 269 2209 269 
Q 2650 269 2876 622 
Q 3103 975 3103 1663 
Q 3103 2353 2876 2703 
Q 2650 3053 2209 3053 
Q 1772 3053 1542 2737 
Q 1313 2422 1313 1825 
L 1313 1497 
z
" transform="scale(0.015625)"/>
       <path id="DejaVuSerif-2f" d="M 1656 4666 
L 2156 4666 
L 500 -594 
L 0 -594 
L 1656 4666 
z
" transform="scale(0.015625)"/>
       <path id="DejaVuSerif-75" d="M 2266 3322 
L 3341 3322 
L 3341 331 
L 3884 331 
L 3884 0 
L 2766 0 
L 2766 588 
Q 2606 256 2353 82 
Q 2100 -91 1766 -91 
Q 1213 -91 952 223 
Q 691 538 691 1209 
L 691 2988 
L 172 2988 
L 172 3322 
L 1269 3322 
L 1269 1388 
Q 1269 781 1417 556 
Q 1566 331 1947 331 
Q 2347 331 2556 625 
Q 2766 919 2766 1478 
L 2766 2988 
L 2266 2988 
L 2266 3322 
z
" transform="scale(0.015625)"/>
      </defs>
      <use xlink:href="#DejaVuSerif-52"/>
      <use xlink:href="#DejaVuSerif-65" transform="translate(75.292969 0)"/>
      <use xlink:href="#DejaVuSerif-61" transform="translate(134.472656 0)"/>
      <use xlink:href="#DejaVuSerif-6c" transform="translate(194.091797 0)"/>
      <use xlink:href="#DejaVuSerif-20" transform="translate(226.074219 0)"/>
      <use xlink:href="#DejaVuSerif-64" transform="translate(257.861328 0)"/>
      <use xlink:href="#DejaVuSerif-69" transform="translate(321.875 0)"/>
      <use xlink:href="#DejaVuSerif-73" transform="translate(353.857422 0)"/>
      <use xlink:href="#DejaVuSerif-70" transform="translate(405.175781 0)"/>
      <use xlink:href="#DejaVuSerif-6f" transform="translate(469.189453 0)"/>
      <use xlink:href="#DejaVuSerif-73" transform="translate(529.394531 0)"/>
      <use xlink:href="#DejaVuSerif-61" transform="translate(580.712891 0)"/>
      <use xlink:href="#DejaVuSerif-62" transform="translate(640.332031 0)"/>
      <use xlink:href="#DejaVuSerif-6c" transform="translate(704.345703 0)"/>
      <use xlink:href="#DejaVuSerif-65" transform="translate(736.328125 0)"/>
      <use xlink:href="#DejaVuSerif-20" transform="translate(795.507812 0)"/>
      <use xlink:href="#DejaVuSerif-69" transform="translate(827.294922 0)"/>
      <use xlink:href="#DejaVuSerif-6e" transform="translate(859.277344 0)"/>
      <use xlink:href="#DejaVuSerif-63" transform="translate(923.681641 0)"/>
      <use xlink:href="#DejaVuSerif-6f" transform="translate(979.6875 0)"/>
      <use xlink:href="#DejaVuSerif-6d" transform="translate(1039.892578 0)"/>
      <use xlink:href="#DejaVuSerif-65" transform="translate(1134.716797 0)"/>
      <use xlink:href="#DejaVuSerif-2f" transform="translate(1193.896484 0)"/>
      <use xlink:href="#DejaVuSerif-63" transform="translate(1227.587891 0)"/>
      <use xlink:href="#DejaVuSerif-61" transform="translate(1283.59375 0)"/>
      <use xlink:href="#DejaVuSerif-70" transform="translate(1343.212891 0)"/>
      <use xlink:href="#DejaVuSerif-69" transform="translate(1407.226562 0)"/>
      <use xlink:href="#DejaVuSerif-74" transform="translate(1439.208984 0)"/>
      <use xlink:href="#DejaVuSerif-61" transform="translate(1479.394531 0)"/>
      <use xlink:href="#DejaVuSerif-20" transform="translate(1539.013672 0)"/>
      <use xlink:href="#DejaVuSerif-28" transform="translate(1570.800781 0)"/>
      <use xlink:href="#DejaVuSerif-63" transform="translate(1609.814453 0)"/>
      <use xlink:href="#DejaVuSerif-68" transform="translate(1665.820312 0)"/>
      <use xlink:href="#DejaVuSerif-61" transform="translate(1730.224609 0)"/>
      <use xlink:href="#DejaVuSerif-69" transform="translate(1789.84375 0)"/>
      <use xlink:href="#DejaVuSerif-6e" transform="translate(1821.826172 0)"/>
      <use xlink:href="#DejaVuSerif-65" transform="translate(1886.230469 0)"/>
      <use xlink:href="#DejaVuSerif-64" transform="translate(1945.410156 0)"/>
      <use xlink:href="#DejaVuSerif-20" transform="translate(2009.423828 0)"/>
      <use xlink:href="#DejaVuSerif-32" transform="translate(2041.210938 0)"/>
      <use xlink:href="#DejaVuSerif-30" transform="translate(2104.833984 0)"/>
      <use xlink:href="#DejaVuSerif-31" transform="translate(2168.457031 0)"/>
      <use xlink:href="#DejaVuSerif-37" transform="translate(2232.080078 0)"/>
      <use xlink:href="#DejaVuSerif-24" transform="translate(2295.703125 0)"/>
      <use xlink:href="#DejaVuSerif-2c" transform="translate(2359.326172 0)"/>
      <use xlink:href="#DejaVuSerif-20" transform="translate(2391.113281 0)"/>
      <use xlink:href="#DejaVuSerif-74" transform="translate(2422.900391 0)"/>
      <use xlink:href="#DejaVuSerif-68" transform="translate(2463.085938 0)"/>
      <use xlink:href="#DejaVuSerif-6f" transform="translate(2527.490234 0)"/>
      <use xlink:href="#DejaVuSerif-75" transform="translate(2587.695312 0)"/>
      <use xlink:href="#DejaVuSerif-73" transform="translate(2652.099609 0)"/>
      <use xlink:href="#DejaVuSerif-61" transform="translate(2703.417969 0)"/>
      <use xlink:href="#DejaVuSerif-6e" transform="translate(2763.037109 0)"/>
      <use xlink:href="#DejaVuSerif-64" transform="translate(2827.441406 0)"/>
      <use xlink:href="#DejaVuSerif-73" transform="translate(2891.455078 0)"/>
      <use xlink:href="#DejaVuSerif-29" transform="translate(2942.773438 0)"/>
     </g>
    </g>
   </g>
   <g id="matplotlib.axis_4">
    <g id="ytick_7">
     <g id="line2d_40">
      <path d="M 431.203125 267.047011 
L 778.075852 267.047011 
" clip-path="url(#pd9089790ee)" style="fill: none; stroke: #d8d4c7; stroke-opacity: 0.7; stroke-width: 0.5; stroke-linecap: square"/>
     </g>
     <g id="line2d_41">
      <g>
       <use xlink:href="#m761749a626" x="431.203125" y="267.047011" style="fill: #5a6470; stroke: #5a6470; stroke-width: 0.8"/>
      </g>
     </g>
     <g id="text_24">
      <!-- 40 -->
      <g style="fill: #5a6470" transform="translate(411.478125 270.84623) scale(0.1 -0.1)">
       <use xlink:href="#DejaVuSerif-34"/>
       <use xlink:href="#DejaVuSerif-30" transform="translate(63.623047 0)"/>
      </g>
     </g>
    </g>
    <g id="ytick_8">
     <g id="line2d_42">
      <path d="M 431.203125 222.982732 
L 778.075852 222.982732 
" clip-path="url(#pd9089790ee)" style="fill: none; stroke: #d8d4c7; stroke-opacity: 0.7; stroke-width: 0.5; stroke-linecap: square"/>
     </g>
     <g id="line2d_43">
      <g>
       <use xlink:href="#m761749a626" x="431.203125" y="222.982732" style="fill: #5a6470; stroke: #5a6470; stroke-width: 0.8"/>
      </g>
     </g>
     <g id="text_25">
      <!-- 45 -->
      <g style="fill: #5a6470" transform="translate(411.478125 226.781951) scale(0.1 -0.1)">
       <use xlink:href="#DejaVuSerif-34"/>
       <use xlink:href="#DejaVuSerif-35" transform="translate(63.623047 0)"/>
      </g>
     </g>
    </g>
    <g id="ytick_9">
     <g id="line2d_44">
      <path d="M 431.203125 178.918453 
L 778.075852 178.918453 
" clip-path="url(#pd9089790ee)" style="fill: none; stroke: #d8d4c7; stroke-opacity: 0.7; stroke-width: 0.5; stroke-linecap: square"/>
     </g>
     <g id="line2d_45">
      <g>
       <use xlink:href="#m761749a626" x="431.203125" y="178.918453" style="fill: #5a6470; stroke: #5a6470; stroke-width: 0.8"/>
      </g>
     </g>
     <g id="text_26">
      <!-- 50 -->
      <g style="fill: #5a6470" transform="translate(411.478125 182.717672) scale(0.1 -0.1)">
       <use xlink:href="#DejaVuSerif-35"/>
       <use xlink:href="#DejaVuSerif-30" transform="translate(63.623047 0)"/>
      </g>
     </g>
    </g>
    <g id="ytick_10">
     <g id="line2d_46">
      <path d="M 431.203125 134.854174 
L 778.075852 134.854174 
" clip-path="url(#pd9089790ee)" style="fill: none; stroke: #d8d4c7; stroke-opacity: 0.7; stroke-width: 0.5; stroke-linecap: square"/>
     </g>
     <g id="line2d_47">
      <g>
       <use xlink:href="#m761749a626" x="431.203125" y="134.854174" style="fill: #5a6470; stroke: #5a6470; stroke-width: 0.8"/>
      </g>
     </g>
     <g id="text_27">
      <!-- 55 -->
      <g style="fill: #5a6470" transform="translate(411.478125 138.653393) scale(0.1 -0.1)">
       <use xlink:href="#DejaVuSerif-35"/>
       <use xlink:href="#DejaVuSerif-35" transform="translate(63.623047 0)"/>
      </g>
     </g>
    </g>
    <g id="ytick_11">
     <g id="line2d_48">
      <path d="M 431.203125 90.789895 
L 778.075852 90.789895 
" clip-path="url(#pd9089790ee)" style="fill: none; stroke: #d8d4c7; stroke-opacity: 0.7; stroke-width: 0.5; stroke-linecap: square"/>
     </g>
     <g id="line2d_49">
      <g>
       <use xlink:href="#m761749a626" x="431.203125" y="90.789895" style="fill: #5a6470; stroke: #5a6470; stroke-width: 0.8"/>
      </g>
     </g>
     <g id="text_28">
      <!-- 60 -->
      <g style="fill: #5a6470" transform="translate(411.478125 94.589114) scale(0.1 -0.1)">
       <use xlink:href="#DejaVuSerif-36"/>
       <use xlink:href="#DejaVuSerif-30" transform="translate(63.623047 0)"/>
      </g>
     </g>
    </g>
    <g id="ytick_12">
     <g id="line2d_50">
      <path d="M 431.203125 46.725617 
L 778.075852 46.725617 
" clip-path="url(#pd9089790ee)" style="fill: none; stroke: #d8d4c7; stroke-opacity: 0.7; stroke-width: 0.5; stroke-linecap: square"/>
     </g>
     <g id="line2d_51">
      <g>
       <use xlink:href="#m761749a626" x="431.203125" y="46.725617" style="fill: #5a6470; stroke: #5a6470; stroke-width: 0.8"/>
      </g>
     </g>
     <g id="text_29">
      <!-- 65 -->
      <g style="fill: #5a6470" transform="translate(411.478125 50.524835) scale(0.1 -0.1)">
       <use xlink:href="#DejaVuSerif-36"/>
       <use xlink:href="#DejaVuSerif-35" transform="translate(63.623047 0)"/>
      </g>
     </g>
    </g>
    <g id="text_30">
     <!-- Skier visits (millions) -->
     <g style="fill: #1f2328" transform="translate(405.398438 210.084205) rotate(-90) scale(0.1 -0.1)">
      <use xlink:href="#DejaVuSerif-53"/>
      <use xlink:href="#DejaVuSerif-6b" transform="translate(68.505859 0)"/>
      <use xlink:href="#DejaVuSerif-69" transform="translate(129.101562 0)"/>
      <use xlink:href="#DejaVuSerif-65" transform="translate(161.083984 0)"/>
      <use xlink:href="#DejaVuSerif-72" transform="translate(220.263672 0)"/>
      <use xlink:href="#DejaVuSerif-20" transform="translate(268.066406 0)"/>
      <use xlink:href="#DejaVuSerif-76" transform="translate(299.853516 0)"/>
      <use xlink:href="#DejaVuSerif-69" transform="translate(356.347656 0)"/>
      <use xlink:href="#DejaVuSerif-73" transform="translate(388.330078 0)"/>
      <use xlink:href="#DejaVuSerif-69" transform="translate(439.648438 0)"/>
      <use xlink:href="#DejaVuSerif-74" transform="translate(471.630859 0)"/>
      <use xlink:href="#DejaVuSerif-73" transform="translate(511.816406 0)"/>
      <use xlink:href="#DejaVuSerif-20" transform="translate(563.134766 0)"/>
      <use xlink:href="#DejaVuSerif-28" transform="translate(594.921875 0)"/>
      <use xlink:href="#DejaVuSerif-6d" transform="translate(633.935547 0)"/>
      <use xlink:href="#DejaVuSerif-69" transform="translate(728.759766 0)"/>
      <use xlink:href="#DejaVuSerif-6c" transform="translate(760.742188 0)"/>
      <use xlink:href="#DejaVuSerif-6c" transform="translate(792.724609 0)"/>
      <use xlink:href="#DejaVuSerif-69" transform="translate(824.707031 0)"/>
      <use xlink:href="#DejaVuSerif-6f" transform="translate(856.689453 0)"/>
      <use xlink:href="#DejaVuSerif-6e" transform="translate(916.894531 0)"/>
      <use xlink:href="#DejaVuSerif-73" transform="translate(981.298828 0)"/>
      <use xlink:href="#DejaVuSerif-29" transform="translate(1032.617188 0)"/>
     </g>
    </g>
   </g>
   <g id="line2d_52">
    <path d="M 446.970067 188.301027 
L 453.405554 186.103873 
L 459.84104 183.906719 
L 466.276527 181.709565 
L 472.712014 179.512411 
L 479.1475 177.315257 
L 485.582987 175.118104 
L 492.018473 172.92095 
L 498.45396 170.723796 
L 504.889446 168.526642 
L 511.324933 166.329488 
L 517.76042 164.132334 
L 524.195906 161.93518 
L 530.631393 159.738026 
L 537.066879 157.540872 
L 543.502366 155.343719 
L 549.937853 153.146565 
L 556.373339 150.949411 
L 562.808826 148.752257 
L 569.244312 146.555103 
L 575.679799 144.357949 
L 582.115286 142.160795 
L 588.550772 139.963641 
L 594.986259 137.766487 
L 601.421745 135.569334 
L 607.857232 133.37218 
L 614.292719 131.175026 
L 620.728205 128.977872 
L 627.163692 126.780718 
L 633.599178 124.583564 
L 640.034665 122.38641 
L 646.470151 120.189256 
L 652.905638 117.992102 
L 659.341125 115.794949 
L 665.776611 113.597795 
L 672.212098 111.400641 
L 678.647584 109.203487 
L 685.083071 107.006333 
L 691.518558 104.809179 
L 697.954044 102.612025 
L 704.389531 100.414871 
L 710.825017 98.217717 
L 717.260504 96.020563 
L 723.695991 93.82341 
L 730.131477 91.626256 
L 736.566964 89.429102 
L 743.00245 87.231948 
L 749.437937 85.034794 
L 755.873424 82.83764 
L 762.30891 80.640486 
" clip-path="url(#pd9089790ee)" style="fill: none; stroke: #a8323e; stroke-opacity: 0.7; stroke-width: 1.5; stroke-linecap: square"/>
   </g>
   <g id="patch_6">
    <path d="M 431.203125 281.009659 
L 431.203125 31.99625 
" style="fill: none; stroke: #1f2328; stroke-width: 0.8; stroke-linejoin: miter; stroke-linecap: square"/>
   </g>
   <g id="patch_7">
    <path d="M 431.203125 281.009659 
L 778.075852 281.009659 
" style="fill: none; stroke: #1f2328; stroke-width: 0.8; stroke-linejoin: miter; stroke-linecap: square"/>
   </g>
   <g id="text_31">
    <!-- Visits vs Real Disposable Income/Capita -->
    <g transform="translate(431.203125 14.798437) scale(0.1 -0.1)">
     <defs>
      <path id="DejaVuSerif-Bold-6f" d="M 2138 263 
Q 2488 263 2630 563 
Q 2772 863 2772 1663 
Q 2772 2463 2631 2761 
Q 2491 3059 2138 3059 
Q 1784 3059 1640 2757 
Q 1497 2456 1497 1663 
Q 1497 869 1640 566 
Q 1784 263 2138 263 
z
M 2138 -91 
Q 1259 -91 761 376 
Q 263 844 263 1663 
Q 263 2484 761 2948 
Q 1259 3413 2138 3413 
Q 3019 3413 3516 2948 
Q 4013 2484 4013 1663 
Q 4013 844 3514 376 
Q 3016 -91 2138 -91 
z
" transform="scale(0.015625)"/>
      <path id="DejaVuSerif-Bold-62" d="M 622 378 
L 622 4488 
L 147 4488 
L 147 4863 
L 1728 4863 
L 1728 2900 
Q 1869 3159 2106 3286 
Q 2344 3413 2694 3413 
Q 3403 3413 3811 2945 
Q 4219 2478 4219 1663 
Q 4219 847 3811 378 
Q 3403 -91 2694 -91 
Q 2344 -91 2106 36 
Q 1869 163 1728 422 
L 1728 0 
L 147 0 
L 147 378 
L 622 378 
z
M 1728 1497 
Q 1728 916 1876 656 
Q 2025 397 2356 397 
Q 2697 397 2836 672 
Q 2975 947 2975 1663 
Q 2975 2378 2836 2651 
Q 2697 2925 2356 2925 
Q 2025 2925 1876 2665 
Q 1728 2406 1728 1825 
L 1728 1497 
z
" transform="scale(0.015625)"/>
      <path id="DejaVuSerif-Bold-49" d="M 300 0 
L 300 378 
L 897 378 
L 897 4288 
L 300 4288 
L 300 4666 
L 2700 4666 
L 2700 4288 
L 2100 4288 
L 2100 378 
L 2700 378 
L 2700 0 
L 300 0 
z
" transform="scale(0.015625)"/>
      <path id="DejaVuSerif-Bold-63" d="M 3609 1038 
Q 3491 469 3123 189 
Q 2756 -91 2125 -91 
Q 1238 -91 750 368 
Q 263 828 263 1663 
Q 263 2488 744 2950 
Q 1225 3413 2081 3413 
Q 2428 3413 2781 3347 
Q 3134 3281 3500 3150 
L 3500 2228 
L 3150 2228 
Q 3100 2650 2903 2854 
Q 2706 3059 2350 3059 
Q 1888 3059 1692 2746 
Q 1497 2434 1497 1663 
Q 1497 909 1687 586 
Q 1878 263 2309 263 
Q 2644 263 2845 463 
Q 3047 663 3091 1038 
L 3609 1038 
z
" transform="scale(0.015625)"/>
      <path id="DejaVuSerif-Bold-6d" d="M 3884 2778 
Q 4116 3109 4384 3261 
Q 4653 3413 5013 3413 
Q 5584 3413 5867 3089 
Q 6150 2766 6150 2113 
L 6150 378 
L 6625 378 
L 6625 0 
L 4647 0 
L 4647 378 
L 5044 378 
L 5044 1947 
Q 5044 2569 4948 2731 
Q 4853 2894 4594 2894 
Q 4300 2894 4137 2667 
Q 3975 2441 3975 2022 
L 3975 378 
L 4372 378 
L 4372 0 
L 2472 0 
L 2472 378 
L 2869 378 
L 2869 1947 
Q 2869 2569 2772 2731 
Q 2675 2894 2419 2894 
Q 2122 2894 1959 2667 
Q 1797 2441 1797 2022 
L 1797 378 
L 2194 378 
L 2194 0 
L 219 0 
L 219 378 
L 691 378 
L 691 2944 
L 219 2944 
L 219 3322 
L 1797 3322 
L 1797 2853 
Q 1991 3144 2241 3278 
Q 2491 3413 2834 3413 
Q 3241 3413 3494 3258 
Q 3747 3103 3884 2778 
z
" transform="scale(0.015625)"/>
      <path id="DejaVuSerif-Bold-2f" d="M 1644 4666 
L 2338 4666 
L 691 -594 
L 0 -594 
L 1644 4666 
z
" transform="scale(0.015625)"/>
      <path id="DejaVuSerif-Bold-43" d="M 4769 1331 
Q 4584 609 4106 259 
Q 3628 -91 2822 -91 
Q 1641 -91 955 561 
Q 269 1213 269 2328 
Q 269 3447 955 4098 
Q 1641 4750 2822 4750 
Q 3238 4750 3688 4650 
Q 4138 4550 4641 4347 
L 4641 3200 
L 4244 3200 
Q 4122 3788 3800 4080 
Q 3478 4372 2950 4372 
Q 2269 4372 1937 3870 
Q 1606 3369 1606 2328 
Q 1606 1288 1937 788 
Q 2269 288 2956 288 
Q 3422 288 3717 547 
Q 4013 806 4147 1331 
L 4769 1331 
z
" transform="scale(0.015625)"/>
     </defs>
     <use xlink:href="#DejaVuSerif-Bold-56"/>
     <use xlink:href="#DejaVuSerif-Bold-69" transform="translate(75.837891 0)"/>
     <use xlink:href="#DejaVuSerif-Bold-73" transform="translate(113.826172 0)"/>
     <use xlink:href="#DejaVuSerif-Bold-69" transform="translate(170.125 0)"/>
     <use xlink:href="#DejaVuSerif-Bold-74" transform="translate(208.113281 0)"/>
     <use xlink:href="#DejaVuSerif-Bold-73" transform="translate(254.304688 0)"/>
     <use xlink:href="#DejaVuSerif-Bold-20" transform="translate(310.603516 0)"/>
     <use xlink:href="#DejaVuSerif-Bold-76" transform="translate(345.417969 0)"/>
     <use xlink:href="#DejaVuSerif-Bold-73" transform="translate(403.523438 0)"/>
     <use xlink:href="#DejaVuSerif-Bold-20" transform="translate(459.822266 0)"/>
     <use xlink:href="#DejaVuSerif-Bold-52" transform="translate(494.636719 0)"/>
     <use xlink:href="#DejaVuSerif-Bold-65" transform="translate(577.742188 0)"/>
     <use xlink:href="#DejaVuSerif-Bold-61" transform="translate(641.365234 0)"/>
     <use xlink:href="#DejaVuSerif-Bold-6c" transform="translate(706.160156 0)"/>
     <use xlink:href="#DejaVuSerif-Bold-20" transform="translate(744.148438 0)"/>
     <use xlink:href="#DejaVuSerif-Bold-44" transform="translate(778.962891 0)"/>
     <use xlink:href="#DejaVuSerif-Bold-69" transform="translate(865.681641 0)"/>
     <use xlink:href="#DejaVuSerif-Bold-73" transform="translate(903.669922 0)"/>
     <use xlink:href="#DejaVuSerif-Bold-70" transform="translate(959.96875 0)"/>
     <use xlink:href="#DejaVuSerif-Bold-6f" transform="translate(1029.890625 0)"/>
     <use xlink:href="#DejaVuSerif-Bold-73" transform="translate(1096.589844 0)"/>
     <use xlink:href="#DejaVuSerif-Bold-61" transform="translate(1152.888672 0)"/>
     <use xlink:href="#DejaVuSerif-Bold-62" transform="translate(1217.683594 0)"/>
     <use xlink:href="#DejaVuSerif-Bold-6c" transform="translate(1287.605469 0)"/>
     <use xlink:href="#DejaVuSerif-Bold-65" transform="translate(1325.59375 0)"/>
     <use xlink:href="#DejaVuSerif-Bold-20" transform="translate(1389.216797 0)"/>
     <use xlink:href="#DejaVuSerif-Bold-49" transform="translate(1424.03125 0)"/>
     <use xlink:href="#DejaVuSerif-Bold-6e" transform="translate(1470.808594 0)"/>
     <use xlink:href="#DejaVuSerif-Bold-63" transform="translate(1543.513672 0)"/>
     <use xlink:href="#DejaVuSerif-Bold-6f" transform="translate(1604.402344 0)"/>
     <use xlink:href="#DejaVuSerif-Bold-6d" transform="translate(1671.101562 0)"/>
     <use xlink:href="#DejaVuSerif-Bold-65" transform="translate(1776.912109 0)"/>
     <use xlink:href="#DejaVuSerif-Bold-2f" transform="translate(1840.535156 0)"/>
     <use xlink:href="#DejaVuSerif-Bold-43" transform="translate(1877.058594 0)"/>
     <use xlink:href="#DejaVuSerif-Bold-61" transform="translate(1956.648438 0)"/>
     <use xlink:href="#DejaVuSerif-Bold-70" transform="translate(2021.443359 0)"/>
     <use xlink:href="#DejaVuSerif-Bold-69" transform="translate(2091.365234 0)"/>
     <use xlink:href="#DejaVuSerif-Bold-74" transform="translate(2129.353516 0)"/>
     <use xlink:href="#DejaVuSerif-Bold-61" transform="translate(2175.544922 0)"/>
    </g>
    <!-- r = 0.769, p &lt; 0.001, n = 46 -->
    <g transform="translate(431.203125 25.99625) scale(0.1 -0.1)">
     <defs>
      <path id="DejaVuSerif-Bold-39" d="M 2181 4384 
Q 1859 4384 1723 4111 
Q 1588 3838 1588 3163 
Q 1588 2488 1723 2214 
Q 1859 1941 2181 1941 
Q 2503 1941 2640 2214 
Q 2778 2488 2778 3163 
Q 2778 3838 2640 4111 
Q 2503 4384 2181 4384 
z
M 2878 1900 
Q 2672 1734 2420 1651 
Q 2169 1569 1875 1569 
Q 1163 1569 755 1986 
Q 347 2403 347 3138 
Q 347 3913 803 4331 
Q 1259 4750 2106 4750 
Q 3063 4750 3556 4172 
Q 4050 3594 4050 2478 
Q 4050 1206 3503 557 
Q 2956 -91 1881 -91 
Q 1600 -91 1278 -44 
Q 956 3 588 97 
L 588 922 
L 966 922 
Q 1044 603 1261 439 
Q 1478 275 1825 275 
Q 2375 275 2625 658 
Q 2875 1041 2878 1900 
z
" transform="scale(0.015625)"/>
     </defs>
     <use xlink:href="#DejaVuSerif-Bold-72"/>
     <use xlink:href="#DejaVuSerif-Bold-20" transform="translate(52.685547 0)"/>
     <use xlink:href="#DejaVuSerif-Bold-3d" transform="translate(87.5 0)"/>
     <use xlink:href="#DejaVuSerif-Bold-20" transform="translate(171.289062 0)"/>
     <use xlink:href="#DejaVuSerif-Bold-30" transform="translate(206.103516 0)"/>
     <use xlink:href="#DejaVuSerif-Bold-2e" transform="translate(275.683594 0)"/>
     <use xlink:href="#DejaVuSerif-Bold-37" transform="translate(310.498047 0)"/>
     <use xlink:href="#DejaVuSerif-Bold-36" transform="translate(380.078125 0)"/>
     <use xlink:href="#DejaVuSerif-Bold-39" transform="translate(449.658203 0)"/>
     <use xlink:href="#DejaVuSerif-Bold-2c" transform="translate(519.238281 0)"/>
     <use xlink:href="#DejaVuSerif-Bold-20" transform="translate(554.052734 0)"/>
     <use xlink:href="#DejaVuSerif-Bold-70" transform="translate(588.867188 0)"/>
     <use xlink:href="#DejaVuSerif-Bold-20" transform="translate(658.789062 0)"/>
     <use xlink:href="#DejaVuSerif-Bold-3c" transform="translate(693.603516 0)"/>
     <use xlink:href="#DejaVuSerif-Bold-20" transform="translate(777.392578 0)"/>
     <use xlink:href="#DejaVuSerif-Bold-30" transform="translate(812.207031 0)"/>
     <use xlink:href="#DejaVuSerif-Bold-2e" transform="translate(881.787109 0)"/>
     <use xlink:href="#DejaVuSerif-Bold-30" transform="translate(916.601562 0)"/>
     <use xlink:href="#DejaVuSerif-Bold-30" transform="translate(986.181641 0)"/>
     <use xlink:href="#DejaVuSerif-Bold-31" transform="translate(1055.761719 0)"/>
     <use xlink:href="#DejaVuSerif-Bold-2c" transform="translate(1125.341797 0)"/>
     <use xlink:href="#DejaVuSerif-Bold-20" transform="translate(1160.15625 0)"/>
     <use xlink:href="#DejaVuSerif-Bold-6e" transform="translate(1194.970703 0)"/>
     <use xlink:href="#DejaVuSerif-Bold-20" transform="translate(1267.675781 0)"/>
     <use xlink:href="#DejaVuSerif-Bold-3d" transform="translate(1302.490234 0)"/>
     <use xlink:href="#DejaVuSerif-Bold-20" transform="translate(1386.279297 0)"/>
     <use xlink:href="#DejaVuSerif-Bold-34" transform="translate(1421.09375 0)"/>
     <use xlink:href="#DejaVuSerif-Bold-36" transform="translate(1490.673828 0)"/>
    </g>
   </g>
  </g>
 </g>
 <defs>
  <clipPath id="pa5ce45421a">
   <rect x="40.603125" y="31.99625" width="346.872727" height="249.013409"/>
  </clipPath>
  <clipPath id="pd9089790ee">
   <rect x="431.203125" y="31.99625" width="346.872727" height="249.013409"/>
  </clipPath>
 </defs>
</svg>
