<?xml version="1.0" encoding="utf-8" standalone="no"?>
<!DOCTYPE svg PUBLIC "-//W3C//DTD SVG 1.1//EN"
  "http://www.w3.org/Graphics/SVG/1.1/DTD/svg11.dtd">
<svg xmlns:xlink="http://www.w3.org/1999/xlink" width="713.275852pt" height="317.669972pt" viewBox="0 0 713.275852 317.669972" xmlns="http://www.w3.org/2000/svg" version="1.1">
 <metadata>
  <rdf:RDF xmlns:dc="http://purl.org/dc/elements/1.1/" xmlns:cc="http://creativecommons.org/ns#" xmlns:rdf="http://www.w3.org/1999/02/22-rdf-syntax-ns#">
   <cc:Work>
    <dc:type rdf:resource="http://purl.org/dc/dcmitype/StillImage"/>
    <dc:date>2026-04-29T23:05:43.117526</dc:date>
    <dc:format>image/svg+xml</dc:format>
    <dc:creator>
     <cc:Agent>
      <dc:title>Matplotlib v3.10.8, https://matplotlib.org/</dc:title>
     </cc:Agent>
    </dc:creator>
   </cc:Work>
  </rdf:RDF>
 </metadata>
 <defs>
  <style type="text/css">*{stroke-linejoin: round; stroke-linecap: butt}</style>
 </defs>
 <g id="figure_1">
  <g id="patch_1">
   <path d="M 0 317.669972 
L 713.275852 317.669972 
L 713.275852 0 
L 0 0 
z
" style="fill: #faf8f3"/>
  </g>
  <g id="axes_1">
   <g id="patch_2">
    <path d="M 40.603125 279.971534 
L 706.075852 279.971534 
L 706.075852 22.318125 
L 40.603125 22.318125 
z
" style="fill: #faf8f3"/>
   </g>
   <g id="FillBetweenPolyCollection_1">
    <path d="M 54.46714 537.624943 
L 54.46714 168.098424 
L 68.331155 182.799391 
L 82.19517 245.372362 
L 96.059186 164.263069 
L 109.923201 192.656475 
L 123.787216 164.910883 
L 137.651231 159.581138 
L 151.515246 155.407153 
L 165.379261 141.950284 
L 179.243277 140.779801 
L 193.107292 144.997955 
L 206.971307 169.401414 
L 220.835322 193.679727 
L 234.699337 163.40177 
L 248.563352 139.866972 
L 262.427367 135.413249 
L 276.291383 149.841839 
L 290.155398 140.227687 
L 304.019413 150.997599 
L 317.883428 139.204434 
L 331.747443 154.170417 
L 345.611458 153.36801 
L 359.475473 115.537128 
L 373.339489 137.076953 
L 387.203504 113.645216 
L 401.067519 117.52474 
L 414.931534 118.886623 
L 428.795549 104.053148 
L 442.659564 132.240431 
L 456.52358 92.237899 
L 470.387595 115.411982 
L 484.25161 97.50139 
L 498.115625 91.958161 
L 511.97964 162.43741 
L 525.843655 118.724669 
L 539.70767 121.764979 
L 553.571686 143.209105 
L 567.435701 148.995264 
L 581.299716 134.500419 
L 595.163731 145.45437 
L 609.027746 100.769907 
L 622.891761 161.605558 
L 636.755777 103.265465 
L 650.619792 90.817124 
L 664.483807 56.276844 
L 678.347822 92.988774 
L 692.211837 84.891096 
L 692.211837 537.624943 
L 692.211837 537.624943 
L 678.347822 537.624943 
L 664.483807 537.624943 
L 650.619792 537.624943 
L 636.755777 537.624943 
L 622.891761 537.624943 
L 609.027746 537.624943 
L 595.163731 537.624943 
L 581.299716 537.624943 
L 567.435701 537.624943 
L 553.571686 537.624943 
L 539.70767 537.624943 
L 525.843655 537.624943 
L 511.97964 537.624943 
L 498.115625 537.624943 
L 484.25161 537.624943 
L 470.387595 537.624943 
L 456.52358 537.624943 
L 442.659564 537.624943 
L 428.795549 537.624943 
L 414.931534 537.624943 
L 401.067519 537.624943 
L 387.203504 537.624943 
L 373.339489 537.624943 
L 359.475473 537.624943 
L 345.611458 537.624943 
L 331.747443 537.624943 
L 317.883428 537.624943 
L 304.019413 537.624943 
L 290.155398 537.624943 
L 276.291383 537.624943 
L 262.427367 537.624943 
L 248.563352 537.624943 
L 234.699337 537.624943 
L 220.835322 537.624943 
L 206.971307 537.624943 
L 193.107292 537.624943 
L 179.243277 537.624943 
L 165.379261 537.624943 
L 151.515246 537.624943 
L 137.651231 537.624943 
L 123.787216 537.624943 
L 109.923201 537.624943 
L 96.059186 537.624943 
L 82.19517 537.624943 
L 68.331155 537.624943 
L 54.46714 537.624943 
z
" clip-path="url(#p5c9908577d)" style="fill: #0a3d62; fill-opacity: 0.08; stroke: #0a3d62; stroke-opacity: 0.08"/>
   </g>
   <g id="matplotlib.axis_1">
    <g id="xtick_1">
     <g id="line2d_1">
      <path d="M 68.331155 279.971534 
L 68.331155 22.318125 
" clip-path="url(#p5c9908577d)" style="fill: none; stroke: #d8d4c7; stroke-opacity: 0.7; stroke-width: 0.5; stroke-linecap: square"/>
     </g>
     <g id="line2d_2">
      <defs>
       <path id="m177fcb2ea7" d="M 0 0 
L 0 3.5 
" style="stroke: #5a6470; stroke-width: 0.8"/>
      </defs>
      <g>
       <use xlink:href="#m177fcb2ea7" x="68.331155" y="279.971534" style="fill: #5a6470; stroke: #5a6470; stroke-width: 0.8"/>
      </g>
     </g>
     <g id="text_1">
      <!-- 1980 -->
      <g style="fill: #5a6470" transform="translate(55.606155 294.569972) scale(0.1 -0.1)">
       <defs>
        <path id="DejaVuSerif-31" d="M 909 0 
L 909 331 
L 1722 331 
L 1722 4213 
L 781 3603 
L 781 4013 
L 1919 4750 
L 2350 4750 
L 2350 331 
L 3163 331 
L 3163 0 
L 909 0 
z
" transform="scale(0.015625)"/>
        <path id="DejaVuSerif-39" d="M 2994 2091 
Q 2784 1856 2512 1740 
Q 2241 1625 1900 1625 
Q 1206 1625 804 2044 
Q 403 2463 403 3188 
Q 403 3897 839 4323 
Q 1275 4750 2003 4750 
Q 2794 4750 3217 4161 
Q 3641 3572 3641 2478 
Q 3641 1253 3137 581 
Q 2634 -91 1722 -91 
Q 1475 -91 1203 -44 
Q 931 3 647 97 
L 647 872 
L 997 872 
Q 1038 556 1241 387 
Q 1444 219 1784 219 
Q 2391 219 2687 676 
Q 2984 1134 2994 2091 
z
M 1978 4441 
Q 1534 4441 1298 4117 
Q 1063 3794 1063 3188 
Q 1063 2581 1298 2256 
Q 1534 1931 1978 1931 
Q 2422 1931 2658 2245 
Q 2894 2559 2894 3150 
Q 2894 3772 2656 4106 
Q 2419 4441 1978 4441 
z
" transform="scale(0.015625)"/>
        <path id="DejaVuSerif-38" d="M 2981 1275 
Q 2981 1775 2732 2051 
Q 2484 2328 2034 2328 
Q 1584 2328 1336 2051 
Q 1088 1775 1088 1275 
Q 1088 772 1336 495 
Q 1584 219 2034 219 
Q 2484 219 2732 495 
Q 2981 772 2981 1275 
z
M 2853 3541 
Q 2853 3966 2637 4203 
Q 2422 4441 2034 4441 
Q 1650 4441 1433 4203 
Q 1216 3966 1216 3541 
Q 1216 3113 1433 2875 
Q 1650 2638 2034 2638 
Q 2422 2638 2637 2875 
Q 2853 3113 2853 3541 
z
M 2516 2484 
Q 3047 2413 3344 2092 
Q 3641 1772 3641 1275 
Q 3641 619 3225 264 
Q 2809 -91 2034 -91 
Q 1263 -91 845 264 
Q 428 619 428 1275 
Q 428 1772 725 2092 
Q 1022 2413 1556 2484 
Q 1084 2569 832 2842 
Q 581 3116 581 3541 
Q 581 4103 968 4426 
Q 1356 4750 2034 4750 
Q 2713 4750 3100 4426 
Q 3488 4103 3488 3541 
Q 3488 3116 3236 2842 
Q 2984 2569 2516 2484 
z
" transform="scale(0.015625)"/>
        <path id="DejaVuSerif-30" d="M 2034 219 
Q 2513 219 2750 744 
Q 2988 1269 2988 2328 
Q 2988 3391 2750 3916 
Q 2513 4441 2034 4441 
Q 1556 4441 1318 3916 
Q 1081 3391 1081 2328 
Q 1081 1269 1318 744 
Q 1556 219 2034 219 
z
M 2034 -91 
Q 1275 -91 848 546 
Q 422 1184 422 2328 
Q 422 3475 848 4112 
Q 1275 4750 2034 4750 
Q 2797 4750 3222 4112 
Q 3647 3475 3647 2328 
Q 3647 1184 3222 546 
Q 2797 -91 2034 -91 
z
" transform="scale(0.015625)"/>
       </defs>
       <use xlink:href="#DejaVuSerif-31"/>
       <use xlink:href="#DejaVuSerif-39" transform="translate(63.623047 0)"/>
       <use xlink:href="#DejaVuSerif-38" transform="translate(127.246094 0)"/>
       <use xlink:href="#DejaVuSerif-30" transform="translate(190.869141 0)"/>
      </g>
     </g>
    </g>
    <g id="xtick_2">
     <g id="line2d_3">
      <path d="M 206.971307 279.971534 
L 206.971307 22.318125 
" clip-path="url(#p5c9908577d)" style="fill: none; stroke: #d8d4c7; stroke-opacity: 0.7; stroke-width: 0.5; stroke-linecap: square"/>
     </g>
     <g id="line2d_4">
      <g>
       <use xlink:href="#m177fcb2ea7" x="206.971307" y="279.971534" style="fill: #5a6470; stroke: #5a6470; stroke-width: 0.8"/>
      </g>
     </g>
     <g id="text_2">
      <!-- 1990 -->
      <g style="fill: #5a6470" transform="translate(194.246307 294.569972) scale(0.1 -0.1)">
       <use xlink:href="#DejaVuSerif-31"/>
       <use xlink:href="#DejaVuSerif-39" transform="translate(63.623047 0)"/>
       <use xlink:href="#DejaVuSerif-39" transform="translate(127.246094 0)"/>
       <use xlink:href="#DejaVuSerif-30" transform="translate(190.869141 0)"/>
      </g>
     </g>
    </g>
    <g id="xtick_3">
     <g id="line2d_5">
      <path d="M 345.611458 279.971534 
L 345.611458 22.318125 
" clip-path="url(#p5c9908577d)" style="fill: none; stroke: #d8d4c7; stroke-opacity: 0.7; stroke-width: 0.5; stroke-linecap: square"/>
     </g>
     <g id="line2d_6">
      <g>
       <use xlink:href="#m177fcb2ea7" x="345.611458" y="279.971534" style="fill: #5a6470; stroke: #5a6470; stroke-width: 0.8"/>
      </g>
     </g>
     <g id="text_3">
      <!-- 2000 -->
      <g style="fill: #5a6470" transform="translate(332.886458 294.569972) scale(0.1 -0.1)">
       <defs>
        <path id="DejaVuSerif-32" d="M 819 3553 
L 469 3553 
L 469 4384 
Q 803 4563 1142 4656 
Q 1481 4750 1806 4750 
Q 2534 4750 2956 4397 
Q 3378 4044 3378 3438 
Q 3378 2753 2422 1800 
Q 2347 1728 2309 1691 
L 1131 513 
L 3078 513 
L 3078 1088 
L 3444 1088 
L 3444 0 
L 434 0 
L 434 341 
L 1850 1753 
Q 2319 2222 2519 2614 
Q 2719 3006 2719 3438 
Q 2719 3909 2473 4175 
Q 2228 4441 1797 4441 
Q 1350 4441 1106 4219 
Q 863 3997 819 3553 
z
" transform="scale(0.015625)"/>
       </defs>
       <use xlink:href="#DejaVuSerif-32"/>
       <use xlink:href="#DejaVuSerif-30" transform="translate(63.623047 0)"/>
       <use xlink:href="#DejaVuSerif-30" transform="translate(127.246094 0)"/>
       <use xlink:href="#DejaVuSerif-30" transform="translate(190.869141 0)"/>
      </g>
     </g>
    </g>
    <g id="xtick_4">
     <g id="line2d_7">
      <path d="M 484.25161 279.971534 
L 484.25161 22.318125 
" clip-path="url(#p5c9908577d)" style="fill: none; stroke: #d8d4c7; stroke-opacity: 0.7; stroke-width: 0.5; stroke-linecap: square"/>
     </g>
     <g id="line2d_8">
      <g>
       <use xlink:href="#m177fcb2ea7" x="484.25161" y="279.971534" style="fill: #5a6470; stroke: #5a6470; stroke-width: 0.8"/>
      </g>
     </g>
     <g id="text_4">
      <!-- 2010 -->
      <g style="fill: #5a6470" transform="translate(471.52661 294.569972) scale(0.1 -0.1)">
       <use xlink:href="#DejaVuSerif-32"/>
       <use xlink:href="#DejaVuSerif-30" transform="translate(63.623047 0)"/>
       <use xlink:href="#DejaVuSerif-31" transform="translate(127.246094 0)"/>
       <use xlink:href="#DejaVuSerif-30" transform="translate(190.869141 0)"/>
      </g>
     </g>
    </g>
    <g id="xtick_5">
     <g id="line2d_9">
      <path d="M 622.891761 279.971534 
L 622.891761 22.318125 
" clip-path="url(#p5c9908577d)" style="fill: none; stroke: #d8d4c7; stroke-opacity: 0.7; stroke-width: 0.5; stroke-linecap: square"/>
     </g>
     <g id="line2d_10">
      <g>
       <use xlink:href="#m177fcb2ea7" x="622.891761" y="279.971534" style="fill: #5a6470; stroke: #5a6470; stroke-width: 0.8"/>
      </g>
     </g>
     <g id="text_5">
      <!-- 2020 -->
      <g style="fill: #5a6470" transform="translate(610.166761 294.569972) scale(0.1 -0.1)">
       <use xlink:href="#DejaVuSerif-32"/>
       <use xlink:href="#DejaVuSerif-30" transform="translate(63.623047 0)"/>
       <use xlink:href="#DejaVuSerif-32" transform="translate(127.246094 0)"/>
       <use xlink:href="#DejaVuSerif-30" transform="translate(190.869141 0)"/>
      </g>
     </g>
    </g>
    <g id="text_6">
     <!-- Year (season ending) -->
     <g style="fill: #1f2328" transform="translate(320.362926 308.248097) scale(0.1 -0.1)">
      <defs>
       <path id="DejaVuSerif-59" d="M 1209 0 
L 1209 331 
L 1806 331 
L 1806 2009 
L 366 4331 
L -72 4331 
L -72 4666 
L 1663 4666 
L 1663 4331 
L 1119 4331 
L 2284 2444 
L 3450 4331 
L 2925 4331 
L 2925 4666 
L 4281 4666 
L 4281 4331 
L 3841 4331 
L 2438 2069 
L 2438 331 
L 3034 331 
L 3034 0 
L 1209 0 
z
" transform="scale(0.015625)"/>
       <path id="DejaVuSerif-65" d="M 3469 1600 
L 991 1600 
L 991 1575 
Q 991 903 1244 561 
Q 1497 219 1991 219 
Q 2369 219 2611 417 
Q 2853 616 2950 1006 
L 3413 1006 
Q 3275 459 2904 184 
Q 2534 -91 1931 -91 
Q 1203 -91 761 389 
Q 319 869 319 1663 
Q 319 2450 753 2931 
Q 1188 3413 1894 3413 
Q 2647 3413 3050 2948 
Q 3453 2484 3469 1600 
z
M 2791 1931 
Q 2772 2513 2545 2808 
Q 2319 3103 1894 3103 
Q 1497 3103 1269 2806 
Q 1041 2509 991 1931 
L 2791 1931 
z
" transform="scale(0.015625)"/>
       <path id="DejaVuSerif-61" d="M 2547 1044 
L 2547 1747 
L 1806 1747 
Q 1378 1747 1168 1562 
Q 959 1378 959 997 
Q 959 650 1171 447 
Q 1384 244 1747 244 
Q 2106 244 2326 466 
Q 2547 688 2547 1044 
z
M 3122 2075 
L 3122 331 
L 3634 331 
L 3634 0 
L 2547 0 
L 2547 359 
Q 2356 128 2106 18 
Q 1856 -91 1522 -91 
Q 969 -91 644 203 
Q 319 497 319 997 
Q 319 1513 691 1797 
Q 1063 2081 1741 2081 
L 2547 2081 
L 2547 2309 
Q 2547 2688 2317 2895 
Q 2088 3103 1672 3103 
Q 1328 3103 1125 2947 
Q 922 2791 872 2484 
L 575 2484 
L 575 3156 
Q 875 3284 1158 3348 
Q 1441 3413 1709 3413 
Q 2400 3413 2761 3070 
Q 3122 2728 3122 2075 
z
" transform="scale(0.015625)"/>
       <path id="DejaVuSerif-72" d="M 3059 3328 
L 3059 2497 
L 2728 2497 
Q 2713 2744 2591 2866 
Q 2469 2988 2234 2988 
Q 1809 2988 1582 2694 
Q 1356 2400 1356 1850 
L 1356 331 
L 2022 331 
L 2022 0 
L 263 0 
L 263 331 
L 781 331 
L 781 2994 
L 231 2994 
L 231 3322 
L 1356 3322 
L 1356 2731 
Q 1525 3078 1790 3245 
Q 2056 3413 2438 3413 
Q 2578 3413 2733 3391 
Q 2888 3369 3059 3328 
z
" transform="scale(0.015625)"/>
       <path id="DejaVuSerif-20" transform="scale(0.015625)"/>
       <path id="DejaVuSerif-28" d="M 2041 -997 
Q 1281 -656 893 83 
Q 506 822 506 1931 
Q 506 3044 893 3783 
Q 1281 4522 2041 4863 
L 2041 4556 
Q 1559 4225 1350 3623 
Q 1141 3022 1141 1931 
Q 1141 844 1350 242 
Q 1559 -359 2041 -691 
L 2041 -997 
z
" transform="scale(0.015625)"/>
       <path id="DejaVuSerif-73" d="M 359 184 
L 359 959 
L 691 959 
Q 703 588 923 403 
Q 1144 219 1575 219 
Q 1963 219 2166 364 
Q 2369 509 2369 788 
Q 2369 1006 2220 1140 
Q 2072 1275 1594 1428 
L 1178 1569 
Q 750 1706 558 1912 
Q 366 2119 366 2438 
Q 366 2894 700 3153 
Q 1034 3413 1625 3413 
Q 1888 3413 2178 3344 
Q 2469 3275 2778 3144 
L 2778 2419 
L 2447 2419 
Q 2434 2741 2221 2922 
Q 2009 3103 1644 3103 
Q 1281 3103 1095 2975 
Q 909 2847 909 2591 
Q 909 2381 1050 2254 
Q 1191 2128 1613 1997 
L 2069 1856 
Q 2541 1709 2748 1489 
Q 2956 1269 2956 922 
Q 2956 450 2595 179 
Q 2234 -91 1600 -91 
Q 1278 -91 972 -22 
Q 666 47 359 184 
z
" transform="scale(0.015625)"/>
       <path id="DejaVuSerif-6f" d="M 1925 219 
Q 2388 219 2623 584 
Q 2859 950 2859 1663 
Q 2859 2375 2623 2739 
Q 2388 3103 1925 3103 
Q 1463 3103 1227 2739 
Q 991 2375 991 1663 
Q 991 950 1228 584 
Q 1466 219 1925 219 
z
M 1925 -91 
Q 1200 -91 759 389 
Q 319 869 319 1663 
Q 319 2456 758 2934 
Q 1197 3413 1925 3413 
Q 2653 3413 3092 2934 
Q 3531 2456 3531 1663 
Q 3531 869 3092 389 
Q 2653 -91 1925 -91 
z
" transform="scale(0.015625)"/>
       <path id="DejaVuSerif-6e" d="M 263 0 
L 263 331 
L 781 331 
L 781 2988 
L 231 2988 
L 231 3322 
L 1356 3322 
L 1356 2731 
Q 1516 3069 1770 3241 
Q 2025 3413 2363 3413 
Q 2913 3413 3172 3097 
Q 3431 2781 3431 2113 
L 3431 331 
L 3944 331 
L 3944 0 
L 2356 0 
L 2356 331 
L 2853 331 
L 2853 1931 
Q 2853 2541 2703 2767 
Q 2553 2994 2175 2994 
Q 1775 2994 1565 2701 
Q 1356 2409 1356 1850 
L 1356 331 
L 1856 331 
L 1856 0 
L 263 0 
z
" transform="scale(0.015625)"/>
       <path id="DejaVuSerif-64" d="M 3359 331 
L 3909 331 
L 3909 0 
L 2784 0 
L 2784 519 
Q 2616 206 2355 57 
Q 2094 -91 1709 -91 
Q 1097 -91 708 395 
Q 319 881 319 1663 
Q 319 2444 706 2928 
Q 1094 3413 1709 3413 
Q 2094 3413 2355 3264 
Q 2616 3116 2784 2803 
L 2784 4531 
L 2241 4531 
L 2241 4863 
L 3359 4863 
L 3359 331 
z
M 2784 1497 
L 2784 1825 
Q 2784 2422 2554 2737 
Q 2325 3053 1888 3053 
Q 1444 3053 1217 2703 
Q 991 2353 991 1663 
Q 991 975 1217 622 
Q 1444 269 1888 269 
Q 2325 269 2554 583 
Q 2784 897 2784 1497 
z
" transform="scale(0.015625)"/>
       <path id="DejaVuSerif-69" d="M 622 4353 
Q 622 4497 726 4603 
Q 831 4709 978 4709 
Q 1122 4709 1226 4603 
Q 1331 4497 1331 4353 
Q 1331 4206 1228 4103 
Q 1125 4000 978 4000 
Q 831 4000 726 4103 
Q 622 4206 622 4353 
z
M 1356 331 
L 1900 331 
L 1900 0 
L 231 0 
L 231 331 
L 781 331 
L 781 2988 
L 231 2988 
L 231 3322 
L 1356 3322 
L 1356 331 
z
" transform="scale(0.015625)"/>
       <path id="DejaVuSerif-67" d="M 3359 2988 
L 3359 72 
Q 3359 -644 2965 -1033 
Q 2572 -1422 1844 -1422 
Q 1516 -1422 1216 -1362 
Q 916 -1303 641 -1184 
L 641 -488 
L 941 -488 
Q 997 -813 1206 -963 
Q 1416 -1113 1806 -1113 
Q 2313 -1113 2548 -827 
Q 2784 -541 2784 72 
L 2784 519 
Q 2616 206 2355 57 
Q 2094 -91 1709 -91 
Q 1097 -91 708 395 
Q 319 881 319 1663 
Q 319 2444 706 2928 
Q 1094 3413 1709 3413 
Q 2094 3413 2355 3264 
Q 2616 3116 2784 2803 
L 2784 3322 
L 3909 3322 
L 3909 2988 
L 3359 2988 
z
M 2784 1825 
Q 2784 2422 2554 2737 
Q 2325 3053 1888 3053 
Q 1444 3053 1217 2703 
Q 991 2353 991 1663 
Q 991 975 1217 622 
Q 1444 269 1888 269 
Q 2325 269 2554 583 
Q 2784 897 2784 1497 
L 2784 1825 
z
" transform="scale(0.015625)"/>
       <path id="DejaVuSerif-29" d="M 453 -997 
L 453 -691 
Q 934 -359 1145 242 
Q 1356 844 1356 1931 
Q 1356 3022 1145 3623 
Q 934 4225 453 4556 
L 453 4863 
Q 1216 4522 1603 3783 
Q 1991 3044 1991 1931 
Q 1991 822 1603 83 
Q 1216 -656 453 -997 
z
" transform="scale(0.015625)"/>
      </defs>
      <use xlink:href="#DejaVuSerif-59"/>
      <use xlink:href="#DejaVuSerif-65" transform="translate(57.265625 0)"/>
      <use xlink:href="#DejaVuSerif-61" transform="translate(116.445312 0)"/>
      <use xlink:href="#DejaVuSerif-72" transform="translate(176.064453 0)"/>
      <use xlink:href="#DejaVuSerif-20" transform="translate(223.867188 0)"/>
      <use xlink:href="#DejaVuSerif-28" transform="translate(255.654297 0)"/>
      <use xlink:href="#DejaVuSerif-73" transform="translate(294.667969 0)"/>
      <use xlink:href="#DejaVuSerif-65" transform="translate(345.986328 0)"/>
      <use xlink:href="#DejaVuSerif-61" transform="translate(405.166016 0)"/>
      <use xlink:href="#DejaVuSerif-73" transform="translate(464.785156 0)"/>
      <use xlink:href="#DejaVuSerif-6f" transform="translate(516.103516 0)"/>
      <use xlink:href="#DejaVuSerif-6e" transform="translate(576.308594 0)"/>
      <use xlink:href="#DejaVuSerif-20" transform="translate(640.712891 0)"/>
      <use xlink:href="#DejaVuSerif-65" transform="translate(672.5 0)"/>
      <use xlink:href="#DejaVuSerif-6e" transform="translate(731.679688 0)"/>
      <use xlink:href="#DejaVuSerif-64" transform="translate(796.083984 0)"/>
      <use xlink:href="#DejaVuSerif-69" transform="translate(860.097656 0)"/>
      <use xlink:href="#DejaVuSerif-6e" transform="translate(892.080078 0)"/>
      <use xlink:href="#DejaVuSerif-67" transform="translate(956.484375 0)"/>
      <use xlink:href="#DejaVuSerif-29" transform="translate(1020.498047 0)"/>
     </g>
    </g>
   </g>
   <g id="matplotlib.axis_2">
    <g id="ytick_1">
     <g id="line2d_11">
      <path d="M 40.603125 279.971534 
L 706.075852 279.971534 
" clip-path="url(#p5c9908577d)" style="fill: none; stroke: #d8d4c7; stroke-opacity: 0.7; stroke-width: 0.5; stroke-linecap: square"/>
     </g>
     <g id="line2d_12">
      <defs>
       <path id="m8614a08aa3" d="M 0 0 
L -3.5 0 
" style="stroke: #5a6470; stroke-width: 0.8"/>
      </defs>
      <g>
       <use xlink:href="#m8614a08aa3" x="40.603125" y="279.971534" style="fill: #5a6470; stroke: #5a6470; stroke-width: 0.8"/>
      </g>
     </g>
     <g id="text_7">
      <!-- 35 -->
      <g style="fill: #5a6470" transform="translate(20.878125 283.770753) scale(0.1 -0.1)">
       <defs>
        <path id="DejaVuSerif-33" d="M 622 4469 
Q 988 4606 1323 4678 
Q 1659 4750 1953 4750 
Q 2638 4750 3022 4454 
Q 3406 4159 3406 3634 
Q 3406 3213 3140 2930 
Q 2875 2647 2388 2547 
Q 2963 2466 3280 2130 
Q 3597 1794 3597 1259 
Q 3597 606 3158 257 
Q 2719 -91 1894 -91 
Q 1528 -91 1179 -12 
Q 831 66 488 225 
L 488 1131 
L 838 1131 
Q 869 681 1141 450 
Q 1413 219 1906 219 
Q 2384 219 2661 495 
Q 2938 772 2938 1253 
Q 2938 1803 2653 2086 
Q 2369 2369 1819 2369 
L 1522 2369 
L 1522 2688 
L 1678 2688 
Q 2225 2688 2498 2914 
Q 2772 3141 2772 3597 
Q 2772 4006 2547 4223 
Q 2322 4441 1900 4441 
Q 1478 4441 1245 4241 
Q 1013 4041 972 3647 
L 622 3647 
L 622 4469 
z
" transform="scale(0.015625)"/>
        <path id="DejaVuSerif-35" d="M 3219 4666 
L 3219 4153 
L 1081 4153 
L 1081 2816 
Q 1244 2928 1461 2984 
Q 1678 3041 1947 3041 
Q 2703 3041 3140 2622 
Q 3578 2203 3578 1478 
Q 3578 738 3136 323 
Q 2694 -91 1894 -91 
Q 1572 -91 1234 -12 
Q 897 66 544 225 
L 544 1131 
L 897 1131 
Q 925 688 1179 453 
Q 1434 219 1894 219 
Q 2388 219 2653 544 
Q 2919 869 2919 1478 
Q 2919 2084 2655 2407 
Q 2391 2731 1894 2731 
Q 1613 2731 1398 2631 
Q 1184 2531 1019 2322 
L 750 2322 
L 750 4666 
L 3219 4666 
z
" transform="scale(0.015625)"/>
       </defs>
       <use xlink:href="#DejaVuSerif-33"/>
       <use xlink:href="#DejaVuSerif-35" transform="translate(63.623047 0)"/>
      </g>
     </g>
    </g>
    <g id="ytick_2">
     <g id="line2d_13">
      <path d="M 40.603125 243.163904 
L 706.075852 243.163904 
" clip-path="url(#p5c9908577d)" style="fill: none; stroke: #d8d4c7; stroke-opacity: 0.7; stroke-width: 0.5; stroke-linecap: square"/>
     </g>
     <g id="line2d_14">
      <g>
       <use xlink:href="#m8614a08aa3" x="40.603125" y="243.163904" style="fill: #5a6470; stroke: #5a6470; stroke-width: 0.8"/>
      </g>
     </g>
     <g id="text_8">
      <!-- 40 -->
      <g style="fill: #5a6470" transform="translate(20.878125 246.963123) scale(0.1 -0.1)">
       <defs>
        <path id="DejaVuSerif-34" d="M 2234 1581 
L 2234 4063 
L 641 1581 
L 2234 1581 
z
M 3609 0 
L 1484 0 
L 1484 331 
L 2234 331 
L 2234 1247 
L 197 1247 
L 197 1588 
L 2241 4750 
L 2859 4750 
L 2859 1581 
L 3750 1581 
L 3750 1247 
L 2859 1247 
L 2859 331 
L 3609 331 
L 3609 0 
z
" transform="scale(0.015625)"/>
       </defs>
       <use xlink:href="#DejaVuSerif-34"/>
       <use xlink:href="#DejaVuSerif-30" transform="translate(63.623047 0)"/>
      </g>
     </g>
    </g>
    <g id="ytick_3">
     <g id="line2d_15">
      <path d="M 40.603125 206.356274 
L 706.075852 206.356274 
" clip-path="url(#p5c9908577d)" style="fill: none; stroke: #d8d4c7; stroke-opacity: 0.7; stroke-width: 0.5; stroke-linecap: square"/>
     </g>
     <g id="line2d_16">
      <g>
       <use xlink:href="#m8614a08aa3" x="40.603125" y="206.356274" style="fill: #5a6470; stroke: #5a6470; stroke-width: 0.8"/>
      </g>
     </g>
     <g id="text_9">
      <!-- 45 -->
      <g style="fill: #5a6470" transform="translate(20.878125 210.155493) scale(0.1 -0.1)">
       <use xlink:href="#DejaVuSerif-34"/>
       <use xlink:href="#DejaVuSerif-35" transform="translate(63.623047 0)"/>
      </g>
     </g>
    </g>
    <g id="ytick_4">
     <g id="line2d_17">
      <path d="M 40.603125 169.548644 
L 706.075852 169.548644 
" clip-path="url(#p5c9908577d)" style="fill: none; stroke: #d8d4c7; stroke-opacity: 0.7; stroke-width: 0.5; stroke-linecap: square"/>
     </g>
     <g id="line2d_18">
      <g>
       <use xlink:href="#m8614a08aa3" x="40.603125" y="169.548644" style="fill: #5a6470; stroke: #5a6470; stroke-width: 0.8"/>
      </g>
     </g>
     <g id="text_10">
      <!-- 50 -->
      <g style="fill: #5a6470" transform="translate(20.878125 173.347863) scale(0.1 -0.1)">
       <use xlink:href="#DejaVuSerif-35"/>
       <use xlink:href="#DejaVuSerif-30" transform="translate(63.623047 0)"/>
      </g>
     </g>
    </g>
    <g id="ytick_5">
     <g id="line2d_19">
      <path d="M 40.603125 132.741015 
L 706.075852 132.741015 
" clip-path="url(#p5c9908577d)" style="fill: none; stroke: #d8d4c7; stroke-opacity: 0.7; stroke-width: 0.5; stroke-linecap: square"/>
     </g>
     <g id="line2d_20">
      <g>
       <use xlink:href="#m8614a08aa3" x="40.603125" y="132.741015" style="fill: #5a6470; stroke: #5a6470; stroke-width: 0.8"/>
      </g>
     </g>
     <g id="text_11">
      <!-- 55 -->
      <g style="fill: #5a6470" transform="translate(20.878125 136.540233) scale(0.1 -0.1)">
       <use xlink:href="#DejaVuSerif-35"/>
       <use xlink:href="#DejaVuSerif-35" transform="translate(63.623047 0)"/>
      </g>
     </g>
    </g>
    <g id="ytick_6">
     <g id="line2d_21">
      <path d="M 40.603125 95.933385 
L 706.075852 95.933385 
" clip-path="url(#p5c9908577d)" style="fill: none; stroke: #d8d4c7; stroke-opacity: 0.7; stroke-width: 0.5; stroke-linecap: square"/>
     </g>
     <g id="line2d_22">
      <g>
       <use xlink:href="#m8614a08aa3" x="40.603125" y="95.933385" style="fill: #5a6470; stroke: #5a6470; stroke-width: 0.8"/>
      </g>
     </g>
     <g id="text_12">
      <!-- 60 -->
      <g style="fill: #5a6470" transform="translate(20.878125 99.732603) scale(0.1 -0.1)">
       <defs>
        <path id="DejaVuSerif-36" d="M 2094 219 
Q 2534 219 2771 542 
Q 3009 866 3009 1472 
Q 3009 2078 2771 2401 
Q 2534 2725 2094 2725 
Q 1647 2725 1412 2412 
Q 1178 2100 1178 1509 
Q 1178 888 1415 553 
Q 1653 219 2094 219 
z
M 1075 2569 
Q 1288 2803 1556 2918 
Q 1825 3034 2163 3034 
Q 2859 3034 3264 2615 
Q 3669 2197 3669 1472 
Q 3669 763 3233 336 
Q 2797 -91 2069 -91 
Q 1278 -91 853 498 
Q 428 1088 428 2181 
Q 428 3406 931 4078 
Q 1434 4750 2350 4750 
Q 2597 4750 2869 4703 
Q 3141 4656 3425 4563 
L 3425 3794 
L 3072 3794 
Q 3034 4109 2831 4275 
Q 2628 4441 2284 4441 
Q 1678 4441 1381 3981 
Q 1084 3522 1075 2569 
z
" transform="scale(0.015625)"/>
       </defs>
       <use xlink:href="#DejaVuSerif-36"/>
       <use xlink:href="#DejaVuSerif-30" transform="translate(63.623047 0)"/>
      </g>
     </g>
    </g>
    <g id="ytick_7">
     <g id="line2d_23">
      <path d="M 40.603125 59.125755 
L 706.075852 59.125755 
" clip-path="url(#p5c9908577d)" style="fill: none; stroke: #d8d4c7; stroke-opacity: 0.7; stroke-width: 0.5; stroke-linecap: square"/>
     </g>
     <g id="line2d_24">
      <g>
       <use xlink:href="#m8614a08aa3" x="40.603125" y="59.125755" style="fill: #5a6470; stroke: #5a6470; stroke-width: 0.8"/>
      </g>
     </g>
     <g id="text_13">
      <!-- 65 -->
      <g style="fill: #5a6470" transform="translate(20.878125 62.924974) scale(0.1 -0.1)">
       <use xlink:href="#DejaVuSerif-36"/>
       <use xlink:href="#DejaVuSerif-35" transform="translate(63.623047 0)"/>
      </g>
     </g>
    </g>
    <g id="ytick_8">
     <g id="line2d_25">
      <path d="M 40.603125 22.318125 
L 706.075852 22.318125 
" clip-path="url(#p5c9908577d)" style="fill: none; stroke: #d8d4c7; stroke-opacity: 0.7; stroke-width: 0.5; stroke-linecap: square"/>
     </g>
     <g id="line2d_26">
      <g>
       <use xlink:href="#m8614a08aa3" x="40.603125" y="22.318125" style="fill: #5a6470; stroke: #5a6470; stroke-width: 0.8"/>
      </g>
     </g>
     <g id="text_14">
      <!-- 70 -->
      <g style="fill: #5a6470" transform="translate(20.878125 26.117344) scale(0.1 -0.1)">
       <defs>
        <path id="DejaVuSerif-37" d="M 3609 4347 
L 1784 0 
L 1319 0 
L 3059 4153 
L 903 4153 
L 903 3578 
L 538 3578 
L 538 4666 
L 3609 4666 
L 3609 4347 
z
" transform="scale(0.015625)"/>
       </defs>
       <use xlink:href="#DejaVuSerif-37"/>
       <use xlink:href="#DejaVuSerif-30" transform="translate(63.623047 0)"/>
      </g>
     </g>
    </g>
    <g id="text_15">
     <!-- Skier visits, millions -->
     <g style="fill: #1f2328" transform="translate(14.798438 202.41358) rotate(-90) scale(0.1 -0.1)">
      <defs>
       <path id="DejaVuSerif-53" d="M 594 225 
L 594 1288 
L 953 1284 
Q 969 753 1261 498 
Q 1553 244 2150 244 
Q 2706 244 2998 464 
Q 3291 684 3291 1106 
Q 3291 1444 3114 1625 
Q 2938 1806 2369 1978 
L 1753 2163 
Q 1084 2366 811 2669 
Q 538 2972 538 3500 
Q 538 4094 959 4422 
Q 1381 4750 2144 4750 
Q 2469 4750 2856 4679 
Q 3244 4609 3681 4475 
L 3681 3481 
L 3328 3481 
Q 3275 3975 2998 4195 
Q 2722 4416 2156 4416 
Q 1663 4416 1405 4214 
Q 1147 4013 1147 3628 
Q 1147 3294 1340 3103 
Q 1534 2913 2163 2725 
L 2741 2553 
Q 3375 2363 3645 2067 
Q 3916 1772 3916 1275 
Q 3916 597 3481 253 
Q 3047 -91 2188 -91 
Q 1803 -91 1404 -12 
Q 1006 66 594 225 
z
" transform="scale(0.015625)"/>
       <path id="DejaVuSerif-6b" d="M 1831 0 
L 219 0 
L 219 331 
L 738 331 
L 738 4531 
L 184 4531 
L 184 4863 
L 1313 4863 
L 1313 1697 
L 2713 2988 
L 2234 2988 
L 2234 3322 
L 3738 3322 
L 3738 2988 
L 3169 2988 
L 2181 2075 
L 3444 331 
L 3922 331 
L 3922 0 
L 2284 0 
L 2284 331 
L 2759 331 
L 1766 1697 
L 1313 1275 
L 1313 331 
L 1831 331 
L 1831 0 
z
" transform="scale(0.015625)"/>
       <path id="DejaVuSerif-76" d="M 1581 0 
L 359 2988 
L -19 2988 
L -19 3322 
L 1509 3322 
L 1509 2988 
L 978 2988 
L 1913 703 
L 2847 2988 
L 2350 2988 
L 2350 3322 
L 3597 3322 
L 3597 2988 
L 3225 2988 
L 2003 0 
L 1581 0 
z
" transform="scale(0.015625)"/>
       <path id="DejaVuSerif-74" d="M 691 2988 
L 184 2988 
L 184 3322 
L 691 3322 
L 691 4353 
L 1269 4353 
L 1269 3322 
L 2350 3322 
L 2350 2988 
L 1269 2988 
L 1269 878 
Q 1269 456 1350 337 
Q 1431 219 1650 219 
Q 1875 219 1978 351 
Q 2081 484 2088 781 
L 2522 781 
Q 2497 328 2275 118 
Q 2053 -91 1600 -91 
Q 1103 -91 897 129 
Q 691 350 691 878 
L 691 2988 
z
" transform="scale(0.015625)"/>
       <path id="DejaVuSerif-2c" d="M 231 -622 
Q 525 -406 662 -114 
Q 800 178 800 594 
L 800 709 
L 1416 709 
Q 1391 175 1164 -208 
Q 938 -591 481 -872 
L 231 -622 
z
" transform="scale(0.015625)"/>
       <path id="DejaVuSerif-6d" d="M 3316 2675 
Q 3481 3041 3739 3227 
Q 3997 3413 4341 3413 
Q 4863 3413 5119 3089 
Q 5375 2766 5375 2113 
L 5375 331 
L 5894 331 
L 5894 0 
L 4300 0 
L 4300 331 
L 4800 331 
L 4800 2047 
Q 4800 2556 4650 2772 
Q 4500 2988 4153 2988 
Q 3769 2988 3567 2697 
Q 3366 2406 3366 1850 
L 3366 331 
L 3866 331 
L 3866 0 
L 2291 0 
L 2291 331 
L 2791 331 
L 2791 2069 
Q 2791 2566 2641 2777 
Q 2491 2988 2144 2988 
Q 1759 2988 1557 2697 
Q 1356 2406 1356 1850 
L 1356 331 
L 1856 331 
L 1856 0 
L 263 0 
L 263 331 
L 781 331 
L 781 2994 
L 231 2994 
L 231 3322 
L 1356 3322 
L 1356 2731 
Q 1516 3063 1762 3238 
Q 2009 3413 2322 3413 
Q 2709 3413 2968 3220 
Q 3228 3028 3316 2675 
z
" transform="scale(0.015625)"/>
       <path id="DejaVuSerif-6c" d="M 1313 331 
L 1856 331 
L 1856 0 
L 184 0 
L 184 331 
L 738 331 
L 738 4531 
L 184 4531 
L 184 4863 
L 1313 4863 
L 1313 331 
z
" transform="scale(0.015625)"/>
      </defs>
      <use xlink:href="#DejaVuSerif-53"/>
      <use xlink:href="#DejaVuSerif-6b" transform="translate(68.505859 0)"/>
      <use xlink:href="#DejaVuSerif-69" transform="translate(129.101562 0)"/>
      <use xlink:href="#DejaVuSerif-65" transform="translate(161.083984 0)"/>
      <use xlink:href="#DejaVuSerif-72" transform="translate(220.263672 0)"/>
      <use xlink:href="#DejaVuSerif-20" transform="translate(268.066406 0)"/>
      <use xlink:href="#DejaVuSerif-76" transform="translate(299.853516 0)"/>
      <use xlink:href="#DejaVuSerif-69" transform="translate(356.347656 0)"/>
      <use xlink:href="#DejaVuSerif-73" transform="translate(388.330078 0)"/>
      <use xlink:href="#DejaVuSerif-69" transform="translate(439.648438 0)"/>
      <use xlink:href="#DejaVuSerif-74" transform="translate(471.630859 0)"/>
      <use xlink:href="#DejaVuSerif-73" transform="translate(511.816406 0)"/>
      <use xlink:href="#DejaVuSerif-2c" transform="translate(563.134766 0)"/>
      <use xlink:href="#DejaVuSerif-20" transform="translate(594.921875 0)"/>
      <use xlink:href="#DejaVuSerif-6d" transform="translate(626.708984 0)"/>
      <use xlink:href="#DejaVuSerif-69" transform="translate(721.533203 0)"/>
      <use xlink:href="#DejaVuSerif-6c" transform="translate(753.515625 0)"/>
      <use xlink:href="#DejaVuSerif-6c" transform="translate(785.498047 0)"/>
      <use xlink:href="#DejaVuSerif-69" transform="translate(817.480469 0)"/>
      <use xlink:href="#DejaVuSerif-6f" transform="translate(849.462891 0)"/>
      <use xlink:href="#DejaVuSerif-6e" transform="translate(909.667969 0)"/>
      <use xlink:href="#DejaVuSerif-73" transform="translate(974.072266 0)"/>
     </g>
    </g>
   </g>
   <g id="line2d_27">
    <path d="M 54.46714 168.098424 
L 68.331155 182.799391 
L 82.19517 245.372362 
L 96.059186 164.263069 
L 109.923201 192.656475 
L 123.787216 164.910883 
L 137.651231 159.581138 
L 151.515246 155.407153 
L 165.379261 141.950284 
L 179.243277 140.779801 
L 193.107292 144.997955 
L 206.971307 169.401414 
L 220.835322 193.679727 
L 234.699337 163.40177 
L 248.563352 139.866972 
L 262.427367 135.413249 
L 276.291383 149.841839 
L 290.155398 140.227687 
L 304.019413 150.997599 
L 317.883428 139.204434 
L 331.747443 154.170417 
L 345.611458 153.36801 
L 359.475473 115.537128 
L 373.339489 137.076953 
L 387.203504 113.645216 
L 401.067519 117.52474 
L 414.931534 118.886623 
L 428.795549 104.053148 
L 442.659564 132.240431 
L 456.52358 92.237899 
L 470.387595 115.411982 
L 484.25161 97.50139 
L 498.115625 91.958161 
L 511.97964 162.43741 
L 525.843655 118.724669 
L 539.70767 121.764979 
L 553.571686 143.209105 
L 567.435701 148.995264 
L 581.299716 134.500419 
L 595.163731 145.45437 
L 609.027746 100.769907 
L 622.891761 161.605558 
L 636.755777 103.265465 
L 650.619792 90.817124 
L 664.483807 56.276844 
L 678.347822 92.988774 
L 692.211837 84.891096 
" clip-path="url(#p5c9908577d)" style="fill: none; stroke: #0a3d62; stroke-width: 1.6; stroke-linecap: square"/>
    <defs>
     <path id="m81944638a1" d="M 0 1.75 
C 0.464105 1.75 0.909265 1.565609 1.237437 1.237437 
C 1.565609 0.909265 1.75 0.464105 1.75 0 
C 1.75 -0.464105 1.565609 -0.909265 1.237437 -1.237437 
C 0.909265 -1.565609 0.464105 -1.75 0 -1.75 
C -0.464105 -1.75 -0.909265 -1.565609 -1.237437 -1.237437 
C -1.565609 -0.909265 -1.75 -0.464105 -1.75 0 
C -1.75 0.464105 -1.565609 0.909265 -1.237437 1.237437 
C -0.909265 1.565609 -0.464105 1.75 0 1.75 
z
" style="stroke: #0a3d62"/>
    </defs>
    <g clip-path="url(#p5c9908577d)">
     <use xlink:href="#m81944638a1" x="54.46714" y="168.098424" style="fill: #0a3d62; stroke: #0a3d62"/>
     <use xlink:href="#m81944638a1" x="68.331155" y="182.799391" style="fill: #0a3d62; stroke: #0a3d62"/>
     <use xlink:href="#m81944638a1" x="82.19517" y="245.372362" style="fill: #0a3d62; stroke: #0a3d62"/>
     <use xlink:href="#m81944638a1" x="96.059186" y="164.263069" style="fill: #0a3d62; stroke: #0a3d62"/>
     <use xlink:href="#m81944638a1" x="109.923201" y="192.656475" style="fill: #0a3d62; stroke: #0a3d62"/>
     <use xlink:href="#m81944638a1" x="123.787216" y="164.910883" style="fill: #0a3d62; stroke: #0a3d62"/>
     <use xlink:href="#m81944638a1" x="137.651231" y="159.581138" style="fill: #0a3d62; stroke: #0a3d62"/>
     <use xlink:href="#m81944638a1" x="151.515246" y="155.407153" style="fill: #0a3d62; stroke: #0a3d62"/>
     <use xlink:href="#m81944638a1" x="165.379261" y="141.950284" style="fill: #0a3d62; stroke: #0a3d62"/>
     <use xlink:href="#m81944638a1" x="179.243277" y="140.779801" style="fill: #0a3d62; stroke: #0a3d62"/>
     <use xlink:href="#m81944638a1" x="193.107292" y="144.997955" style="fill: #0a3d62; stroke: #0a3d62"/>
     <use xlink:href="#m81944638a1" x="206.971307" y="169.401414" style="fill: #0a3d62; stroke: #0a3d62"/>
     <use xlink:href="#m81944638a1" x="220.835322" y="193.679727" style="fill: #0a3d62; stroke: #0a3d62"/>
     <use xlink:href="#m81944638a1" x="234.699337" y="163.40177" style="fill: #0a3d62; stroke: #0a3d62"/>
     <use xlink:href="#m81944638a1" x="248.563352" y="139.866972" style="fill: #0a3d62; stroke: #0a3d62"/>
     <use xlink:href="#m81944638a1" x="262.427367" y="135.413249" style="fill: #0a3d62; stroke: #0a3d62"/>
     <use xlink:href="#m81944638a1" x="276.291383" y="149.841839" style="fill: #0a3d62; stroke: #0a3d62"/>
     <use xlink:href="#m81944638a1" x="290.155398" y="140.227687" style="fill: #0a3d62; stroke: #0a3d62"/>
     <use xlink:href="#m81944638a1" x="304.019413" y="150.997599" style="fill: #0a3d62; stroke: #0a3d62"/>
     <use xlink:href="#m81944638a1" x="317.883428" y="139.204434" style="fill: #0a3d62; stroke: #0a3d62"/>
     <use xlink:href="#m81944638a1" x="331.747443" y="154.170417" style="fill: #0a3d62; stroke: #0a3d62"/>
     <use xlink:href="#m81944638a1" x="345.611458" y="153.36801" style="fill: #0a3d62; stroke: #0a3d62"/>
     <use xlink:href="#m81944638a1" x="359.475473" y="115.537128" style="fill: #0a3d62; stroke: #0a3d62"/>
     <use xlink:href="#m81944638a1" x="373.339489" y="137.076953" style="fill: #0a3d62; stroke: #0a3d62"/>
     <use xlink:href="#m81944638a1" x="387.203504" y="113.645216" style="fill: #0a3d62; stroke: #0a3d62"/>
     <use xlink:href="#m81944638a1" x="401.067519" y="117.52474" style="fill: #0a3d62; stroke: #0a3d62"/>
     <use xlink:href="#m81944638a1" x="414.931534" y="118.886623" style="fill: #0a3d62; stroke: #0a3d62"/>
     <use xlink:href="#m81944638a1" x="428.795549" y="104.053148" style="fill: #0a3d62; stroke: #0a3d62"/>
     <use xlink:href="#m81944638a1" x="442.659564" y="132.240431" style="fill: #0a3d62; stroke: #0a3d62"/>
     <use xlink:href="#m81944638a1" x="456.52358" y="92.237899" style="fill: #0a3d62; stroke: #0a3d62"/>
     <use xlink:href="#m81944638a1" x="470.387595" y="115.411982" style="fill: #0a3d62; stroke: #0a3d62"/>
     <use xlink:href="#m81944638a1" x="484.25161" y="97.50139" style="fill: #0a3d62; stroke: #0a3d62"/>
     <use xlink:href="#m81944638a1" x="498.115625" y="91.958161" style="fill: #0a3d62; stroke: #0a3d62"/>
     <use xlink:href="#m81944638a1" x="511.97964" y="162.43741" style="fill: #0a3d62; stroke: #0a3d62"/>
     <use xlink:href="#m81944638a1" x="525.843655" y="118.724669" style="fill: #0a3d62; stroke: #0a3d62"/>
     <use xlink:href="#m81944638a1" x="539.70767" y="121.764979" style="fill: #0a3d62; stroke: #0a3d62"/>
     <use xlink:href="#m81944638a1" x="553.571686" y="143.209105" style="fill: #0a3d62; stroke: #0a3d62"/>
     <use xlink:href="#m81944638a1" x="567.435701" y="148.995264" style="fill: #0a3d62; stroke: #0a3d62"/>
     <use xlink:href="#m81944638a1" x="581.299716" y="134.500419" style="fill: #0a3d62; stroke: #0a3d62"/>
     <use xlink:href="#m81944638a1" x="595.163731" y="145.45437" style="fill: #0a3d62; stroke: #0a3d62"/>
     <use xlink:href="#m81944638a1" x="609.027746" y="100.769907" style="fill: #0a3d62; stroke: #0a3d62"/>
     <use xlink:href="#m81944638a1" x="622.891761" y="161.605558" style="fill: #0a3d62; stroke: #0a3d62"/>
     <use xlink:href="#m81944638a1" x="636.755777" y="103.265465" style="fill: #0a3d62; stroke: #0a3d62"/>
     <use xlink:href="#m81944638a1" x="650.619792" y="90.817124" style="fill: #0a3d62; stroke: #0a3d62"/>
     <use xlink:href="#m81944638a1" x="664.483807" y="56.276844" style="fill: #0a3d62; stroke: #0a3d62"/>
     <use xlink:href="#m81944638a1" x="678.347822" y="92.988774" style="fill: #0a3d62; stroke: #0a3d62"/>
     <use xlink:href="#m81944638a1" x="692.211837" y="84.891096" style="fill: #0a3d62; stroke: #0a3d62"/>
    </g>
   </g>
   <g id="line2d_28">
    <path d="M 470.387595 279.971534 
L 470.387595 22.318125 
" clip-path="url(#p5c9908577d)" style="fill: none; stroke-dasharray: 3.7,1.6; stroke-dashoffset: 0; stroke: #b8860b; stroke-opacity: 0.6"/>
   </g>
   <g id="line2d_29">
    <path d="M 609.027746 279.971534 
L 609.027746 22.318125 
" clip-path="url(#p5c9908577d)" style="fill: none; stroke-dasharray: 3.7,1.6; stroke-dashoffset: 0; stroke: #2a5d3e; stroke-opacity: 0.6"/>
   </g>
   <g id="line2d_30">
    <path d="M 622.891761 279.971534 
L 622.891761 22.318125 
" clip-path="url(#p5c9908577d)" style="fill: none; stroke-dasharray: 1,1.65; stroke-dashoffset: 0; stroke: #a8323e; stroke-opacity: 0.7"/>
   </g>
   <g id="patch_3">
    <path d="M 40.603125 279.971534 
L 40.603125 22.318125 
" style="fill: none; stroke: #1f2328; stroke-width: 0.8; stroke-linejoin: miter; stroke-linecap: square"/>
   </g>
   <g id="patch_4">
    <path d="M 40.603125 279.971534 
L 706.075852 279.971534 
" style="fill: none; stroke: #1f2328; stroke-width: 0.8; stroke-linejoin: miter; stroke-linecap: square"/>
   </g>
   <g id="text_16">
    <!-- Epic -->
    <g style="fill: #b8860b" transform="translate(461.387595 31.76369) scale(0.08 -0.08)">
     <defs>
      <path id="DejaVuSerif-45" d="M 353 0 
L 353 331 
L 947 331 
L 947 4331 
L 353 4331 
L 353 4666 
L 4109 4666 
L 4109 3628 
L 3725 3628 
L 3725 4281 
L 1581 4281 
L 1581 2719 
L 3109 2719 
L 3109 3303 
L 3494 3303 
L 3494 1753 
L 3109 1753 
L 3109 2338 
L 1581 2338 
L 1581 384 
L 3775 384 
L 3775 1038 
L 4159 1038 
L 4159 0 
L 353 0 
z
" transform="scale(0.015625)"/>
      <path id="DejaVuSerif-70" d="M 1313 1825 
L 1313 1497 
Q 1313 897 1542 583 
Q 1772 269 2209 269 
Q 2650 269 2876 622 
Q 3103 975 3103 1663 
Q 3103 2353 2876 2703 
Q 2650 3053 2209 3053 
Q 1772 3053 1542 2737 
Q 1313 2422 1313 1825 
z
M 738 2988 
L 184 2988 
L 184 3322 
L 1313 3322 
L 1313 2803 
Q 1481 3116 1742 3264 
Q 2003 3413 2388 3413 
Q 3000 3413 3387 2928 
Q 3775 2444 3775 1663 
Q 3775 881 3387 395 
Q 3000 -91 2388 -91 
Q 2003 -91 1742 57 
Q 1481 206 1313 519 
L 1313 -997 
L 1856 -997 
L 1856 -1331 
L 184 -1331 
L 184 -997 
L 738 -997 
L 738 2988 
z
" transform="scale(0.015625)"/>
      <path id="DejaVuSerif-63" d="M 3291 997 
Q 3169 466 2822 187 
Q 2475 -91 1925 -91 
Q 1200 -91 759 389 
Q 319 869 319 1663 
Q 319 2459 759 2936 
Q 1200 3413 1925 3413 
Q 2241 3413 2553 3339 
Q 2866 3266 3181 3116 
L 3181 2266 
L 2847 2266 
Q 2781 2703 2561 2903 
Q 2341 3103 1931 3103 
Q 1466 3103 1228 2742 
Q 991 2381 991 1663 
Q 991 944 1227 581 
Q 1463 219 1931 219 
Q 2303 219 2525 412 
Q 2747 606 2828 997 
L 3291 997 
z
" transform="scale(0.015625)"/>
     </defs>
     <use xlink:href="#DejaVuSerif-45"/>
     <use xlink:href="#DejaVuSerif-70" transform="translate(72.998047 0)"/>
     <use xlink:href="#DejaVuSerif-69" transform="translate(137.011719 0)"/>
     <use xlink:href="#DejaVuSerif-63" transform="translate(168.994141 0)"/>
    </g>
    <!-- (2008-09) -->
    <g style="fill: #b8860b" transform="translate(450.64447 40.72194) scale(0.08 -0.08)">
     <defs>
      <path id="DejaVuSerif-2d" d="M 281 1959 
L 1881 1959 
L 1881 1472 
L 281 1472 
L 281 1959 
z
" transform="scale(0.015625)"/>
     </defs>
     <use xlink:href="#DejaVuSerif-28"/>
     <use xlink:href="#DejaVuSerif-32" transform="translate(39.013672 0)"/>
     <use xlink:href="#DejaVuSerif-30" transform="translate(102.636719 0)"/>
     <use xlink:href="#DejaVuSerif-30" transform="translate(166.259766 0)"/>
     <use xlink:href="#DejaVuSerif-38" transform="translate(229.882812 0)"/>
     <use xlink:href="#DejaVuSerif-2d" transform="translate(293.505859 0)"/>
     <use xlink:href="#DejaVuSerif-30" transform="translate(327.294922 0)"/>
     <use xlink:href="#DejaVuSerif-39" transform="translate(390.917969 0)"/>
     <use xlink:href="#DejaVuSerif-29" transform="translate(454.541016 0)"/>
    </g>
   </g>
   <g id="text_17">
    <!-- Ikon -->
    <g style="fill: #2a5d3e" transform="translate(600.039621 31.76369) scale(0.08 -0.08)">
     <defs>
      <path id="DejaVuSerif-49" d="M 1581 331 
L 2175 331 
L 2175 0 
L 353 0 
L 353 331 
L 947 331 
L 947 4331 
L 353 4331 
L 353 4666 
L 2175 4666 
L 2175 4331 
L 1581 4331 
L 1581 331 
z
" transform="scale(0.015625)"/>
     </defs>
     <use xlink:href="#DejaVuSerif-49"/>
     <use xlink:href="#DejaVuSerif-6b" transform="translate(39.501953 0)"/>
     <use xlink:href="#DejaVuSerif-6f" transform="translate(100.097656 0)"/>
     <use xlink:href="#DejaVuSerif-6e" transform="translate(160.302734 0)"/>
    </g>
    <!-- (2018-19) -->
    <g style="fill: #2a5d3e" transform="translate(589.284621 40.72194) scale(0.08 -0.08)">
     <use xlink:href="#DejaVuSerif-28"/>
     <use xlink:href="#DejaVuSerif-32" transform="translate(39.013672 0)"/>
     <use xlink:href="#DejaVuSerif-30" transform="translate(102.636719 0)"/>
     <use xlink:href="#DejaVuSerif-31" transform="translate(166.259766 0)"/>
     <use xlink:href="#DejaVuSerif-38" transform="translate(229.882812 0)"/>
     <use xlink:href="#DejaVuSerif-2d" transform="translate(293.505859 0)"/>
     <use xlink:href="#DejaVuSerif-31" transform="translate(327.294922 0)"/>
     <use xlink:href="#DejaVuSerif-39" transform="translate(390.917969 0)"/>
     <use xlink:href="#DejaVuSerif-29" transform="translate(454.541016 0)"/>
    </g>
   </g>
   <g id="text_18">
    <!-- COVID -->
    <g style="fill: #a8323e" transform="translate(608.946136 250.52543) scale(0.08 -0.08)">
     <defs>
      <path id="DejaVuSerif-43" d="M 4513 1234 
Q 4306 581 3820 245 
Q 3334 -91 2591 -91 
Q 2134 -91 1743 65 
Q 1353 222 1050 525 
Q 700 875 529 1320 
Q 359 1766 359 2328 
Q 359 3416 987 4083 
Q 1616 4750 2644 4750 
Q 3025 4750 3456 4650 
Q 3888 4550 4384 4347 
L 4384 3272 
L 4031 3272 
Q 3916 3859 3567 4137 
Q 3219 4416 2591 4416 
Q 1844 4416 1459 3886 
Q 1075 3356 1075 2328 
Q 1075 1303 1459 773 
Q 1844 244 2591 244 
Q 3113 244 3450 492 
Q 3788 741 3938 1234 
L 4513 1234 
z
" transform="scale(0.015625)"/>
      <path id="DejaVuSerif-4f" d="M 2625 244 
Q 3391 244 3781 770 
Q 4172 1297 4172 2328 
Q 4172 3363 3781 3889 
Q 3391 4416 2625 4416 
Q 1856 4416 1465 3889 
Q 1075 3363 1075 2328 
Q 1075 1297 1465 770 
Q 1856 244 2625 244 
z
M 2625 -91 
Q 2150 -91 1751 65 
Q 1353 222 1050 525 
Q 700 875 529 1319 
Q 359 1763 359 2328 
Q 359 2894 529 3339 
Q 700 3784 1050 4134 
Q 1356 4441 1750 4595 
Q 2144 4750 2625 4750 
Q 3641 4750 4266 4084 
Q 4891 3419 4891 2328 
Q 4891 1769 4719 1320 
Q 4547 872 4197 525 
Q 3891 219 3497 64 
Q 3103 -91 2625 -91 
z
" transform="scale(0.015625)"/>
      <path id="DejaVuSerif-56" d="M 1119 4331 
L 2497 750 
L 3872 4331 
L 3347 4331 
L 3347 4666 
L 4716 4666 
L 4716 4331 
L 4263 4331 
L 2597 0 
L 2059 0 
L 403 4331 
L -63 4331 
L -63 4666 
L 1638 4666 
L 1638 4331 
L 1119 4331 
z
" transform="scale(0.015625)"/>
      <path id="DejaVuSerif-44" d="M 1581 331 
L 2163 331 
Q 3072 331 3558 850 
Q 4044 1369 4044 2338 
Q 4044 3306 3559 3818 
Q 3075 4331 2163 4331 
L 1581 4331 
L 1581 331 
z
M 353 0 
L 353 331 
L 947 331 
L 947 4331 
L 353 4331 
L 353 4666 
L 2209 4666 
Q 3416 4666 4089 4050 
Q 4763 3434 4763 2338 
Q 4763 1238 4088 619 
Q 3413 0 2209 0 
L 353 0 
z
" transform="scale(0.015625)"/>
     </defs>
     <use xlink:href="#DejaVuSerif-43"/>
     <use xlink:href="#DejaVuSerif-4f" transform="translate(76.513672 0)"/>
     <use xlink:href="#DejaVuSerif-56" transform="translate(156.746094 0)"/>
     <use xlink:href="#DejaVuSerif-49" transform="translate(228.962891 0)"/>
     <use xlink:href="#DejaVuSerif-44" transform="translate(268.464844 0)"/>
    </g>
   </g>
   <g id="text_19">
    <!-- U.S. skier visits, 1978–79 through 2024–25 -->
    <g transform="translate(40.603125 16.318125) scale(0.12 -0.12)">
     <defs>
      <path id="DejaVuSerif-Bold-55" d="M 813 4288 
L 219 4288 
L 219 4666 
L 2619 4666 
L 2619 4288 
L 2022 4288 
L 2022 1953 
Q 2022 1081 2294 732 
Q 2566 384 3225 384 
Q 3869 384 4139 736 
Q 4409 1088 4409 1953 
L 4409 4288 
L 3816 4288 
L 3816 4666 
L 5441 4666 
L 5441 4288 
L 4844 4288 
L 4844 1888 
Q 4844 819 4381 364 
Q 3919 -91 2828 -91 
Q 1744 -91 1278 368 
Q 813 828 813 1894 
L 813 4288 
z
" transform="scale(0.015625)"/>
      <path id="DejaVuSerif-Bold-2e" d="M 519 506 
Q 519 750 694 925 
Q 869 1100 1113 1100 
Q 1359 1100 1534 925 
Q 1709 750 1709 506 
Q 1709 259 1534 84 
Q 1359 -91 1113 -91 
Q 869 -91 694 84 
Q 519 259 519 506 
z
" transform="scale(0.015625)"/>
      <path id="DejaVuSerif-Bold-53" d="M 494 225 
L 494 1331 
L 891 1331 
Q 981 806 1318 547 
Q 1656 288 2253 288 
Q 2738 288 2991 472 
Q 3244 656 3244 1013 
Q 3244 1294 3072 1450 
Q 2900 1606 2363 1741 
L 1663 1913 
Q 978 2088 700 2398 
Q 422 2709 422 3284 
Q 422 3978 883 4364 
Q 1344 4750 2175 4750 
Q 2584 4750 3026 4681 
Q 3469 4613 3944 4475 
L 3944 3444 
L 3547 3444 
Q 3456 3925 3150 4148 
Q 2844 4372 2278 4372 
Q 1816 4372 1580 4211 
Q 1344 4050 1344 3731 
Q 1344 3441 1506 3289 
Q 1669 3138 2303 2975 
L 3003 2803 
Q 3653 2641 3945 2297 
Q 4238 1953 4238 1350 
Q 4238 644 3750 276 
Q 3263 -91 2316 -91 
Q 1859 -91 1409 -12 
Q 959 66 494 225 
z
" transform="scale(0.015625)"/>
      <path id="DejaVuSerif-Bold-20" transform="scale(0.015625)"/>
      <path id="DejaVuSerif-Bold-73" d="M 300 97 
L 300 1025 
L 653 1025 
Q 697 653 931 458 
Q 1166 263 1569 263 
Q 1906 263 2086 380 
Q 2266 497 2266 716 
Q 2266 916 2152 1025 
Q 2038 1134 1709 1216 
L 1253 1331 
Q 738 1459 506 1698 
Q 275 1938 275 2344 
Q 275 2884 650 3148 
Q 1025 3413 1806 3413 
Q 2100 3413 2433 3364 
Q 2766 3316 3169 3213 
L 3169 2375 
L 2816 2375 
Q 2788 2716 2573 2887 
Q 2359 3059 1959 3059 
Q 1622 3059 1448 2951 
Q 1275 2844 1275 2638 
Q 1275 2469 1375 2372 
Q 1475 2275 1734 2209 
L 2188 2094 
Q 2841 1928 3091 1684 
Q 3341 1441 3341 1006 
Q 3341 444 2939 176 
Q 2538 -91 1691 -91 
Q 1381 -91 1034 -44 
Q 688 3 300 97 
z
" transform="scale(0.015625)"/>
      <path id="DejaVuSerif-Bold-6b" d="M 2216 0 
L 219 0 
L 219 378 
L 691 378 
L 691 4488 
L 219 4488 
L 219 4863 
L 1797 4863 
L 1797 1741 
L 3138 2944 
L 2741 2944 
L 2741 3322 
L 4256 3322 
L 4256 2944 
L 3641 2944 
L 2784 2175 
L 4184 378 
L 4544 378 
L 4544 0 
L 2638 0 
L 2638 378 
L 3028 378 
L 2106 1563 
L 1797 1288 
L 1797 378 
L 2216 378 
L 2216 0 
z
" transform="scale(0.015625)"/>
      <path id="DejaVuSerif-Bold-69" d="M 588 4263 
Q 588 4516 763 4689 
Q 938 4863 1191 4863 
Q 1438 4863 1611 4689 
Q 1784 4516 1784 4263 
Q 1784 4016 1611 3842 
Q 1438 3669 1191 3669 
Q 938 3669 763 3841 
Q 588 4013 588 4263 
z
M 1797 378 
L 2272 378 
L 2272 0 
L 219 0 
L 219 378 
L 691 378 
L 691 2944 
L 219 2944 
L 219 3322 
L 1797 3322 
L 1797 378 
z
" transform="scale(0.015625)"/>
      <path id="DejaVuSerif-Bold-65" d="M 2566 1875 
Q 2566 2531 2444 2795 
Q 2322 3059 2028 3059 
Q 1744 3059 1620 2800 
Q 1497 2541 1497 1931 
L 1497 1875 
L 2566 1875 
z
M 3781 1503 
L 1497 1503 
L 1497 1478 
Q 1497 834 1690 548 
Q 1884 263 2316 263 
Q 2675 263 2897 453 
Q 3119 644 3181 1006 
L 3700 1006 
Q 3566 441 3166 175 
Q 2766 -91 2047 -91 
Q 1184 -91 723 364 
Q 263 819 263 1663 
Q 263 2488 734 2950 
Q 1206 3413 2047 3413 
Q 2872 3413 3312 2927 
Q 3753 2441 3781 1503 
z
" transform="scale(0.015625)"/>
      <path id="DejaVuSerif-Bold-72" d="M 3438 3359 
L 3438 2369 
L 3084 2369 
Q 3066 2634 2941 2764 
Q 2816 2894 2578 2894 
Q 2216 2894 2006 2575 
Q 1797 2256 1797 1691 
L 1797 378 
L 2400 378 
L 2400 0 
L 219 0 
L 219 378 
L 691 378 
L 691 2944 
L 184 2944 
L 184 3322 
L 1797 3322 
L 1797 2731 
Q 1959 3078 2226 3245 
Q 2494 3413 2881 3413 
Q 2978 3413 3117 3398 
Q 3256 3384 3438 3359 
z
" transform="scale(0.015625)"/>
      <path id="DejaVuSerif-Bold-76" d="M 1428 0 
L 250 2944 
L -116 2944 
L -116 3322 
L 1791 3322 
L 1791 2944 
L 1388 2944 
L 2228 844 
L 3066 2944 
L 2631 2944 
L 2631 3322 
L 3878 3322 
L 3878 2944 
L 3494 2944 
L 2316 0 
L 1428 0 
z
" transform="scale(0.015625)"/>
      <path id="DejaVuSerif-Bold-74" d="M 634 2944 
L 153 2944 
L 153 3322 
L 634 3322 
L 634 4353 
L 1741 4353 
L 1741 3322 
L 2663 3322 
L 2663 2944 
L 1741 2944 
L 1741 909 
Q 1741 475 1809 369 
Q 1878 263 2059 263 
Q 2259 263 2356 397 
Q 2453 531 2459 813 
L 2925 813 
Q 2897 313 2651 111 
Q 2406 -91 1806 -91 
Q 1122 -91 878 123 
Q 634 338 634 909 
L 634 2944 
z
" transform="scale(0.015625)"/>
      <path id="DejaVuSerif-Bold-2c" d="M 84 -616 
Q 409 -353 562 -28 
Q 716 297 716 728 
L 716 997 
L 1606 997 
L 1606 972 
Q 1606 281 1317 -217 
Q 1028 -716 428 -1056 
L 84 -616 
z
" transform="scale(0.015625)"/>
      <path id="DejaVuSerif-Bold-31" d="M 878 0 
L 878 378 
L 1753 378 
L 1753 4153 
L 781 3578 
L 781 4044 
L 1953 4750 
L 2938 4750 
L 2938 378 
L 3816 378 
L 3816 0 
L 878 0 
z
" transform="scale(0.015625)"/>
      <path id="DejaVuSerif-Bold-39" d="M 2181 4384 
Q 1859 4384 1723 4111 
Q 1588 3838 1588 3163 
Q 1588 2488 1723 2214 
Q 1859 1941 2181 1941 
Q 2503 1941 2640 2214 
Q 2778 2488 2778 3163 
Q 2778 3838 2640 4111 
Q 2503 4384 2181 4384 
z
M 2878 1900 
Q 2672 1734 2420 1651 
Q 2169 1569 1875 1569 
Q 1163 1569 755 1986 
Q 347 2403 347 3138 
Q 347 3913 803 4331 
Q 1259 4750 2106 4750 
Q 3063 4750 3556 4172 
Q 4050 3594 4050 2478 
Q 4050 1206 3503 557 
Q 2956 -91 1881 -91 
Q 1600 -91 1278 -44 
Q 956 3 588 97 
L 588 922 
L 966 922 
Q 1044 603 1261 439 
Q 1478 275 1825 275 
Q 2375 275 2625 658 
Q 2875 1041 2878 1900 
z
" transform="scale(0.015625)"/>
      <path id="DejaVuSerif-Bold-37" d="M 3922 3872 
L 1997 0 
L 1363 0 
L 3238 3781 
L 934 3781 
L 934 3150 
L 506 3150 
L 506 4666 
L 3922 4666 
L 3922 3872 
z
" transform="scale(0.015625)"/>
      <path id="DejaVuSerif-Bold-38" d="M 2975 2484 
Q 3531 2394 3820 2075 
Q 4109 1756 4109 1241 
Q 4109 597 3623 253 
Q 3138 -91 2222 -91 
Q 1306 -91 818 253 
Q 331 597 331 1241 
Q 331 1756 622 2075 
Q 913 2394 1466 2484 
Q 975 2597 731 2861 
Q 488 3125 488 3531 
Q 488 4125 931 4437 
Q 1375 4750 2222 4750 
Q 3066 4750 3511 4437 
Q 3956 4125 3956 3531 
Q 3956 3125 3711 2861 
Q 3466 2597 2975 2484 
z
M 2747 3519 
Q 2747 4013 2628 4198 
Q 2509 4384 2222 4384 
Q 1931 4384 1814 4198 
Q 1697 4013 1697 3519 
Q 1697 3028 1814 2845 
Q 1931 2663 2222 2663 
Q 2513 2663 2630 2845 
Q 2747 3028 2747 3519 
z
M 2869 1294 
Q 2869 1866 2723 2081 
Q 2578 2297 2222 2297 
Q 1863 2297 1719 2081 
Q 1575 1866 1575 1294 
Q 1575 716 1720 495 
Q 1866 275 2222 275 
Q 2575 275 2722 495 
Q 2869 716 2869 1294 
z
" transform="scale(0.015625)"/>
      <path id="DejaVuSerif-Bold-2013" d="M 344 2075 
L 2856 2075 
L 2856 1325 
L 344 1325 
L 344 2075 
z
" transform="scale(0.015625)"/>
      <path id="DejaVuSerif-Bold-68" d="M 219 0 
L 219 378 
L 691 378 
L 691 4488 
L 197 4488 
L 197 4863 
L 1797 4863 
L 1797 2853 
Q 1997 3150 2253 3281 
Q 2509 3413 2900 3413 
Q 3459 3413 3745 3083 
Q 4031 2753 4031 2113 
L 4031 378 
L 4506 378 
L 4506 0 
L 2522 0 
L 2522 378 
L 2925 378 
L 2925 2144 
Q 2925 2566 2817 2730 
Q 2709 2894 2444 2894 
Q 2109 2894 1953 2648 
Q 1797 2403 1797 1869 
L 1797 378 
L 2203 378 
L 2203 0 
L 219 0 
z
" transform="scale(0.015625)"/>
      <path id="DejaVuSerif-Bold-6f" d="M 2138 263 
Q 2488 263 2630 563 
Q 2772 863 2772 1663 
Q 2772 2463 2631 2761 
Q 2491 3059 2138 3059 
Q 1784 3059 1640 2757 
Q 1497 2456 1497 1663 
Q 1497 869 1640 566 
Q 1784 263 2138 263 
z
M 2138 -91 
Q 1259 -91 761 376 
Q 263 844 263 1663 
Q 263 2484 761 2948 
Q 1259 3413 2138 3413 
Q 3019 3413 3516 2948 
Q 4013 2484 4013 1663 
Q 4013 844 3514 376 
Q 3016 -91 2138 -91 
z
" transform="scale(0.015625)"/>
      <path id="DejaVuSerif-Bold-75" d="M 3963 3322 
L 3963 378 
L 4434 378 
L 4434 0 
L 2853 0 
L 2853 469 
Q 2656 172 2400 40 
Q 2144 -91 1753 -91 
Q 1194 -91 908 239 
Q 622 569 622 1209 
L 622 2944 
L 147 2944 
L 147 3322 
L 1728 3322 
L 1728 1381 
Q 1728 763 1831 595 
Q 1934 428 2209 428 
Q 2544 428 2698 675 
Q 2853 922 2853 1459 
L 2853 2944 
L 2450 2944 
L 2450 3322 
L 3963 3322 
z
" transform="scale(0.015625)"/>
      <path id="DejaVuSerif-Bold-67" d="M 3853 2944 
L 3853 44 
Q 3853 -656 3354 -1039 
Q 2856 -1422 1947 -1422 
Q 1616 -1422 1275 -1370 
Q 934 -1319 575 -1216 
L 575 -422 
L 928 -422 
Q 975 -750 1192 -909 
Q 1409 -1069 1813 -1069 
Q 2325 -1069 2536 -823 
Q 2747 -578 2747 44 
L 2747 422 
Q 2606 163 2367 36 
Q 2128 -91 1778 -91 
Q 1072 -91 667 378 
Q 263 847 263 1663 
Q 263 2481 667 2947 
Q 1072 3413 1778 3413 
Q 2128 3413 2367 3286 
Q 2606 3159 2747 2900 
L 2747 3322 
L 4325 3322 
L 4325 2944 
L 3853 2944 
z
M 2747 1825 
Q 2747 2406 2597 2665 
Q 2447 2925 2119 2925 
Q 1775 2925 1636 2651 
Q 1497 2378 1497 1663 
Q 1497 947 1637 672 
Q 1778 397 2119 397 
Q 2447 397 2597 656 
Q 2747 916 2747 1497 
L 2747 1825 
z
" transform="scale(0.015625)"/>
      <path id="DejaVuSerif-Bold-32" d="M 844 3513 
L 469 3513 
L 469 4519 
Q 850 4634 1223 4692 
Q 1597 4750 1978 4750 
Q 2869 4750 3367 4386 
Q 3866 4022 3866 3372 
Q 3866 2909 3591 2542 
Q 3316 2175 2541 1672 
L 1241 819 
L 3450 819 
L 3450 1369 
L 3878 1369 
L 3878 0 
L 428 0 
L 428 763 
L 1119 1241 
Q 2003 1850 2297 2278 
Q 2591 2706 2591 3278 
Q 2591 3819 2367 4101 
Q 2144 4384 1716 4384 
Q 1347 4384 1125 4161 
Q 903 3938 844 3513 
z
" transform="scale(0.015625)"/>
      <path id="DejaVuSerif-Bold-30" d="M 2228 275 
Q 2603 275 2742 615 
Q 2881 956 2881 2328 
Q 2881 3691 2742 4037 
Q 2603 4384 2228 4384 
Q 1853 4384 1714 4043 
Q 1575 3703 1575 2328 
Q 1575 956 1714 615 
Q 1853 275 2228 275 
z
M 2228 -91 
Q 1294 -91 797 532 
Q 300 1156 300 2328 
Q 300 3500 797 4125 
Q 1294 4750 2228 4750 
Q 3159 4750 3656 4125 
Q 4153 3500 4153 2328 
Q 4153 1156 3656 532 
Q 3159 -91 2228 -91 
z
" transform="scale(0.015625)"/>
      <path id="DejaVuSerif-Bold-34" d="M 4084 0 
L 1516 0 
L 1516 378 
L 2209 378 
L 2209 1228 
L 263 1228 
L 263 1588 
L 2216 4750 
L 3391 4750 
L 3391 1631 
L 4191 1631 
L 4191 1228 
L 3391 1228 
L 3391 378 
L 4084 378 
L 4084 0 
z
M 2209 1631 
L 2209 3897 
L 819 1631 
L 2209 1631 
z
" transform="scale(0.015625)"/>
      <path id="DejaVuSerif-Bold-35" d="M 3609 4666 
L 3609 3847 
L 1113 3847 
L 1113 2822 
Q 1319 2981 1572 3062 
Q 1825 3144 2106 3144 
Q 2969 3144 3469 2708 
Q 3969 2272 3969 1522 
Q 3969 759 3469 334 
Q 2969 -91 2069 -91 
Q 1688 -91 1311 -28 
Q 934 34 525 166 
L 525 1184 
L 900 1184 
Q 919 725 1139 500 
Q 1359 275 1791 275 
Q 2250 275 2472 583 
Q 2694 891 2694 1522 
Q 2694 2144 2476 2451 
Q 2259 2759 1819 2759 
Q 1581 2759 1395 2661 
Q 1209 2563 1050 2356 
L 738 2356 
L 738 4666 
L 3609 4666 
z
" transform="scale(0.015625)"/>
     </defs>
     <use xlink:href="#DejaVuSerif-Bold-55"/>
     <use xlink:href="#DejaVuSerif-Bold-2e" transform="translate(78.082031 0)"/>
     <use xlink:href="#DejaVuSerif-Bold-53" transform="translate(112.896484 0)"/>
     <use xlink:href="#DejaVuSerif-Bold-2e" transform="translate(181.488281 0)"/>
     <use xlink:href="#DejaVuSerif-Bold-20" transform="translate(216.302734 0)"/>
     <use xlink:href="#DejaVuSerif-Bold-73" transform="translate(251.117188 0)"/>
     <use xlink:href="#DejaVuSerif-Bold-6b" transform="translate(307.416016 0)"/>
     <use xlink:href="#DejaVuSerif-Bold-69" transform="translate(376.703125 0)"/>
     <use xlink:href="#DejaVuSerif-Bold-65" transform="translate(414.691406 0)"/>
     <use xlink:href="#DejaVuSerif-Bold-72" transform="translate(478.314453 0)"/>
     <use xlink:href="#DejaVuSerif-Bold-20" transform="translate(531 0)"/>
     <use xlink:href="#DejaVuSerif-Bold-76" transform="translate(565.814453 0)"/>
     <use xlink:href="#DejaVuSerif-Bold-69" transform="translate(623.919922 0)"/>
     <use xlink:href="#DejaVuSerif-Bold-73" transform="translate(661.908203 0)"/>
     <use xlink:href="#DejaVuSerif-Bold-69" transform="translate(718.207031 0)"/>
     <use xlink:href="#DejaVuSerif-Bold-74" transform="translate(756.195312 0)"/>
     <use xlink:href="#DejaVuSerif-Bold-73" transform="translate(802.386719 0)"/>
     <use xlink:href="#DejaVuSerif-Bold-2c" transform="translate(858.685547 0)"/>
     <use xlink:href="#DejaVuSerif-Bold-20" transform="translate(893.5 0)"/>
     <use xlink:href="#DejaVuSerif-Bold-31" transform="translate(928.314453 0)"/>
     <use xlink:href="#DejaVuSerif-Bold-39" transform="translate(997.894531 0)"/>
     <use xlink:href="#DejaVuSerif-Bold-37" transform="translate(1067.474609 0)"/>
     <use xlink:href="#DejaVuSerif-Bold-38" transform="translate(1137.054688 0)"/>
     <use xlink:href="#DejaVuSerif-Bold-2013" transform="translate(1206.634766 0)"/>
     <use xlink:href="#DejaVuSerif-Bold-37" transform="translate(1256.634766 0)"/>
     <use xlink:href="#DejaVuSerif-Bold-39" transform="translate(1326.214844 0)"/>
     <use xlink:href="#DejaVuSerif-Bold-20" transform="translate(1395.794922 0)"/>
     <use xlink:href="#DejaVuSerif-Bold-74" transform="translate(1430.609375 0)"/>
     <use xlink:href="#DejaVuSerif-Bold-68" transform="translate(1476.800781 0)"/>
     <use xlink:href="#DejaVuSerif-Bold-72" transform="translate(1549.505859 0)"/>
     <use xlink:href="#DejaVuSerif-Bold-6f" transform="translate(1602.191406 0)"/>
     <use xlink:href="#DejaVuSerif-Bold-75" transform="translate(1668.890625 0)"/>
     <use xlink:href="#DejaVuSerif-Bold-67" transform="translate(1741.595703 0)"/>
     <use xlink:href="#DejaVuSerif-Bold-68" transform="translate(1811.517578 0)"/>
     <use xlink:href="#DejaVuSerif-Bold-20" transform="translate(1884.222656 0)"/>
     <use xlink:href="#DejaVuSerif-Bold-32" transform="translate(1919.037109 0)"/>
     <use xlink:href="#DejaVuSerif-Bold-30" transform="translate(1988.617188 0)"/>
     <use xlink:href="#DejaVuSerif-Bold-32" transform="translate(2058.197266 0)"/>
     <use xlink:href="#DejaVuSerif-Bold-34" transform="translate(2127.777344 0)"/>
     <use xlink:href="#DejaVuSerif-Bold-2013" transform="translate(2197.357422 0)"/>
     <use xlink:href="#DejaVuSerif-Bold-32" transform="translate(2247.357422 0)"/>
     <use xlink:href="#DejaVuSerif-Bold-35" transform="translate(2316.9375 0)"/>
    </g>
   </g>
   <g id="PathCollection_1">
    <defs>
     <path id="m708a40d629" d="M 0 -5 
L -1.12257 -1.545085 
L -4.755283 -1.545085 
L -1.816356 0.59017 
L -2.938926 4.045085 
L -0 1.90983 
L 2.938926 4.045085 
L 1.816356 0.59017 
L 4.755283 -1.545085 
L 1.12257 -1.545085 
z
" style="stroke: #ffffff; stroke-width: 0.8"/>
    </defs>
    <g clip-path="url(#p5c9908577d)">
     <use xlink:href="#m708a40d629" x="68.331155" y="182.799391" style="fill: #a8323e; stroke: #ffffff; stroke-width: 0.8"/>
    </g>
   </g>
   <g id="PathCollection_2">
    <g clip-path="url(#p5c9908577d)">
     <use xlink:href="#m708a40d629" x="373.339489" y="137.076953" style="fill: #a8323e; stroke: #ffffff; stroke-width: 0.8"/>
    </g>
   </g>
   <g id="PathCollection_3">
    <defs>
     <path id="me82eee47d1" d="M 0 -4.1833 
L -0.939209 -1.292711 
L -3.978555 -1.292711 
L -1.519673 0.493772 
L -2.458882 3.384361 
L -0 1.597878 
L 2.458882 3.384361 
L 1.519673 0.493772 
L 3.978555 -1.292711 
L 0.939209 -1.292711 
z
" style="stroke: #ffffff; stroke-width: 0.6"/>
    </defs>
    <g clip-path="url(#p5c9908577d)">
     <use xlink:href="#me82eee47d1" x="179.243277" y="140.779801" style="fill: #b8860b; stroke: #ffffff; stroke-width: 0.6"/>
    </g>
   </g>
   <g id="PathCollection_4">
    <g clip-path="url(#p5c9908577d)">
     <use xlink:href="#me82eee47d1" x="484.25161" y="97.50139" style="fill: #b8860b; stroke: #ffffff; stroke-width: 0.6"/>
    </g>
   </g>
   <g id="legend_1">
    <g id="line2d_31">
     <defs>
      <path id="mad57fbb636" d="M 0 -5 
L -1.12257 -1.545085 
L -4.755283 -1.545085 
L -1.816356 0.59017 
L -2.938926 4.045085 
L -0 1.90983 
L 2.938926 4.045085 
L 1.816356 0.59017 
L 4.755283 -1.545085 
L 1.12257 -1.545085 
z
" style="stroke: #a8323e; stroke-linejoin: bevel"/>
     </defs>
     <g>
      <use xlink:href="#mad57fbb636" x="589.742102" y="256.337784" style="fill: #a8323e; stroke: #a8323e; stroke-linejoin: bevel"/>
     </g>
    </g>
    <g id="text_20">
     <!-- U.S. Olympic year -->
     <g transform="translate(604.142102 259.137784) scale(0.08 -0.08)">
      <defs>
       <path id="DejaVuSerif-55" d="M 897 4331 
L 300 4331 
L 300 4666 
L 2125 4666 
L 2125 4331 
L 1528 4331 
L 1528 1919 
Q 1528 1025 1820 672 
Q 2113 319 2828 319 
Q 3544 319 3836 672 
Q 4128 1025 4128 1919 
L 4128 4331 
L 3531 4331 
L 3531 4666 
L 5106 4666 
L 5106 4331 
L 4513 4331 
L 4513 1856 
Q 4513 791 4103 350 
Q 3694 -91 2713 -91 
Q 1731 -91 1314 353 
Q 897 797 897 1856 
L 897 4331 
z
" transform="scale(0.015625)"/>
       <path id="DejaVuSerif-2e" d="M 603 325 
Q 603 500 722 622 
Q 841 744 1019 744 
Q 1191 744 1312 622 
Q 1434 500 1434 325 
Q 1434 153 1312 31 
Q 1191 -91 1019 -91 
Q 841 -91 722 29 
Q 603 150 603 325 
z
" transform="scale(0.015625)"/>
       <path id="DejaVuSerif-79" d="M 1381 -609 
L 1600 -56 
L 359 2988 
L -19 2988 
L -19 3322 
L 1509 3322 
L 1509 2988 
L 978 2988 
L 1913 703 
L 2847 2988 
L 2350 2988 
L 2350 3322 
L 3597 3322 
L 3597 2988 
L 3225 2988 
L 1703 -750 
Q 1547 -1138 1356 -1280 
Q 1166 -1422 819 -1422 
Q 672 -1422 517 -1397 
Q 363 -1372 206 -1325 
L 206 -691 
L 500 -691 
Q 519 -903 608 -995 
Q 697 -1088 884 -1088 
Q 1056 -1088 1161 -992 
Q 1266 -897 1381 -609 
z
" transform="scale(0.015625)"/>
      </defs>
      <use xlink:href="#DejaVuSerif-55"/>
      <use xlink:href="#DejaVuSerif-2e" transform="translate(75.152344 0)"/>
      <use xlink:href="#DejaVuSerif-53" transform="translate(106.939453 0)"/>
      <use xlink:href="#DejaVuSerif-2e" transform="translate(171.820312 0)"/>
      <use xlink:href="#DejaVuSerif-20" transform="translate(203.607422 0)"/>
      <use xlink:href="#DejaVuSerif-4f" transform="translate(235.394531 0)"/>
      <use xlink:href="#DejaVuSerif-6c" transform="translate(317.376953 0)"/>
      <use xlink:href="#DejaVuSerif-79" transform="translate(349.359375 0)"/>
      <use xlink:href="#DejaVuSerif-6d" transform="translate(405.853516 0)"/>
      <use xlink:href="#DejaVuSerif-70" transform="translate(500.677734 0)"/>
      <use xlink:href="#DejaVuSerif-69" transform="translate(564.691406 0)"/>
      <use xlink:href="#DejaVuSerif-63" transform="translate(596.673828 0)"/>
      <use xlink:href="#DejaVuSerif-20" transform="translate(652.679688 0)"/>
      <use xlink:href="#DejaVuSerif-79" transform="translate(684.466797 0)"/>
      <use xlink:href="#DejaVuSerif-65" transform="translate(740.960938 0)"/>
      <use xlink:href="#DejaVuSerif-61" transform="translate(800.140625 0)"/>
      <use xlink:href="#DejaVuSerif-72" transform="translate(859.759766 0)"/>
     </g>
    </g>
    <g id="line2d_32">
     <defs>
      <path id="m53a7909421" d="M 0 -4 
L -0.898056 -1.236068 
L -3.804226 -1.236068 
L -1.453085 0.472136 
L -2.351141 3.236068 
L -0 1.527864 
L 2.351141 3.236068 
L 1.453085 0.472136 
L 3.804226 -1.236068 
L 0.898056 -1.236068 
z
" style="stroke: #b8860b; stroke-linejoin: bevel"/>
     </defs>
     <g>
      <use xlink:href="#m53a7909421" x="589.742102" y="268.194034" style="fill: #b8860b; stroke: #b8860b; stroke-linejoin: bevel"/>
     </g>
    </g>
    <g id="text_21">
     <!-- Canadian Olympic year -->
     <g transform="translate(604.142102 270.994034) scale(0.08 -0.08)">
      <use xlink:href="#DejaVuSerif-43"/>
      <use xlink:href="#DejaVuSerif-61" transform="translate(76.513672 0)"/>
      <use xlink:href="#DejaVuSerif-6e" transform="translate(136.132812 0)"/>
      <use xlink:href="#DejaVuSerif-61" transform="translate(200.537109 0)"/>
      <use xlink:href="#DejaVuSerif-64" transform="translate(260.15625 0)"/>
      <use xlink:href="#DejaVuSerif-69" transform="translate(324.169922 0)"/>
      <use xlink:href="#DejaVuSerif-61" transform="translate(356.152344 0)"/>
      <use xlink:href="#DejaVuSerif-6e" transform="translate(415.771484 0)"/>
      <use xlink:href="#DejaVuSerif-20" transform="translate(480.175781 0)"/>
      <use xlink:href="#DejaVuSerif-4f" transform="translate(511.962891 0)"/>
      <use xlink:href="#DejaVuSerif-6c" transform="translate(593.945312 0)"/>
      <use xlink:href="#DejaVuSerif-79" transform="translate(625.927734 0)"/>
      <use xlink:href="#DejaVuSerif-6d" transform="translate(682.421875 0)"/>
      <use xlink:href="#DejaVuSerif-70" transform="translate(777.246094 0)"/>
      <use xlink:href="#DejaVuSerif-69" transform="translate(841.259766 0)"/>
      <use xlink:href="#DejaVuSerif-63" transform="translate(873.242188 0)"/>
      <use xlink:href="#DejaVuSerif-20" transform="translate(929.248047 0)"/>
      <use xlink:href="#DejaVuSerif-79" transform="translate(961.035156 0)"/>
      <use xlink:href="#DejaVuSerif-65" transform="translate(1017.529297 0)"/>
      <use xlink:href="#DejaVuSerif-61" transform="translate(1076.708984 0)"/>
      <use xlink:href="#DejaVuSerif-72" transform="translate(1136.328125 0)"/>
     </g>
    </g>
   </g>
  </g>
 </g>
 <defs>
  <clipPath id="p5c9908577d">
   <rect x="40.603125" y="22.318125" width="665.472727" height="257.653409"/>
  </clipPath>
 </defs>
</svg>
