<?xml version="1.0" encoding="utf-8" standalone="no"?>
<!DOCTYPE svg PUBLIC "-//W3C//DTD SVG 1.1//EN"
  "http://www.w3.org/Graphics/SVG/1.1/DTD/svg11.dtd">
<svg xmlns:xlink="http://www.w3.org/1999/xlink" width="785.275852pt" height="317.971733pt" viewBox="0 0 785.275852 317.971733" xmlns="http://www.w3.org/2000/svg" version="1.1">
 <metadata>
  <rdf:RDF xmlns:dc="http://purl.org/dc/elements/1.1/" xmlns:cc="http://creativecommons.org/ns#" xmlns:rdf="http://www.w3.org/1999/02/22-rdf-syntax-ns#">
   <cc:Work>
    <dc:type rdf:resource="http://purl.org/dc/dcmitype/StillImage"/>
    <dc:date>2026-04-29T23:05:50.016581</dc:date>
    <dc:format>image/svg+xml</dc:format>
    <dc:creator>
     <cc:Agent>
      <dc:title>Matplotlib v3.10.8, https://matplotlib.org/</dc:title>
     </cc:Agent>
    </dc:creator>
   </cc:Work>
  </rdf:RDF>
 </metadata>
 <defs>
  <style type="text/css">*{stroke-linejoin: round; stroke-linecap: butt}</style>
 </defs>
 <g id="figure_1">
  <g id="patch_1">
   <path d="M 0 317.971733 
L 785.275852 317.971733 
L 785.275852 0 
L 0 0 
z
" style="fill: #faf8f3"/>
  </g>
  <g id="axes_1">
   <g id="patch_2">
    <path d="M 40.603125 280.415483 
L 387.475852 280.415483 
L 387.475852 20.798437 
L 40.603125 20.798437 
z
" style="fill: #faf8f3"/>
   </g>
   <g id="PathCollection_1">
    <defs>
     <path id="me7f2bf77d1" d="M 0 3.162278 
C 0.838646 3.162278 1.643056 2.82908 2.236068 2.236068 
C 2.82908 1.643056 3.162278 0.838646 3.162278 0 
C 3.162278 -0.838646 2.82908 -1.643056 2.236068 -2.236068 
C 1.643056 -2.82908 0.838646 -3.162278 0 -3.162278 
C -0.838646 -3.162278 -1.643056 -2.82908 -2.236068 -2.236068 
C -2.82908 -1.643056 -3.162278 -0.838646 -3.162278 0 
C -3.162278 0.838646 -2.82908 1.643056 -2.236068 2.236068 
C -1.643056 2.82908 -0.838646 3.162278 0 3.162278 
z
" style="stroke: #ffffff; stroke-opacity: 0.7; stroke-width: 0.5"/>
    </defs>
    <g clip-path="url(#pb736d0710b)">
     <use xlink:href="#me7f2bf77d1" x="56.370067" y="172.166907" style="fill: #3c6e88; fill-opacity: 0.7; stroke: #ffffff; stroke-opacity: 0.7; stroke-width: 0.5"/>
     <use xlink:href="#me7f2bf77d1" x="58.62393" y="190.515603" style="fill: #3c6e88; fill-opacity: 0.7; stroke: #ffffff; stroke-opacity: 0.7; stroke-width: 0.5"/>
     <use xlink:href="#me7f2bf77d1" x="60.367485" y="268.614708" style="fill: #3c6e88; fill-opacity: 0.7; stroke: #ffffff; stroke-opacity: 0.7; stroke-width: 0.5"/>
     <use xlink:href="#me7f2bf77d1" x="63.695122" y="167.379892" style="fill: #3c6e88; fill-opacity: 0.7; stroke: #ffffff; stroke-opacity: 0.7; stroke-width: 0.5"/>
     <use xlink:href="#me7f2bf77d1" x="76.16579" y="202.818509" style="fill: #3c6e88; fill-opacity: 0.7; stroke: #ffffff; stroke-opacity: 0.7; stroke-width: 0.5"/>
     <use xlink:href="#me7f2bf77d1" x="88.072991" y="168.188447" style="fill: #3c6e88; fill-opacity: 0.7; stroke: #ffffff; stroke-opacity: 0.7; stroke-width: 0.5"/>
     <use xlink:href="#me7f2bf77d1" x="92.37872" y="161.536241" style="fill: #3c6e88; fill-opacity: 0.7; stroke: #ffffff; stroke-opacity: 0.7; stroke-width: 0.5"/>
     <use xlink:href="#me7f2bf77d1" x="97.705067" y="156.326571" style="fill: #3c6e88; fill-opacity: 0.7; stroke: #ffffff; stroke-opacity: 0.7; stroke-width: 0.5"/>
     <use xlink:href="#me7f2bf77d1" x="105.508536" y="139.530669" style="fill: #3c6e88; fill-opacity: 0.7; stroke: #ffffff; stroke-opacity: 0.7; stroke-width: 0.5"/>
     <use xlink:href="#me7f2bf77d1" x="115.523343" y="138.069757" style="fill: #3c6e88; fill-opacity: 0.7; stroke: #ffffff; stroke-opacity: 0.7; stroke-width: 0.5"/>
     <use xlink:href="#me7f2bf77d1" x="118.532038" y="143.334555" style="fill: #3c6e88; fill-opacity: 0.7; stroke: #ffffff; stroke-opacity: 0.7; stroke-width: 0.5"/>
     <use xlink:href="#me7f2bf77d1" x="118.042992" y="173.793206" style="fill: #3c6e88; fill-opacity: 0.7; stroke: #ffffff; stroke-opacity: 0.7; stroke-width: 0.5"/>
     <use xlink:href="#me7f2bf77d1" x="121.51947" y="204.095659" style="fill: #3c6e88; fill-opacity: 0.7; stroke: #ffffff; stroke-opacity: 0.7; stroke-width: 0.5"/>
     <use xlink:href="#me7f2bf77d1" x="134.45792" y="166.30488" style="fill: #3c6e88; fill-opacity: 0.7; stroke: #ffffff; stroke-opacity: 0.7; stroke-width: 0.5"/>
     <use xlink:href="#me7f2bf77d1" x="134.968229" y="136.930429" style="fill: #3c6e88; fill-opacity: 0.7; stroke: #ffffff; stroke-opacity: 0.7; stroke-width: 0.5"/>
     <use xlink:href="#me7f2bf77d1" x="136.414103" y="131.37161" style="fill: #3c6e88; fill-opacity: 0.7; stroke: #ffffff; stroke-opacity: 0.7; stroke-width: 0.5"/>
     <use xlink:href="#me7f2bf77d1" x="140.613518" y="149.380345" style="fill: #3c6e88; fill-opacity: 0.7; stroke: #ffffff; stroke-opacity: 0.7; stroke-width: 0.5"/>
     <use xlink:href="#me7f2bf77d1" x="147.407002" y="137.380647" style="fill: #3c6e88; fill-opacity: 0.7; stroke: #ffffff; stroke-opacity: 0.7; stroke-width: 0.5"/>
     <use xlink:href="#me7f2bf77d1" x="159.36736" y="150.822881" style="fill: #3c6e88; fill-opacity: 0.7; stroke: #ffffff; stroke-opacity: 0.7; stroke-width: 0.5"/>
     <use xlink:href="#me7f2bf77d1" x="172.560965" y="136.103497" style="fill: #3c6e88; fill-opacity: 0.7; stroke: #ffffff; stroke-opacity: 0.7; stroke-width: 0.5"/>
     <use xlink:href="#me7f2bf77d1" x="181.501997" y="154.782965" style="fill: #3c6e88; fill-opacity: 0.7; stroke: #ffffff; stroke-opacity: 0.7; stroke-width: 0.5"/>
     <use xlink:href="#me7f2bf77d1" x="193.781299" y="153.781459" style="fill: #3c6e88; fill-opacity: 0.7; stroke: #ffffff; stroke-opacity: 0.7; stroke-width: 0.5"/>
     <use xlink:href="#me7f2bf77d1" x="195.078333" y="106.563659" style="fill: #3c6e88; fill-opacity: 0.7; stroke: #ffffff; stroke-opacity: 0.7; stroke-width: 0.5"/>
     <use xlink:href="#me7f2bf77d1" x="207.017429" y="133.448127" style="fill: #3c6e88; fill-opacity: 0.7; stroke: #ffffff; stroke-opacity: 0.7; stroke-width: 0.5"/>
     <use xlink:href="#me7f2bf77d1" x="215.713939" y="104.20231" style="fill: #3c6e88; fill-opacity: 0.7; stroke: #ffffff; stroke-opacity: 0.7; stroke-width: 0.5"/>
     <use xlink:href="#me7f2bf77d1" x="233.755475" y="109.044454" style="fill: #3c6e88; fill-opacity: 0.7; stroke: #ffffff; stroke-opacity: 0.7; stroke-width: 0.5"/>
     <use xlink:href="#me7f2bf77d1" x="225.431066" y="110.744258" style="fill: #3c6e88; fill-opacity: 0.7; stroke: #ffffff; stroke-opacity: 0.7; stroke-width: 0.5"/>
     <use xlink:href="#me7f2bf77d1" x="236.487753" y="92.230176" style="fill: #3c6e88; fill-opacity: 0.7; stroke: #ffffff; stroke-opacity: 0.7; stroke-width: 0.5"/>
     <use xlink:href="#me7f2bf77d1" x="238.135625" y="127.411526" style="fill: #3c6e88; fill-opacity: 0.7; stroke: #ffffff; stroke-opacity: 0.7; stroke-width: 0.5"/>
     <use xlink:href="#me7f2bf77d1" x="240.144965" y="77.483227" style="fill: #3c6e88; fill-opacity: 0.7; stroke: #ffffff; stroke-opacity: 0.7; stroke-width: 0.5"/>
    </g>
   </g>
   <g id="PathCollection_2">
    <defs>
     <path id="m4de7c819be" d="M 0 3.162278 
C 0.838646 3.162278 1.643056 2.82908 2.236068 2.236068 
C 2.82908 1.643056 3.162278 0.838646 3.162278 0 
C 3.162278 -0.838646 2.82908 -1.643056 2.236068 -2.236068 
C 1.643056 -2.82908 0.838646 -3.162278 0 -3.162278 
C -0.838646 -3.162278 -1.643056 -2.82908 -2.236068 -2.236068 
C -2.82908 -1.643056 -3.162278 -0.838646 -3.162278 0 
C -3.162278 0.838646 -2.82908 1.643056 -2.236068 2.236068 
C -1.643056 2.82908 -0.838646 3.162278 0 3.162278 
z
" style="stroke: #ffffff; stroke-opacity: 0.7; stroke-width: 0.5"/>
    </defs>
    <g clip-path="url(#pb736d0710b)">
     <use xlink:href="#m4de7c819be" x="236.158179" y="106.407461" style="fill: #a8323e; fill-opacity: 0.7; stroke: #ffffff; stroke-opacity: 0.7; stroke-width: 0.5"/>
     <use xlink:href="#m4de7c819be" x="246.406877" y="84.05274" style="fill: #a8323e; fill-opacity: 0.7; stroke: #ffffff; stroke-opacity: 0.7; stroke-width: 0.5"/>
     <use xlink:href="#m4de7c819be" x="250.436189" y="77.134079" style="fill: #a8323e; fill-opacity: 0.7; stroke: #ffffff; stroke-opacity: 0.7; stroke-width: 0.5"/>
     <use xlink:href="#m4de7c819be" x="272.124306" y="165.101235" style="fill: #a8323e; fill-opacity: 0.7; stroke: #ffffff; stroke-opacity: 0.7; stroke-width: 0.5"/>
     <use xlink:href="#m4de7c819be" x="247.831489" y="110.542119" style="fill: #a8323e; fill-opacity: 0.7; stroke: #ffffff; stroke-opacity: 0.7; stroke-width: 0.5"/>
     <use xlink:href="#m4de7c819be" x="267.584685" y="114.336817" style="fill: #a8323e; fill-opacity: 0.7; stroke: #ffffff; stroke-opacity: 0.7; stroke-width: 0.5"/>
     <use xlink:href="#m4de7c819be" x="275.281841" y="141.10184" style="fill: #a8323e; fill-opacity: 0.7; stroke: #ffffff; stroke-opacity: 0.7; stroke-width: 0.5"/>
     <use xlink:href="#m4de7c819be" x="280.119141" y="148.32371" style="fill: #a8323e; fill-opacity: 0.7; stroke: #ffffff; stroke-opacity: 0.7; stroke-width: 0.5"/>
     <use xlink:href="#m4de7c819be" x="292.813069" y="130.232282" style="fill: #a8323e; fill-opacity: 0.7; stroke: #ffffff; stroke-opacity: 0.7; stroke-width: 0.5"/>
     <use xlink:href="#m4de7c819be" x="313.034048" y="143.904219" style="fill: #a8323e; fill-opacity: 0.7; stroke: #ffffff; stroke-opacity: 0.7; stroke-width: 0.5"/>
     <use xlink:href="#m4de7c819be" x="316.180952" y="88.13227" style="fill: #a8323e; fill-opacity: 0.7; stroke: #ffffff; stroke-opacity: 0.7; stroke-width: 0.5"/>
     <use xlink:href="#m4de7c819be" x="342.855209" y="91.247046" style="fill: #a8323e; fill-opacity: 0.7; stroke: #ffffff; stroke-opacity: 0.7; stroke-width: 0.5"/>
     <use xlink:href="#m4de7c819be" x="338.124223" y="75.709918" style="fill: #a8323e; fill-opacity: 0.7; stroke: #ffffff; stroke-opacity: 0.7; stroke-width: 0.5"/>
     <use xlink:href="#m4de7c819be" x="361.811049" y="32.599212" style="fill: #a8323e; fill-opacity: 0.7; stroke: #ffffff; stroke-opacity: 0.7; stroke-width: 0.5"/>
     <use xlink:href="#m4de7c819be" x="369.497573" y="78.420417" style="fill: #a8323e; fill-opacity: 0.7; stroke: #ffffff; stroke-opacity: 0.7; stroke-width: 0.5"/>
     <use xlink:href="#m4de7c819be" x="371.70891" y="68.313474" style="fill: #a8323e; fill-opacity: 0.7; stroke: #ffffff; stroke-opacity: 0.7; stroke-width: 0.5"/>
    </g>
   </g>
   <g id="matplotlib.axis_1">
    <g id="xtick_1">
     <g id="line2d_1">
      <path d="M 78.738596 280.415483 
L 78.738596 20.798437 
" clip-path="url(#pb736d0710b)" style="fill: none; stroke: #d8d4c7; stroke-opacity: 0.7; stroke-width: 0.5; stroke-linecap: square"/>
     </g>
     <g id="line2d_2">
      <defs>
       <path id="m7b2ee60a7e" d="M 0 0 
L 0 3.5 
" style="stroke: #5a6470; stroke-width: 0.8"/>
      </defs>
      <g>
       <use xlink:href="#m7b2ee60a7e" x="78.738596" y="280.415483" style="fill: #5a6470; stroke: #5a6470; stroke-width: 0.8"/>
      </g>
     </g>
     <g id="text_1">
      <!-- 25 -->
      <g style="fill: #5a6470" transform="translate(72.376096 295.01392) scale(0.1 -0.1)">
       <defs>
        <path id="DejaVuSerif-32" d="M 819 3553 
L 469 3553 
L 469 4384 
Q 803 4563 1142 4656 
Q 1481 4750 1806 4750 
Q 2534 4750 2956 4397 
Q 3378 4044 3378 3438 
Q 3378 2753 2422 1800 
Q 2347 1728 2309 1691 
L 1131 513 
L 3078 513 
L 3078 1088 
L 3444 1088 
L 3444 0 
L 434 0 
L 434 341 
L 1850 1753 
Q 2319 2222 2519 2614 
Q 2719 3006 2719 3438 
Q 2719 3909 2473 4175 
Q 2228 4441 1797 4441 
Q 1350 4441 1106 4219 
Q 863 3997 819 3553 
z
" transform="scale(0.015625)"/>
        <path id="DejaVuSerif-35" d="M 3219 4666 
L 3219 4153 
L 1081 4153 
L 1081 2816 
Q 1244 2928 1461 2984 
Q 1678 3041 1947 3041 
Q 2703 3041 3140 2622 
Q 3578 2203 3578 1478 
Q 3578 738 3136 323 
Q 2694 -91 1894 -91 
Q 1572 -91 1234 -12 
Q 897 66 544 225 
L 544 1131 
L 897 1131 
Q 925 688 1179 453 
Q 1434 219 1894 219 
Q 2388 219 2653 544 
Q 2919 869 2919 1478 
Q 2919 2084 2655 2407 
Q 2391 2731 1894 2731 
Q 1613 2731 1398 2631 
Q 1184 2531 1019 2322 
L 750 2322 
L 750 4666 
L 3219 4666 
z
" transform="scale(0.015625)"/>
       </defs>
       <use xlink:href="#DejaVuSerif-32"/>
       <use xlink:href="#DejaVuSerif-35" transform="translate(63.623047 0)"/>
      </g>
     </g>
    </g>
    <g id="xtick_2">
     <g id="line2d_3">
      <path d="M 131.895745 280.415483 
L 131.895745 20.798437 
" clip-path="url(#pb736d0710b)" style="fill: none; stroke: #d8d4c7; stroke-opacity: 0.7; stroke-width: 0.5; stroke-linecap: square"/>
     </g>
     <g id="line2d_4">
      <g>
       <use xlink:href="#m7b2ee60a7e" x="131.895745" y="280.415483" style="fill: #5a6470; stroke: #5a6470; stroke-width: 0.8"/>
      </g>
     </g>
     <g id="text_2">
      <!-- 30 -->
      <g style="fill: #5a6470" transform="translate(125.533245 295.01392) scale(0.1 -0.1)">
       <defs>
        <path id="DejaVuSerif-33" d="M 622 4469 
Q 988 4606 1323 4678 
Q 1659 4750 1953 4750 
Q 2638 4750 3022 4454 
Q 3406 4159 3406 3634 
Q 3406 3213 3140 2930 
Q 2875 2647 2388 2547 
Q 2963 2466 3280 2130 
Q 3597 1794 3597 1259 
Q 3597 606 3158 257 
Q 2719 -91 1894 -91 
Q 1528 -91 1179 -12 
Q 831 66 488 225 
L 488 1131 
L 838 1131 
Q 869 681 1141 450 
Q 1413 219 1906 219 
Q 2384 219 2661 495 
Q 2938 772 2938 1253 
Q 2938 1803 2653 2086 
Q 2369 2369 1819 2369 
L 1522 2369 
L 1522 2688 
L 1678 2688 
Q 2225 2688 2498 2914 
Q 2772 3141 2772 3597 
Q 2772 4006 2547 4223 
Q 2322 4441 1900 4441 
Q 1478 4441 1245 4241 
Q 1013 4041 972 3647 
L 622 3647 
L 622 4469 
z
" transform="scale(0.015625)"/>
        <path id="DejaVuSerif-30" d="M 2034 219 
Q 2513 219 2750 744 
Q 2988 1269 2988 2328 
Q 2988 3391 2750 3916 
Q 2513 4441 2034 4441 
Q 1556 4441 1318 3916 
Q 1081 3391 1081 2328 
Q 1081 1269 1318 744 
Q 1556 219 2034 219 
z
M 2034 -91 
Q 1275 -91 848 546 
Q 422 1184 422 2328 
Q 422 3475 848 4112 
Q 1275 4750 2034 4750 
Q 2797 4750 3222 4112 
Q 3647 3475 3647 2328 
Q 3647 1184 3222 546 
Q 2797 -91 2034 -91 
z
" transform="scale(0.015625)"/>
       </defs>
       <use xlink:href="#DejaVuSerif-33"/>
       <use xlink:href="#DejaVuSerif-30" transform="translate(63.623047 0)"/>
      </g>
     </g>
    </g>
    <g id="xtick_3">
     <g id="line2d_5">
      <path d="M 185.052895 280.415483 
L 185.052895 20.798437 
" clip-path="url(#pb736d0710b)" style="fill: none; stroke: #d8d4c7; stroke-opacity: 0.7; stroke-width: 0.5; stroke-linecap: square"/>
     </g>
     <g id="line2d_6">
      <g>
       <use xlink:href="#m7b2ee60a7e" x="185.052895" y="280.415483" style="fill: #5a6470; stroke: #5a6470; stroke-width: 0.8"/>
      </g>
     </g>
     <g id="text_3">
      <!-- 35 -->
      <g style="fill: #5a6470" transform="translate(178.690395 295.01392) scale(0.1 -0.1)">
       <use xlink:href="#DejaVuSerif-33"/>
       <use xlink:href="#DejaVuSerif-35" transform="translate(63.623047 0)"/>
      </g>
     </g>
    </g>
    <g id="xtick_4">
     <g id="line2d_7">
      <path d="M 238.210045 280.415483 
L 238.210045 20.798437 
" clip-path="url(#pb736d0710b)" style="fill: none; stroke: #d8d4c7; stroke-opacity: 0.7; stroke-width: 0.5; stroke-linecap: square"/>
     </g>
     <g id="line2d_8">
      <g>
       <use xlink:href="#m7b2ee60a7e" x="238.210045" y="280.415483" style="fill: #5a6470; stroke: #5a6470; stroke-width: 0.8"/>
      </g>
     </g>
     <g id="text_4">
      <!-- 40 -->
      <g style="fill: #5a6470" transform="translate(231.847545 295.01392) scale(0.1 -0.1)">
       <defs>
        <path id="DejaVuSerif-34" d="M 2234 1581 
L 2234 4063 
L 641 1581 
L 2234 1581 
z
M 3609 0 
L 1484 0 
L 1484 331 
L 2234 331 
L 2234 1247 
L 197 1247 
L 197 1588 
L 2241 4750 
L 2859 4750 
L 2859 1581 
L 3750 1581 
L 3750 1247 
L 2859 1247 
L 2859 331 
L 3609 331 
L 3609 0 
z
" transform="scale(0.015625)"/>
       </defs>
       <use xlink:href="#DejaVuSerif-34"/>
       <use xlink:href="#DejaVuSerif-30" transform="translate(63.623047 0)"/>
      </g>
     </g>
    </g>
    <g id="xtick_5">
     <g id="line2d_9">
      <path d="M 291.367194 280.415483 
L 291.367194 20.798437 
" clip-path="url(#pb736d0710b)" style="fill: none; stroke: #d8d4c7; stroke-opacity: 0.7; stroke-width: 0.5; stroke-linecap: square"/>
     </g>
     <g id="line2d_10">
      <g>
       <use xlink:href="#m7b2ee60a7e" x="291.367194" y="280.415483" style="fill: #5a6470; stroke: #5a6470; stroke-width: 0.8"/>
      </g>
     </g>
     <g id="text_5">
      <!-- 45 -->
      <g style="fill: #5a6470" transform="translate(285.004694 295.01392) scale(0.1 -0.1)">
       <use xlink:href="#DejaVuSerif-34"/>
       <use xlink:href="#DejaVuSerif-35" transform="translate(63.623047 0)"/>
      </g>
     </g>
    </g>
    <g id="xtick_6">
     <g id="line2d_11">
      <path d="M 344.524344 280.415483 
L 344.524344 20.798437 
" clip-path="url(#pb736d0710b)" style="fill: none; stroke: #d8d4c7; stroke-opacity: 0.7; stroke-width: 0.5; stroke-linecap: square"/>
     </g>
     <g id="line2d_12">
      <g>
       <use xlink:href="#m7b2ee60a7e" x="344.524344" y="280.415483" style="fill: #5a6470; stroke: #5a6470; stroke-width: 0.8"/>
      </g>
     </g>
     <g id="text_6">
      <!-- 50 -->
      <g style="fill: #5a6470" transform="translate(338.161844 295.01392) scale(0.1 -0.1)">
       <use xlink:href="#DejaVuSerif-35"/>
       <use xlink:href="#DejaVuSerif-30" transform="translate(63.623047 0)"/>
      </g>
     </g>
    </g>
    <g id="text_7">
     <!-- Real disposable income/capita ($K) -->
     <g style="fill: #1f2328" transform="translate(124.680114 308.692045) scale(0.1 -0.1)">
      <defs>
       <path id="DejaVuSerif-52" d="M 3066 2316 
Q 3284 2256 3442 2114 
Q 3600 1972 3725 1716 
L 4403 331 
L 4972 331 
L 4972 0 
L 3872 0 
L 3144 1484 
Q 2934 1916 2759 2042 
Q 2584 2169 2278 2169 
L 1581 2169 
L 1581 331 
L 2241 331 
L 2241 0 
L 353 0 
L 353 331 
L 947 331 
L 947 4331 
L 353 4331 
L 353 4666 
L 2719 4666 
Q 3400 4666 3770 4341 
Q 4141 4016 4141 3419 
Q 4141 2938 3870 2661 
Q 3600 2384 3066 2316 
z
M 1581 2503 
L 2503 2503 
Q 2975 2503 3200 2726 
Q 3425 2950 3425 3419 
Q 3425 3888 3200 4109 
Q 2975 4331 2503 4331 
L 1581 4331 
L 1581 2503 
z
" transform="scale(0.015625)"/>
       <path id="DejaVuSerif-65" d="M 3469 1600 
L 991 1600 
L 991 1575 
Q 991 903 1244 561 
Q 1497 219 1991 219 
Q 2369 219 2611 417 
Q 2853 616 2950 1006 
L 3413 1006 
Q 3275 459 2904 184 
Q 2534 -91 1931 -91 
Q 1203 -91 761 389 
Q 319 869 319 1663 
Q 319 2450 753 2931 
Q 1188 3413 1894 3413 
Q 2647 3413 3050 2948 
Q 3453 2484 3469 1600 
z
M 2791 1931 
Q 2772 2513 2545 2808 
Q 2319 3103 1894 3103 
Q 1497 3103 1269 2806 
Q 1041 2509 991 1931 
L 2791 1931 
z
" transform="scale(0.015625)"/>
       <path id="DejaVuSerif-61" d="M 2547 1044 
L 2547 1747 
L 1806 1747 
Q 1378 1747 1168 1562 
Q 959 1378 959 997 
Q 959 650 1171 447 
Q 1384 244 1747 244 
Q 2106 244 2326 466 
Q 2547 688 2547 1044 
z
M 3122 2075 
L 3122 331 
L 3634 331 
L 3634 0 
L 2547 0 
L 2547 359 
Q 2356 128 2106 18 
Q 1856 -91 1522 -91 
Q 969 -91 644 203 
Q 319 497 319 997 
Q 319 1513 691 1797 
Q 1063 2081 1741 2081 
L 2547 2081 
L 2547 2309 
Q 2547 2688 2317 2895 
Q 2088 3103 1672 3103 
Q 1328 3103 1125 2947 
Q 922 2791 872 2484 
L 575 2484 
L 575 3156 
Q 875 3284 1158 3348 
Q 1441 3413 1709 3413 
Q 2400 3413 2761 3070 
Q 3122 2728 3122 2075 
z
" transform="scale(0.015625)"/>
       <path id="DejaVuSerif-6c" d="M 1313 331 
L 1856 331 
L 1856 0 
L 184 0 
L 184 331 
L 738 331 
L 738 4531 
L 184 4531 
L 184 4863 
L 1313 4863 
L 1313 331 
z
" transform="scale(0.015625)"/>
       <path id="DejaVuSerif-20" transform="scale(0.015625)"/>
       <path id="DejaVuSerif-64" d="M 3359 331 
L 3909 331 
L 3909 0 
L 2784 0 
L 2784 519 
Q 2616 206 2355 57 
Q 2094 -91 1709 -91 
Q 1097 -91 708 395 
Q 319 881 319 1663 
Q 319 2444 706 2928 
Q 1094 3413 1709 3413 
Q 2094 3413 2355 3264 
Q 2616 3116 2784 2803 
L 2784 4531 
L 2241 4531 
L 2241 4863 
L 3359 4863 
L 3359 331 
z
M 2784 1497 
L 2784 1825 
Q 2784 2422 2554 2737 
Q 2325 3053 1888 3053 
Q 1444 3053 1217 2703 
Q 991 2353 991 1663 
Q 991 975 1217 622 
Q 1444 269 1888 269 
Q 2325 269 2554 583 
Q 2784 897 2784 1497 
z
" transform="scale(0.015625)"/>
       <path id="DejaVuSerif-69" d="M 622 4353 
Q 622 4497 726 4603 
Q 831 4709 978 4709 
Q 1122 4709 1226 4603 
Q 1331 4497 1331 4353 
Q 1331 4206 1228 4103 
Q 1125 4000 978 4000 
Q 831 4000 726 4103 
Q 622 4206 622 4353 
z
M 1356 331 
L 1900 331 
L 1900 0 
L 231 0 
L 231 331 
L 781 331 
L 781 2988 
L 231 2988 
L 231 3322 
L 1356 3322 
L 1356 331 
z
" transform="scale(0.015625)"/>
       <path id="DejaVuSerif-73" d="M 359 184 
L 359 959 
L 691 959 
Q 703 588 923 403 
Q 1144 219 1575 219 
Q 1963 219 2166 364 
Q 2369 509 2369 788 
Q 2369 1006 2220 1140 
Q 2072 1275 1594 1428 
L 1178 1569 
Q 750 1706 558 1912 
Q 366 2119 366 2438 
Q 366 2894 700 3153 
Q 1034 3413 1625 3413 
Q 1888 3413 2178 3344 
Q 2469 3275 2778 3144 
L 2778 2419 
L 2447 2419 
Q 2434 2741 2221 2922 
Q 2009 3103 1644 3103 
Q 1281 3103 1095 2975 
Q 909 2847 909 2591 
Q 909 2381 1050 2254 
Q 1191 2128 1613 1997 
L 2069 1856 
Q 2541 1709 2748 1489 
Q 2956 1269 2956 922 
Q 2956 450 2595 179 
Q 2234 -91 1600 -91 
Q 1278 -91 972 -22 
Q 666 47 359 184 
z
" transform="scale(0.015625)"/>
       <path id="DejaVuSerif-70" d="M 1313 1825 
L 1313 1497 
Q 1313 897 1542 583 
Q 1772 269 2209 269 
Q 2650 269 2876 622 
Q 3103 975 3103 1663 
Q 3103 2353 2876 2703 
Q 2650 3053 2209 3053 
Q 1772 3053 1542 2737 
Q 1313 2422 1313 1825 
z
M 738 2988 
L 184 2988 
L 184 3322 
L 1313 3322 
L 1313 2803 
Q 1481 3116 1742 3264 
Q 2003 3413 2388 3413 
Q 3000 3413 3387 2928 
Q 3775 2444 3775 1663 
Q 3775 881 3387 395 
Q 3000 -91 2388 -91 
Q 2003 -91 1742 57 
Q 1481 206 1313 519 
L 1313 -997 
L 1856 -997 
L 1856 -1331 
L 184 -1331 
L 184 -997 
L 738 -997 
L 738 2988 
z
" transform="scale(0.015625)"/>
       <path id="DejaVuSerif-6f" d="M 1925 219 
Q 2388 219 2623 584 
Q 2859 950 2859 1663 
Q 2859 2375 2623 2739 
Q 2388 3103 1925 3103 
Q 1463 3103 1227 2739 
Q 991 2375 991 1663 
Q 991 950 1228 584 
Q 1466 219 1925 219 
z
M 1925 -91 
Q 1200 -91 759 389 
Q 319 869 319 1663 
Q 319 2456 758 2934 
Q 1197 3413 1925 3413 
Q 2653 3413 3092 2934 
Q 3531 2456 3531 1663 
Q 3531 869 3092 389 
Q 2653 -91 1925 -91 
z
" transform="scale(0.015625)"/>
       <path id="DejaVuSerif-62" d="M 738 331 
L 738 4531 
L 184 4531 
L 184 4863 
L 1313 4863 
L 1313 2803 
Q 1481 3116 1742 3264 
Q 2003 3413 2388 3413 
Q 3000 3413 3387 2928 
Q 3775 2444 3775 1663 
Q 3775 881 3387 395 
Q 3000 -91 2388 -91 
Q 2003 -91 1742 57 
Q 1481 206 1313 519 
L 1313 0 
L 184 0 
L 184 331 
L 738 331 
z
M 1313 1497 
Q 1313 897 1542 583 
Q 1772 269 2209 269 
Q 2650 269 2876 622 
Q 3103 975 3103 1663 
Q 3103 2353 2876 2703 
Q 2650 3053 2209 3053 
Q 1772 3053 1542 2737 
Q 1313 2422 1313 1825 
L 1313 1497 
z
" transform="scale(0.015625)"/>
       <path id="DejaVuSerif-6e" d="M 263 0 
L 263 331 
L 781 331 
L 781 2988 
L 231 2988 
L 231 3322 
L 1356 3322 
L 1356 2731 
Q 1516 3069 1770 3241 
Q 2025 3413 2363 3413 
Q 2913 3413 3172 3097 
Q 3431 2781 3431 2113 
L 3431 331 
L 3944 331 
L 3944 0 
L 2356 0 
L 2356 331 
L 2853 331 
L 2853 1931 
Q 2853 2541 2703 2767 
Q 2553 2994 2175 2994 
Q 1775 2994 1565 2701 
Q 1356 2409 1356 1850 
L 1356 331 
L 1856 331 
L 1856 0 
L 263 0 
z
" transform="scale(0.015625)"/>
       <path id="DejaVuSerif-63" d="M 3291 997 
Q 3169 466 2822 187 
Q 2475 -91 1925 -91 
Q 1200 -91 759 389 
Q 319 869 319 1663 
Q 319 2459 759 2936 
Q 1200 3413 1925 3413 
Q 2241 3413 2553 3339 
Q 2866 3266 3181 3116 
L 3181 2266 
L 2847 2266 
Q 2781 2703 2561 2903 
Q 2341 3103 1931 3103 
Q 1466 3103 1228 2742 
Q 991 2381 991 1663 
Q 991 944 1227 581 
Q 1463 219 1931 219 
Q 2303 219 2525 412 
Q 2747 606 2828 997 
L 3291 997 
z
" transform="scale(0.015625)"/>
       <path id="DejaVuSerif-6d" d="M 3316 2675 
Q 3481 3041 3739 3227 
Q 3997 3413 4341 3413 
Q 4863 3413 5119 3089 
Q 5375 2766 5375 2113 
L 5375 331 
L 5894 331 
L 5894 0 
L 4300 0 
L 4300 331 
L 4800 331 
L 4800 2047 
Q 4800 2556 4650 2772 
Q 4500 2988 4153 2988 
Q 3769 2988 3567 2697 
Q 3366 2406 3366 1850 
L 3366 331 
L 3866 331 
L 3866 0 
L 2291 0 
L 2291 331 
L 2791 331 
L 2791 2069 
Q 2791 2566 2641 2777 
Q 2491 2988 2144 2988 
Q 1759 2988 1557 2697 
Q 1356 2406 1356 1850 
L 1356 331 
L 1856 331 
L 1856 0 
L 263 0 
L 263 331 
L 781 331 
L 781 2994 
L 231 2994 
L 231 3322 
L 1356 3322 
L 1356 2731 
Q 1516 3063 1762 3238 
Q 2009 3413 2322 3413 
Q 2709 3413 2968 3220 
Q 3228 3028 3316 2675 
z
" transform="scale(0.015625)"/>
       <path id="DejaVuSerif-2f" d="M 1656 4666 
L 2156 4666 
L 500 -594 
L 0 -594 
L 1656 4666 
z
" transform="scale(0.015625)"/>
       <path id="DejaVuSerif-74" d="M 691 2988 
L 184 2988 
L 184 3322 
L 691 3322 
L 691 4353 
L 1269 4353 
L 1269 3322 
L 2350 3322 
L 2350 2988 
L 1269 2988 
L 1269 878 
Q 1269 456 1350 337 
Q 1431 219 1650 219 
Q 1875 219 1978 351 
Q 2081 484 2088 781 
L 2522 781 
Q 2497 328 2275 118 
Q 2053 -91 1600 -91 
Q 1103 -91 897 129 
Q 691 350 691 878 
L 691 2988 
z
" transform="scale(0.015625)"/>
       <path id="DejaVuSerif-28" d="M 2041 -997 
Q 1281 -656 893 83 
Q 506 822 506 1931 
Q 506 3044 893 3783 
Q 1281 4522 2041 4863 
L 2041 4556 
Q 1559 4225 1350 3623 
Q 1141 3022 1141 1931 
Q 1141 844 1350 242 
Q 1559 -359 2041 -691 
L 2041 -997 
z
" transform="scale(0.015625)"/>
       <path id="DejaVuSerif-24" d="M 2156 213 
Q 2509 244 2695 416 
Q 2881 588 2881 884 
Q 2881 1153 2697 1340 
Q 2513 1528 2156 1625 
L 2156 213 
z
M 1844 3709 
Q 1522 3688 1344 3523 
Q 1166 3359 1166 3084 
Q 1166 2834 1330 2668 
Q 1494 2503 1844 2400 
L 1844 3709 
z
M 550 225 
L 550 1088 
L 888 1088 
Q 900 659 1137 440 
Q 1375 222 1844 213 
L 1844 1728 
Q 1125 1928 834 2189 
Q 544 2450 544 2881 
Q 544 3381 887 3684 
Q 1231 3988 1844 4025 
L 1844 4863 
L 2156 4863 
L 2156 4025 
Q 2472 4000 2764 3923 
Q 3056 3847 3334 3719 
L 3334 2900 
L 2994 2900 
Q 2956 3263 2740 3472 
Q 2525 3681 2156 3709 
L 2156 2297 
Q 2925 2088 3233 1817 
Q 3541 1547 3541 1094 
Q 3541 575 3178 262 
Q 2816 -50 2156 -97 
L 2156 -941 
L 1844 -941 
L 1844 -97 
Q 1544 -91 1222 -11 
Q 900 69 550 225 
z
" transform="scale(0.015625)"/>
       <path id="DejaVuSerif-4b" d="M 353 0 
L 353 331 
L 947 331 
L 947 4331 
L 353 4331 
L 353 4666 
L 2175 4666 
L 2175 4331 
L 1581 4331 
L 1581 2566 
L 3591 4331 
L 3084 4331 
L 3084 4666 
L 4634 4666 
L 4634 4331 
L 4109 4331 
L 2106 2572 
L 4347 331 
L 4878 331 
L 4878 0 
L 3794 0 
L 1581 2216 
L 1581 331 
L 2175 331 
L 2175 0 
L 353 0 
z
" transform="scale(0.015625)"/>
       <path id="DejaVuSerif-29" d="M 453 -997 
L 453 -691 
Q 934 -359 1145 242 
Q 1356 844 1356 1931 
Q 1356 3022 1145 3623 
Q 934 4225 453 4556 
L 453 4863 
Q 1216 4522 1603 3783 
Q 1991 3044 1991 1931 
Q 1991 822 1603 83 
Q 1216 -656 453 -997 
z
" transform="scale(0.015625)"/>
      </defs>
      <use xlink:href="#DejaVuSerif-52"/>
      <use xlink:href="#DejaVuSerif-65" transform="translate(75.292969 0)"/>
      <use xlink:href="#DejaVuSerif-61" transform="translate(134.472656 0)"/>
      <use xlink:href="#DejaVuSerif-6c" transform="translate(194.091797 0)"/>
      <use xlink:href="#DejaVuSerif-20" transform="translate(226.074219 0)"/>
      <use xlink:href="#DejaVuSerif-64" transform="translate(257.861328 0)"/>
      <use xlink:href="#DejaVuSerif-69" transform="translate(321.875 0)"/>
      <use xlink:href="#DejaVuSerif-73" transform="translate(353.857422 0)"/>
      <use xlink:href="#DejaVuSerif-70" transform="translate(405.175781 0)"/>
      <use xlink:href="#DejaVuSerif-6f" transform="translate(469.189453 0)"/>
      <use xlink:href="#DejaVuSerif-73" transform="translate(529.394531 0)"/>
      <use xlink:href="#DejaVuSerif-61" transform="translate(580.712891 0)"/>
      <use xlink:href="#DejaVuSerif-62" transform="translate(640.332031 0)"/>
      <use xlink:href="#DejaVuSerif-6c" transform="translate(704.345703 0)"/>
      <use xlink:href="#DejaVuSerif-65" transform="translate(736.328125 0)"/>
      <use xlink:href="#DejaVuSerif-20" transform="translate(795.507812 0)"/>
      <use xlink:href="#DejaVuSerif-69" transform="translate(827.294922 0)"/>
      <use xlink:href="#DejaVuSerif-6e" transform="translate(859.277344 0)"/>
      <use xlink:href="#DejaVuSerif-63" transform="translate(923.681641 0)"/>
      <use xlink:href="#DejaVuSerif-6f" transform="translate(979.6875 0)"/>
      <use xlink:href="#DejaVuSerif-6d" transform="translate(1039.892578 0)"/>
      <use xlink:href="#DejaVuSerif-65" transform="translate(1134.716797 0)"/>
      <use xlink:href="#DejaVuSerif-2f" transform="translate(1193.896484 0)"/>
      <use xlink:href="#DejaVuSerif-63" transform="translate(1227.587891 0)"/>
      <use xlink:href="#DejaVuSerif-61" transform="translate(1283.59375 0)"/>
      <use xlink:href="#DejaVuSerif-70" transform="translate(1343.212891 0)"/>
      <use xlink:href="#DejaVuSerif-69" transform="translate(1407.226562 0)"/>
      <use xlink:href="#DejaVuSerif-74" transform="translate(1439.208984 0)"/>
      <use xlink:href="#DejaVuSerif-61" transform="translate(1479.394531 0)"/>
      <use xlink:href="#DejaVuSerif-20" transform="translate(1539.013672 0)"/>
      <use xlink:href="#DejaVuSerif-28" transform="translate(1570.800781 0)"/>
      <use xlink:href="#DejaVuSerif-24" transform="translate(1609.814453 0)"/>
      <use xlink:href="#DejaVuSerif-4b" transform="translate(1673.4375 0)"/>
      <use xlink:href="#DejaVuSerif-29" transform="translate(1748.144531 0)"/>
     </g>
    </g>
   </g>
   <g id="matplotlib.axis_2">
    <g id="ytick_1">
     <g id="line2d_13">
      <path d="M 40.603125 265.858269 
L 387.475852 265.858269 
" clip-path="url(#pb736d0710b)" style="fill: none; stroke: #d8d4c7; stroke-opacity: 0.7; stroke-width: 0.5; stroke-linecap: square"/>
     </g>
     <g id="line2d_14">
      <defs>
       <path id="m23bf8b56f7" d="M 0 0 
L -3.5 0 
" style="stroke: #5a6470; stroke-width: 0.8"/>
      </defs>
      <g>
       <use xlink:href="#m23bf8b56f7" x="40.603125" y="265.858269" style="fill: #5a6470; stroke: #5a6470; stroke-width: 0.8"/>
      </g>
     </g>
     <g id="text_8">
      <!-- 40 -->
      <g style="fill: #5a6470" transform="translate(20.878125 269.657488) scale(0.1 -0.1)">
       <use xlink:href="#DejaVuSerif-34"/>
       <use xlink:href="#DejaVuSerif-30" transform="translate(63.623047 0)"/>
      </g>
     </g>
    </g>
    <g id="ytick_2">
     <g id="line2d_15">
      <path d="M 40.603125 219.917619 
L 387.475852 219.917619 
" clip-path="url(#pb736d0710b)" style="fill: none; stroke: #d8d4c7; stroke-opacity: 0.7; stroke-width: 0.5; stroke-linecap: square"/>
     </g>
     <g id="line2d_16">
      <g>
       <use xlink:href="#m23bf8b56f7" x="40.603125" y="219.917619" style="fill: #5a6470; stroke: #5a6470; stroke-width: 0.8"/>
      </g>
     </g>
     <g id="text_9">
      <!-- 45 -->
      <g style="fill: #5a6470" transform="translate(20.878125 223.716838) scale(0.1 -0.1)">
       <use xlink:href="#DejaVuSerif-34"/>
       <use xlink:href="#DejaVuSerif-35" transform="translate(63.623047 0)"/>
      </g>
     </g>
    </g>
    <g id="ytick_3">
     <g id="line2d_17">
      <path d="M 40.603125 173.976969 
L 387.475852 173.976969 
" clip-path="url(#pb736d0710b)" style="fill: none; stroke: #d8d4c7; stroke-opacity: 0.7; stroke-width: 0.5; stroke-linecap: square"/>
     </g>
     <g id="line2d_18">
      <g>
       <use xlink:href="#m23bf8b56f7" x="40.603125" y="173.976969" style="fill: #5a6470; stroke: #5a6470; stroke-width: 0.8"/>
      </g>
     </g>
     <g id="text_10">
      <!-- 50 -->
      <g style="fill: #5a6470" transform="translate(20.878125 177.776188) scale(0.1 -0.1)">
       <use xlink:href="#DejaVuSerif-35"/>
       <use xlink:href="#DejaVuSerif-30" transform="translate(63.623047 0)"/>
      </g>
     </g>
    </g>
    <g id="ytick_4">
     <g id="line2d_19">
      <path d="M 40.603125 128.036319 
L 387.475852 128.036319 
" clip-path="url(#pb736d0710b)" style="fill: none; stroke: #d8d4c7; stroke-opacity: 0.7; stroke-width: 0.5; stroke-linecap: square"/>
     </g>
     <g id="line2d_20">
      <g>
       <use xlink:href="#m23bf8b56f7" x="40.603125" y="128.036319" style="fill: #5a6470; stroke: #5a6470; stroke-width: 0.8"/>
      </g>
     </g>
     <g id="text_11">
      <!-- 55 -->
      <g style="fill: #5a6470" transform="translate(20.878125 131.835538) scale(0.1 -0.1)">
       <use xlink:href="#DejaVuSerif-35"/>
       <use xlink:href="#DejaVuSerif-35" transform="translate(63.623047 0)"/>
      </g>
     </g>
    </g>
    <g id="ytick_5">
     <g id="line2d_21">
      <path d="M 40.603125 82.095669 
L 387.475852 82.095669 
" clip-path="url(#pb736d0710b)" style="fill: none; stroke: #d8d4c7; stroke-opacity: 0.7; stroke-width: 0.5; stroke-linecap: square"/>
     </g>
     <g id="line2d_22">
      <g>
       <use xlink:href="#m23bf8b56f7" x="40.603125" y="82.095669" style="fill: #5a6470; stroke: #5a6470; stroke-width: 0.8"/>
      </g>
     </g>
     <g id="text_12">
      <!-- 60 -->
      <g style="fill: #5a6470" transform="translate(20.878125 85.894887) scale(0.1 -0.1)">
       <defs>
        <path id="DejaVuSerif-36" d="M 2094 219 
Q 2534 219 2771 542 
Q 3009 866 3009 1472 
Q 3009 2078 2771 2401 
Q 2534 2725 2094 2725 
Q 1647 2725 1412 2412 
Q 1178 2100 1178 1509 
Q 1178 888 1415 553 
Q 1653 219 2094 219 
z
M 1075 2569 
Q 1288 2803 1556 2918 
Q 1825 3034 2163 3034 
Q 2859 3034 3264 2615 
Q 3669 2197 3669 1472 
Q 3669 763 3233 336 
Q 2797 -91 2069 -91 
Q 1278 -91 853 498 
Q 428 1088 428 2181 
Q 428 3406 931 4078 
Q 1434 4750 2350 4750 
Q 2597 4750 2869 4703 
Q 3141 4656 3425 4563 
L 3425 3794 
L 3072 3794 
Q 3034 4109 2831 4275 
Q 2628 4441 2284 4441 
Q 1678 4441 1381 3981 
Q 1084 3522 1075 2569 
z
" transform="scale(0.015625)"/>
       </defs>
       <use xlink:href="#DejaVuSerif-36"/>
       <use xlink:href="#DejaVuSerif-30" transform="translate(63.623047 0)"/>
      </g>
     </g>
    </g>
    <g id="ytick_6">
     <g id="line2d_23">
      <path d="M 40.603125 36.155019 
L 387.475852 36.155019 
" clip-path="url(#pb736d0710b)" style="fill: none; stroke: #d8d4c7; stroke-opacity: 0.7; stroke-width: 0.5; stroke-linecap: square"/>
     </g>
     <g id="line2d_24">
      <g>
       <use xlink:href="#m23bf8b56f7" x="40.603125" y="36.155019" style="fill: #5a6470; stroke: #5a6470; stroke-width: 0.8"/>
      </g>
     </g>
     <g id="text_13">
      <!-- 65 -->
      <g style="fill: #5a6470" transform="translate(20.878125 39.954237) scale(0.1 -0.1)">
       <use xlink:href="#DejaVuSerif-36"/>
       <use xlink:href="#DejaVuSerif-35" transform="translate(63.623047 0)"/>
      </g>
     </g>
    </g>
    <g id="text_14">
     <!-- Skier visits (millions) -->
     <g style="fill: #1f2328" transform="translate(14.798438 204.18821) rotate(-90) scale(0.1 -0.1)">
      <defs>
       <path id="DejaVuSerif-53" d="M 594 225 
L 594 1288 
L 953 1284 
Q 969 753 1261 498 
Q 1553 244 2150 244 
Q 2706 244 2998 464 
Q 3291 684 3291 1106 
Q 3291 1444 3114 1625 
Q 2938 1806 2369 1978 
L 1753 2163 
Q 1084 2366 811 2669 
Q 538 2972 538 3500 
Q 538 4094 959 4422 
Q 1381 4750 2144 4750 
Q 2469 4750 2856 4679 
Q 3244 4609 3681 4475 
L 3681 3481 
L 3328 3481 
Q 3275 3975 2998 4195 
Q 2722 4416 2156 4416 
Q 1663 4416 1405 4214 
Q 1147 4013 1147 3628 
Q 1147 3294 1340 3103 
Q 1534 2913 2163 2725 
L 2741 2553 
Q 3375 2363 3645 2067 
Q 3916 1772 3916 1275 
Q 3916 597 3481 253 
Q 3047 -91 2188 -91 
Q 1803 -91 1404 -12 
Q 1006 66 594 225 
z
" transform="scale(0.015625)"/>
       <path id="DejaVuSerif-6b" d="M 1831 0 
L 219 0 
L 219 331 
L 738 331 
L 738 4531 
L 184 4531 
L 184 4863 
L 1313 4863 
L 1313 1697 
L 2713 2988 
L 2234 2988 
L 2234 3322 
L 3738 3322 
L 3738 2988 
L 3169 2988 
L 2181 2075 
L 3444 331 
L 3922 331 
L 3922 0 
L 2284 0 
L 2284 331 
L 2759 331 
L 1766 1697 
L 1313 1275 
L 1313 331 
L 1831 331 
L 1831 0 
z
" transform="scale(0.015625)"/>
       <path id="DejaVuSerif-72" d="M 3059 3328 
L 3059 2497 
L 2728 2497 
Q 2713 2744 2591 2866 
Q 2469 2988 2234 2988 
Q 1809 2988 1582 2694 
Q 1356 2400 1356 1850 
L 1356 331 
L 2022 331 
L 2022 0 
L 263 0 
L 263 331 
L 781 331 
L 781 2994 
L 231 2994 
L 231 3322 
L 1356 3322 
L 1356 2731 
Q 1525 3078 1790 3245 
Q 2056 3413 2438 3413 
Q 2578 3413 2733 3391 
Q 2888 3369 3059 3328 
z
" transform="scale(0.015625)"/>
       <path id="DejaVuSerif-76" d="M 1581 0 
L 359 2988 
L -19 2988 
L -19 3322 
L 1509 3322 
L 1509 2988 
L 978 2988 
L 1913 703 
L 2847 2988 
L 2350 2988 
L 2350 3322 
L 3597 3322 
L 3597 2988 
L 3225 2988 
L 2003 0 
L 1581 0 
z
" transform="scale(0.015625)"/>
      </defs>
      <use xlink:href="#DejaVuSerif-53"/>
      <use xlink:href="#DejaVuSerif-6b" transform="translate(68.505859 0)"/>
      <use xlink:href="#DejaVuSerif-69" transform="translate(129.101562 0)"/>
      <use xlink:href="#DejaVuSerif-65" transform="translate(161.083984 0)"/>
      <use xlink:href="#DejaVuSerif-72" transform="translate(220.263672 0)"/>
      <use xlink:href="#DejaVuSerif-20" transform="translate(268.066406 0)"/>
      <use xlink:href="#DejaVuSerif-76" transform="translate(299.853516 0)"/>
      <use xlink:href="#DejaVuSerif-69" transform="translate(356.347656 0)"/>
      <use xlink:href="#DejaVuSerif-73" transform="translate(388.330078 0)"/>
      <use xlink:href="#DejaVuSerif-69" transform="translate(439.648438 0)"/>
      <use xlink:href="#DejaVuSerif-74" transform="translate(471.630859 0)"/>
      <use xlink:href="#DejaVuSerif-73" transform="translate(511.816406 0)"/>
      <use xlink:href="#DejaVuSerif-20" transform="translate(563.134766 0)"/>
      <use xlink:href="#DejaVuSerif-28" transform="translate(594.921875 0)"/>
      <use xlink:href="#DejaVuSerif-6d" transform="translate(633.935547 0)"/>
      <use xlink:href="#DejaVuSerif-69" transform="translate(728.759766 0)"/>
      <use xlink:href="#DejaVuSerif-6c" transform="translate(760.742188 0)"/>
      <use xlink:href="#DejaVuSerif-6c" transform="translate(792.724609 0)"/>
      <use xlink:href="#DejaVuSerif-69" transform="translate(824.707031 0)"/>
      <use xlink:href="#DejaVuSerif-6f" transform="translate(856.689453 0)"/>
      <use xlink:href="#DejaVuSerif-6e" transform="translate(916.894531 0)"/>
      <use xlink:href="#DejaVuSerif-73" transform="translate(981.298828 0)"/>
      <use xlink:href="#DejaVuSerif-29" transform="translate(1032.617188 0)"/>
     </g>
    </g>
   </g>
   <g id="line2d_25">
    <path d="M 56.370067 192.741438 
L 62.707133 189.618484 
L 69.044198 186.49553 
L 75.381263 183.372576 
L 81.718329 180.249623 
L 88.055394 177.126669 
L 94.39246 174.003715 
L 100.729525 170.880761 
L 107.066591 167.757808 
L 113.403656 164.634854 
L 119.740722 161.5119 
L 126.077787 158.388946 
L 132.414852 155.265992 
L 138.751918 152.143039 
L 145.088983 149.020085 
L 151.426049 145.897131 
L 157.763114 142.774177 
L 164.10018 139.651223 
L 170.437245 136.52827 
L 176.77431 133.405316 
L 183.111376 130.282362 
L 189.448441 127.159408 
L 195.785507 124.036454 
L 202.122572 120.913501 
L 208.459638 117.790547 
L 214.796703 114.667593 
L 221.133769 111.544639 
L 227.470834 108.421685 
L 233.807899 105.298732 
L 240.144965 102.175778 
" clip-path="url(#pb736d0710b)" style="fill: none; stroke: #3c6e88; stroke-opacity: 0.6; stroke-width: 1.3; stroke-linecap: square"/>
   </g>
   <g id="line2d_26">
    <path d="M 236.158179 127.089107 
L 240.832342 125.328945 
L 245.506505 123.568783 
L 250.180668 121.808621 
L 254.854831 120.048459 
L 259.528994 118.288297 
L 264.203158 116.528135 
L 268.877321 114.767973 
L 273.551484 113.007811 
L 278.225647 111.247649 
L 282.89981 109.487488 
L 287.573973 107.727326 
L 292.248136 105.967164 
L 296.9223 104.207002 
L 301.596463 102.44684 
L 306.270626 100.686678 
L 310.944789 98.926516 
L 315.618952 97.166354 
L 320.293115 95.406192 
L 324.967279 93.64603 
L 329.641442 91.885868 
L 334.315605 90.125706 
L 338.989768 88.365544 
L 343.663931 86.605382 
L 348.338094 84.84522 
L 353.012257 83.085058 
L 357.686421 81.324896 
L 362.360584 79.564735 
L 367.034747 77.804573 
L 371.70891 76.044411 
" clip-path="url(#pb736d0710b)" style="fill: none; stroke: #a8323e; stroke-opacity: 0.6; stroke-width: 1.3; stroke-linecap: square"/>
   </g>
   <g id="patch_3">
    <path d="M 40.603125 280.415483 
L 40.603125 20.798437 
" style="fill: none; stroke: #1f2328; stroke-width: 0.8; stroke-linejoin: miter; stroke-linecap: square"/>
   </g>
   <g id="patch_4">
    <path d="M 40.603125 280.415483 
L 387.475852 280.415483 
" style="fill: none; stroke: #1f2328; stroke-width: 0.8; stroke-linejoin: miter; stroke-linecap: square"/>
   </g>
   <g id="text_15">
    <!-- Pre- vs post-Epic Pass relationships -->
    <g transform="translate(40.603125 14.798437) scale(0.1 -0.1)">
     <defs>
      <path id="DejaVuSerif-Bold-50" d="M 300 0 
L 300 378 
L 897 378 
L 897 4288 
L 300 4288 
L 300 4666 
L 2956 4666 
Q 3734 4666 4193 4295 
Q 4653 3925 4653 3303 
Q 4653 2678 4192 2304 
Q 3731 1931 2956 1931 
L 2100 1931 
L 2100 378 
L 2853 378 
L 2853 0 
L 300 0 
z
M 2100 2309 
L 2450 2309 
Q 2856 2309 3098 2579 
Q 3341 2850 3341 3303 
Q 3341 3753 3100 4020 
Q 2859 4288 2450 4288 
L 2100 4288 
L 2100 2309 
z
" transform="scale(0.015625)"/>
      <path id="DejaVuSerif-Bold-72" d="M 3438 3359 
L 3438 2369 
L 3084 2369 
Q 3066 2634 2941 2764 
Q 2816 2894 2578 2894 
Q 2216 2894 2006 2575 
Q 1797 2256 1797 1691 
L 1797 378 
L 2400 378 
L 2400 0 
L 219 0 
L 219 378 
L 691 378 
L 691 2944 
L 184 2944 
L 184 3322 
L 1797 3322 
L 1797 2731 
Q 1959 3078 2226 3245 
Q 2494 3413 2881 3413 
Q 2978 3413 3117 3398 
Q 3256 3384 3438 3359 
z
" transform="scale(0.015625)"/>
      <path id="DejaVuSerif-Bold-65" d="M 2566 1875 
Q 2566 2531 2444 2795 
Q 2322 3059 2028 3059 
Q 1744 3059 1620 2800 
Q 1497 2541 1497 1931 
L 1497 1875 
L 2566 1875 
z
M 3781 1503 
L 1497 1503 
L 1497 1478 
Q 1497 834 1690 548 
Q 1884 263 2316 263 
Q 2675 263 2897 453 
Q 3119 644 3181 1006 
L 3700 1006 
Q 3566 441 3166 175 
Q 2766 -91 2047 -91 
Q 1184 -91 723 364 
Q 263 819 263 1663 
Q 263 2488 734 2950 
Q 1206 3413 2047 3413 
Q 2872 3413 3312 2927 
Q 3753 2441 3781 1503 
z
" transform="scale(0.015625)"/>
      <path id="DejaVuSerif-Bold-2d" d="M 347 2138 
L 2309 2138 
L 2309 1294 
L 347 1294 
L 347 2138 
z
" transform="scale(0.015625)"/>
      <path id="DejaVuSerif-Bold-20" transform="scale(0.015625)"/>
      <path id="DejaVuSerif-Bold-76" d="M 1428 0 
L 250 2944 
L -116 2944 
L -116 3322 
L 1791 3322 
L 1791 2944 
L 1388 2944 
L 2228 844 
L 3066 2944 
L 2631 2944 
L 2631 3322 
L 3878 3322 
L 3878 2944 
L 3494 2944 
L 2316 0 
L 1428 0 
z
" transform="scale(0.015625)"/>
      <path id="DejaVuSerif-Bold-73" d="M 300 97 
L 300 1025 
L 653 1025 
Q 697 653 931 458 
Q 1166 263 1569 263 
Q 1906 263 2086 380 
Q 2266 497 2266 716 
Q 2266 916 2152 1025 
Q 2038 1134 1709 1216 
L 1253 1331 
Q 738 1459 506 1698 
Q 275 1938 275 2344 
Q 275 2884 650 3148 
Q 1025 3413 1806 3413 
Q 2100 3413 2433 3364 
Q 2766 3316 3169 3213 
L 3169 2375 
L 2816 2375 
Q 2788 2716 2573 2887 
Q 2359 3059 1959 3059 
Q 1622 3059 1448 2951 
Q 1275 2844 1275 2638 
Q 1275 2469 1375 2372 
Q 1475 2275 1734 2209 
L 2188 2094 
Q 2841 1928 3091 1684 
Q 3341 1441 3341 1006 
Q 3341 444 2939 176 
Q 2538 -91 1691 -91 
Q 1381 -91 1034 -44 
Q 688 3 300 97 
z
" transform="scale(0.015625)"/>
      <path id="DejaVuSerif-Bold-70" d="M 1728 1825 
L 1728 1497 
Q 1728 916 1876 656 
Q 2025 397 2356 397 
Q 2697 397 2836 672 
Q 2975 947 2975 1663 
Q 2975 2378 2836 2651 
Q 2697 2925 2356 2925 
Q 2025 2925 1876 2665 
Q 1728 2406 1728 1825 
z
M 622 2944 
L 147 2944 
L 147 3322 
L 1728 3322 
L 1728 2900 
Q 1869 3159 2106 3286 
Q 2344 3413 2694 3413 
Q 3403 3413 3811 2945 
Q 4219 2478 4219 1663 
Q 4219 847 3811 378 
Q 3403 -91 2694 -91 
Q 2344 -91 2106 36 
Q 1869 163 1728 422 
L 1728 -953 
L 2241 -953 
L 2241 -1331 
L 147 -1331 
L 147 -953 
L 622 -953 
L 622 2944 
z
" transform="scale(0.015625)"/>
      <path id="DejaVuSerif-Bold-6f" d="M 2138 263 
Q 2488 263 2630 563 
Q 2772 863 2772 1663 
Q 2772 2463 2631 2761 
Q 2491 3059 2138 3059 
Q 1784 3059 1640 2757 
Q 1497 2456 1497 1663 
Q 1497 869 1640 566 
Q 1784 263 2138 263 
z
M 2138 -91 
Q 1259 -91 761 376 
Q 263 844 263 1663 
Q 263 2484 761 2948 
Q 1259 3413 2138 3413 
Q 3019 3413 3516 2948 
Q 4013 2484 4013 1663 
Q 4013 844 3514 376 
Q 3016 -91 2138 -91 
z
" transform="scale(0.015625)"/>
      <path id="DejaVuSerif-Bold-74" d="M 634 2944 
L 153 2944 
L 153 3322 
L 634 3322 
L 634 4353 
L 1741 4353 
L 1741 3322 
L 2663 3322 
L 2663 2944 
L 1741 2944 
L 1741 909 
Q 1741 475 1809 369 
Q 1878 263 2059 263 
Q 2259 263 2356 397 
Q 2453 531 2459 813 
L 2925 813 
Q 2897 313 2651 111 
Q 2406 -91 1806 -91 
Q 1122 -91 878 123 
Q 634 338 634 909 
L 634 2944 
z
" transform="scale(0.015625)"/>
      <path id="DejaVuSerif-Bold-45" d="M 300 0 
L 300 378 
L 897 378 
L 897 4288 
L 300 4288 
L 300 4666 
L 4494 4666 
L 4494 3566 
L 4063 3566 
L 4063 4238 
L 2100 4238 
L 2100 2741 
L 3322 2741 
L 3322 3334 
L 3750 3334 
L 3750 1722 
L 3322 1722 
L 3322 2316 
L 2100 2316 
L 2100 428 
L 4122 428 
L 4122 1100 
L 4550 1100 
L 4550 0 
L 300 0 
z
" transform="scale(0.015625)"/>
      <path id="DejaVuSerif-Bold-69" d="M 588 4263 
Q 588 4516 763 4689 
Q 938 4863 1191 4863 
Q 1438 4863 1611 4689 
Q 1784 4516 1784 4263 
Q 1784 4016 1611 3842 
Q 1438 3669 1191 3669 
Q 938 3669 763 3841 
Q 588 4013 588 4263 
z
M 1797 378 
L 2272 378 
L 2272 0 
L 219 0 
L 219 378 
L 691 378 
L 691 2944 
L 219 2944 
L 219 3322 
L 1797 3322 
L 1797 378 
z
" transform="scale(0.015625)"/>
      <path id="DejaVuSerif-Bold-63" d="M 3609 1038 
Q 3491 469 3123 189 
Q 2756 -91 2125 -91 
Q 1238 -91 750 368 
Q 263 828 263 1663 
Q 263 2488 744 2950 
Q 1225 3413 2081 3413 
Q 2428 3413 2781 3347 
Q 3134 3281 3500 3150 
L 3500 2228 
L 3150 2228 
Q 3100 2650 2903 2854 
Q 2706 3059 2350 3059 
Q 1888 3059 1692 2746 
Q 1497 2434 1497 1663 
Q 1497 909 1687 586 
Q 1878 263 2309 263 
Q 2644 263 2845 463 
Q 3047 663 3091 1038 
L 3609 1038 
z
" transform="scale(0.015625)"/>
      <path id="DejaVuSerif-Bold-61" d="M 3525 2041 
L 3525 378 
L 4000 378 
L 4000 0 
L 2419 0 
L 2419 422 
Q 2200 159 1931 34 
Q 1663 -91 1319 -91 
Q 809 -91 536 182 
Q 263 456 263 966 
Q 263 1525 655 1803 
Q 1047 2081 1838 2081 
L 2419 2081 
L 2419 2278 
Q 2419 2681 2228 2873 
Q 2038 3066 1638 3066 
Q 1306 3066 1126 2930 
Q 947 2794 872 2484 
L 519 2484 
L 519 3200 
Q 816 3306 1134 3359 
Q 1453 3413 1806 3413 
Q 2697 3413 3111 3081 
Q 3525 2750 3525 2041 
z
M 2419 1044 
L 2419 1709 
L 2003 1709 
Q 1694 1709 1528 1540 
Q 1363 1372 1363 1056 
Q 1363 741 1483 584 
Q 1603 428 1850 428 
Q 2106 428 2262 597 
Q 2419 766 2419 1044 
z
" transform="scale(0.015625)"/>
      <path id="DejaVuSerif-Bold-6c" d="M 1797 378 
L 2272 378 
L 2272 0 
L 219 0 
L 219 378 
L 691 378 
L 691 4488 
L 219 4488 
L 219 4863 
L 1797 4863 
L 1797 378 
z
" transform="scale(0.015625)"/>
      <path id="DejaVuSerif-Bold-6e" d="M 219 0 
L 219 378 
L 691 378 
L 691 2944 
L 219 2944 
L 219 3322 
L 1797 3322 
L 1797 2853 
Q 1997 3150 2253 3281 
Q 2509 3413 2900 3413 
Q 3459 3413 3745 3083 
Q 4031 2753 4031 2113 
L 4031 378 
L 4506 378 
L 4506 0 
L 2522 0 
L 2522 378 
L 2925 378 
L 2925 2144 
Q 2925 2566 2817 2730 
Q 2709 2894 2444 2894 
Q 2109 2894 1953 2648 
Q 1797 2403 1797 1869 
L 1797 378 
L 2203 378 
L 2203 0 
L 219 0 
z
" transform="scale(0.015625)"/>
      <path id="DejaVuSerif-Bold-68" d="M 219 0 
L 219 378 
L 691 378 
L 691 4488 
L 197 4488 
L 197 4863 
L 1797 4863 
L 1797 2853 
Q 1997 3150 2253 3281 
Q 2509 3413 2900 3413 
Q 3459 3413 3745 3083 
Q 4031 2753 4031 2113 
L 4031 378 
L 4506 378 
L 4506 0 
L 2522 0 
L 2522 378 
L 2925 378 
L 2925 2144 
Q 2925 2566 2817 2730 
Q 2709 2894 2444 2894 
Q 2109 2894 1953 2648 
Q 1797 2403 1797 1869 
L 1797 378 
L 2203 378 
L 2203 0 
L 219 0 
z
" transform="scale(0.015625)"/>
     </defs>
     <use xlink:href="#DejaVuSerif-Bold-50"/>
     <use xlink:href="#DejaVuSerif-Bold-72" transform="translate(75.195312 0)"/>
     <use xlink:href="#DejaVuSerif-Bold-65" transform="translate(127.880859 0)"/>
     <use xlink:href="#DejaVuSerif-Bold-2d" transform="translate(191.503906 0)"/>
     <use xlink:href="#DejaVuSerif-Bold-20" transform="translate(233.007812 0)"/>
     <use xlink:href="#DejaVuSerif-Bold-76" transform="translate(267.822266 0)"/>
     <use xlink:href="#DejaVuSerif-Bold-73" transform="translate(325.927734 0)"/>
     <use xlink:href="#DejaVuSerif-Bold-20" transform="translate(382.226562 0)"/>
     <use xlink:href="#DejaVuSerif-Bold-70" transform="translate(417.041016 0)"/>
     <use xlink:href="#DejaVuSerif-Bold-6f" transform="translate(486.962891 0)"/>
     <use xlink:href="#DejaVuSerif-Bold-73" transform="translate(553.662109 0)"/>
     <use xlink:href="#DejaVuSerif-Bold-74" transform="translate(609.960938 0)"/>
     <use xlink:href="#DejaVuSerif-Bold-2d" transform="translate(656.152344 0)"/>
     <use xlink:href="#DejaVuSerif-Bold-45" transform="translate(697.65625 0)"/>
     <use xlink:href="#DejaVuSerif-Bold-70" transform="translate(773.876953 0)"/>
     <use xlink:href="#DejaVuSerif-Bold-69" transform="translate(843.798828 0)"/>
     <use xlink:href="#DejaVuSerif-Bold-63" transform="translate(881.787109 0)"/>
     <use xlink:href="#DejaVuSerif-Bold-20" transform="translate(942.675781 0)"/>
     <use xlink:href="#DejaVuSerif-Bold-50" transform="translate(977.490234 0)"/>
     <use xlink:href="#DejaVuSerif-Bold-61" transform="translate(1050.060547 0)"/>
     <use xlink:href="#DejaVuSerif-Bold-73" transform="translate(1114.855469 0)"/>
     <use xlink:href="#DejaVuSerif-Bold-73" transform="translate(1171.154297 0)"/>
     <use xlink:href="#DejaVuSerif-Bold-20" transform="translate(1227.453125 0)"/>
     <use xlink:href="#DejaVuSerif-Bold-72" transform="translate(1262.267578 0)"/>
     <use xlink:href="#DejaVuSerif-Bold-65" transform="translate(1314.953125 0)"/>
     <use xlink:href="#DejaVuSerif-Bold-6c" transform="translate(1378.576172 0)"/>
     <use xlink:href="#DejaVuSerif-Bold-61" transform="translate(1416.564453 0)"/>
     <use xlink:href="#DejaVuSerif-Bold-74" transform="translate(1481.359375 0)"/>
     <use xlink:href="#DejaVuSerif-Bold-69" transform="translate(1527.550781 0)"/>
     <use xlink:href="#DejaVuSerif-Bold-6f" transform="translate(1565.539062 0)"/>
     <use xlink:href="#DejaVuSerif-Bold-6e" transform="translate(1632.238281 0)"/>
     <use xlink:href="#DejaVuSerif-Bold-73" transform="translate(1704.943359 0)"/>
     <use xlink:href="#DejaVuSerif-Bold-68" transform="translate(1761.242188 0)"/>
     <use xlink:href="#DejaVuSerif-Bold-69" transform="translate(1833.947266 0)"/>
     <use xlink:href="#DejaVuSerif-Bold-70" transform="translate(1871.935547 0)"/>
     <use xlink:href="#DejaVuSerif-Bold-73" transform="translate(1941.857422 0)"/>
    </g>
   </g>
   <g id="legend_1">
    <g id="PathCollection_3">
     <g>
      <use xlink:href="#me7f2bf77d1" x="285.861634" y="254.870952" style="fill: #3c6e88; fill-opacity: 0.7; stroke: #ffffff; stroke-opacity: 0.7; stroke-width: 0.5"/>
     </g>
    </g>
    <g id="text_16">
     <!-- Pre-Epic (n=30) -->
     <g transform="translate(302.061634 257.233452) scale(0.09 -0.09)">
      <defs>
       <path id="DejaVuSerif-50" d="M 1581 2375 
L 2406 2375 
Q 2872 2375 3115 2626 
Q 3359 2878 3359 3353 
Q 3359 3831 3115 4081 
Q 2872 4331 2406 4331 
L 1581 4331 
L 1581 2375 
z
M 353 0 
L 353 331 
L 947 331 
L 947 4331 
L 353 4331 
L 353 4666 
L 2559 4666 
Q 3259 4666 3668 4311 
Q 4078 3956 4078 3353 
Q 4078 2753 3668 2397 
Q 3259 2041 2559 2041 
L 1581 2041 
L 1581 331 
L 2303 331 
L 2303 0 
L 353 0 
z
" transform="scale(0.015625)"/>
       <path id="DejaVuSerif-2d" d="M 281 1959 
L 1881 1959 
L 1881 1472 
L 281 1472 
L 281 1959 
z
" transform="scale(0.015625)"/>
       <path id="DejaVuSerif-45" d="M 353 0 
L 353 331 
L 947 331 
L 947 4331 
L 353 4331 
L 353 4666 
L 4109 4666 
L 4109 3628 
L 3725 3628 
L 3725 4281 
L 1581 4281 
L 1581 2719 
L 3109 2719 
L 3109 3303 
L 3494 3303 
L 3494 1753 
L 3109 1753 
L 3109 2338 
L 1581 2338 
L 1581 384 
L 3775 384 
L 3775 1038 
L 4159 1038 
L 4159 0 
L 353 0 
z
" transform="scale(0.015625)"/>
       <path id="DejaVuSerif-3d" d="M 678 2894 
L 4684 2894 
L 4684 2394 
L 678 2394 
L 678 2894 
z
M 678 1619 
L 4684 1619 
L 4684 1119 
L 678 1119 
L 678 1619 
z
" transform="scale(0.015625)"/>
      </defs>
      <use xlink:href="#DejaVuSerif-50"/>
      <use xlink:href="#DejaVuSerif-72" transform="translate(67.285156 0)"/>
      <use xlink:href="#DejaVuSerif-65" transform="translate(115.087891 0)"/>
      <use xlink:href="#DejaVuSerif-2d" transform="translate(174.267578 0)"/>
      <use xlink:href="#DejaVuSerif-45" transform="translate(208.056641 0)"/>
      <use xlink:href="#DejaVuSerif-70" transform="translate(281.054688 0)"/>
      <use xlink:href="#DejaVuSerif-69" transform="translate(345.068359 0)"/>
      <use xlink:href="#DejaVuSerif-63" transform="translate(377.050781 0)"/>
      <use xlink:href="#DejaVuSerif-20" transform="translate(433.056641 0)"/>
      <use xlink:href="#DejaVuSerif-28" transform="translate(464.84375 0)"/>
      <use xlink:href="#DejaVuSerif-6e" transform="translate(503.857422 0)"/>
      <use xlink:href="#DejaVuSerif-3d" transform="translate(568.261719 0)"/>
      <use xlink:href="#DejaVuSerif-33" transform="translate(652.050781 0)"/>
      <use xlink:href="#DejaVuSerif-30" transform="translate(715.673828 0)"/>
      <use xlink:href="#DejaVuSerif-29" transform="translate(779.296875 0)"/>
     </g>
    </g>
    <g id="PathCollection_4">
     <g>
      <use xlink:href="#m4de7c819be" x="285.861634" y="268.081264" style="fill: #a8323e; fill-opacity: 0.7; stroke: #ffffff; stroke-opacity: 0.7; stroke-width: 0.5"/>
     </g>
    </g>
    <g id="text_17">
     <!-- Post-Epic (n=16) -->
     <g transform="translate(302.061634 270.443764) scale(0.09 -0.09)">
      <defs>
       <path id="DejaVuSerif-31" d="M 909 0 
L 909 331 
L 1722 331 
L 1722 4213 
L 781 3603 
L 781 4013 
L 1919 4750 
L 2350 4750 
L 2350 331 
L 3163 331 
L 3163 0 
L 909 0 
z
" transform="scale(0.015625)"/>
      </defs>
      <use xlink:href="#DejaVuSerif-50"/>
      <use xlink:href="#DejaVuSerif-6f" transform="translate(63.285156 0)"/>
      <use xlink:href="#DejaVuSerif-73" transform="translate(123.490234 0)"/>
      <use xlink:href="#DejaVuSerif-74" transform="translate(174.808594 0)"/>
      <use xlink:href="#DejaVuSerif-2d" transform="translate(214.994141 0)"/>
      <use xlink:href="#DejaVuSerif-45" transform="translate(248.783203 0)"/>
      <use xlink:href="#DejaVuSerif-70" transform="translate(321.78125 0)"/>
      <use xlink:href="#DejaVuSerif-69" transform="translate(385.794922 0)"/>
      <use xlink:href="#DejaVuSerif-63" transform="translate(417.777344 0)"/>
      <use xlink:href="#DejaVuSerif-20" transform="translate(473.783203 0)"/>
      <use xlink:href="#DejaVuSerif-28" transform="translate(505.570312 0)"/>
      <use xlink:href="#DejaVuSerif-6e" transform="translate(544.583984 0)"/>
      <use xlink:href="#DejaVuSerif-3d" transform="translate(608.988281 0)"/>
      <use xlink:href="#DejaVuSerif-31" transform="translate(692.777344 0)"/>
      <use xlink:href="#DejaVuSerif-36" transform="translate(756.400391 0)"/>
      <use xlink:href="#DejaVuSerif-29" transform="translate(820.023438 0)"/>
     </g>
    </g>
   </g>
  </g>
  <g id="axes_2">
   <g id="patch_5">
    <path d="M 431.203125 280.415483 
L 778.075852 280.415483 
L 778.075852 20.798437 
L 431.203125 20.798437 
z
" style="fill: #faf8f3"/>
   </g>
   <g id="PathCollection_5">
    <g clip-path="url(#p42af51bf3b)">
     <use xlink:href="#me7f2bf77d1" x="446.970067" y="172.166907" style="fill: #3c6e88; fill-opacity: 0.7; stroke: #ffffff; stroke-opacity: 0.7; stroke-width: 0.5"/>
     <use xlink:href="#me7f2bf77d1" x="449.22393" y="190.515603" style="fill: #3c6e88; fill-opacity: 0.7; stroke: #ffffff; stroke-opacity: 0.7; stroke-width: 0.5"/>
     <use xlink:href="#me7f2bf77d1" x="450.967485" y="268.614708" style="fill: #3c6e88; fill-opacity: 0.7; stroke: #ffffff; stroke-opacity: 0.7; stroke-width: 0.5"/>
     <use xlink:href="#me7f2bf77d1" x="454.295122" y="167.379892" style="fill: #3c6e88; fill-opacity: 0.7; stroke: #ffffff; stroke-opacity: 0.7; stroke-width: 0.5"/>
     <use xlink:href="#me7f2bf77d1" x="466.76579" y="202.818509" style="fill: #3c6e88; fill-opacity: 0.7; stroke: #ffffff; stroke-opacity: 0.7; stroke-width: 0.5"/>
     <use xlink:href="#me7f2bf77d1" x="478.672991" y="168.188447" style="fill: #3c6e88; fill-opacity: 0.7; stroke: #ffffff; stroke-opacity: 0.7; stroke-width: 0.5"/>
     <use xlink:href="#me7f2bf77d1" x="482.97872" y="161.536241" style="fill: #3c6e88; fill-opacity: 0.7; stroke: #ffffff; stroke-opacity: 0.7; stroke-width: 0.5"/>
     <use xlink:href="#me7f2bf77d1" x="488.305067" y="156.326571" style="fill: #3c6e88; fill-opacity: 0.7; stroke: #ffffff; stroke-opacity: 0.7; stroke-width: 0.5"/>
     <use xlink:href="#me7f2bf77d1" x="496.108536" y="139.530669" style="fill: #3c6e88; fill-opacity: 0.7; stroke: #ffffff; stroke-opacity: 0.7; stroke-width: 0.5"/>
     <use xlink:href="#me7f2bf77d1" x="506.123343" y="138.069757" style="fill: #3c6e88; fill-opacity: 0.7; stroke: #ffffff; stroke-opacity: 0.7; stroke-width: 0.5"/>
     <use xlink:href="#me7f2bf77d1" x="509.132038" y="143.334555" style="fill: #3c6e88; fill-opacity: 0.7; stroke: #ffffff; stroke-opacity: 0.7; stroke-width: 0.5"/>
     <use xlink:href="#me7f2bf77d1" x="508.642992" y="173.793206" style="fill: #3c6e88; fill-opacity: 0.7; stroke: #ffffff; stroke-opacity: 0.7; stroke-width: 0.5"/>
     <use xlink:href="#me7f2bf77d1" x="512.11947" y="204.095659" style="fill: #3c6e88; fill-opacity: 0.7; stroke: #ffffff; stroke-opacity: 0.7; stroke-width: 0.5"/>
     <use xlink:href="#me7f2bf77d1" x="525.05792" y="166.30488" style="fill: #3c6e88; fill-opacity: 0.7; stroke: #ffffff; stroke-opacity: 0.7; stroke-width: 0.5"/>
     <use xlink:href="#me7f2bf77d1" x="525.568229" y="136.930429" style="fill: #3c6e88; fill-opacity: 0.7; stroke: #ffffff; stroke-opacity: 0.7; stroke-width: 0.5"/>
     <use xlink:href="#me7f2bf77d1" x="527.014103" y="131.37161" style="fill: #3c6e88; fill-opacity: 0.7; stroke: #ffffff; stroke-opacity: 0.7; stroke-width: 0.5"/>
     <use xlink:href="#me7f2bf77d1" x="531.213518" y="149.380345" style="fill: #3c6e88; fill-opacity: 0.7; stroke: #ffffff; stroke-opacity: 0.7; stroke-width: 0.5"/>
     <use xlink:href="#me7f2bf77d1" x="538.007002" y="137.380647" style="fill: #3c6e88; fill-opacity: 0.7; stroke: #ffffff; stroke-opacity: 0.7; stroke-width: 0.5"/>
     <use xlink:href="#me7f2bf77d1" x="549.96736" y="150.822881" style="fill: #3c6e88; fill-opacity: 0.7; stroke: #ffffff; stroke-opacity: 0.7; stroke-width: 0.5"/>
     <use xlink:href="#me7f2bf77d1" x="563.160965" y="136.103497" style="fill: #3c6e88; fill-opacity: 0.7; stroke: #ffffff; stroke-opacity: 0.7; stroke-width: 0.5"/>
     <use xlink:href="#me7f2bf77d1" x="572.101997" y="154.782965" style="fill: #3c6e88; fill-opacity: 0.7; stroke: #ffffff; stroke-opacity: 0.7; stroke-width: 0.5"/>
     <use xlink:href="#me7f2bf77d1" x="584.381299" y="153.781459" style="fill: #3c6e88; fill-opacity: 0.7; stroke: #ffffff; stroke-opacity: 0.7; stroke-width: 0.5"/>
     <use xlink:href="#me7f2bf77d1" x="585.678333" y="106.563659" style="fill: #3c6e88; fill-opacity: 0.7; stroke: #ffffff; stroke-opacity: 0.7; stroke-width: 0.5"/>
     <use xlink:href="#me7f2bf77d1" x="597.617429" y="133.448127" style="fill: #3c6e88; fill-opacity: 0.7; stroke: #ffffff; stroke-opacity: 0.7; stroke-width: 0.5"/>
     <use xlink:href="#me7f2bf77d1" x="606.313939" y="104.20231" style="fill: #3c6e88; fill-opacity: 0.7; stroke: #ffffff; stroke-opacity: 0.7; stroke-width: 0.5"/>
     <use xlink:href="#me7f2bf77d1" x="624.355475" y="109.044454" style="fill: #3c6e88; fill-opacity: 0.7; stroke: #ffffff; stroke-opacity: 0.7; stroke-width: 0.5"/>
     <use xlink:href="#me7f2bf77d1" x="616.031066" y="110.744258" style="fill: #3c6e88; fill-opacity: 0.7; stroke: #ffffff; stroke-opacity: 0.7; stroke-width: 0.5"/>
     <use xlink:href="#me7f2bf77d1" x="627.087753" y="92.230176" style="fill: #3c6e88; fill-opacity: 0.7; stroke: #ffffff; stroke-opacity: 0.7; stroke-width: 0.5"/>
     <use xlink:href="#me7f2bf77d1" x="628.735625" y="127.411526" style="fill: #3c6e88; fill-opacity: 0.7; stroke: #ffffff; stroke-opacity: 0.7; stroke-width: 0.5"/>
     <use xlink:href="#me7f2bf77d1" x="630.744965" y="77.483227" style="fill: #3c6e88; fill-opacity: 0.7; stroke: #ffffff; stroke-opacity: 0.7; stroke-width: 0.5"/>
     <use xlink:href="#me7f2bf77d1" x="626.758179" y="106.407461" style="fill: #3c6e88; fill-opacity: 0.7; stroke: #ffffff; stroke-opacity: 0.7; stroke-width: 0.5"/>
     <use xlink:href="#me7f2bf77d1" x="637.006877" y="84.05274" style="fill: #3c6e88; fill-opacity: 0.7; stroke: #ffffff; stroke-opacity: 0.7; stroke-width: 0.5"/>
     <use xlink:href="#me7f2bf77d1" x="641.036189" y="77.134079" style="fill: #3c6e88; fill-opacity: 0.7; stroke: #ffffff; stroke-opacity: 0.7; stroke-width: 0.5"/>
     <use xlink:href="#me7f2bf77d1" x="662.724306" y="165.101235" style="fill: #3c6e88; fill-opacity: 0.7; stroke: #ffffff; stroke-opacity: 0.7; stroke-width: 0.5"/>
     <use xlink:href="#me7f2bf77d1" x="638.431489" y="110.542119" style="fill: #3c6e88; fill-opacity: 0.7; stroke: #ffffff; stroke-opacity: 0.7; stroke-width: 0.5"/>
     <use xlink:href="#me7f2bf77d1" x="658.184685" y="114.336817" style="fill: #3c6e88; fill-opacity: 0.7; stroke: #ffffff; stroke-opacity: 0.7; stroke-width: 0.5"/>
     <use xlink:href="#me7f2bf77d1" x="665.881841" y="141.10184" style="fill: #3c6e88; fill-opacity: 0.7; stroke: #ffffff; stroke-opacity: 0.7; stroke-width: 0.5"/>
     <use xlink:href="#me7f2bf77d1" x="670.719141" y="148.32371" style="fill: #3c6e88; fill-opacity: 0.7; stroke: #ffffff; stroke-opacity: 0.7; stroke-width: 0.5"/>
     <use xlink:href="#me7f2bf77d1" x="683.413069" y="130.232282" style="fill: #3c6e88; fill-opacity: 0.7; stroke: #ffffff; stroke-opacity: 0.7; stroke-width: 0.5"/>
     <use xlink:href="#me7f2bf77d1" x="703.634048" y="143.904219" style="fill: #3c6e88; fill-opacity: 0.7; stroke: #ffffff; stroke-opacity: 0.7; stroke-width: 0.5"/>
    </g>
   </g>
   <g id="PathCollection_6">
    <defs>
     <path id="mcf7bc43e85" d="M 0 3.162278 
C 0.838646 3.162278 1.643056 2.82908 2.236068 2.236068 
C 2.82908 1.643056 3.162278 0.838646 3.162278 0 
C 3.162278 -0.838646 2.82908 -1.643056 2.236068 -2.236068 
C 1.643056 -2.82908 0.838646 -3.162278 0 -3.162278 
C -0.838646 -3.162278 -1.643056 -2.82908 -2.236068 -2.236068 
C -2.82908 -1.643056 -3.162278 -0.838646 -3.162278 0 
C -3.162278 0.838646 -2.82908 1.643056 -2.236068 2.236068 
C -1.643056 2.82908 -0.838646 3.162278 0 3.162278 
z
" style="stroke: #ffffff; stroke-opacity: 0.7; stroke-width: 0.5"/>
    </defs>
    <g clip-path="url(#p42af51bf3b)">
     <use xlink:href="#mcf7bc43e85" x="706.780952" y="88.13227" style="fill: #2a5d3e; fill-opacity: 0.7; stroke: #ffffff; stroke-opacity: 0.7; stroke-width: 0.5"/>
     <use xlink:href="#mcf7bc43e85" x="733.455209" y="91.247046" style="fill: #2a5d3e; fill-opacity: 0.7; stroke: #ffffff; stroke-opacity: 0.7; stroke-width: 0.5"/>
     <use xlink:href="#mcf7bc43e85" x="728.724223" y="75.709918" style="fill: #2a5d3e; fill-opacity: 0.7; stroke: #ffffff; stroke-opacity: 0.7; stroke-width: 0.5"/>
     <use xlink:href="#mcf7bc43e85" x="752.411049" y="32.599212" style="fill: #2a5d3e; fill-opacity: 0.7; stroke: #ffffff; stroke-opacity: 0.7; stroke-width: 0.5"/>
     <use xlink:href="#mcf7bc43e85" x="760.097573" y="78.420417" style="fill: #2a5d3e; fill-opacity: 0.7; stroke: #ffffff; stroke-opacity: 0.7; stroke-width: 0.5"/>
     <use xlink:href="#mcf7bc43e85" x="762.30891" y="68.313474" style="fill: #2a5d3e; fill-opacity: 0.7; stroke: #ffffff; stroke-opacity: 0.7; stroke-width: 0.5"/>
    </g>
   </g>
   <g id="matplotlib.axis_3">
    <g id="xtick_7">
     <g id="line2d_27">
      <path d="M 469.338596 280.415483 
L 469.338596 20.798437 
" clip-path="url(#p42af51bf3b)" style="fill: none; stroke: #d8d4c7; stroke-opacity: 0.7; stroke-width: 0.5; stroke-linecap: square"/>
     </g>
     <g id="line2d_28">
      <g>
       <use xlink:href="#m7b2ee60a7e" x="469.338596" y="280.415483" style="fill: #5a6470; stroke: #5a6470; stroke-width: 0.8"/>
      </g>
     </g>
     <g id="text_18">
      <!-- 25 -->
      <g style="fill: #5a6470" transform="translate(462.976096 295.01392) scale(0.1 -0.1)">
       <use xlink:href="#DejaVuSerif-32"/>
       <use xlink:href="#DejaVuSerif-35" transform="translate(63.623047 0)"/>
      </g>
     </g>
    </g>
    <g id="xtick_8">
     <g id="line2d_29">
      <path d="M 522.495745 280.415483 
L 522.495745 20.798437 
" clip-path="url(#p42af51bf3b)" style="fill: none; stroke: #d8d4c7; stroke-opacity: 0.7; stroke-width: 0.5; stroke-linecap: square"/>
     </g>
     <g id="line2d_30">
      <g>
       <use xlink:href="#m7b2ee60a7e" x="522.495745" y="280.415483" style="fill: #5a6470; stroke: #5a6470; stroke-width: 0.8"/>
      </g>
     </g>
     <g id="text_19">
      <!-- 30 -->
      <g style="fill: #5a6470" transform="translate(516.133245 295.01392) scale(0.1 -0.1)">
       <use xlink:href="#DejaVuSerif-33"/>
       <use xlink:href="#DejaVuSerif-30" transform="translate(63.623047 0)"/>
      </g>
     </g>
    </g>
    <g id="xtick_9">
     <g id="line2d_31">
      <path d="M 575.652895 280.415483 
L 575.652895 20.798437 
" clip-path="url(#p42af51bf3b)" style="fill: none; stroke: #d8d4c7; stroke-opacity: 0.7; stroke-width: 0.5; stroke-linecap: square"/>
     </g>
     <g id="line2d_32">
      <g>
       <use xlink:href="#m7b2ee60a7e" x="575.652895" y="280.415483" style="fill: #5a6470; stroke: #5a6470; stroke-width: 0.8"/>
      </g>
     </g>
     <g id="text_20">
      <!-- 35 -->
      <g style="fill: #5a6470" transform="translate(569.290395 295.01392) scale(0.1 -0.1)">
       <use xlink:href="#DejaVuSerif-33"/>
       <use xlink:href="#DejaVuSerif-35" transform="translate(63.623047 0)"/>
      </g>
     </g>
    </g>
    <g id="xtick_10">
     <g id="line2d_33">
      <path d="M 628.810045 280.415483 
L 628.810045 20.798437 
" clip-path="url(#p42af51bf3b)" style="fill: none; stroke: #d8d4c7; stroke-opacity: 0.7; stroke-width: 0.5; stroke-linecap: square"/>
     </g>
     <g id="line2d_34">
      <g>
       <use xlink:href="#m7b2ee60a7e" x="628.810045" y="280.415483" style="fill: #5a6470; stroke: #5a6470; stroke-width: 0.8"/>
      </g>
     </g>
     <g id="text_21">
      <!-- 40 -->
      <g style="fill: #5a6470" transform="translate(622.447545 295.01392) scale(0.1 -0.1)">
       <use xlink:href="#DejaVuSerif-34"/>
       <use xlink:href="#DejaVuSerif-30" transform="translate(63.623047 0)"/>
      </g>
     </g>
    </g>
    <g id="xtick_11">
     <g id="line2d_35">
      <path d="M 681.967194 280.415483 
L 681.967194 20.798437 
" clip-path="url(#p42af51bf3b)" style="fill: none; stroke: #d8d4c7; stroke-opacity: 0.7; stroke-width: 0.5; stroke-linecap: square"/>
     </g>
     <g id="line2d_36">
      <g>
       <use xlink:href="#m7b2ee60a7e" x="681.967194" y="280.415483" style="fill: #5a6470; stroke: #5a6470; stroke-width: 0.8"/>
      </g>
     </g>
     <g id="text_22">
      <!-- 45 -->
      <g style="fill: #5a6470" transform="translate(675.604694 295.01392) scale(0.1 -0.1)">
       <use xlink:href="#DejaVuSerif-34"/>
       <use xlink:href="#DejaVuSerif-35" transform="translate(63.623047 0)"/>
      </g>
     </g>
    </g>
    <g id="xtick_12">
     <g id="line2d_37">
      <path d="M 735.124344 280.415483 
L 735.124344 20.798437 
" clip-path="url(#p42af51bf3b)" style="fill: none; stroke: #d8d4c7; stroke-opacity: 0.7; stroke-width: 0.5; stroke-linecap: square"/>
     </g>
     <g id="line2d_38">
      <g>
       <use xlink:href="#m7b2ee60a7e" x="735.124344" y="280.415483" style="fill: #5a6470; stroke: #5a6470; stroke-width: 0.8"/>
      </g>
     </g>
     <g id="text_23">
      <!-- 50 -->
      <g style="fill: #5a6470" transform="translate(728.761844 295.01392) scale(0.1 -0.1)">
       <use xlink:href="#DejaVuSerif-35"/>
       <use xlink:href="#DejaVuSerif-30" transform="translate(63.623047 0)"/>
      </g>
     </g>
    </g>
    <g id="text_24">
     <!-- Real disposable income/capita ($K) -->
     <g style="fill: #1f2328" transform="translate(515.280114 308.692045) scale(0.1 -0.1)">
      <use xlink:href="#DejaVuSerif-52"/>
      <use xlink:href="#DejaVuSerif-65" transform="translate(75.292969 0)"/>
      <use xlink:href="#DejaVuSerif-61" transform="translate(134.472656 0)"/>
      <use xlink:href="#DejaVuSerif-6c" transform="translate(194.091797 0)"/>
      <use xlink:href="#DejaVuSerif-20" transform="translate(226.074219 0)"/>
      <use xlink:href="#DejaVuSerif-64" transform="translate(257.861328 0)"/>
      <use xlink:href="#DejaVuSerif-69" transform="translate(321.875 0)"/>
      <use xlink:href="#DejaVuSerif-73" transform="translate(353.857422 0)"/>
      <use xlink:href="#DejaVuSerif-70" transform="translate(405.175781 0)"/>
      <use xlink:href="#DejaVuSerif-6f" transform="translate(469.189453 0)"/>
      <use xlink:href="#DejaVuSerif-73" transform="translate(529.394531 0)"/>
      <use xlink:href="#DejaVuSerif-61" transform="translate(580.712891 0)"/>
      <use xlink:href="#DejaVuSerif-62" transform="translate(640.332031 0)"/>
      <use xlink:href="#DejaVuSerif-6c" transform="translate(704.345703 0)"/>
      <use xlink:href="#DejaVuSerif-65" transform="translate(736.328125 0)"/>
      <use xlink:href="#DejaVuSerif-20" transform="translate(795.507812 0)"/>
      <use xlink:href="#DejaVuSerif-69" transform="translate(827.294922 0)"/>
      <use xlink:href="#DejaVuSerif-6e" transform="translate(859.277344 0)"/>
      <use xlink:href="#DejaVuSerif-63" transform="translate(923.681641 0)"/>
      <use xlink:href="#DejaVuSerif-6f" transform="translate(979.6875 0)"/>
      <use xlink:href="#DejaVuSerif-6d" transform="translate(1039.892578 0)"/>
      <use xlink:href="#DejaVuSerif-65" transform="translate(1134.716797 0)"/>
      <use xlink:href="#DejaVuSerif-2f" transform="translate(1193.896484 0)"/>
      <use xlink:href="#DejaVuSerif-63" transform="translate(1227.587891 0)"/>
      <use xlink:href="#DejaVuSerif-61" transform="translate(1283.59375 0)"/>
      <use xlink:href="#DejaVuSerif-70" transform="translate(1343.212891 0)"/>
      <use xlink:href="#DejaVuSerif-69" transform="translate(1407.226562 0)"/>
      <use xlink:href="#DejaVuSerif-74" transform="translate(1439.208984 0)"/>
      <use xlink:href="#DejaVuSerif-61" transform="translate(1479.394531 0)"/>
      <use xlink:href="#DejaVuSerif-20" transform="translate(1539.013672 0)"/>
      <use xlink:href="#DejaVuSerif-28" transform="translate(1570.800781 0)"/>
      <use xlink:href="#DejaVuSerif-24" transform="translate(1609.814453 0)"/>
      <use xlink:href="#DejaVuSerif-4b" transform="translate(1673.4375 0)"/>
      <use xlink:href="#DejaVuSerif-29" transform="translate(1748.144531 0)"/>
     </g>
    </g>
   </g>
   <g id="matplotlib.axis_4">
    <g id="ytick_7">
     <g id="line2d_39">
      <path d="M 431.203125 265.858269 
L 778.075852 265.858269 
" clip-path="url(#p42af51bf3b)" style="fill: none; stroke: #d8d4c7; stroke-opacity: 0.7; stroke-width: 0.5; stroke-linecap: square"/>
     </g>
     <g id="line2d_40">
      <g>
       <use xlink:href="#m23bf8b56f7" x="431.203125" y="265.858269" style="fill: #5a6470; stroke: #5a6470; stroke-width: 0.8"/>
      </g>
     </g>
     <g id="text_25">
      <!-- 40 -->
      <g style="fill: #5a6470" transform="translate(411.478125 269.657488) scale(0.1 -0.1)">
       <use xlink:href="#DejaVuSerif-34"/>
       <use xlink:href="#DejaVuSerif-30" transform="translate(63.623047 0)"/>
      </g>
     </g>
    </g>
    <g id="ytick_8">
     <g id="line2d_41">
      <path d="M 431.203125 219.917619 
L 778.075852 219.917619 
" clip-path="url(#p42af51bf3b)" style="fill: none; stroke: #d8d4c7; stroke-opacity: 0.7; stroke-width: 0.5; stroke-linecap: square"/>
     </g>
     <g id="line2d_42">
      <g>
       <use xlink:href="#m23bf8b56f7" x="431.203125" y="219.917619" style="fill: #5a6470; stroke: #5a6470; stroke-width: 0.8"/>
      </g>
     </g>
     <g id="text_26">
      <!-- 45 -->
      <g style="fill: #5a6470" transform="translate(411.478125 223.716838) scale(0.1 -0.1)">
       <use xlink:href="#DejaVuSerif-34"/>
       <use xlink:href="#DejaVuSerif-35" transform="translate(63.623047 0)"/>
      </g>
     </g>
    </g>
    <g id="ytick_9">
     <g id="line2d_43">
      <path d="M 431.203125 173.976969 
L 778.075852 173.976969 
" clip-path="url(#p42af51bf3b)" style="fill: none; stroke: #d8d4c7; stroke-opacity: 0.7; stroke-width: 0.5; stroke-linecap: square"/>
     </g>
     <g id="line2d_44">
      <g>
       <use xlink:href="#m23bf8b56f7" x="431.203125" y="173.976969" style="fill: #5a6470; stroke: #5a6470; stroke-width: 0.8"/>
      </g>
     </g>
     <g id="text_27">
      <!-- 50 -->
      <g style="fill: #5a6470" transform="translate(411.478125 177.776188) scale(0.1 -0.1)">
       <use xlink:href="#DejaVuSerif-35"/>
       <use xlink:href="#DejaVuSerif-30" transform="translate(63.623047 0)"/>
      </g>
     </g>
    </g>
    <g id="ytick_10">
     <g id="line2d_45">
      <path d="M 431.203125 128.036319 
L 778.075852 128.036319 
" clip-path="url(#p42af51bf3b)" style="fill: none; stroke: #d8d4c7; stroke-opacity: 0.7; stroke-width: 0.5; stroke-linecap: square"/>
     </g>
     <g id="line2d_46">
      <g>
       <use xlink:href="#m23bf8b56f7" x="431.203125" y="128.036319" style="fill: #5a6470; stroke: #5a6470; stroke-width: 0.8"/>
      </g>
     </g>
     <g id="text_28">
      <!-- 55 -->
      <g style="fill: #5a6470" transform="translate(411.478125 131.835538) scale(0.1 -0.1)">
       <use xlink:href="#DejaVuSerif-35"/>
       <use xlink:href="#DejaVuSerif-35" transform="translate(63.623047 0)"/>
      </g>
     </g>
    </g>
    <g id="ytick_11">
     <g id="line2d_47">
      <path d="M 431.203125 82.095669 
L 778.075852 82.095669 
" clip-path="url(#p42af51bf3b)" style="fill: none; stroke: #d8d4c7; stroke-opacity: 0.7; stroke-width: 0.5; stroke-linecap: square"/>
     </g>
     <g id="line2d_48">
      <g>
       <use xlink:href="#m23bf8b56f7" x="431.203125" y="82.095669" style="fill: #5a6470; stroke: #5a6470; stroke-width: 0.8"/>
      </g>
     </g>
     <g id="text_29">
      <!-- 60 -->
      <g style="fill: #5a6470" transform="translate(411.478125 85.894887) scale(0.1 -0.1)">
       <use xlink:href="#DejaVuSerif-36"/>
       <use xlink:href="#DejaVuSerif-30" transform="translate(63.623047 0)"/>
      </g>
     </g>
    </g>
    <g id="ytick_12">
     <g id="line2d_49">
      <path d="M 431.203125 36.155019 
L 778.075852 36.155019 
" clip-path="url(#p42af51bf3b)" style="fill: none; stroke: #d8d4c7; stroke-opacity: 0.7; stroke-width: 0.5; stroke-linecap: square"/>
     </g>
     <g id="line2d_50">
      <g>
       <use xlink:href="#m23bf8b56f7" x="431.203125" y="36.155019" style="fill: #5a6470; stroke: #5a6470; stroke-width: 0.8"/>
      </g>
     </g>
     <g id="text_30">
      <!-- 65 -->
      <g style="fill: #5a6470" transform="translate(411.478125 39.954237) scale(0.1 -0.1)">
       <use xlink:href="#DejaVuSerif-36"/>
       <use xlink:href="#DejaVuSerif-35" transform="translate(63.623047 0)"/>
      </g>
     </g>
    </g>
    <g id="text_31">
     <!-- Skier visits (millions) -->
     <g style="fill: #1f2328" transform="translate(405.398438 204.18821) rotate(-90) scale(0.1 -0.1)">
      <use xlink:href="#DejaVuSerif-53"/>
      <use xlink:href="#DejaVuSerif-6b" transform="translate(68.505859 0)"/>
      <use xlink:href="#DejaVuSerif-69" transform="translate(129.101562 0)"/>
      <use xlink:href="#DejaVuSerif-65" transform="translate(161.083984 0)"/>
      <use xlink:href="#DejaVuSerif-72" transform="translate(220.263672 0)"/>
      <use xlink:href="#DejaVuSerif-20" transform="translate(268.066406 0)"/>
      <use xlink:href="#DejaVuSerif-76" transform="translate(299.853516 0)"/>
      <use xlink:href="#DejaVuSerif-69" transform="translate(356.347656 0)"/>
      <use xlink:href="#DejaVuSerif-73" transform="translate(388.330078 0)"/>
      <use xlink:href="#DejaVuSerif-69" transform="translate(439.648438 0)"/>
      <use xlink:href="#DejaVuSerif-74" transform="translate(471.630859 0)"/>
      <use xlink:href="#DejaVuSerif-73" transform="translate(511.816406 0)"/>
      <use xlink:href="#DejaVuSerif-20" transform="translate(563.134766 0)"/>
      <use xlink:href="#DejaVuSerif-28" transform="translate(594.921875 0)"/>
      <use xlink:href="#DejaVuSerif-6d" transform="translate(633.935547 0)"/>
      <use xlink:href="#DejaVuSerif-69" transform="translate(728.759766 0)"/>
      <use xlink:href="#DejaVuSerif-6c" transform="translate(760.742188 0)"/>
      <use xlink:href="#DejaVuSerif-6c" transform="translate(792.724609 0)"/>
      <use xlink:href="#DejaVuSerif-69" transform="translate(824.707031 0)"/>
      <use xlink:href="#DejaVuSerif-6f" transform="translate(856.689453 0)"/>
      <use xlink:href="#DejaVuSerif-6e" transform="translate(916.894531 0)"/>
      <use xlink:href="#DejaVuSerif-73" transform="translate(981.298828 0)"/>
      <use xlink:href="#DejaVuSerif-29" transform="translate(1032.617188 0)"/>
     </g>
    </g>
   </g>
   <g id="line2d_51">
    <path d="M 446.970067 180.752547 
L 455.820549 177.899962 
L 464.671031 175.047377 
L 473.521513 172.194793 
L 482.371996 169.342208 
L 491.222478 166.489623 
L 500.07296 163.637038 
L 508.923442 160.784453 
L 517.773924 157.931868 
L 526.624406 155.079283 
L 535.474888 152.226698 
L 544.32537 149.374113 
L 553.175852 146.521528 
L 562.026335 143.668943 
L 570.876817 140.816358 
L 579.727299 137.963773 
L 588.577781 135.111189 
L 597.428263 132.258604 
L 606.278745 129.406019 
L 615.129227 126.553434 
L 623.979709 123.700849 
L 632.830191 120.848264 
L 641.680674 117.995679 
L 650.531156 115.143094 
L 659.381638 112.290509 
L 668.23212 109.437924 
L 677.082602 106.585339 
L 685.933084 103.732754 
L 694.783566 100.880169 
L 703.634048 98.027585 
" clip-path="url(#p42af51bf3b)" style="fill: none; stroke: #3c6e88; stroke-opacity: 0.6; stroke-width: 1.3; stroke-linecap: square"/>
   </g>
   <g id="line2d_52">
    <path d="M 706.780952 89.096296 
L 708.695709 88.152028 
L 710.610466 87.207761 
L 712.525223 86.263494 
L 714.43998 85.319226 
L 716.354738 84.374959 
L 718.269495 83.430692 
L 720.184252 82.486424 
L 722.099009 81.542157 
L 724.013766 80.597889 
L 725.928524 79.653622 
L 727.843281 78.709355 
L 729.758038 77.765087 
L 731.672795 76.82082 
L 733.587552 75.876553 
L 735.502309 74.932285 
L 737.417067 73.988018 
L 739.331824 73.04375 
L 741.246581 72.099483 
L 743.161338 71.155216 
L 745.076095 70.210948 
L 746.990853 69.266681 
L 748.90561 68.322414 
L 750.820367 67.378146 
L 752.735124 66.433879 
L 754.649881 65.489611 
L 756.564639 64.545344 
L 758.479396 63.601077 
L 760.394153 62.656809 
L 762.30891 61.712542 
" clip-path="url(#p42af51bf3b)" style="fill: none; stroke: #2a5d3e; stroke-opacity: 0.6; stroke-width: 1.3; stroke-linecap: square"/>
   </g>
   <g id="patch_6">
    <path d="M 431.203125 280.415483 
L 431.203125 20.798437 
" style="fill: none; stroke: #1f2328; stroke-width: 0.8; stroke-linejoin: miter; stroke-linecap: square"/>
   </g>
   <g id="patch_7">
    <path d="M 431.203125 280.415483 
L 778.075852 280.415483 
" style="fill: none; stroke: #1f2328; stroke-width: 0.8; stroke-linejoin: miter; stroke-linecap: square"/>
   </g>
   <g id="text_32">
    <!-- Pre- vs post-Ikon Pass relationships -->
    <g transform="translate(431.203125 14.798437) scale(0.1 -0.1)">
     <defs>
      <path id="DejaVuSerif-Bold-49" d="M 300 0 
L 300 378 
L 897 378 
L 897 4288 
L 300 4288 
L 300 4666 
L 2700 4666 
L 2700 4288 
L 2100 4288 
L 2100 378 
L 2700 378 
L 2700 0 
L 300 0 
z
" transform="scale(0.015625)"/>
      <path id="DejaVuSerif-Bold-6b" d="M 2216 0 
L 219 0 
L 219 378 
L 691 378 
L 691 4488 
L 219 4488 
L 219 4863 
L 1797 4863 
L 1797 1741 
L 3138 2944 
L 2741 2944 
L 2741 3322 
L 4256 3322 
L 4256 2944 
L 3641 2944 
L 2784 2175 
L 4184 378 
L 4544 378 
L 4544 0 
L 2638 0 
L 2638 378 
L 3028 378 
L 2106 1563 
L 1797 1288 
L 1797 378 
L 2216 378 
L 2216 0 
z
" transform="scale(0.015625)"/>
     </defs>
     <use xlink:href="#DejaVuSerif-Bold-50"/>
     <use xlink:href="#DejaVuSerif-Bold-72" transform="translate(75.195312 0)"/>
     <use xlink:href="#DejaVuSerif-Bold-65" transform="translate(127.880859 0)"/>
     <use xlink:href="#DejaVuSerif-Bold-2d" transform="translate(191.503906 0)"/>
     <use xlink:href="#DejaVuSerif-Bold-20" transform="translate(233.007812 0)"/>
     <use xlink:href="#DejaVuSerif-Bold-76" transform="translate(267.822266 0)"/>
     <use xlink:href="#DejaVuSerif-Bold-73" transform="translate(325.927734 0)"/>
     <use xlink:href="#DejaVuSerif-Bold-20" transform="translate(382.226562 0)"/>
     <use xlink:href="#DejaVuSerif-Bold-70" transform="translate(417.041016 0)"/>
     <use xlink:href="#DejaVuSerif-Bold-6f" transform="translate(486.962891 0)"/>
     <use xlink:href="#DejaVuSerif-Bold-73" transform="translate(553.662109 0)"/>
     <use xlink:href="#DejaVuSerif-Bold-74" transform="translate(609.960938 0)"/>
     <use xlink:href="#DejaVuSerif-Bold-2d" transform="translate(656.152344 0)"/>
     <use xlink:href="#DejaVuSerif-Bold-49" transform="translate(697.65625 0)"/>
     <use xlink:href="#DejaVuSerif-Bold-6b" transform="translate(744.433594 0)"/>
     <use xlink:href="#DejaVuSerif-Bold-6f" transform="translate(813.720703 0)"/>
     <use xlink:href="#DejaVuSerif-Bold-6e" transform="translate(880.419922 0)"/>
     <use xlink:href="#DejaVuSerif-Bold-20" transform="translate(953.125 0)"/>
     <use xlink:href="#DejaVuSerif-Bold-50" transform="translate(987.939453 0)"/>
     <use xlink:href="#DejaVuSerif-Bold-61" transform="translate(1060.509766 0)"/>
     <use xlink:href="#DejaVuSerif-Bold-73" transform="translate(1125.304688 0)"/>
     <use xlink:href="#DejaVuSerif-Bold-73" transform="translate(1181.603516 0)"/>
     <use xlink:href="#DejaVuSerif-Bold-20" transform="translate(1237.902344 0)"/>
     <use xlink:href="#DejaVuSerif-Bold-72" transform="translate(1272.716797 0)"/>
     <use xlink:href="#DejaVuSerif-Bold-65" transform="translate(1325.402344 0)"/>
     <use xlink:href="#DejaVuSerif-Bold-6c" transform="translate(1389.025391 0)"/>
     <use xlink:href="#DejaVuSerif-Bold-61" transform="translate(1427.013672 0)"/>
     <use xlink:href="#DejaVuSerif-Bold-74" transform="translate(1491.808594 0)"/>
     <use xlink:href="#DejaVuSerif-Bold-69" transform="translate(1538 0)"/>
     <use xlink:href="#DejaVuSerif-Bold-6f" transform="translate(1575.988281 0)"/>
     <use xlink:href="#DejaVuSerif-Bold-6e" transform="translate(1642.6875 0)"/>
     <use xlink:href="#DejaVuSerif-Bold-73" transform="translate(1715.392578 0)"/>
     <use xlink:href="#DejaVuSerif-Bold-68" transform="translate(1771.691406 0)"/>
     <use xlink:href="#DejaVuSerif-Bold-69" transform="translate(1844.396484 0)"/>
     <use xlink:href="#DejaVuSerif-Bold-70" transform="translate(1882.384766 0)"/>
     <use xlink:href="#DejaVuSerif-Bold-73" transform="translate(1952.306641 0)"/>
    </g>
   </g>
   <g id="legend_2">
    <g id="PathCollection_7">
     <g>
      <use xlink:href="#me7f2bf77d1" x="680.15304" y="254.870952" style="fill: #3c6e88; fill-opacity: 0.7; stroke: #ffffff; stroke-opacity: 0.7; stroke-width: 0.5"/>
     </g>
    </g>
    <g id="text_33">
     <!-- Pre-Ikon (n=40) -->
     <g transform="translate(696.35304 257.233452) scale(0.09 -0.09)">
      <defs>
       <path id="DejaVuSerif-49" d="M 1581 331 
L 2175 331 
L 2175 0 
L 353 0 
L 353 331 
L 947 331 
L 947 4331 
L 353 4331 
L 353 4666 
L 2175 4666 
L 2175 4331 
L 1581 4331 
L 1581 331 
z
" transform="scale(0.015625)"/>
      </defs>
      <use xlink:href="#DejaVuSerif-50"/>
      <use xlink:href="#DejaVuSerif-72" transform="translate(67.285156 0)"/>
      <use xlink:href="#DejaVuSerif-65" transform="translate(115.087891 0)"/>
      <use xlink:href="#DejaVuSerif-2d" transform="translate(174.267578 0)"/>
      <use xlink:href="#DejaVuSerif-49" transform="translate(208.056641 0)"/>
      <use xlink:href="#DejaVuSerif-6b" transform="translate(247.558594 0)"/>
      <use xlink:href="#DejaVuSerif-6f" transform="translate(308.154297 0)"/>
      <use xlink:href="#DejaVuSerif-6e" transform="translate(368.359375 0)"/>
      <use xlink:href="#DejaVuSerif-20" transform="translate(432.763672 0)"/>
      <use xlink:href="#DejaVuSerif-28" transform="translate(464.550781 0)"/>
      <use xlink:href="#DejaVuSerif-6e" transform="translate(503.564453 0)"/>
      <use xlink:href="#DejaVuSerif-3d" transform="translate(567.96875 0)"/>
      <use xlink:href="#DejaVuSerif-34" transform="translate(651.757812 0)"/>
      <use xlink:href="#DejaVuSerif-30" transform="translate(715.380859 0)"/>
      <use xlink:href="#DejaVuSerif-29" transform="translate(779.003906 0)"/>
     </g>
    </g>
    <g id="PathCollection_8">
     <g>
      <use xlink:href="#mcf7bc43e85" x="680.15304" y="268.081264" style="fill: #2a5d3e; fill-opacity: 0.7; stroke: #ffffff; stroke-opacity: 0.7; stroke-width: 0.5"/>
     </g>
    </g>
    <g id="text_34">
     <!-- Post-Ikon (n=6) -->
     <g transform="translate(696.35304 270.443764) scale(0.09 -0.09)">
      <use xlink:href="#DejaVuSerif-50"/>
      <use xlink:href="#DejaVuSerif-6f" transform="translate(63.285156 0)"/>
      <use xlink:href="#DejaVuSerif-73" transform="translate(123.490234 0)"/>
      <use xlink:href="#DejaVuSerif-74" transform="translate(174.808594 0)"/>
      <use xlink:href="#DejaVuSerif-2d" transform="translate(214.994141 0)"/>
      <use xlink:href="#DejaVuSerif-49" transform="translate(248.783203 0)"/>
      <use xlink:href="#DejaVuSerif-6b" transform="translate(288.285156 0)"/>
      <use xlink:href="#DejaVuSerif-6f" transform="translate(348.880859 0)"/>
      <use xlink:href="#DejaVuSerif-6e" transform="translate(409.085938 0)"/>
      <use xlink:href="#DejaVuSerif-20" transform="translate(473.490234 0)"/>
      <use xlink:href="#DejaVuSerif-28" transform="translate(505.277344 0)"/>
      <use xlink:href="#DejaVuSerif-6e" transform="translate(544.291016 0)"/>
      <use xlink:href="#DejaVuSerif-3d" transform="translate(608.695312 0)"/>
      <use xlink:href="#DejaVuSerif-36" transform="translate(692.484375 0)"/>
      <use xlink:href="#DejaVuSerif-29" transform="translate(756.107422 0)"/>
     </g>
    </g>
   </g>
  </g>
 </g>
 <defs>
  <clipPath id="pb736d0710b">
   <rect x="40.603125" y="20.798437" width="346.872727" height="259.617045"/>
  </clipPath>
  <clipPath id="p42af51bf3b">
   <rect x="431.203125" y="20.798437" width="346.872727" height="259.617045"/>
  </clipPath>
 </defs>
</svg>
