<?xml version="1.0" encoding="utf-8" standalone="no"?>
<!DOCTYPE svg PUBLIC "-//W3C//DTD SVG 1.1//EN"
  "http://www.w3.org/Graphics/SVG/1.1/DTD/svg11.dtd">
<svg xmlns:xlink="http://www.w3.org/1999/xlink" width="577.7088pt" height="554.735881pt" viewBox="0 0 577.7088 554.735881" xmlns="http://www.w3.org/2000/svg" version="1.1">
 <metadata>
  <rdf:RDF xmlns:dc="http://purl.org/dc/elements/1.1/" xmlns:cc="http://creativecommons.org/ns#" xmlns:rdf="http://www.w3.org/1999/02/22-rdf-syntax-ns#">
   <cc:Work>
    <dc:type rdf:resource="http://purl.org/dc/dcmitype/StillImage"/>
    <dc:date>2026-04-30T00:04:33.549906</dc:date>
    <dc:format>image/svg+xml</dc:format>
    <dc:creator>
     <cc:Agent>
      <dc:title>Matplotlib v3.10.8, https://matplotlib.org/</dc:title>
     </cc:Agent>
    </dc:creator>
   </cc:Work>
  </rdf:RDF>
 </metadata>
 <defs>
  <style type="text/css">*{stroke-linejoin: round; stroke-linecap: butt}</style>
 </defs>
 <g id="figure_1">
  <g id="patch_1">
   <path d="M 0 554.735881 
L 577.7088 554.735881 
L 577.7088 0 
L 0 0 
z
" style="fill: #faf8f3"/>
  </g>
  <g id="axes_1">
   <g id="patch_2">
    <path d="M 500.512 280.214281 
C 500.512 247.823712 494.131764 215.7481 481.73643 185.823117 
C 469.341096 155.898133 451.171721 128.705742 428.26813 105.802151 
C 405.364539 82.89856 378.172149 64.729185 348.247165 52.333851 
C 318.322181 39.938517 286.246569 33.558281 253.856 33.558281 
C 221.465431 33.558281 189.389819 39.938517 159.464835 52.333851 
C 129.539851 64.729185 102.347461 82.89856 79.44387 105.802151 
C 56.540279 128.705742 38.370904 155.898133 25.97557 185.823117 
C 13.580236 215.7481 7.2 247.823712 7.2 280.214281 
C 7.2 312.60485 13.580236 344.680462 25.97557 374.605446 
C 38.370904 404.53043 56.540279 431.72282 79.44387 454.626411 
C 102.347461 477.530003 129.539851 495.699377 159.464835 508.094711 
C 189.389819 520.490045 221.465431 526.870281 253.856 526.870281 
C 286.246569 526.870281 318.322181 520.490045 348.247165 508.094711 
C 378.172149 495.699377 405.364539 477.530003 428.26813 454.626411 
C 451.171721 431.72282 469.341096 404.53043 481.73643 374.605446 
C 494.131764 344.680462 500.512 312.60485 500.512 280.214281 
M 253.856 280.214281 
C 253.856 280.214281 253.856 280.214281 253.856 280.214281 
C 253.856 280.214281 253.856 280.214281 253.856 280.214281 
C 253.856 280.214281 253.856 280.214281 253.856 280.214281 
C 253.856 280.214281 253.856 280.214281 253.856 280.214281 
C 253.856 280.214281 253.856 280.214281 253.856 280.214281 
C 253.856 280.214281 253.856 280.214281 253.856 280.214281 
C 253.856 280.214281 253.856 280.214281 253.856 280.214281 
C 253.856 280.214281 253.856 280.214281 253.856 280.214281 
C 253.856 280.214281 253.856 280.214281 253.856 280.214281 
C 253.856 280.214281 253.856 280.214281 253.856 280.214281 
C 253.856 280.214281 253.856 280.214281 253.856 280.214281 
C 253.856 280.214281 253.856 280.214281 253.856 280.214281 
C 253.856 280.214281 253.856 280.214281 253.856 280.214281 
C 253.856 280.214281 253.856 280.214281 253.856 280.214281 
C 253.856 280.214281 253.856 280.214281 253.856 280.214281 
C 253.856 280.214281 253.856 280.214281 253.856 280.214281 
z
" style="fill: #faf8f3"/>
   </g>
   <g id="patch_3">
    <path d="M 356.644946 304.891724 
C 358.585347 296.809373 359.565714 288.526294 359.565714 280.214281 
C 359.565714 271.902269 358.585347 263.619189 356.644946 255.536839 
L 402.157608 244.610215 
C 404.957175 256.271251 406.371627 268.221895 406.371627 280.214281 
C 406.371627 292.206668 404.957175 304.157311 402.157608 315.818347 
z
" clip-path="url(#p70ad4c8256)" style="fill: #a8323e; opacity: 0.85; stroke: #1f2328; stroke-width: 0.4; stroke-linejoin: miter"/>
   </g>
   <g id="patch_4">
    <path d="M 355.21256 250.1911 
C 352.851821 242.221379 349.559304 234.557838 345.403298 227.359424 
C 341.247292 220.16101 336.256729 213.477836 330.535118 207.448516 
L 341.180735 197.346202 
C 347.696697 204.212593 353.380116 211.823614 358.113115 220.021408 
C 362.846113 228.219202 366.595741 236.946698 369.284229 246.022882 
z
" clip-path="url(#p70ad4c8256)" style="fill: #475569; opacity: 0.85; stroke: #1f2328; stroke-width: 0.4; stroke-linejoin: miter"/>
   </g>
   <g id="patch_5">
    <path d="M 326.621766 203.535164 
C 320.592445 197.813552 313.909271 192.822989 306.710857 188.666983 
C 299.512443 184.510977 291.848902 181.21846 283.879181 178.857721 
L 300.409444 123.052488 
C 312.767161 126.713011 324.65012 131.818333 335.811861 138.262567 
C 346.973601 144.706801 357.336419 152.445084 366.685383 161.31692 
z
" clip-path="url(#p70ad4c8256)" style="fill: #b8860b; opacity: 0.85; stroke: #1f2328; stroke-width: 0.4; stroke-linejoin: miter"/>
   </g>
   <g id="patch_6">
    <path d="M 278.533443 177.425335 
C 270.451092 175.484934 262.168012 174.504567 253.856 174.504567 
C 245.543988 174.504567 237.260908 175.484934 229.178557 177.425335 
L 233.437473 195.164994 
C 240.124944 193.559474 246.978502 192.748302 253.856 192.748302 
C 260.733498 192.748302 267.587056 193.559474 274.274527 195.164994 
z
" clip-path="url(#p70ad4c8256)" style="fill: #475569; opacity: 0.85; stroke: #1f2328; stroke-width: 0.4; stroke-linejoin: miter"/>
   </g>
   <g id="patch_7">
    <path d="M 223.832819 178.857721 
C 215.863098 181.21846 208.199557 184.510977 201.001143 188.666983 
C 193.802729 192.822989 187.119555 197.813552 181.090234 203.535164 
L 138.516198 158.67149 
C 148.073174 149.602259 158.666561 141.691801 170.076647 135.104185 
C 181.486733 128.516569 193.634084 123.297655 206.266756 119.555687 
z
" clip-path="url(#p70ad4c8256)" style="fill: #475569; opacity: 0.85; stroke: #1f2328; stroke-width: 0.4; stroke-linejoin: miter"/>
   </g>
   <g id="patch_8">
    <path d="M 177.176882 207.448516 
C 171.455271 213.477836 166.464708 220.16101 162.308702 227.359424 
C 158.152696 234.557838 154.860179 242.221379 152.49944 250.1911 
L 104.371966 235.935093 
C 107.853663 224.181082 112.709577 212.878637 118.838993 202.262176 
C 124.96841 191.645715 132.328658 181.789148 140.767082 172.896905 
z
" clip-path="url(#p70ad4c8256)" style="fill: #475569; opacity: 0.85; stroke: #1f2328; stroke-width: 0.4; stroke-linejoin: miter"/>
   </g>
   <g id="patch_9">
    <path d="M 151.067054 255.536839 
C 149.126653 263.619189 148.146286 271.902269 148.146286 280.214281 
C 148.146286 288.526294 149.126653 296.809373 151.067054 304.891724 
L 207.189818 291.41784 
C 206.308876 287.748453 205.86379 283.987935 205.86379 280.214281 
C 205.86379 276.440628 206.308876 272.68011 207.189818 269.010722 
z
" clip-path="url(#p70ad4c8256)" style="fill: #a8323e; opacity: 0.85; stroke: #1f2328; stroke-width: 0.4; stroke-linejoin: miter"/>
   </g>
   <g id="patch_10">
    <path d="M 152.49944 310.237462 
C 154.860179 318.207184 158.152696 325.870725 162.308702 333.069138 
C 166.464708 340.267552 171.455271 346.950726 177.176882 352.980047 
L 138.396419 389.781333 
C 129.781102 380.702683 122.266562 370.639494 116.008656 359.800482 
C 109.75075 348.961471 104.793042 337.422094 101.238359 325.421686 
z
" clip-path="url(#p70ad4c8256)" style="fill: #475569; opacity: 0.85; stroke: #1f2328; stroke-width: 0.4; stroke-linejoin: miter"/>
   </g>
   <g id="patch_11">
    <path d="M 181.090234 356.893399 
C 187.119555 362.61501 193.802729 367.605573 201.001143 371.761579 
C 208.199557 375.917585 215.863098 379.210102 223.832819 381.570841 
L 199.348915 464.227116 
C 184.879886 459.941195 170.966727 453.96363 157.898007 446.418401 
C 144.829287 438.873172 132.695984 429.812805 121.749753 419.425219 
z
" clip-path="url(#p70ad4c8256)" style="fill: #b8860b; opacity: 0.85; stroke: #1f2328; stroke-width: 0.4; stroke-linejoin: miter"/>
   </g>
   <g id="patch_12">
    <path d="M 229.178557 383.003228 
C 237.260908 384.943628 245.543988 385.923996 253.856 385.923996 
C 262.168012 385.923996 270.451092 384.943628 278.533443 383.003228 
L 302.643304 483.428028 
C 286.664497 487.264201 270.288848 489.202386 253.856 489.202386 
C 237.423152 489.202386 221.047503 487.264201 205.068696 483.428028 
z
" clip-path="url(#p70ad4c8256)" style="fill: #475569; opacity: 0.85; stroke: #1f2328; stroke-width: 0.4; stroke-linejoin: miter"/>
   </g>
   <g id="patch_13">
    <path d="M 283.879181 381.570841 
C 291.848902 379.210102 299.512443 375.917585 306.710857 371.761579 
C 313.909271 367.605573 320.592445 362.61501 326.621766 356.893399 
L 269.403619 296.598053 
C 268.115354 297.82057 266.687382 298.886887 265.149321 299.774887 
C 263.61126 300.662887 261.973817 301.366388 260.270953 301.8708 
z
" clip-path="url(#p70ad4c8256)" style="fill: #475569; opacity: 0.85; stroke: #1f2328; stroke-width: 0.4; stroke-linejoin: miter"/>
   </g>
   <g id="patch_14">
    <path d="M 330.535118 352.980047 
C 336.256729 346.950726 341.247292 340.267552 345.403298 333.069138 
C 349.559304 325.870725 352.851821 318.207184 355.21256 310.237462 
L 324.738021 301.210492 
C 323.087078 306.783984 320.784511 312.143354 317.878077 317.177445 
C 314.971643 322.211535 311.481577 326.885302 307.480263 331.101807 
z
" clip-path="url(#p70ad4c8256)" style="fill: #475569; opacity: 0.85; stroke: #1f2328; stroke-width: 0.4; stroke-linejoin: miter"/>
   </g>
   <g id="matplotlib.axis_1"/>
   <g id="matplotlib.axis_2">
    <g id="ytick_1">
     <g id="line2d_1">
      <path d="M 289.092571 280.214281 
C 289.092571 275.587057 288.181109 271.004827 286.410347 266.729829 
C 284.639585 262.454831 282.04396 258.570204 278.772019 255.298263 
C 275.500077 252.026321 271.61545 249.430696 267.340452 247.659934 
C 263.065454 245.889172 258.483224 244.97771 253.856 244.97771 
C 249.228776 244.97771 244.646546 245.889172 240.371548 247.659934 
C 236.09655 249.430696 232.211923 252.026321 228.939981 255.298263 
C 225.66804 258.570204 223.072415 262.454831 221.301653 266.729829 
C 219.530891 271.004827 218.619429 275.587057 218.619429 280.214281 
C 218.619429 284.841505 219.530891 289.423736 221.301653 293.698733 
C 223.072415 297.973731 225.66804 301.858358 228.939981 305.1303 
C 232.211923 308.402241 236.09655 310.997866 240.371548 312.768628 
C 244.646546 314.53939 249.228776 315.450853 253.856 315.450853 
C 258.483224 315.450853 263.065454 314.53939 267.340452 312.768628 
C 271.61545 310.997866 275.500077 308.402241 278.772019 305.1303 
C 282.04396 301.858358 284.639585 297.973731 286.410347 293.698733 
C 288.181109 289.423736 289.092571 284.841505 289.092571 280.214281 
" clip-path="url(#p70ad4c8256)" style="fill: none; stroke: #d8d4c7; stroke-width: 0.3; stroke-linecap: square"/>
     </g>
     <g id="text_1">
      <!-- −2M -->
      <g style="fill: #5a6470" transform="translate(286.410347 265.274048) scale(0.07 -0.07)">
       <defs>
        <path id="DejaVuSerif-2212" d="M 678 2259 
L 4684 2259 
L 4684 1753 
L 678 1753 
L 678 2259 
z
" transform="scale(0.015625)"/>
        <path id="DejaVuSerif-32" d="M 819 3553 
L 469 3553 
L 469 4384 
Q 803 4563 1142 4656 
Q 1481 4750 1806 4750 
Q 2534 4750 2956 4397 
Q 3378 4044 3378 3438 
Q 3378 2753 2422 1800 
Q 2347 1728 2309 1691 
L 1131 513 
L 3078 513 
L 3078 1088 
L 3444 1088 
L 3444 0 
L 434 0 
L 434 341 
L 1850 1753 
Q 2319 2222 2519 2614 
Q 2719 3006 2719 3438 
Q 2719 3909 2473 4175 
Q 2228 4441 1797 4441 
Q 1350 4441 1106 4219 
Q 863 3997 819 3553 
z
" transform="scale(0.015625)"/>
        <path id="DejaVuSerif-4d" d="M 353 0 
L 353 331 
L 947 331 
L 947 4331 
L 319 4331 
L 319 4666 
L 1678 4666 
L 3316 1344 
L 4953 4666 
L 6228 4666 
L 6228 4331 
L 5606 4331 
L 5606 331 
L 6203 331 
L 6203 0 
L 4378 0 
L 4378 331 
L 4972 331 
L 4972 3938 
L 3372 684 
L 2931 684 
L 1331 3938 
L 1331 331 
L 1925 331 
L 1925 0 
L 353 0 
z
" transform="scale(0.015625)"/>
       </defs>
       <use xlink:href="#DejaVuSerif-2212"/>
       <use xlink:href="#DejaVuSerif-32" transform="translate(83.789062 0)"/>
       <use xlink:href="#DejaVuSerif-4d" transform="translate(147.412109 0)"/>
      </g>
     </g>
    </g>
    <g id="ytick_2">
     <g id="line2d_2">
      <path d="M 324.329143 280.214281 
C 324.329143 270.959833 322.506218 261.795372 318.964694 253.245377 
C 315.42317 244.695382 310.23192 236.926127 303.688037 230.382244 
C 297.144154 223.838361 289.3749 218.647111 280.824904 215.105587 
C 272.274909 211.564063 263.110448 209.741138 253.856 209.741138 
C 244.601552 209.741138 235.437091 211.564063 226.887096 215.105587 
C 218.3371 218.647111 210.567846 223.838361 204.023963 230.382244 
C 197.48008 236.926127 192.28883 244.695382 188.747306 253.245377 
C 185.205782 261.795372 183.382857 270.959833 183.382857 280.214281 
C 183.382857 289.46873 185.205782 298.63319 188.747306 307.183185 
C 192.28883 315.733181 197.48008 323.502435 204.023963 330.046318 
C 210.567846 336.590202 218.3371 341.781451 226.887096 345.322976 
C 235.437091 348.8645 244.601552 350.687424 253.856 350.687424 
C 263.110448 350.687424 272.274909 348.8645 280.824904 345.322976 
C 289.3749 341.781451 297.144154 336.590202 303.688037 330.046318 
C 310.23192 323.502435 315.42317 315.733181 318.964694 307.183185 
C 322.506218 298.63319 324.329143 289.46873 324.329143 280.214281 
" clip-path="url(#p70ad4c8256)" style="fill: none; stroke: #d8d4c7; stroke-width: 0.3; stroke-linecap: square"/>
     </g>
     <g id="text_2">
      <!-- −1M -->
      <g style="fill: #5a6470" transform="translate(318.964694 251.789596) scale(0.07 -0.07)">
       <defs>
        <path id="DejaVuSerif-31" d="M 909 0 
L 909 331 
L 1722 331 
L 1722 4213 
L 781 3603 
L 781 4013 
L 1919 4750 
L 2350 4750 
L 2350 331 
L 3163 331 
L 3163 0 
L 909 0 
z
" transform="scale(0.015625)"/>
       </defs>
       <use xlink:href="#DejaVuSerif-2212"/>
       <use xlink:href="#DejaVuSerif-31" transform="translate(83.789062 0)"/>
       <use xlink:href="#DejaVuSerif-4d" transform="translate(147.412109 0)"/>
      </g>
     </g>
    </g>
    <g id="ytick_3">
     <g id="line2d_3">
      <path d="M 359.565714 280.214281 
C 359.565714 266.332609 356.831327 252.585918 351.519041 239.760925 
C 346.206755 226.935932 338.419881 215.28205 328.604056 205.466225 
C 318.788231 195.650401 307.134349 187.863526 294.309356 182.55124 
C 281.484363 177.238954 267.737672 174.504567 253.856 174.504567 
C 239.974328 174.504567 226.227637 177.238954 213.402644 182.55124 
C 200.577651 187.863526 188.923769 195.650401 179.107944 205.466225 
C 169.292119 215.28205 161.505245 226.935932 156.192959 239.760925 
C 150.880673 252.585918 148.146286 266.332609 148.146286 280.214281 
C 148.146286 294.095954 150.880673 307.842644 156.192959 320.667638 
C 161.505245 333.492631 169.292119 345.146512 179.107944 354.962337 
C 188.923769 364.778162 200.577651 372.565037 213.402644 377.877323 
C 226.227637 383.189609 239.974328 385.923996 253.856 385.923996 
C 267.737672 385.923996 281.484363 383.189609 294.309356 377.877323 
C 307.134349 372.565037 318.788231 364.778162 328.604056 354.962337 
C 338.419881 345.146512 346.206755 333.492631 351.519041 320.667638 
C 356.831327 307.842644 359.565714 294.095954 359.565714 280.214281 
" clip-path="url(#p70ad4c8256)" style="fill: none; stroke: #d8d4c7; stroke-width: 0.3; stroke-linecap: square"/>
     </g>
     <g id="text_3">
      <!-- 0 -->
      <g style="fill: #5a6470" transform="translate(351.519041 238.305144) scale(0.07 -0.07)">
       <defs>
        <path id="DejaVuSerif-30" d="M 2034 219 
Q 2513 219 2750 744 
Q 2988 1269 2988 2328 
Q 2988 3391 2750 3916 
Q 2513 4441 2034 4441 
Q 1556 4441 1318 3916 
Q 1081 3391 1081 2328 
Q 1081 1269 1318 744 
Q 1556 219 2034 219 
z
M 2034 -91 
Q 1275 -91 848 546 
Q 422 1184 422 2328 
Q 422 3475 848 4112 
Q 1275 4750 2034 4750 
Q 2797 4750 3222 4112 
Q 3647 3475 3647 2328 
Q 3647 1184 3222 546 
Q 2797 -91 2034 -91 
z
" transform="scale(0.015625)"/>
       </defs>
       <use xlink:href="#DejaVuSerif-30"/>
      </g>
     </g>
    </g>
    <g id="ytick_4">
     <g id="line2d_4">
      <path d="M 394.802286 280.214281 
C 394.802286 261.705385 391.156437 243.376464 384.073389 226.276473 
C 376.99034 209.176482 366.607841 193.637973 353.520074 180.550207 
C 340.432308 167.462441 324.893799 157.079941 307.793808 149.996893 
C 290.693818 142.913845 272.364897 139.267996 253.856 139.267996 
C 235.347103 139.267996 217.018182 142.913845 199.918192 149.996893 
C 182.818201 157.079941 167.279692 167.462441 154.191926 180.550207 
C 141.104159 193.637973 130.72166 209.176482 123.638611 226.276473 
C 116.555563 243.376464 112.909714 261.705385 112.909714 280.214281 
C 112.909714 298.723178 116.555563 317.052099 123.638611 334.15209 
C 130.72166 351.25208 141.104159 366.790589 154.191926 379.878356 
C 167.279692 392.966122 182.818201 403.348622 199.918192 410.43167 
C 217.018182 417.514718 235.347103 421.160567 253.856 421.160567 
C 272.364897 421.160567 290.693818 417.514718 307.793808 410.43167 
C 324.893799 403.348622 340.432308 392.966122 353.520074 379.878356 
C 366.607841 366.790589 376.99034 351.25208 384.073389 334.15209 
C 391.156437 317.052099 394.802286 298.723178 394.802286 280.214281 
" clip-path="url(#p70ad4c8256)" style="fill: none; stroke: #d8d4c7; stroke-width: 0.3; stroke-linecap: square"/>
     </g>
     <g id="text_4">
      <!-- +1M -->
      <g style="fill: #5a6470" transform="translate(384.073389 224.820692) scale(0.07 -0.07)">
       <defs>
        <path id="DejaVuSerif-2b" d="M 2931 4013 
L 2931 2259 
L 4684 2259 
L 4684 1753 
L 2931 1753 
L 2931 0 
L 2431 0 
L 2431 1753 
L 678 1753 
L 678 2259 
L 2431 2259 
L 2431 4013 
L 2931 4013 
z
" transform="scale(0.015625)"/>
       </defs>
       <use xlink:href="#DejaVuSerif-2b"/>
       <use xlink:href="#DejaVuSerif-31" transform="translate(83.789062 0)"/>
       <use xlink:href="#DejaVuSerif-4d" transform="translate(147.412109 0)"/>
      </g>
     </g>
    </g>
    <g id="ytick_5">
     <g id="line2d_5">
      <path d="M 430.038857 280.214281 
C 430.038857 257.07816 425.481546 234.167009 416.627736 212.792021 
C 407.773926 191.417032 394.795801 171.993896 378.436093 155.634188 
C 362.076385 139.27448 342.653249 126.296356 321.27826 117.442546 
C 299.903272 108.588735 276.992121 104.031424 253.856 104.031424 
C 230.719879 104.031424 207.808728 108.588735 186.43374 117.442546 
C 165.058751 126.296356 145.635615 139.27448 129.275907 155.634188 
C 112.916199 171.993896 99.938074 191.417032 91.084264 212.792021 
C 82.230454 234.167009 77.673143 257.07816 77.673143 280.214281 
C 77.673143 303.350402 82.230454 326.261553 91.084264 347.636542 
C 99.938074 369.01153 112.916199 388.434666 129.275907 404.794374 
C 145.635615 421.154082 165.058751 434.132207 186.43374 442.986017 
C 207.808728 451.839827 230.719879 456.397138 253.856 456.397138 
C 276.992121 456.397138 299.903272 451.839827 321.27826 442.986017 
C 342.653249 434.132207 362.076385 421.154082 378.436093 404.794374 
C 394.795801 388.434666 407.773926 369.01153 416.627736 347.636542 
C 425.481546 326.261553 430.038857 303.350402 430.038857 280.214281 
" clip-path="url(#p70ad4c8256)" style="fill: none; stroke: #d8d4c7; stroke-width: 0.3; stroke-linecap: square"/>
     </g>
     <g id="text_5">
      <!-- +2M -->
      <g style="fill: #5a6470" transform="translate(416.627736 211.33624) scale(0.07 -0.07)">
       <use xlink:href="#DejaVuSerif-2b"/>
       <use xlink:href="#DejaVuSerif-32" transform="translate(83.789062 0)"/>
       <use xlink:href="#DejaVuSerif-4d" transform="translate(147.412109 0)"/>
      </g>
     </g>
    </g>
    <g id="ytick_6">
     <g id="line2d_6">
      <path d="M 465.275429 280.214281 
C 465.275429 252.450936 459.806655 224.957555 449.182083 199.307569 
C 438.557511 173.657582 422.983761 150.349819 403.352112 130.71817 
C 383.720462 111.08652 360.412699 95.512771 334.762713 84.888198 
C 309.112726 74.263626 281.619345 68.794853 253.856 68.794853 
C 226.092655 68.794853 198.599274 74.263626 172.949287 84.888198 
C 147.299301 95.512771 123.991538 111.08652 104.359888 130.71817 
C 84.728239 150.349819 69.154489 173.657582 58.529917 199.307569 
C 47.905345 224.957555 42.436571 252.450936 42.436571 280.214281 
C 42.436571 307.977626 47.905345 335.471008 58.529917 361.120994 
C 69.154489 386.77098 84.728239 410.078743 104.359888 429.710393 
C 123.991538 449.342042 147.299301 464.915792 172.949287 475.540364 
C 198.599274 486.164936 226.092655 491.63371 253.856 491.63371 
C 281.619345 491.63371 309.112726 486.164936 334.762713 475.540364 
C 360.412699 464.915792 383.720462 449.342042 403.352112 429.710393 
C 422.983761 410.078743 438.557511 386.77098 449.182083 361.120994 
C 459.806655 335.471008 465.275429 307.977626 465.275429 280.214281 
" clip-path="url(#p70ad4c8256)" style="fill: none; stroke: #d8d4c7; stroke-width: 0.3; stroke-linecap: square"/>
     </g>
     <g id="text_6">
      <!-- +3M -->
      <g style="fill: #5a6470" transform="translate(449.182083 197.851787) scale(0.07 -0.07)">
       <defs>
        <path id="DejaVuSerif-33" d="M 622 4469 
Q 988 4606 1323 4678 
Q 1659 4750 1953 4750 
Q 2638 4750 3022 4454 
Q 3406 4159 3406 3634 
Q 3406 3213 3140 2930 
Q 2875 2647 2388 2547 
Q 2963 2466 3280 2130 
Q 3597 1794 3597 1259 
Q 3597 606 3158 257 
Q 2719 -91 1894 -91 
Q 1528 -91 1179 -12 
Q 831 66 488 225 
L 488 1131 
L 838 1131 
Q 869 681 1141 450 
Q 1413 219 1906 219 
Q 2384 219 2661 495 
Q 2938 772 2938 1253 
Q 2938 1803 2653 2086 
Q 2369 2369 1819 2369 
L 1522 2369 
L 1522 2688 
L 1678 2688 
Q 2225 2688 2498 2914 
Q 2772 3141 2772 3597 
Q 2772 4006 2547 4223 
Q 2322 4441 1900 4441 
Q 1478 4441 1245 4241 
Q 1013 4041 972 3647 
L 622 3647 
L 622 4469 
z
" transform="scale(0.015625)"/>
       </defs>
       <use xlink:href="#DejaVuSerif-2b"/>
       <use xlink:href="#DejaVuSerif-33" transform="translate(83.789062 0)"/>
       <use xlink:href="#DejaVuSerif-4d" transform="translate(147.412109 0)"/>
      </g>
     </g>
    </g>
   </g>
   <g id="patch_15">
    <path d="M 500.512 280.214281 
C 500.512 247.823712 494.131764 215.7481 481.73643 185.823117 
C 469.341096 155.898133 451.171721 128.705742 428.26813 105.802151 
C 405.364539 82.89856 378.172149 64.729185 348.247165 52.333851 
C 318.322181 39.938517 286.246569 33.558281 253.856 33.558281 
C 221.465431 33.558281 189.389819 39.938517 159.464835 52.333851 
C 129.539851 64.729185 102.347461 82.89856 79.44387 105.802151 
C 56.540279 128.705742 38.370904 155.898133 25.97557 185.823117 
C 13.580236 215.7481 7.2 247.823712 7.2 280.214281 
C 7.2 312.60485 13.580236 344.680462 25.97557 374.605446 
C 38.370904 404.53043 56.540279 431.72282 79.44387 454.626411 
C 102.347461 477.530003 129.539851 495.699377 159.464835 508.094711 
C 189.389819 520.490045 221.465431 526.870281 253.856 526.870281 
C 286.246569 526.870281 318.322181 520.490045 348.247165 508.094711 
C 378.172149 495.699377 405.364539 477.530003 428.26813 454.626411 
C 451.171721 431.72282 469.341096 404.53043 481.73643 374.605446 
C 494.131764 344.680462 500.512 312.60485 500.512 280.214281 
" style="fill: none; stroke: #5a6470; stroke-width: 0.5; stroke-linejoin: miter; stroke-linecap: square"/>
   </g>
   <g id="text_7">
    <!-- 1980 -->
    <g style="fill: #1f2328" transform="translate(438.475512 277.942656) scale(0.08 -0.08)">
     <defs>
      <path id="DejaVuSerif-39" d="M 2994 2091 
Q 2784 1856 2512 1740 
Q 2241 1625 1900 1625 
Q 1206 1625 804 2044 
Q 403 2463 403 3188 
Q 403 3897 839 4323 
Q 1275 4750 2003 4750 
Q 2794 4750 3217 4161 
Q 3641 3572 3641 2478 
Q 3641 1253 3137 581 
Q 2634 -91 1722 -91 
Q 1475 -91 1203 -44 
Q 931 3 647 97 
L 647 872 
L 997 872 
Q 1038 556 1241 387 
Q 1444 219 1784 219 
Q 2391 219 2687 676 
Q 2984 1134 2994 2091 
z
M 1978 4441 
Q 1534 4441 1298 4117 
Q 1063 3794 1063 3188 
Q 1063 2581 1298 2256 
Q 1534 1931 1978 1931 
Q 2422 1931 2658 2245 
Q 2894 2559 2894 3150 
Q 2894 3772 2656 4106 
Q 2419 4441 1978 4441 
z
" transform="scale(0.015625)"/>
      <path id="DejaVuSerif-38" d="M 2981 1275 
Q 2981 1775 2732 2051 
Q 2484 2328 2034 2328 
Q 1584 2328 1336 2051 
Q 1088 1775 1088 1275 
Q 1088 772 1336 495 
Q 1584 219 2034 219 
Q 2484 219 2732 495 
Q 2981 772 2981 1275 
z
M 2853 3541 
Q 2853 3966 2637 4203 
Q 2422 4441 2034 4441 
Q 1650 4441 1433 4203 
Q 1216 3966 1216 3541 
Q 1216 3113 1433 2875 
Q 1650 2638 2034 2638 
Q 2422 2638 2637 2875 
Q 2853 3113 2853 3541 
z
M 2516 2484 
Q 3047 2413 3344 2092 
Q 3641 1772 3641 1275 
Q 3641 619 3225 264 
Q 2809 -91 2034 -91 
Q 1263 -91 845 264 
Q 428 619 428 1275 
Q 428 1772 725 2092 
Q 1022 2413 1556 2484 
Q 1084 2569 832 2842 
Q 581 3116 581 3541 
Q 581 4103 968 4426 
Q 1356 4750 2034 4750 
Q 2713 4750 3100 4426 
Q 3488 4103 3488 3541 
Q 3488 3116 3236 2842 
Q 2984 2569 2516 2484 
z
" transform="scale(0.015625)"/>
     </defs>
     <use xlink:href="#DejaVuSerif-31"/>
     <use xlink:href="#DejaVuSerif-39" transform="translate(63.623047 0)"/>
     <use xlink:href="#DejaVuSerif-38" transform="translate(127.246094 0)"/>
     <use xlink:href="#DejaVuSerif-30" transform="translate(190.869141 0)"/>
    </g>
    <!-- Lake Placid -->
    <g style="fill: #1f2328" transform="translate(425.116137 286.900906) scale(0.08 -0.08)">
     <defs>
      <path id="DejaVuSerif-4c" d="M 353 0 
L 353 331 
L 947 331 
L 947 4331 
L 353 4331 
L 353 4666 
L 2175 4666 
L 2175 4331 
L 1581 4331 
L 1581 384 
L 3713 384 
L 3713 1166 
L 4097 1166 
L 4097 0 
L 353 0 
z
" transform="scale(0.015625)"/>
      <path id="DejaVuSerif-61" d="M 2547 1044 
L 2547 1747 
L 1806 1747 
Q 1378 1747 1168 1562 
Q 959 1378 959 997 
Q 959 650 1171 447 
Q 1384 244 1747 244 
Q 2106 244 2326 466 
Q 2547 688 2547 1044 
z
M 3122 2075 
L 3122 331 
L 3634 331 
L 3634 0 
L 2547 0 
L 2547 359 
Q 2356 128 2106 18 
Q 1856 -91 1522 -91 
Q 969 -91 644 203 
Q 319 497 319 997 
Q 319 1513 691 1797 
Q 1063 2081 1741 2081 
L 2547 2081 
L 2547 2309 
Q 2547 2688 2317 2895 
Q 2088 3103 1672 3103 
Q 1328 3103 1125 2947 
Q 922 2791 872 2484 
L 575 2484 
L 575 3156 
Q 875 3284 1158 3348 
Q 1441 3413 1709 3413 
Q 2400 3413 2761 3070 
Q 3122 2728 3122 2075 
z
" transform="scale(0.015625)"/>
      <path id="DejaVuSerif-6b" d="M 1831 0 
L 219 0 
L 219 331 
L 738 331 
L 738 4531 
L 184 4531 
L 184 4863 
L 1313 4863 
L 1313 1697 
L 2713 2988 
L 2234 2988 
L 2234 3322 
L 3738 3322 
L 3738 2988 
L 3169 2988 
L 2181 2075 
L 3444 331 
L 3922 331 
L 3922 0 
L 2284 0 
L 2284 331 
L 2759 331 
L 1766 1697 
L 1313 1275 
L 1313 331 
L 1831 331 
L 1831 0 
z
" transform="scale(0.015625)"/>
      <path id="DejaVuSerif-65" d="M 3469 1600 
L 991 1600 
L 991 1575 
Q 991 903 1244 561 
Q 1497 219 1991 219 
Q 2369 219 2611 417 
Q 2853 616 2950 1006 
L 3413 1006 
Q 3275 459 2904 184 
Q 2534 -91 1931 -91 
Q 1203 -91 761 389 
Q 319 869 319 1663 
Q 319 2450 753 2931 
Q 1188 3413 1894 3413 
Q 2647 3413 3050 2948 
Q 3453 2484 3469 1600 
z
M 2791 1931 
Q 2772 2513 2545 2808 
Q 2319 3103 1894 3103 
Q 1497 3103 1269 2806 
Q 1041 2509 991 1931 
L 2791 1931 
z
" transform="scale(0.015625)"/>
      <path id="DejaVuSerif-20" transform="scale(0.015625)"/>
      <path id="DejaVuSerif-50" d="M 1581 2375 
L 2406 2375 
Q 2872 2375 3115 2626 
Q 3359 2878 3359 3353 
Q 3359 3831 3115 4081 
Q 2872 4331 2406 4331 
L 1581 4331 
L 1581 2375 
z
M 353 0 
L 353 331 
L 947 331 
L 947 4331 
L 353 4331 
L 353 4666 
L 2559 4666 
Q 3259 4666 3668 4311 
Q 4078 3956 4078 3353 
Q 4078 2753 3668 2397 
Q 3259 2041 2559 2041 
L 1581 2041 
L 1581 331 
L 2303 331 
L 2303 0 
L 353 0 
z
" transform="scale(0.015625)"/>
      <path id="DejaVuSerif-6c" d="M 1313 331 
L 1856 331 
L 1856 0 
L 184 0 
L 184 331 
L 738 331 
L 738 4531 
L 184 4531 
L 184 4863 
L 1313 4863 
L 1313 331 
z
" transform="scale(0.015625)"/>
      <path id="DejaVuSerif-63" d="M 3291 997 
Q 3169 466 2822 187 
Q 2475 -91 1925 -91 
Q 1200 -91 759 389 
Q 319 869 319 1663 
Q 319 2459 759 2936 
Q 1200 3413 1925 3413 
Q 2241 3413 2553 3339 
Q 2866 3266 3181 3116 
L 3181 2266 
L 2847 2266 
Q 2781 2703 2561 2903 
Q 2341 3103 1931 3103 
Q 1466 3103 1228 2742 
Q 991 2381 991 1663 
Q 991 944 1227 581 
Q 1463 219 1931 219 
Q 2303 219 2525 412 
Q 2747 606 2828 997 
L 3291 997 
z
" transform="scale(0.015625)"/>
      <path id="DejaVuSerif-69" d="M 622 4353 
Q 622 4497 726 4603 
Q 831 4709 978 4709 
Q 1122 4709 1226 4603 
Q 1331 4497 1331 4353 
Q 1331 4206 1228 4103 
Q 1125 4000 978 4000 
Q 831 4000 726 4103 
Q 622 4206 622 4353 
z
M 1356 331 
L 1900 331 
L 1900 0 
L 231 0 
L 231 331 
L 781 331 
L 781 2988 
L 231 2988 
L 231 3322 
L 1356 3322 
L 1356 331 
z
" transform="scale(0.015625)"/>
      <path id="DejaVuSerif-64" d="M 3359 331 
L 3909 331 
L 3909 0 
L 2784 0 
L 2784 519 
Q 2616 206 2355 57 
Q 2094 -91 1709 -91 
Q 1097 -91 708 395 
Q 319 881 319 1663 
Q 319 2444 706 2928 
Q 1094 3413 1709 3413 
Q 2094 3413 2355 3264 
Q 2616 3116 2784 2803 
L 2784 4531 
L 2241 4531 
L 2241 4863 
L 3359 4863 
L 3359 331 
z
M 2784 1497 
L 2784 1825 
Q 2784 2422 2554 2737 
Q 2325 3053 1888 3053 
Q 1444 3053 1217 2703 
Q 991 2353 991 1663 
Q 991 975 1217 622 
Q 1444 269 1888 269 
Q 2325 269 2554 583 
Q 2784 897 2784 1497 
z
" transform="scale(0.015625)"/>
     </defs>
     <use xlink:href="#DejaVuSerif-4c"/>
     <use xlink:href="#DejaVuSerif-61" transform="translate(66.40625 0)"/>
     <use xlink:href="#DejaVuSerif-6b" transform="translate(126.025391 0)"/>
     <use xlink:href="#DejaVuSerif-65" transform="translate(186.621094 0)"/>
     <use xlink:href="#DejaVuSerif-20" transform="translate(245.800781 0)"/>
     <use xlink:href="#DejaVuSerif-50" transform="translate(277.587891 0)"/>
     <use xlink:href="#DejaVuSerif-6c" transform="translate(344.873047 0)"/>
     <use xlink:href="#DejaVuSerif-61" transform="translate(376.855469 0)"/>
     <use xlink:href="#DejaVuSerif-63" transform="translate(436.474609 0)"/>
     <use xlink:href="#DejaVuSerif-69" transform="translate(492.480469 0)"/>
     <use xlink:href="#DejaVuSerif-64" transform="translate(524.462891 0)"/>
    </g>
   </g>
   <g id="text_8">
    <!-- 1984 -->
    <g style="fill: #1f2328" transform="translate(402.357983 186.270696) scale(0.08 -0.08)">
     <defs>
      <path id="DejaVuSerif-34" d="M 2234 1581 
L 2234 4063 
L 641 1581 
L 2234 1581 
z
M 3609 0 
L 1484 0 
L 1484 331 
L 2234 331 
L 2234 1247 
L 197 1247 
L 197 1588 
L 2241 4750 
L 2859 4750 
L 2859 1581 
L 3750 1581 
L 3750 1247 
L 2859 1247 
L 2859 331 
L 3609 331 
L 3609 0 
z
" transform="scale(0.015625)"/>
     </defs>
     <use xlink:href="#DejaVuSerif-31"/>
     <use xlink:href="#DejaVuSerif-39" transform="translate(63.623047 0)"/>
     <use xlink:href="#DejaVuSerif-38" transform="translate(127.246094 0)"/>
     <use xlink:href="#DejaVuSerif-34" transform="translate(190.869141 0)"/>
    </g>
    <!-- Sarajevo -->
    <g style="fill: #1f2328" transform="translate(394.840483 195.228946) scale(0.08 -0.08)">
     <defs>
      <path id="DejaVuSerif-53" d="M 594 225 
L 594 1288 
L 953 1284 
Q 969 753 1261 498 
Q 1553 244 2150 244 
Q 2706 244 2998 464 
Q 3291 684 3291 1106 
Q 3291 1444 3114 1625 
Q 2938 1806 2369 1978 
L 1753 2163 
Q 1084 2366 811 2669 
Q 538 2972 538 3500 
Q 538 4094 959 4422 
Q 1381 4750 2144 4750 
Q 2469 4750 2856 4679 
Q 3244 4609 3681 4475 
L 3681 3481 
L 3328 3481 
Q 3275 3975 2998 4195 
Q 2722 4416 2156 4416 
Q 1663 4416 1405 4214 
Q 1147 4013 1147 3628 
Q 1147 3294 1340 3103 
Q 1534 2913 2163 2725 
L 2741 2553 
Q 3375 2363 3645 2067 
Q 3916 1772 3916 1275 
Q 3916 597 3481 253 
Q 3047 -91 2188 -91 
Q 1803 -91 1404 -12 
Q 1006 66 594 225 
z
" transform="scale(0.015625)"/>
      <path id="DejaVuSerif-72" d="M 3059 3328 
L 3059 2497 
L 2728 2497 
Q 2713 2744 2591 2866 
Q 2469 2988 2234 2988 
Q 1809 2988 1582 2694 
Q 1356 2400 1356 1850 
L 1356 331 
L 2022 331 
L 2022 0 
L 263 0 
L 263 331 
L 781 331 
L 781 2994 
L 231 2994 
L 231 3322 
L 1356 3322 
L 1356 2731 
Q 1525 3078 1790 3245 
Q 2056 3413 2438 3413 
Q 2578 3413 2733 3391 
Q 2888 3369 3059 3328 
z
" transform="scale(0.015625)"/>
      <path id="DejaVuSerif-6a" d="M 641 4353 
Q 641 4497 745 4603 
Q 850 4709 997 4709 
Q 1141 4709 1245 4603 
Q 1350 4497 1350 4353 
Q 1350 4206 1248 4103 
Q 1147 4000 997 4000 
Q 850 4000 745 4103 
Q 641 4206 641 4353 
z
M 781 2988 
L 238 2988 
L 238 3322 
L 1356 3322 
L 1356 -325 
Q 1356 -838 1051 -1130 
Q 747 -1422 213 -1422 
Q -13 -1422 -217 -1370 
Q -422 -1319 -616 -1216 
L -616 -531 
L -319 -531 
Q -297 -831 -164 -972 
Q -31 -1113 225 -1113 
Q 509 -1113 645 -920 
Q 781 -728 781 -325 
L 781 2988 
z
" transform="scale(0.015625)"/>
      <path id="DejaVuSerif-76" d="M 1581 0 
L 359 2988 
L -19 2988 
L -19 3322 
L 1509 3322 
L 1509 2988 
L 978 2988 
L 1913 703 
L 2847 2988 
L 2350 2988 
L 2350 3322 
L 3597 3322 
L 3597 2988 
L 3225 2988 
L 2003 0 
L 1581 0 
z
" transform="scale(0.015625)"/>
      <path id="DejaVuSerif-6f" d="M 1925 219 
Q 2388 219 2623 584 
Q 2859 950 2859 1663 
Q 2859 2375 2623 2739 
Q 2388 3103 1925 3103 
Q 1463 3103 1227 2739 
Q 991 2375 991 1663 
Q 991 950 1228 584 
Q 1466 219 1925 219 
z
M 1925 -91 
Q 1200 -91 759 389 
Q 319 869 319 1663 
Q 319 2456 758 2934 
Q 1197 3413 1925 3413 
Q 2653 3413 3092 2934 
Q 3531 2456 3531 1663 
Q 3531 869 3092 389 
Q 2653 -91 1925 -91 
z
" transform="scale(0.015625)"/>
     </defs>
     <use xlink:href="#DejaVuSerif-53"/>
     <use xlink:href="#DejaVuSerif-61" transform="translate(68.505859 0)"/>
     <use xlink:href="#DejaVuSerif-72" transform="translate(128.125 0)"/>
     <use xlink:href="#DejaVuSerif-61" transform="translate(175.927734 0)"/>
     <use xlink:href="#DejaVuSerif-6a" transform="translate(235.546875 0)"/>
     <use xlink:href="#DejaVuSerif-65" transform="translate(266.552734 0)"/>
     <use xlink:href="#DejaVuSerif-76" transform="translate(325.732422 0)"/>
     <use xlink:href="#DejaVuSerif-6f" transform="translate(382.226562 0)"/>
    </g>
   </g>
   <g id="text_9">
    <!-- 1988 -->
    <g style="fill: #1f2328" transform="translate(346.773803 99.315148) scale(0.08 -0.08)">
     <use xlink:href="#DejaVuSerif-31"/>
     <use xlink:href="#DejaVuSerif-39" transform="translate(63.623047 0)"/>
     <use xlink:href="#DejaVuSerif-38" transform="translate(127.246094 0)"/>
     <use xlink:href="#DejaVuSerif-38" transform="translate(190.869141 0)"/>
    </g>
    <!-- Calgary -->
    <g style="fill: #1f2328" transform="translate(341.111303 108.273398) scale(0.08 -0.08)">
     <defs>
      <path id="DejaVuSerif-43" d="M 4513 1234 
Q 4306 581 3820 245 
Q 3334 -91 2591 -91 
Q 2134 -91 1743 65 
Q 1353 222 1050 525 
Q 700 875 529 1320 
Q 359 1766 359 2328 
Q 359 3416 987 4083 
Q 1616 4750 2644 4750 
Q 3025 4750 3456 4650 
Q 3888 4550 4384 4347 
L 4384 3272 
L 4031 3272 
Q 3916 3859 3567 4137 
Q 3219 4416 2591 4416 
Q 1844 4416 1459 3886 
Q 1075 3356 1075 2328 
Q 1075 1303 1459 773 
Q 1844 244 2591 244 
Q 3113 244 3450 492 
Q 3788 741 3938 1234 
L 4513 1234 
z
" transform="scale(0.015625)"/>
      <path id="DejaVuSerif-67" d="M 3359 2988 
L 3359 72 
Q 3359 -644 2965 -1033 
Q 2572 -1422 1844 -1422 
Q 1516 -1422 1216 -1362 
Q 916 -1303 641 -1184 
L 641 -488 
L 941 -488 
Q 997 -813 1206 -963 
Q 1416 -1113 1806 -1113 
Q 2313 -1113 2548 -827 
Q 2784 -541 2784 72 
L 2784 519 
Q 2616 206 2355 57 
Q 2094 -91 1709 -91 
Q 1097 -91 708 395 
Q 319 881 319 1663 
Q 319 2444 706 2928 
Q 1094 3413 1709 3413 
Q 2094 3413 2355 3264 
Q 2616 3116 2784 2803 
L 2784 3322 
L 3909 3322 
L 3909 2988 
L 3359 2988 
z
M 2784 1825 
Q 2784 2422 2554 2737 
Q 2325 3053 1888 3053 
Q 1444 3053 1217 2703 
Q 991 2353 991 1663 
Q 991 975 1217 622 
Q 1444 269 1888 269 
Q 2325 269 2554 583 
Q 2784 897 2784 1497 
L 2784 1825 
z
" transform="scale(0.015625)"/>
      <path id="DejaVuSerif-79" d="M 1381 -609 
L 1600 -56 
L 359 2988 
L -19 2988 
L -19 3322 
L 1509 3322 
L 1509 2988 
L 978 2988 
L 1913 703 
L 2847 2988 
L 2350 2988 
L 2350 3322 
L 3597 3322 
L 3597 2988 
L 3225 2988 
L 1703 -750 
Q 1547 -1138 1356 -1280 
Q 1166 -1422 819 -1422 
Q 672 -1422 517 -1397 
Q 363 -1372 206 -1325 
L 206 -691 
L 500 -691 
Q 519 -903 608 -995 
Q 697 -1088 884 -1088 
Q 1056 -1088 1161 -992 
Q 1266 -897 1381 -609 
z
" transform="scale(0.015625)"/>
     </defs>
     <use xlink:href="#DejaVuSerif-43"/>
     <use xlink:href="#DejaVuSerif-61" transform="translate(76.513672 0)"/>
     <use xlink:href="#DejaVuSerif-6c" transform="translate(136.132812 0)"/>
     <use xlink:href="#DejaVuSerif-67" transform="translate(168.115234 0)"/>
     <use xlink:href="#DejaVuSerif-61" transform="translate(232.128906 0)"/>
     <use xlink:href="#DejaVuSerif-72" transform="translate(291.748047 0)"/>
     <use xlink:href="#DejaVuSerif-79" transform="translate(339.550781 0)"/>
    </g>
   </g>
   <g id="text_10">
    <!-- 1992 -->
    <g style="fill: #1f2328" transform="translate(243.676 94.712485) scale(0.08 -0.08)">
     <use xlink:href="#DejaVuSerif-31"/>
     <use xlink:href="#DejaVuSerif-39" transform="translate(63.623047 0)"/>
     <use xlink:href="#DejaVuSerif-39" transform="translate(127.246094 0)"/>
     <use xlink:href="#DejaVuSerif-32" transform="translate(190.869141 0)"/>
    </g>
    <!-- Albertville -->
    <g style="fill: #1f2328" transform="translate(232.77475 103.670735) scale(0.08 -0.08)">
     <defs>
      <path id="DejaVuSerif-41" d="M 1281 1691 
L 2994 1691 
L 2138 3909 
L 1281 1691 
z
M -38 0 
L -38 331 
L 372 331 
L 2034 4666 
L 2559 4666 
L 4225 331 
L 4684 331 
L 4684 0 
L 2988 0 
L 2988 331 
L 3506 331 
L 3116 1356 
L 1153 1356 
L 763 331 
L 1275 331 
L 1275 0 
L -38 0 
z
" transform="scale(0.015625)"/>
      <path id="DejaVuSerif-62" d="M 738 331 
L 738 4531 
L 184 4531 
L 184 4863 
L 1313 4863 
L 1313 2803 
Q 1481 3116 1742 3264 
Q 2003 3413 2388 3413 
Q 3000 3413 3387 2928 
Q 3775 2444 3775 1663 
Q 3775 881 3387 395 
Q 3000 -91 2388 -91 
Q 2003 -91 1742 57 
Q 1481 206 1313 519 
L 1313 0 
L 184 0 
L 184 331 
L 738 331 
z
M 1313 1497 
Q 1313 897 1542 583 
Q 1772 269 2209 269 
Q 2650 269 2876 622 
Q 3103 975 3103 1663 
Q 3103 2353 2876 2703 
Q 2650 3053 2209 3053 
Q 1772 3053 1542 2737 
Q 1313 2422 1313 1825 
L 1313 1497 
z
" transform="scale(0.015625)"/>
      <path id="DejaVuSerif-74" d="M 691 2988 
L 184 2988 
L 184 3322 
L 691 3322 
L 691 4353 
L 1269 4353 
L 1269 3322 
L 2350 3322 
L 2350 2988 
L 1269 2988 
L 1269 878 
Q 1269 456 1350 337 
Q 1431 219 1650 219 
Q 1875 219 1978 351 
Q 2081 484 2088 781 
L 2522 781 
Q 2497 328 2275 118 
Q 2053 -91 1600 -91 
Q 1103 -91 897 129 
Q 691 350 691 878 
L 691 2988 
z
" transform="scale(0.015625)"/>
     </defs>
     <use xlink:href="#DejaVuSerif-41"/>
     <use xlink:href="#DejaVuSerif-6c" transform="translate(72.216797 0)"/>
     <use xlink:href="#DejaVuSerif-62" transform="translate(104.199219 0)"/>
     <use xlink:href="#DejaVuSerif-65" transform="translate(168.212891 0)"/>
     <use xlink:href="#DejaVuSerif-72" transform="translate(227.392578 0)"/>
     <use xlink:href="#DejaVuSerif-74" transform="translate(275.195312 0)"/>
     <use xlink:href="#DejaVuSerif-76" transform="translate(315.380859 0)"/>
     <use xlink:href="#DejaVuSerif-69" transform="translate(371.875 0)"/>
     <use xlink:href="#DejaVuSerif-6c" transform="translate(403.857422 0)"/>
     <use xlink:href="#DejaVuSerif-6c" transform="translate(435.839844 0)"/>
     <use xlink:href="#DejaVuSerif-65" transform="translate(467.822266 0)"/>
    </g>
   </g>
   <g id="text_11">
    <!-- 1994 -->
    <g style="fill: #1f2328" transform="translate(138.754704 96.213641) scale(0.08 -0.08)">
     <use xlink:href="#DejaVuSerif-31"/>
     <use xlink:href="#DejaVuSerif-39" transform="translate(63.623047 0)"/>
     <use xlink:href="#DejaVuSerif-39" transform="translate(127.246094 0)"/>
     <use xlink:href="#DejaVuSerif-34" transform="translate(190.869141 0)"/>
    </g>
    <!-- Lillehammer -->
    <g style="fill: #1f2328" transform="translate(123.245954 105.171891) scale(0.08 -0.08)">
     <defs>
      <path id="DejaVuSerif-68" d="M 263 0 
L 263 331 
L 781 331 
L 781 4531 
L 231 4531 
L 231 4863 
L 1356 4863 
L 1356 2731 
Q 1516 3069 1770 3241 
Q 2025 3413 2363 3413 
Q 2913 3413 3172 3097 
Q 3431 2781 3431 2113 
L 3431 331 
L 3944 331 
L 3944 0 
L 2356 0 
L 2356 331 
L 2853 331 
L 2853 1931 
Q 2853 2541 2704 2764 
Q 2556 2988 2175 2988 
Q 1775 2988 1565 2697 
Q 1356 2406 1356 1850 
L 1356 331 
L 1856 331 
L 1856 0 
L 263 0 
z
" transform="scale(0.015625)"/>
      <path id="DejaVuSerif-6d" d="M 3316 2675 
Q 3481 3041 3739 3227 
Q 3997 3413 4341 3413 
Q 4863 3413 5119 3089 
Q 5375 2766 5375 2113 
L 5375 331 
L 5894 331 
L 5894 0 
L 4300 0 
L 4300 331 
L 4800 331 
L 4800 2047 
Q 4800 2556 4650 2772 
Q 4500 2988 4153 2988 
Q 3769 2988 3567 2697 
Q 3366 2406 3366 1850 
L 3366 331 
L 3866 331 
L 3866 0 
L 2291 0 
L 2291 331 
L 2791 331 
L 2791 2069 
Q 2791 2566 2641 2777 
Q 2491 2988 2144 2988 
Q 1759 2988 1557 2697 
Q 1356 2406 1356 1850 
L 1356 331 
L 1856 331 
L 1856 0 
L 263 0 
L 263 331 
L 781 331 
L 781 2994 
L 231 2994 
L 231 3322 
L 1356 3322 
L 1356 2731 
Q 1516 3063 1762 3238 
Q 2009 3413 2322 3413 
Q 2709 3413 2968 3220 
Q 3228 3028 3316 2675 
z
" transform="scale(0.015625)"/>
     </defs>
     <use xlink:href="#DejaVuSerif-4c"/>
     <use xlink:href="#DejaVuSerif-69" transform="translate(66.40625 0)"/>
     <use xlink:href="#DejaVuSerif-6c" transform="translate(98.388672 0)"/>
     <use xlink:href="#DejaVuSerif-6c" transform="translate(130.371094 0)"/>
     <use xlink:href="#DejaVuSerif-65" transform="translate(162.353516 0)"/>
     <use xlink:href="#DejaVuSerif-68" transform="translate(221.533203 0)"/>
     <use xlink:href="#DejaVuSerif-61" transform="translate(285.9375 0)"/>
     <use xlink:href="#DejaVuSerif-6d" transform="translate(345.556641 0)"/>
     <use xlink:href="#DejaVuSerif-6d" transform="translate(440.380859 0)"/>
     <use xlink:href="#DejaVuSerif-65" transform="translate(535.205078 0)"/>
     <use xlink:href="#DejaVuSerif-72" transform="translate(594.384766 0)"/>
    </g>
   </g>
   <g id="text_12">
    <!-- 1998 -->
    <g style="fill: #1f2328" transform="translate(72.040074 178.791733) scale(0.08 -0.08)">
     <use xlink:href="#DejaVuSerif-31"/>
     <use xlink:href="#DejaVuSerif-39" transform="translate(63.623047 0)"/>
     <use xlink:href="#DejaVuSerif-39" transform="translate(127.246094 0)"/>
     <use xlink:href="#DejaVuSerif-38" transform="translate(190.869141 0)"/>
    </g>
    <!-- Nagano -->
    <g style="fill: #1f2328" transform="translate(66.405074 187.749983) scale(0.08 -0.08)">
     <defs>
      <path id="DejaVuSerif-4e" d="M 313 0 
L 313 331 
L 941 331 
L 941 4331 
L 313 4331 
L 313 4666 
L 1509 4666 
L 4306 984 
L 4306 4331 
L 3681 4331 
L 3681 4666 
L 5319 4666 
L 5319 4331 
L 4691 4331 
L 4691 -91 
L 4313 -91 
L 1325 3841 
L 1325 331 
L 1953 331 
L 1953 0 
L 313 0 
z
" transform="scale(0.015625)"/>
      <path id="DejaVuSerif-6e" d="M 263 0 
L 263 331 
L 781 331 
L 781 2988 
L 231 2988 
L 231 3322 
L 1356 3322 
L 1356 2731 
Q 1516 3069 1770 3241 
Q 2025 3413 2363 3413 
Q 2913 3413 3172 3097 
Q 3431 2781 3431 2113 
L 3431 331 
L 3944 331 
L 3944 0 
L 2356 0 
L 2356 331 
L 2853 331 
L 2853 1931 
Q 2853 2541 2703 2767 
Q 2553 2994 2175 2994 
Q 1775 2994 1565 2701 
Q 1356 2409 1356 1850 
L 1356 331 
L 1856 331 
L 1856 0 
L 263 0 
z
" transform="scale(0.015625)"/>
     </defs>
     <use xlink:href="#DejaVuSerif-4e"/>
     <use xlink:href="#DejaVuSerif-61" transform="translate(87.5 0)"/>
     <use xlink:href="#DejaVuSerif-67" transform="translate(147.119141 0)"/>
     <use xlink:href="#DejaVuSerif-61" transform="translate(211.132812 0)"/>
     <use xlink:href="#DejaVuSerif-6e" transform="translate(270.751953 0)"/>
     <use xlink:href="#DejaVuSerif-6f" transform="translate(335.15625 0)"/>
    </g>
   </g>
   <g id="text_13">
    <!-- 2002 -->
    <g style="fill: #1f2328" transform="translate(37.964896 277.885781) scale(0.08 -0.08)">
     <use xlink:href="#DejaVuSerif-32"/>
     <use xlink:href="#DejaVuSerif-30" transform="translate(63.623047 0)"/>
     <use xlink:href="#DejaVuSerif-30" transform="translate(127.246094 0)"/>
     <use xlink:href="#DejaVuSerif-32" transform="translate(190.869141 0)"/>
    </g>
    <!-- Salt Lake City -->
    <g style="fill: #1f2328" transform="translate(19.550521 286.844031) scale(0.08 -0.08)">
     <use xlink:href="#DejaVuSerif-53"/>
     <use xlink:href="#DejaVuSerif-61" transform="translate(68.505859 0)"/>
     <use xlink:href="#DejaVuSerif-6c" transform="translate(128.125 0)"/>
     <use xlink:href="#DejaVuSerif-74" transform="translate(160.107422 0)"/>
     <use xlink:href="#DejaVuSerif-20" transform="translate(200.292969 0)"/>
     <use xlink:href="#DejaVuSerif-4c" transform="translate(232.080078 0)"/>
     <use xlink:href="#DejaVuSerif-61" transform="translate(298.486328 0)"/>
     <use xlink:href="#DejaVuSerif-6b" transform="translate(358.105469 0)"/>
     <use xlink:href="#DejaVuSerif-65" transform="translate(418.701172 0)"/>
     <use xlink:href="#DejaVuSerif-20" transform="translate(477.880859 0)"/>
     <use xlink:href="#DejaVuSerif-43" transform="translate(509.667969 0)"/>
     <use xlink:href="#DejaVuSerif-69" transform="translate(586.181641 0)"/>
     <use xlink:href="#DejaVuSerif-74" transform="translate(618.164062 0)"/>
     <use xlink:href="#DejaVuSerif-79" transform="translate(658.349609 0)"/>
    </g>
   </g>
   <g id="text_14">
    <!-- 2006 -->
    <g style="fill: #1f2328" transform="translate(69.209737 378.6708) scale(0.08 -0.08)">
     <defs>
      <path id="DejaVuSerif-36" d="M 2094 219 
Q 2534 219 2771 542 
Q 3009 866 3009 1472 
Q 3009 2078 2771 2401 
Q 2534 2725 2094 2725 
Q 1647 2725 1412 2412 
Q 1178 2100 1178 1509 
Q 1178 888 1415 553 
Q 1653 219 2094 219 
z
M 1075 2569 
Q 1288 2803 1556 2918 
Q 1825 3034 2163 3034 
Q 2859 3034 3264 2615 
Q 3669 2197 3669 1472 
Q 3669 763 3233 336 
Q 2797 -91 2069 -91 
Q 1278 -91 853 498 
Q 428 1088 428 2181 
Q 428 3406 931 4078 
Q 1434 4750 2350 4750 
Q 2597 4750 2869 4703 
Q 3141 4656 3425 4563 
L 3425 3794 
L 3072 3794 
Q 3034 4109 2831 4275 
Q 2628 4441 2284 4441 
Q 1678 4441 1381 3981 
Q 1084 3522 1075 2569 
z
" transform="scale(0.015625)"/>
     </defs>
     <use xlink:href="#DejaVuSerif-32"/>
     <use xlink:href="#DejaVuSerif-30" transform="translate(63.623047 0)"/>
     <use xlink:href="#DejaVuSerif-30" transform="translate(127.246094 0)"/>
     <use xlink:href="#DejaVuSerif-36" transform="translate(190.869141 0)"/>
    </g>
    <!-- Torino -->
    <g style="fill: #1f2328" transform="translate(66.447862 387.62905) scale(0.08 -0.08)">
     <defs>
      <path id="DejaVuSerif-54" d="M 1222 0 
L 1222 331 
L 1819 331 
L 1819 4294 
L 447 4294 
L 447 3566 
L 63 3566 
L 63 4666 
L 4206 4666 
L 4206 3566 
L 3822 3566 
L 3822 4294 
L 2450 4294 
L 2450 331 
L 3047 331 
L 3047 0 
L 1222 0 
z
" transform="scale(0.015625)"/>
     </defs>
     <use xlink:href="#DejaVuSerif-54"/>
     <use xlink:href="#DejaVuSerif-6f" transform="translate(58.949219 0)"/>
     <use xlink:href="#DejaVuSerif-72" transform="translate(119.154297 0)"/>
     <use xlink:href="#DejaVuSerif-69" transform="translate(166.957031 0)"/>
     <use xlink:href="#DejaVuSerif-6e" transform="translate(198.939453 0)"/>
     <use xlink:href="#DejaVuSerif-6f" transform="translate(263.34375 0)"/>
    </g>
   </g>
   <g id="text_15">
    <!-- 2010 -->
    <g style="fill: #1f2328" transform="translate(126.576064 480.765695) scale(0.08 -0.08)">
     <use xlink:href="#DejaVuSerif-32"/>
     <use xlink:href="#DejaVuSerif-30" transform="translate(63.623047 0)"/>
     <use xlink:href="#DejaVuSerif-31" transform="translate(127.246094 0)"/>
     <use xlink:href="#DejaVuSerif-30" transform="translate(190.869141 0)"/>
    </g>
    <!-- Vancouver -->
    <g style="fill: #1f2328" transform="translate(115.507314 489.723945) scale(0.08 -0.08)">
     <defs>
      <path id="DejaVuSerif-56" d="M 1119 4331 
L 2497 750 
L 3872 4331 
L 3347 4331 
L 3347 4666 
L 4716 4666 
L 4716 4331 
L 4263 4331 
L 2597 0 
L 2059 0 
L 403 4331 
L -63 4331 
L -63 4666 
L 1638 4666 
L 1638 4331 
L 1119 4331 
z
" transform="scale(0.015625)"/>
      <path id="DejaVuSerif-75" d="M 2266 3322 
L 3341 3322 
L 3341 331 
L 3884 331 
L 3884 0 
L 2766 0 
L 2766 588 
Q 2606 256 2353 82 
Q 2100 -91 1766 -91 
Q 1213 -91 952 223 
Q 691 538 691 1209 
L 691 2988 
L 172 2988 
L 172 3322 
L 1269 3322 
L 1269 1388 
Q 1269 781 1417 556 
Q 1566 331 1947 331 
Q 2347 331 2556 625 
Q 2766 919 2766 1478 
L 2766 2988 
L 2266 2988 
L 2266 3322 
z
" transform="scale(0.015625)"/>
     </defs>
     <use xlink:href="#DejaVuSerif-56"/>
     <use xlink:href="#DejaVuSerif-61" transform="translate(63.091797 0)"/>
     <use xlink:href="#DejaVuSerif-6e" transform="translate(122.710938 0)"/>
     <use xlink:href="#DejaVuSerif-63" transform="translate(187.115234 0)"/>
     <use xlink:href="#DejaVuSerif-6f" transform="translate(243.121094 0)"/>
     <use xlink:href="#DejaVuSerif-75" transform="translate(303.326172 0)"/>
     <use xlink:href="#DejaVuSerif-76" transform="translate(367.730469 0)"/>
     <use xlink:href="#DejaVuSerif-65" transform="translate(424.224609 0)"/>
     <use xlink:href="#DejaVuSerif-72" transform="translate(483.404297 0)"/>
    </g>
   </g>
   <g id="text_16">
    <!-- 2014 -->
    <g style="fill: #1f2328" transform="translate(243.676 529.214647) scale(0.08 -0.08)">
     <use xlink:href="#DejaVuSerif-32"/>
     <use xlink:href="#DejaVuSerif-30" transform="translate(63.623047 0)"/>
     <use xlink:href="#DejaVuSerif-31" transform="translate(127.246094 0)"/>
     <use xlink:href="#DejaVuSerif-34" transform="translate(190.869141 0)"/>
    </g>
    <!-- Sochi -->
    <g style="fill: #1f2328" transform="translate(242.61225 538.172897) scale(0.08 -0.08)">
     <use xlink:href="#DejaVuSerif-53"/>
     <use xlink:href="#DejaVuSerif-6f" transform="translate(68.505859 0)"/>
     <use xlink:href="#DejaVuSerif-63" transform="translate(128.710938 0)"/>
     <use xlink:href="#DejaVuSerif-68" transform="translate(184.716797 0)"/>
     <use xlink:href="#DejaVuSerif-69" transform="translate(249.121094 0)"/>
    </g>
   </g>
   <g id="text_17">
    <!-- 2018 -->
    <g style="fill: #1f2328" transform="translate(359.234336 478.03869) scale(0.08 -0.08)">
     <use xlink:href="#DejaVuSerif-32"/>
     <use xlink:href="#DejaVuSerif-30" transform="translate(63.623047 0)"/>
     <use xlink:href="#DejaVuSerif-31" transform="translate(127.246094 0)"/>
     <use xlink:href="#DejaVuSerif-38" transform="translate(190.869141 0)"/>
    </g>
    <!-- PyeongChang -->
    <g style="fill: #1f2328" transform="translate(341.391836 486.99694) scale(0.08 -0.08)">
     <use xlink:href="#DejaVuSerif-50"/>
     <use xlink:href="#DejaVuSerif-79" transform="translate(67.285156 0)"/>
     <use xlink:href="#DejaVuSerif-65" transform="translate(123.779297 0)"/>
     <use xlink:href="#DejaVuSerif-6f" transform="translate(182.958984 0)"/>
     <use xlink:href="#DejaVuSerif-6e" transform="translate(243.164062 0)"/>
     <use xlink:href="#DejaVuSerif-67" transform="translate(307.568359 0)"/>
     <use xlink:href="#DejaVuSerif-43" transform="translate(371.582031 0)"/>
     <use xlink:href="#DejaVuSerif-68" transform="translate(448.095703 0)"/>
     <use xlink:href="#DejaVuSerif-61" transform="translate(512.5 0)"/>
     <use xlink:href="#DejaVuSerif-6e" transform="translate(572.119141 0)"/>
     <use xlink:href="#DejaVuSerif-67" transform="translate(636.523438 0)"/>
    </g>
   </g>
   <g id="text_18">
    <!-- 2022 -->
    <g style="fill: #1f2328" transform="translate(402.357983 369.500867) scale(0.08 -0.08)">
     <use xlink:href="#DejaVuSerif-32"/>
     <use xlink:href="#DejaVuSerif-30" transform="translate(63.623047 0)"/>
     <use xlink:href="#DejaVuSerif-32" transform="translate(127.246094 0)"/>
     <use xlink:href="#DejaVuSerif-32" transform="translate(190.869141 0)"/>
    </g>
    <!-- Beijing -->
    <g style="fill: #1f2328" transform="translate(398.295483 378.459117) scale(0.08 -0.08)">
     <defs>
      <path id="DejaVuSerif-42" d="M 1581 331 
L 2516 331 
Q 3078 331 3337 575 
Q 3597 819 3597 1350 
Q 3597 1878 3339 2120 
Q 3081 2363 2516 2363 
L 1581 2363 
L 1581 331 
z
M 1581 2694 
L 2375 2694 
Q 2888 2694 3123 2891 
Q 3359 3088 3359 3513 
Q 3359 3941 3123 4136 
Q 2888 4331 2375 4331 
L 1581 4331 
L 1581 2694 
z
M 353 0 
L 353 331 
L 947 331 
L 947 4331 
L 353 4331 
L 353 4666 
L 2656 4666 
Q 3363 4666 3720 4377 
Q 4078 4088 4078 3513 
Q 4078 3097 3829 2850 
Q 3581 2603 3103 2547 
Q 3697 2472 4005 2167 
Q 4313 1863 4313 1350 
Q 4313 656 3875 328 
Q 3438 0 2509 0 
L 353 0 
z
" transform="scale(0.015625)"/>
     </defs>
     <use xlink:href="#DejaVuSerif-42"/>
     <use xlink:href="#DejaVuSerif-65" transform="translate(73.486328 0)"/>
     <use xlink:href="#DejaVuSerif-69" transform="translate(132.666016 0)"/>
     <use xlink:href="#DejaVuSerif-6a" transform="translate(164.648438 0)"/>
     <use xlink:href="#DejaVuSerif-69" transform="translate(195.654297 0)"/>
     <use xlink:href="#DejaVuSerif-6e" transform="translate(227.636719 0)"/>
     <use xlink:href="#DejaVuSerif-67" transform="translate(292.041016 0)"/>
    </g>
   </g>
   <g id="text_19">
    <!-- Olympic-year excess visits (vs ±2-year baseline) -->
    <g transform="translate(106.682875 15.558281) scale(0.11 -0.11)">
     <defs>
      <path id="DejaVuSerif-Bold-4f" d="M 2784 288 
Q 3381 288 3672 791 
Q 3963 1294 3963 2328 
Q 3963 3366 3672 3869 
Q 3381 4372 2784 4372 
Q 2191 4372 1898 3864 
Q 1606 3356 1606 2328 
Q 1606 1303 1898 795 
Q 2191 288 2784 288 
z
M 2784 -91 
Q 1606 -91 937 553 
Q 269 1197 269 2328 
Q 269 3459 939 4104 
Q 1609 4750 2784 4750 
Q 3963 4750 4631 4106 
Q 5300 3463 5300 2328 
Q 5300 1197 4629 553 
Q 3959 -91 2784 -91 
z
" transform="scale(0.015625)"/>
      <path id="DejaVuSerif-Bold-6c" d="M 1797 378 
L 2272 378 
L 2272 0 
L 219 0 
L 219 378 
L 691 378 
L 691 4488 
L 219 4488 
L 219 4863 
L 1797 4863 
L 1797 378 
z
" transform="scale(0.015625)"/>
      <path id="DejaVuSerif-Bold-79" d="M 1997 -750 
Q 1847 -1116 1634 -1269 
Q 1422 -1422 1063 -1422 
Q 909 -1422 721 -1387 
Q 534 -1353 313 -1288 
L 313 -594 
L 666 -597 
Q 675 -838 779 -953 
Q 884 -1069 1094 -1069 
Q 1297 -1069 1422 -958 
Q 1547 -847 1672 -538 
L 1722 -422 
L 275 2944 
L -84 2944 
L -84 3322 
L 1831 3322 
L 1831 2944 
L 1434 2944 
L 2278 978 
L 3066 2944 
L 2625 2944 
L 2625 3322 
L 3872 3322 
L 3872 2944 
L 3469 2944 
L 1997 -750 
z
" transform="scale(0.015625)"/>
      <path id="DejaVuSerif-Bold-6d" d="M 3884 2778 
Q 4116 3109 4384 3261 
Q 4653 3413 5013 3413 
Q 5584 3413 5867 3089 
Q 6150 2766 6150 2113 
L 6150 378 
L 6625 378 
L 6625 0 
L 4647 0 
L 4647 378 
L 5044 378 
L 5044 1947 
Q 5044 2569 4948 2731 
Q 4853 2894 4594 2894 
Q 4300 2894 4137 2667 
Q 3975 2441 3975 2022 
L 3975 378 
L 4372 378 
L 4372 0 
L 2472 0 
L 2472 378 
L 2869 378 
L 2869 1947 
Q 2869 2569 2772 2731 
Q 2675 2894 2419 2894 
Q 2122 2894 1959 2667 
Q 1797 2441 1797 2022 
L 1797 378 
L 2194 378 
L 2194 0 
L 219 0 
L 219 378 
L 691 378 
L 691 2944 
L 219 2944 
L 219 3322 
L 1797 3322 
L 1797 2853 
Q 1991 3144 2241 3278 
Q 2491 3413 2834 3413 
Q 3241 3413 3494 3258 
Q 3747 3103 3884 2778 
z
" transform="scale(0.015625)"/>
      <path id="DejaVuSerif-Bold-70" d="M 1728 1825 
L 1728 1497 
Q 1728 916 1876 656 
Q 2025 397 2356 397 
Q 2697 397 2836 672 
Q 2975 947 2975 1663 
Q 2975 2378 2836 2651 
Q 2697 2925 2356 2925 
Q 2025 2925 1876 2665 
Q 1728 2406 1728 1825 
z
M 622 2944 
L 147 2944 
L 147 3322 
L 1728 3322 
L 1728 2900 
Q 1869 3159 2106 3286 
Q 2344 3413 2694 3413 
Q 3403 3413 3811 2945 
Q 4219 2478 4219 1663 
Q 4219 847 3811 378 
Q 3403 -91 2694 -91 
Q 2344 -91 2106 36 
Q 1869 163 1728 422 
L 1728 -953 
L 2241 -953 
L 2241 -1331 
L 147 -1331 
L 147 -953 
L 622 -953 
L 622 2944 
z
" transform="scale(0.015625)"/>
      <path id="DejaVuSerif-Bold-69" d="M 588 4263 
Q 588 4516 763 4689 
Q 938 4863 1191 4863 
Q 1438 4863 1611 4689 
Q 1784 4516 1784 4263 
Q 1784 4016 1611 3842 
Q 1438 3669 1191 3669 
Q 938 3669 763 3841 
Q 588 4013 588 4263 
z
M 1797 378 
L 2272 378 
L 2272 0 
L 219 0 
L 219 378 
L 691 378 
L 691 2944 
L 219 2944 
L 219 3322 
L 1797 3322 
L 1797 378 
z
" transform="scale(0.015625)"/>
      <path id="DejaVuSerif-Bold-63" d="M 3609 1038 
Q 3491 469 3123 189 
Q 2756 -91 2125 -91 
Q 1238 -91 750 368 
Q 263 828 263 1663 
Q 263 2488 744 2950 
Q 1225 3413 2081 3413 
Q 2428 3413 2781 3347 
Q 3134 3281 3500 3150 
L 3500 2228 
L 3150 2228 
Q 3100 2650 2903 2854 
Q 2706 3059 2350 3059 
Q 1888 3059 1692 2746 
Q 1497 2434 1497 1663 
Q 1497 909 1687 586 
Q 1878 263 2309 263 
Q 2644 263 2845 463 
Q 3047 663 3091 1038 
L 3609 1038 
z
" transform="scale(0.015625)"/>
      <path id="DejaVuSerif-Bold-2d" d="M 347 2138 
L 2309 2138 
L 2309 1294 
L 347 1294 
L 347 2138 
z
" transform="scale(0.015625)"/>
      <path id="DejaVuSerif-Bold-65" d="M 2566 1875 
Q 2566 2531 2444 2795 
Q 2322 3059 2028 3059 
Q 1744 3059 1620 2800 
Q 1497 2541 1497 1931 
L 1497 1875 
L 2566 1875 
z
M 3781 1503 
L 1497 1503 
L 1497 1478 
Q 1497 834 1690 548 
Q 1884 263 2316 263 
Q 2675 263 2897 453 
Q 3119 644 3181 1006 
L 3700 1006 
Q 3566 441 3166 175 
Q 2766 -91 2047 -91 
Q 1184 -91 723 364 
Q 263 819 263 1663 
Q 263 2488 734 2950 
Q 1206 3413 2047 3413 
Q 2872 3413 3312 2927 
Q 3753 2441 3781 1503 
z
" transform="scale(0.015625)"/>
      <path id="DejaVuSerif-Bold-61" d="M 3525 2041 
L 3525 378 
L 4000 378 
L 4000 0 
L 2419 0 
L 2419 422 
Q 2200 159 1931 34 
Q 1663 -91 1319 -91 
Q 809 -91 536 182 
Q 263 456 263 966 
Q 263 1525 655 1803 
Q 1047 2081 1838 2081 
L 2419 2081 
L 2419 2278 
Q 2419 2681 2228 2873 
Q 2038 3066 1638 3066 
Q 1306 3066 1126 2930 
Q 947 2794 872 2484 
L 519 2484 
L 519 3200 
Q 816 3306 1134 3359 
Q 1453 3413 1806 3413 
Q 2697 3413 3111 3081 
Q 3525 2750 3525 2041 
z
M 2419 1044 
L 2419 1709 
L 2003 1709 
Q 1694 1709 1528 1540 
Q 1363 1372 1363 1056 
Q 1363 741 1483 584 
Q 1603 428 1850 428 
Q 2106 428 2262 597 
Q 2419 766 2419 1044 
z
" transform="scale(0.015625)"/>
      <path id="DejaVuSerif-Bold-72" d="M 3438 3359 
L 3438 2369 
L 3084 2369 
Q 3066 2634 2941 2764 
Q 2816 2894 2578 2894 
Q 2216 2894 2006 2575 
Q 1797 2256 1797 1691 
L 1797 378 
L 2400 378 
L 2400 0 
L 219 0 
L 219 378 
L 691 378 
L 691 2944 
L 184 2944 
L 184 3322 
L 1797 3322 
L 1797 2731 
Q 1959 3078 2226 3245 
Q 2494 3413 2881 3413 
Q 2978 3413 3117 3398 
Q 3256 3384 3438 3359 
z
" transform="scale(0.015625)"/>
      <path id="DejaVuSerif-Bold-20" transform="scale(0.015625)"/>
      <path id="DejaVuSerif-Bold-78" d="M 2247 2119 
L 2834 2944 
L 2425 2944 
L 2425 3322 
L 3719 3322 
L 3719 2944 
L 3278 2944 
L 2431 1759 
L 3419 378 
L 3859 378 
L 3859 0 
L 1747 0 
L 1747 378 
L 2175 378 
L 1550 1253 
L 922 378 
L 1369 378 
L 1369 0 
L 0 0 
L 0 378 
L 475 378 
L 1356 1619 
L 403 2944 
L 31 2944 
L 31 3322 
L 2059 3322 
L 2059 2944 
L 1656 2944 
L 2247 2119 
z
" transform="scale(0.015625)"/>
      <path id="DejaVuSerif-Bold-73" d="M 300 97 
L 300 1025 
L 653 1025 
Q 697 653 931 458 
Q 1166 263 1569 263 
Q 1906 263 2086 380 
Q 2266 497 2266 716 
Q 2266 916 2152 1025 
Q 2038 1134 1709 1216 
L 1253 1331 
Q 738 1459 506 1698 
Q 275 1938 275 2344 
Q 275 2884 650 3148 
Q 1025 3413 1806 3413 
Q 2100 3413 2433 3364 
Q 2766 3316 3169 3213 
L 3169 2375 
L 2816 2375 
Q 2788 2716 2573 2887 
Q 2359 3059 1959 3059 
Q 1622 3059 1448 2951 
Q 1275 2844 1275 2638 
Q 1275 2469 1375 2372 
Q 1475 2275 1734 2209 
L 2188 2094 
Q 2841 1928 3091 1684 
Q 3341 1441 3341 1006 
Q 3341 444 2939 176 
Q 2538 -91 1691 -91 
Q 1381 -91 1034 -44 
Q 688 3 300 97 
z
" transform="scale(0.015625)"/>
      <path id="DejaVuSerif-Bold-76" d="M 1428 0 
L 250 2944 
L -116 2944 
L -116 3322 
L 1791 3322 
L 1791 2944 
L 1388 2944 
L 2228 844 
L 3066 2944 
L 2631 2944 
L 2631 3322 
L 3878 3322 
L 3878 2944 
L 3494 2944 
L 2316 0 
L 1428 0 
z
" transform="scale(0.015625)"/>
      <path id="DejaVuSerif-Bold-74" d="M 634 2944 
L 153 2944 
L 153 3322 
L 634 3322 
L 634 4353 
L 1741 4353 
L 1741 3322 
L 2663 3322 
L 2663 2944 
L 1741 2944 
L 1741 909 
Q 1741 475 1809 369 
Q 1878 263 2059 263 
Q 2259 263 2356 397 
Q 2453 531 2459 813 
L 2925 813 
Q 2897 313 2651 111 
Q 2406 -91 1806 -91 
Q 1122 -91 878 123 
Q 634 338 634 909 
L 634 2944 
z
" transform="scale(0.015625)"/>
      <path id="DejaVuSerif-Bold-28" d="M 2694 -997 
Q 1641 -606 1122 122 
Q 603 850 603 1931 
Q 603 3013 1115 3731 
Q 1628 4450 2694 4863 
L 2694 4488 
Q 2200 4188 1983 3598 
Q 1766 3009 1766 1931 
Q 1766 856 1983 267 
Q 2200 -322 2694 -622 
L 2694 -997 
z
" transform="scale(0.015625)"/>
      <path id="DejaVuSerif-Bold-b1" d="M 678 709 
L 4684 709 
L 4684 0 
L 678 0 
L 678 709 
z
M 3041 4013 
L 3041 2894 
L 4684 2894 
L 4684 2181 
L 3041 2181 
L 3041 1063 
L 2322 1063 
L 2322 2181 
L 678 2181 
L 678 2894 
L 2322 2894 
L 2322 4013 
L 3041 4013 
z
" transform="scale(0.015625)"/>
      <path id="DejaVuSerif-Bold-32" d="M 844 3513 
L 469 3513 
L 469 4519 
Q 850 4634 1223 4692 
Q 1597 4750 1978 4750 
Q 2869 4750 3367 4386 
Q 3866 4022 3866 3372 
Q 3866 2909 3591 2542 
Q 3316 2175 2541 1672 
L 1241 819 
L 3450 819 
L 3450 1369 
L 3878 1369 
L 3878 0 
L 428 0 
L 428 763 
L 1119 1241 
Q 2003 1850 2297 2278 
Q 2591 2706 2591 3278 
Q 2591 3819 2367 4101 
Q 2144 4384 1716 4384 
Q 1347 4384 1125 4161 
Q 903 3938 844 3513 
z
" transform="scale(0.015625)"/>
      <path id="DejaVuSerif-Bold-62" d="M 622 378 
L 622 4488 
L 147 4488 
L 147 4863 
L 1728 4863 
L 1728 2900 
Q 1869 3159 2106 3286 
Q 2344 3413 2694 3413 
Q 3403 3413 3811 2945 
Q 4219 2478 4219 1663 
Q 4219 847 3811 378 
Q 3403 -91 2694 -91 
Q 2344 -91 2106 36 
Q 1869 163 1728 422 
L 1728 0 
L 147 0 
L 147 378 
L 622 378 
z
M 1728 1497 
Q 1728 916 1876 656 
Q 2025 397 2356 397 
Q 2697 397 2836 672 
Q 2975 947 2975 1663 
Q 2975 2378 2836 2651 
Q 2697 2925 2356 2925 
Q 2025 2925 1876 2665 
Q 1728 2406 1728 1825 
L 1728 1497 
z
" transform="scale(0.015625)"/>
      <path id="DejaVuSerif-Bold-6e" d="M 219 0 
L 219 378 
L 691 378 
L 691 2944 
L 219 2944 
L 219 3322 
L 1797 3322 
L 1797 2853 
Q 1997 3150 2253 3281 
Q 2509 3413 2900 3413 
Q 3459 3413 3745 3083 
Q 4031 2753 4031 2113 
L 4031 378 
L 4506 378 
L 4506 0 
L 2522 0 
L 2522 378 
L 2925 378 
L 2925 2144 
Q 2925 2566 2817 2730 
Q 2709 2894 2444 2894 
Q 2109 2894 1953 2648 
Q 1797 2403 1797 1869 
L 1797 378 
L 2203 378 
L 2203 0 
L 219 0 
z
" transform="scale(0.015625)"/>
      <path id="DejaVuSerif-Bold-29" d="M 325 -997 
L 325 -622 
Q 819 -322 1036 267 
Q 1253 856 1253 1931 
Q 1253 3009 1036 3598 
Q 819 4188 325 4488 
L 325 4863 
Q 1391 4450 1905 3731 
Q 2419 3013 2419 1931 
Q 2419 850 1898 122 
Q 1378 -606 325 -997 
z
" transform="scale(0.015625)"/>
     </defs>
     <use xlink:href="#DejaVuSerif-Bold-4f"/>
     <use xlink:href="#DejaVuSerif-Bold-6c" transform="translate(87.109375 0)"/>
     <use xlink:href="#DejaVuSerif-Bold-79" transform="translate(125.097656 0)"/>
     <use xlink:href="#DejaVuSerif-Bold-6d" transform="translate(183.203125 0)"/>
     <use xlink:href="#DejaVuSerif-Bold-70" transform="translate(289.013672 0)"/>
     <use xlink:href="#DejaVuSerif-Bold-69" transform="translate(358.935547 0)"/>
     <use xlink:href="#DejaVuSerif-Bold-63" transform="translate(396.923828 0)"/>
     <use xlink:href="#DejaVuSerif-Bold-2d" transform="translate(457.8125 0)"/>
     <use xlink:href="#DejaVuSerif-Bold-79" transform="translate(499.316406 0)"/>
     <use xlink:href="#DejaVuSerif-Bold-65" transform="translate(557.421875 0)"/>
     <use xlink:href="#DejaVuSerif-Bold-61" transform="translate(621.044922 0)"/>
     <use xlink:href="#DejaVuSerif-Bold-72" transform="translate(685.839844 0)"/>
     <use xlink:href="#DejaVuSerif-Bold-20" transform="translate(738.525391 0)"/>
     <use xlink:href="#DejaVuSerif-Bold-65" transform="translate(773.339844 0)"/>
     <use xlink:href="#DejaVuSerif-Bold-78" transform="translate(836.962891 0)"/>
     <use xlink:href="#DejaVuSerif-Bold-63" transform="translate(896.582031 0)"/>
     <use xlink:href="#DejaVuSerif-Bold-65" transform="translate(957.470703 0)"/>
     <use xlink:href="#DejaVuSerif-Bold-73" transform="translate(1021.09375 0)"/>
     <use xlink:href="#DejaVuSerif-Bold-73" transform="translate(1077.392578 0)"/>
     <use xlink:href="#DejaVuSerif-Bold-20" transform="translate(1133.691406 0)"/>
     <use xlink:href="#DejaVuSerif-Bold-76" transform="translate(1168.505859 0)"/>
     <use xlink:href="#DejaVuSerif-Bold-69" transform="translate(1226.611328 0)"/>
     <use xlink:href="#DejaVuSerif-Bold-73" transform="translate(1264.599609 0)"/>
     <use xlink:href="#DejaVuSerif-Bold-69" transform="translate(1320.898438 0)"/>
     <use xlink:href="#DejaVuSerif-Bold-74" transform="translate(1358.886719 0)"/>
     <use xlink:href="#DejaVuSerif-Bold-73" transform="translate(1405.078125 0)"/>
     <use xlink:href="#DejaVuSerif-Bold-20" transform="translate(1461.376953 0)"/>
     <use xlink:href="#DejaVuSerif-Bold-28" transform="translate(1496.191406 0)"/>
     <use xlink:href="#DejaVuSerif-Bold-76" transform="translate(1543.505859 0)"/>
     <use xlink:href="#DejaVuSerif-Bold-73" transform="translate(1601.611328 0)"/>
     <use xlink:href="#DejaVuSerif-Bold-20" transform="translate(1657.910156 0)"/>
     <use xlink:href="#DejaVuSerif-Bold-b1" transform="translate(1692.724609 0)"/>
     <use xlink:href="#DejaVuSerif-Bold-32" transform="translate(1776.513672 0)"/>
     <use xlink:href="#DejaVuSerif-Bold-2d" transform="translate(1846.09375 0)"/>
     <use xlink:href="#DejaVuSerif-Bold-79" transform="translate(1887.597656 0)"/>
     <use xlink:href="#DejaVuSerif-Bold-65" transform="translate(1945.703125 0)"/>
     <use xlink:href="#DejaVuSerif-Bold-61" transform="translate(2009.326172 0)"/>
     <use xlink:href="#DejaVuSerif-Bold-72" transform="translate(2074.121094 0)"/>
     <use xlink:href="#DejaVuSerif-Bold-20" transform="translate(2126.806641 0)"/>
     <use xlink:href="#DejaVuSerif-Bold-62" transform="translate(2161.621094 0)"/>
     <use xlink:href="#DejaVuSerif-Bold-61" transform="translate(2231.542969 0)"/>
     <use xlink:href="#DejaVuSerif-Bold-73" transform="translate(2296.337891 0)"/>
     <use xlink:href="#DejaVuSerif-Bold-65" transform="translate(2352.636719 0)"/>
     <use xlink:href="#DejaVuSerif-Bold-6c" transform="translate(2416.259766 0)"/>
     <use xlink:href="#DejaVuSerif-Bold-69" transform="translate(2454.248047 0)"/>
     <use xlink:href="#DejaVuSerif-Bold-6e" transform="translate(2492.236328 0)"/>
     <use xlink:href="#DejaVuSerif-Bold-65" transform="translate(2564.941406 0)"/>
     <use xlink:href="#DejaVuSerif-Bold-29" transform="translate(2628.564453 0)"/>
    </g>
   </g>
   <g id="legend_1">
    <g id="patch_16">
     <path d="M 486.6613 519.187131 
L 502.6613 519.187131 
L 502.6613 513.587131 
L 486.6613 513.587131 
z
" style="fill: #a8323e"/>
    </g>
    <g id="text_20">
     <!-- U.S. host -->
     <g transform="translate(509.0613 519.187131) scale(0.08 -0.08)">
      <defs>
       <path id="DejaVuSerif-55" d="M 897 4331 
L 300 4331 
L 300 4666 
L 2125 4666 
L 2125 4331 
L 1528 4331 
L 1528 1919 
Q 1528 1025 1820 672 
Q 2113 319 2828 319 
Q 3544 319 3836 672 
Q 4128 1025 4128 1919 
L 4128 4331 
L 3531 4331 
L 3531 4666 
L 5106 4666 
L 5106 4331 
L 4513 4331 
L 4513 1856 
Q 4513 791 4103 350 
Q 3694 -91 2713 -91 
Q 1731 -91 1314 353 
Q 897 797 897 1856 
L 897 4331 
z
" transform="scale(0.015625)"/>
       <path id="DejaVuSerif-2e" d="M 603 325 
Q 603 500 722 622 
Q 841 744 1019 744 
Q 1191 744 1312 622 
Q 1434 500 1434 325 
Q 1434 153 1312 31 
Q 1191 -91 1019 -91 
Q 841 -91 722 29 
Q 603 150 603 325 
z
" transform="scale(0.015625)"/>
       <path id="DejaVuSerif-73" d="M 359 184 
L 359 959 
L 691 959 
Q 703 588 923 403 
Q 1144 219 1575 219 
Q 1963 219 2166 364 
Q 2369 509 2369 788 
Q 2369 1006 2220 1140 
Q 2072 1275 1594 1428 
L 1178 1569 
Q 750 1706 558 1912 
Q 366 2119 366 2438 
Q 366 2894 700 3153 
Q 1034 3413 1625 3413 
Q 1888 3413 2178 3344 
Q 2469 3275 2778 3144 
L 2778 2419 
L 2447 2419 
Q 2434 2741 2221 2922 
Q 2009 3103 1644 3103 
Q 1281 3103 1095 2975 
Q 909 2847 909 2591 
Q 909 2381 1050 2254 
Q 1191 2128 1613 1997 
L 2069 1856 
Q 2541 1709 2748 1489 
Q 2956 1269 2956 922 
Q 2956 450 2595 179 
Q 2234 -91 1600 -91 
Q 1278 -91 972 -22 
Q 666 47 359 184 
z
" transform="scale(0.015625)"/>
      </defs>
      <use xlink:href="#DejaVuSerif-55"/>
      <use xlink:href="#DejaVuSerif-2e" transform="translate(75.152344 0)"/>
      <use xlink:href="#DejaVuSerif-53" transform="translate(106.939453 0)"/>
      <use xlink:href="#DejaVuSerif-2e" transform="translate(171.820312 0)"/>
      <use xlink:href="#DejaVuSerif-20" transform="translate(203.607422 0)"/>
      <use xlink:href="#DejaVuSerif-68" transform="translate(235.394531 0)"/>
      <use xlink:href="#DejaVuSerif-6f" transform="translate(299.798828 0)"/>
      <use xlink:href="#DejaVuSerif-73" transform="translate(360.003906 0)"/>
      <use xlink:href="#DejaVuSerif-74" transform="translate(411.322266 0)"/>
     </g>
    </g>
    <g id="patch_17">
     <path d="M 486.6613 530.929631 
L 502.6613 530.929631 
L 502.6613 525.329631 
L 486.6613 525.329631 
z
" style="fill: #b8860b"/>
    </g>
    <g id="text_21">
     <!-- Canadian host -->
     <g transform="translate(509.0613 530.929631) scale(0.08 -0.08)">
      <use xlink:href="#DejaVuSerif-43"/>
      <use xlink:href="#DejaVuSerif-61" transform="translate(76.513672 0)"/>
      <use xlink:href="#DejaVuSerif-6e" transform="translate(136.132812 0)"/>
      <use xlink:href="#DejaVuSerif-61" transform="translate(200.537109 0)"/>
      <use xlink:href="#DejaVuSerif-64" transform="translate(260.15625 0)"/>
      <use xlink:href="#DejaVuSerif-69" transform="translate(324.169922 0)"/>
      <use xlink:href="#DejaVuSerif-61" transform="translate(356.152344 0)"/>
      <use xlink:href="#DejaVuSerif-6e" transform="translate(415.771484 0)"/>
      <use xlink:href="#DejaVuSerif-20" transform="translate(480.175781 0)"/>
      <use xlink:href="#DejaVuSerif-68" transform="translate(511.962891 0)"/>
      <use xlink:href="#DejaVuSerif-6f" transform="translate(576.367188 0)"/>
      <use xlink:href="#DejaVuSerif-73" transform="translate(636.572266 0)"/>
      <use xlink:href="#DejaVuSerif-74" transform="translate(687.890625 0)"/>
     </g>
    </g>
    <g id="patch_18">
     <path d="M 486.6613 542.672131 
L 502.6613 542.672131 
L 502.6613 537.072131 
L 486.6613 537.072131 
z
" style="fill: #475569"/>
    </g>
    <g id="text_22">
     <!-- Overseas host -->
     <g transform="translate(509.0613 542.672131) scale(0.08 -0.08)">
      <defs>
       <path id="DejaVuSerif-4f" d="M 2625 244 
Q 3391 244 3781 770 
Q 4172 1297 4172 2328 
Q 4172 3363 3781 3889 
Q 3391 4416 2625 4416 
Q 1856 4416 1465 3889 
Q 1075 3363 1075 2328 
Q 1075 1297 1465 770 
Q 1856 244 2625 244 
z
M 2625 -91 
Q 2150 -91 1751 65 
Q 1353 222 1050 525 
Q 700 875 529 1319 
Q 359 1763 359 2328 
Q 359 2894 529 3339 
Q 700 3784 1050 4134 
Q 1356 4441 1750 4595 
Q 2144 4750 2625 4750 
Q 3641 4750 4266 4084 
Q 4891 3419 4891 2328 
Q 4891 1769 4719 1320 
Q 4547 872 4197 525 
Q 3891 219 3497 64 
Q 3103 -91 2625 -91 
z
" transform="scale(0.015625)"/>
      </defs>
      <use xlink:href="#DejaVuSerif-4f"/>
      <use xlink:href="#DejaVuSerif-76" transform="translate(81.982422 0)"/>
      <use xlink:href="#DejaVuSerif-65" transform="translate(138.476562 0)"/>
      <use xlink:href="#DejaVuSerif-72" transform="translate(197.65625 0)"/>
      <use xlink:href="#DejaVuSerif-73" transform="translate(245.458984 0)"/>
      <use xlink:href="#DejaVuSerif-65" transform="translate(296.777344 0)"/>
      <use xlink:href="#DejaVuSerif-61" transform="translate(355.957031 0)"/>
      <use xlink:href="#DejaVuSerif-73" transform="translate(415.576172 0)"/>
      <use xlink:href="#DejaVuSerif-20" transform="translate(466.894531 0)"/>
      <use xlink:href="#DejaVuSerif-68" transform="translate(498.681641 0)"/>
      <use xlink:href="#DejaVuSerif-6f" transform="translate(563.085938 0)"/>
      <use xlink:href="#DejaVuSerif-73" transform="translate(623.291016 0)"/>
      <use xlink:href="#DejaVuSerif-74" transform="translate(674.609375 0)"/>
     </g>
    </g>
   </g>
  </g>
 </g>
 <defs>
  <clipPath id="p70ad4c8256">
   <path d="M 500.512 280.214281 
C 500.512 247.823712 494.131764 215.7481 481.73643 185.823117 
C 469.341096 155.898133 451.171721 128.705742 428.26813 105.802151 
C 405.364539 82.89856 378.172149 64.729185 348.247165 52.333851 
C 318.322181 39.938517 286.246569 33.558281 253.856 33.558281 
C 221.465431 33.558281 189.389819 39.938517 159.464835 52.333851 
C 129.539851 64.729185 102.347461 82.89856 79.44387 105.802151 
C 56.540279 128.705742 38.370904 155.898133 25.97557 185.823117 
C 13.580236 215.7481 7.2 247.823712 7.2 280.214281 
C 7.2 312.60485 13.580236 344.680462 25.97557 374.605446 
C 38.370904 404.53043 56.540279 431.72282 79.44387 454.626411 
C 102.347461 477.530003 129.539851 495.699377 159.464835 508.094711 
C 189.389819 520.490045 221.465431 526.870281 253.856 526.870281 
C 286.246569 526.870281 318.322181 520.490045 348.247165 508.094711 
C 378.172149 495.699377 405.364539 477.530003 428.26813 454.626411 
C 451.171721 431.72282 469.341096 404.53043 481.73643 374.605446 
C 494.131764 344.680462 500.512 312.60485 500.512 280.214281 
M 253.856 280.214281 
C 253.856 280.214281 253.856 280.214281 253.856 280.214281 
C 253.856 280.214281 253.856 280.214281 253.856 280.214281 
C 253.856 280.214281 253.856 280.214281 253.856 280.214281 
C 253.856 280.214281 253.856 280.214281 253.856 280.214281 
C 253.856 280.214281 253.856 280.214281 253.856 280.214281 
C 253.856 280.214281 253.856 280.214281 253.856 280.214281 
C 253.856 280.214281 253.856 280.214281 253.856 280.214281 
C 253.856 280.214281 253.856 280.214281 253.856 280.214281 
C 253.856 280.214281 253.856 280.214281 253.856 280.214281 
C 253.856 280.214281 253.856 280.214281 253.856 280.214281 
C 253.856 280.214281 253.856 280.214281 253.856 280.214281 
C 253.856 280.214281 253.856 280.214281 253.856 280.214281 
C 253.856 280.214281 253.856 280.214281 253.856 280.214281 
C 253.856 280.214281 253.856 280.214281 253.856 280.214281 
C 253.856 280.214281 253.856 280.214281 253.856 280.214281 
C 253.856 280.214281 253.856 280.214281 253.856 280.214281 
z
"/>
  </clipPath>
 </defs>
</svg>
