<?xml version="1.0" encoding="utf-8" standalone="no"?>
<!DOCTYPE svg PUBLIC "-//W3C//DTD SVG 1.1//EN"
  "http://www.w3.org/Graphics/SVG/1.1/DTD/svg11.dtd">
<svg xmlns:xlink="http://www.w3.org/1999/xlink" width="805.021015pt" height="352.64919pt" viewBox="0 0 805.021015 352.64919" xmlns="http://www.w3.org/2000/svg" version="1.1">
 <metadata>
  <rdf:RDF xmlns:dc="http://purl.org/dc/elements/1.1/" xmlns:cc="http://creativecommons.org/ns#" xmlns:rdf="http://www.w3.org/1999/02/22-rdf-syntax-ns#">
   <cc:Work>
    <dc:type rdf:resource="http://purl.org/dc/dcmitype/StillImage"/>
    <dc:date>2026-04-30T00:04:28.815126</dc:date>
    <dc:format>image/svg+xml</dc:format>
    <dc:creator>
     <cc:Agent>
      <dc:title>Matplotlib v3.10.8, https://matplotlib.org/</dc:title>
     </cc:Agent>
    </dc:creator>
   </cc:Work>
  </rdf:RDF>
 </metadata>
 <defs>
  <style type="text/css">*{stroke-linejoin: round; stroke-linecap: butt}</style>
 </defs>
 <g id="figure_1">
  <g id="patch_1">
   <path d="M 0 352.64919 
L 805.021015 352.64919 
L 805.021015 0 
L 0 0 
z
" style="fill: #faf8f3"/>
  </g>
  <g id="axes_1">
   <g id="patch_2">
    <path d="M 78.731313 75.060827 
L 30.411924 102.958039 
L 30.411924 158.752463 
L 78.731313 186.649675 
L 127.050702 158.752463 
L 127.050702 102.958039 
z
" clip-path="url(#p0ad306ded2)" style="fill: #a695af; stroke: #1f2328; stroke-width: 1.2; stroke-linejoin: miter"/>
   </g>
   <g id="patch_3">
    <path d="M 78.731313 182.357796 
L 30.411924 210.255009 
L 30.411924 266.049433 
L 78.731313 293.946645 
L 127.050702 266.049433 
L 127.050702 210.255009 
z
" clip-path="url(#p0ad306ded2)" style="fill: #a695af; stroke: #1f2328; stroke-width: 1.2; stroke-linejoin: miter"/>
   </g>
   <g id="patch_4">
    <path d="M 186.028283 146.59214 
L 137.708894 174.489352 
L 137.708894 230.283776 
L 186.028283 258.180988 
L 234.347672 230.283776 
L 234.347672 174.489352 
z
" clip-path="url(#p0ad306ded2)" style="fill: #3a4f7c; stroke: #1f2328; stroke-width: 1.2; stroke-linejoin: miter"/>
   </g>
   <g id="patch_5">
    <path d="M 293.325253 110.826483 
L 245.005864 138.723695 
L 245.005864 194.51812 
L 293.325253 222.415332 
L 341.644641 194.51812 
L 341.644641 138.723695 
z
" clip-path="url(#p0ad306ded2)" style="fill: #e8e8e8; stroke: #1f2328; stroke-width: 1.2; stroke-linejoin: miter"/>
   </g>
   <g id="patch_6">
    <path d="M 400.622222 75.060827 
L 352.302833 102.958039 
L 352.302833 158.752463 
L 400.622222 186.649675 
L 448.941611 158.752463 
L 448.941611 102.958039 
z
" clip-path="url(#p0ad306ded2)" style="fill: #a695af; stroke: #1f2328; stroke-width: 1.2; stroke-linejoin: miter"/>
   </g>
   <g id="patch_7">
    <path d="M 364.856566 218.123453 
L 316.537177 246.020665 
L 316.537177 301.815089 
L 364.856566 329.712301 
L 413.175954 301.815089 
L 413.175954 246.020665 
z
" clip-path="url(#p0ad306ded2)" style="fill: #cae6f0; stroke: #1f2328; stroke-width: 1.2; stroke-linejoin: miter"/>
   </g>
   <g id="text_1">
    <!-- Pacific Northwest -->
    <g style="fill: #1f2328" transform="translate(33.964048 129.762123) scale(0.09 -0.09)">
     <defs>
      <path id="DejaVuSerif-Bold-50" d="M 300 0 
L 300 378 
L 897 378 
L 897 4288 
L 300 4288 
L 300 4666 
L 2956 4666 
Q 3734 4666 4193 4295 
Q 4653 3925 4653 3303 
Q 4653 2678 4192 2304 
Q 3731 1931 2956 1931 
L 2100 1931 
L 2100 378 
L 2853 378 
L 2853 0 
L 300 0 
z
M 2100 2309 
L 2450 2309 
Q 2856 2309 3098 2579 
Q 3341 2850 3341 3303 
Q 3341 3753 3100 4020 
Q 2859 4288 2450 4288 
L 2100 4288 
L 2100 2309 
z
" transform="scale(0.015625)"/>
      <path id="DejaVuSerif-Bold-61" d="M 3525 2041 
L 3525 378 
L 4000 378 
L 4000 0 
L 2419 0 
L 2419 422 
Q 2200 159 1931 34 
Q 1663 -91 1319 -91 
Q 809 -91 536 182 
Q 263 456 263 966 
Q 263 1525 655 1803 
Q 1047 2081 1838 2081 
L 2419 2081 
L 2419 2278 
Q 2419 2681 2228 2873 
Q 2038 3066 1638 3066 
Q 1306 3066 1126 2930 
Q 947 2794 872 2484 
L 519 2484 
L 519 3200 
Q 816 3306 1134 3359 
Q 1453 3413 1806 3413 
Q 2697 3413 3111 3081 
Q 3525 2750 3525 2041 
z
M 2419 1044 
L 2419 1709 
L 2003 1709 
Q 1694 1709 1528 1540 
Q 1363 1372 1363 1056 
Q 1363 741 1483 584 
Q 1603 428 1850 428 
Q 2106 428 2262 597 
Q 2419 766 2419 1044 
z
" transform="scale(0.015625)"/>
      <path id="DejaVuSerif-Bold-63" d="M 3609 1038 
Q 3491 469 3123 189 
Q 2756 -91 2125 -91 
Q 1238 -91 750 368 
Q 263 828 263 1663 
Q 263 2488 744 2950 
Q 1225 3413 2081 3413 
Q 2428 3413 2781 3347 
Q 3134 3281 3500 3150 
L 3500 2228 
L 3150 2228 
Q 3100 2650 2903 2854 
Q 2706 3059 2350 3059 
Q 1888 3059 1692 2746 
Q 1497 2434 1497 1663 
Q 1497 909 1687 586 
Q 1878 263 2309 263 
Q 2644 263 2845 463 
Q 3047 663 3091 1038 
L 3609 1038 
z
" transform="scale(0.015625)"/>
      <path id="DejaVuSerif-Bold-69" d="M 588 4263 
Q 588 4516 763 4689 
Q 938 4863 1191 4863 
Q 1438 4863 1611 4689 
Q 1784 4516 1784 4263 
Q 1784 4016 1611 3842 
Q 1438 3669 1191 3669 
Q 938 3669 763 3841 
Q 588 4013 588 4263 
z
M 1797 378 
L 2272 378 
L 2272 0 
L 219 0 
L 219 378 
L 691 378 
L 691 2944 
L 219 2944 
L 219 3322 
L 1797 3322 
L 1797 378 
z
" transform="scale(0.015625)"/>
      <path id="DejaVuSerif-Bold-66" d="M 3097 4031 
L 2747 4031 
Q 2722 4275 2605 4394 
Q 2488 4513 2272 4513 
Q 2022 4513 1909 4333 
Q 1797 4153 1797 3750 
L 1797 3322 
L 2631 3322 
L 2631 2944 
L 1797 2944 
L 1797 378 
L 2438 378 
L 2438 0 
L 219 0 
L 219 378 
L 691 378 
L 691 2944 
L 197 2944 
L 197 3322 
L 691 3322 
L 691 3738 
Q 691 4291 1044 4577 
Q 1397 4863 2081 4863 
Q 2347 4863 2600 4833 
Q 2853 4803 3097 4744 
L 3097 4031 
z
" transform="scale(0.015625)"/>
      <path id="DejaVuSerif-Bold-20" transform="scale(0.015625)"/>
      <path id="DejaVuSerif-Bold-4e" d="M 281 0 
L 281 378 
L 878 378 
L 878 4288 
L 281 4288 
L 281 4666 
L 1741 4666 
L 4556 1363 
L 4556 4288 
L 3963 4288 
L 3963 4666 
L 5594 4666 
L 5594 4288 
L 4997 4288 
L 4997 0 
L 4178 0 
L 1319 3372 
L 1319 378 
L 1913 378 
L 1913 0 
L 281 0 
z
" transform="scale(0.015625)"/>
      <path id="DejaVuSerif-Bold-6f" d="M 2138 263 
Q 2488 263 2630 563 
Q 2772 863 2772 1663 
Q 2772 2463 2631 2761 
Q 2491 3059 2138 3059 
Q 1784 3059 1640 2757 
Q 1497 2456 1497 1663 
Q 1497 869 1640 566 
Q 1784 263 2138 263 
z
M 2138 -91 
Q 1259 -91 761 376 
Q 263 844 263 1663 
Q 263 2484 761 2948 
Q 1259 3413 2138 3413 
Q 3019 3413 3516 2948 
Q 4013 2484 4013 1663 
Q 4013 844 3514 376 
Q 3016 -91 2138 -91 
z
" transform="scale(0.015625)"/>
      <path id="DejaVuSerif-Bold-72" d="M 3438 3359 
L 3438 2369 
L 3084 2369 
Q 3066 2634 2941 2764 
Q 2816 2894 2578 2894 
Q 2216 2894 2006 2575 
Q 1797 2256 1797 1691 
L 1797 378 
L 2400 378 
L 2400 0 
L 219 0 
L 219 378 
L 691 378 
L 691 2944 
L 184 2944 
L 184 3322 
L 1797 3322 
L 1797 2731 
Q 1959 3078 2226 3245 
Q 2494 3413 2881 3413 
Q 2978 3413 3117 3398 
Q 3256 3384 3438 3359 
z
" transform="scale(0.015625)"/>
      <path id="DejaVuSerif-Bold-74" d="M 634 2944 
L 153 2944 
L 153 3322 
L 634 3322 
L 634 4353 
L 1741 4353 
L 1741 3322 
L 2663 3322 
L 2663 2944 
L 1741 2944 
L 1741 909 
Q 1741 475 1809 369 
Q 1878 263 2059 263 
Q 2259 263 2356 397 
Q 2453 531 2459 813 
L 2925 813 
Q 2897 313 2651 111 
Q 2406 -91 1806 -91 
Q 1122 -91 878 123 
Q 634 338 634 909 
L 634 2944 
z
" transform="scale(0.015625)"/>
      <path id="DejaVuSerif-Bold-68" d="M 219 0 
L 219 378 
L 691 378 
L 691 4488 
L 197 4488 
L 197 4863 
L 1797 4863 
L 1797 2853 
Q 1997 3150 2253 3281 
Q 2509 3413 2900 3413 
Q 3459 3413 3745 3083 
Q 4031 2753 4031 2113 
L 4031 378 
L 4506 378 
L 4506 0 
L 2522 0 
L 2522 378 
L 2925 378 
L 2925 2144 
Q 2925 2566 2817 2730 
Q 2709 2894 2444 2894 
Q 2109 2894 1953 2648 
Q 1797 2403 1797 1869 
L 1797 378 
L 2203 378 
L 2203 0 
L 219 0 
z
" transform="scale(0.015625)"/>
      <path id="DejaVuSerif-Bold-77" d="M 3450 3322 
L 4206 1106 
L 4831 2944 
L 4397 2944 
L 4397 3322 
L 5638 3322 
L 5638 2944 
L 5247 2944 
L 4244 0 
L 3481 0 
L 2778 2081 
L 2069 0 
L 1313 0 
L 306 2944 
L -56 2944 
L -56 3322 
L 1825 3322 
L 1825 2944 
L 1434 2944 
L 2047 1147 
L 2791 3322 
L 3450 3322 
z
" transform="scale(0.015625)"/>
      <path id="DejaVuSerif-Bold-65" d="M 2566 1875 
Q 2566 2531 2444 2795 
Q 2322 3059 2028 3059 
Q 1744 3059 1620 2800 
Q 1497 2541 1497 1931 
L 1497 1875 
L 2566 1875 
z
M 3781 1503 
L 1497 1503 
L 1497 1478 
Q 1497 834 1690 548 
Q 1884 263 2316 263 
Q 2675 263 2897 453 
Q 3119 644 3181 1006 
L 3700 1006 
Q 3566 441 3166 175 
Q 2766 -91 2047 -91 
Q 1184 -91 723 364 
Q 263 819 263 1663 
Q 263 2488 734 2950 
Q 1206 3413 2047 3413 
Q 2872 3413 3312 2927 
Q 3753 2441 3781 1503 
z
" transform="scale(0.015625)"/>
      <path id="DejaVuSerif-Bold-73" d="M 300 97 
L 300 1025 
L 653 1025 
Q 697 653 931 458 
Q 1166 263 1569 263 
Q 1906 263 2086 380 
Q 2266 497 2266 716 
Q 2266 916 2152 1025 
Q 2038 1134 1709 1216 
L 1253 1331 
Q 738 1459 506 1698 
Q 275 1938 275 2344 
Q 275 2884 650 3148 
Q 1025 3413 1806 3413 
Q 2100 3413 2433 3364 
Q 2766 3316 3169 3213 
L 3169 2375 
L 2816 2375 
Q 2788 2716 2573 2887 
Q 2359 3059 1959 3059 
Q 1622 3059 1448 2951 
Q 1275 2844 1275 2638 
Q 1275 2469 1375 2372 
Q 1475 2275 1734 2209 
L 2188 2094 
Q 2841 1928 3091 1684 
Q 3341 1441 3341 1006 
Q 3341 444 2939 176 
Q 2538 -91 1691 -91 
Q 1381 -91 1034 -44 
Q 688 3 300 97 
z
" transform="scale(0.015625)"/>
     </defs>
     <use xlink:href="#DejaVuSerif-Bold-50"/>
     <use xlink:href="#DejaVuSerif-Bold-61" transform="translate(72.570312 0)"/>
     <use xlink:href="#DejaVuSerif-Bold-63" transform="translate(137.365234 0)"/>
     <use xlink:href="#DejaVuSerif-Bold-69" transform="translate(198.253906 0)"/>
     <use xlink:href="#DejaVuSerif-Bold-66" transform="translate(236.242188 0)"/>
     <use xlink:href="#DejaVuSerif-Bold-69" transform="translate(279.259766 0)"/>
     <use xlink:href="#DejaVuSerif-Bold-63" transform="translate(317.248047 0)"/>
     <use xlink:href="#DejaVuSerif-Bold-20" transform="translate(378.136719 0)"/>
     <use xlink:href="#DejaVuSerif-Bold-4e" transform="translate(412.951172 0)"/>
     <use xlink:href="#DejaVuSerif-Bold-6f" transform="translate(504.357422 0)"/>
     <use xlink:href="#DejaVuSerif-Bold-72" transform="translate(571.056641 0)"/>
     <use xlink:href="#DejaVuSerif-Bold-74" transform="translate(623.742188 0)"/>
     <use xlink:href="#DejaVuSerif-Bold-68" transform="translate(669.933594 0)"/>
     <use xlink:href="#DejaVuSerif-Bold-77" transform="translate(742.638672 0)"/>
     <use xlink:href="#DejaVuSerif-Bold-65" transform="translate(828.722656 0)"/>
     <use xlink:href="#DejaVuSerif-Bold-73" transform="translate(892.345703 0)"/>
     <use xlink:href="#DejaVuSerif-Bold-74" transform="translate(948.644531 0)"/>
    </g>
   </g>
   <g id="text_2">
    <!-- +11% -->
    <g style="fill: #1f2328" transform="translate(66.488813 150.945579) scale(0.08 -0.08)">
     <defs>
      <path id="DejaVuSerif-2b" d="M 2931 4013 
L 2931 2259 
L 4684 2259 
L 4684 1753 
L 2931 1753 
L 2931 0 
L 2431 0 
L 2431 1753 
L 678 1753 
L 678 2259 
L 2431 2259 
L 2431 4013 
L 2931 4013 
z
" transform="scale(0.015625)"/>
      <path id="DejaVuSerif-31" d="M 909 0 
L 909 331 
L 1722 331 
L 1722 4213 
L 781 3603 
L 781 4013 
L 1919 4750 
L 2350 4750 
L 2350 331 
L 3163 331 
L 3163 0 
L 909 0 
z
" transform="scale(0.015625)"/>
      <path id="DejaVuSerif-25" d="M 1434 4459 
Q 1159 4459 1004 4200 
Q 850 3941 850 3475 
Q 850 3016 1008 2753 
Q 1166 2491 1434 2491 
Q 1700 2491 1854 2752 
Q 2009 3013 2009 3475 
Q 2009 3938 1854 4198 
Q 1700 4459 1434 4459 
z
M 4653 2169 
Q 4381 2169 4226 1906 
Q 4072 1644 4072 1178 
Q 4072 719 4228 458 
Q 4384 197 4653 197 
Q 4922 197 5075 458 
Q 5228 719 5228 1178 
Q 5228 1641 5073 1905 
Q 4919 2169 4653 2169 
z
M 4653 2450 
Q 5147 2450 5437 2106 
Q 5728 1763 5728 1178 
Q 5728 594 5436 251 
Q 5144 -91 4653 -91 
Q 4153 -91 3862 251 
Q 3572 594 3572 1178 
Q 3572 1766 3864 2108 
Q 4156 2450 4653 2450 
z
M 4263 4750 
L 4738 4750 
L 1819 -91 
L 1344 -91 
L 4263 4750 
z
M 1428 4750 
Q 1922 4750 2215 4408 
Q 2509 4066 2509 3481 
Q 2509 2891 2217 2550 
Q 1925 2209 1428 2209 
Q 931 2209 642 2551 
Q 353 2894 353 3481 
Q 353 4063 643 4406 
Q 934 4750 1428 4750 
z
" transform="scale(0.015625)"/>
     </defs>
     <use xlink:href="#DejaVuSerif-2b"/>
     <use xlink:href="#DejaVuSerif-31" transform="translate(83.789062 0)"/>
     <use xlink:href="#DejaVuSerif-31" transform="translate(147.412109 0)"/>
     <use xlink:href="#DejaVuSerif-25" transform="translate(211.035156 0)"/>
    </g>
   </g>
   <g id="text_3">
    <!-- r=+0.49 -->
    <g style="fill: #5a6470" transform="translate(63.399673 164.975904) scale(0.07 -0.07)">
     <defs>
      <path id="DejaVuSerif-Italic-72" d="M 3375 3328 
L 3213 2497 
L 2881 2497 
Q 2891 2559 2891 2613 
Q 2891 2775 2816 2866 
Q 2719 2988 2484 2988 
Q 2059 2988 1775 2694 
Q 1491 2400 1384 1850 
L 1025 0 
L 450 0 
L 1031 2994 
L 481 2994 
L 544 3322 
L 1669 3322 
L 1556 2731 
Q 1791 3078 2089 3245 
Q 2388 3413 2769 3413 
Q 2909 3413 3059 3391 
Q 3209 3369 3375 3328 
z
" transform="scale(0.015625)"/>
      <path id="DejaVuSerif-Italic-3d" d="M 678 2894 
L 4684 2894 
L 4684 2394 
L 678 2394 
L 678 2894 
z
M 678 1619 
L 4684 1619 
L 4684 1119 
L 678 1119 
L 678 1619 
z
" transform="scale(0.015625)"/>
      <path id="DejaVuSerif-Italic-2b" d="M 2931 4013 
L 2931 2259 
L 4684 2259 
L 4684 1753 
L 2931 1753 
L 2931 0 
L 2431 0 
L 2431 1753 
L 678 1753 
L 678 2259 
L 2431 2259 
L 2431 4013 
L 2931 4013 
z
" transform="scale(0.015625)"/>
      <path id="DejaVuSerif-Italic-30" d="M 1011 744 
Q 1147 219 1625 219 
Q 2103 219 2442 744 
Q 2781 1269 2988 2328 
Q 3194 3391 3058 3916 
Q 2922 4441 2444 4441 
Q 1966 4441 1627 3916 
Q 1288 3391 1081 2328 
Q 875 1269 1011 744 
z
M 1563 -91 
Q 803 -91 501 546 
Q 200 1184 422 2328 
Q 644 3475 1195 4112 
Q 1747 4750 2506 4750 
Q 3269 4750 3569 4112 
Q 3869 3475 3647 2328 
Q 3425 1184 2875 546 
Q 2325 -91 1563 -91 
z
" transform="scale(0.015625)"/>
      <path id="DejaVuSerif-Italic-2e" d="M 664 29 
Q 569 150 603 325 
Q 638 500 780 622 
Q 922 744 1100 744 
Q 1272 744 1370 622 
Q 1469 500 1434 325 
Q 1400 153 1254 31 
Q 1109 -91 938 -91 
Q 759 -91 664 29 
z
" transform="scale(0.015625)"/>
      <path id="DejaVuSerif-Italic-34" d="M 2084 1581 
L 2566 4063 
L 491 1581 
L 2084 1581 
z
M 3150 0 
L 1025 0 
L 1091 331 
L 1841 331 
L 2019 1247 
L -19 1247 
L 47 1588 
L 2706 4750 
L 3325 4750 
L 2709 1581 
L 3600 1581 
L 3534 1247 
L 2644 1247 
L 2466 331 
L 3216 331 
L 3150 0 
z
" transform="scale(0.015625)"/>
      <path id="DejaVuSerif-Italic-39" d="M 2947 2091 
Q 2694 1856 2398 1740 
Q 2103 1625 1763 1625 
Q 1069 1625 748 2044 
Q 428 2463 569 3188 
Q 706 3897 1226 4323 
Q 1747 4750 2475 4750 
Q 3266 4750 3573 4161 
Q 3881 3572 3669 2478 
Q 3431 1253 2797 581 
Q 2163 -91 1250 -91 
Q 1003 -91 740 -44 
Q 478 3 213 97 
L 363 872 
L 713 872 
Q 694 556 864 387 
Q 1034 219 1375 219 
Q 1981 219 2367 676 
Q 2753 1134 2947 2091 
z
M 2388 4441 
Q 1944 4441 1645 4117 
Q 1347 3794 1230 3187 
Q 1113 2581 1284 2256 
Q 1456 1931 1900 1931 
Q 2344 1931 2641 2245 
Q 2938 2559 3053 3150 
Q 3175 3772 3001 4106 
Q 2828 4441 2388 4441 
z
" transform="scale(0.015625)"/>
     </defs>
     <use xlink:href="#DejaVuSerif-Italic-72"/>
     <use xlink:href="#DejaVuSerif-Italic-3d" transform="translate(47.802734 0)"/>
     <use xlink:href="#DejaVuSerif-Italic-2b" transform="translate(131.591797 0)"/>
     <use xlink:href="#DejaVuSerif-Italic-30" transform="translate(215.380859 0)"/>
     <use xlink:href="#DejaVuSerif-Italic-2e" transform="translate(279.003906 0)"/>
     <use xlink:href="#DejaVuSerif-Italic-34" transform="translate(310.791016 0)"/>
     <use xlink:href="#DejaVuSerif-Italic-39" transform="translate(374.414062 0)"/>
    </g>
   </g>
   <g id="text_4">
    <!-- Pacific Southwest -->
    <g style="fill: #1f2328" transform="translate(33.926782 237.059092) scale(0.09 -0.09)">
     <defs>
      <path id="DejaVuSerif-Bold-53" d="M 494 225 
L 494 1331 
L 891 1331 
Q 981 806 1318 547 
Q 1656 288 2253 288 
Q 2738 288 2991 472 
Q 3244 656 3244 1013 
Q 3244 1294 3072 1450 
Q 2900 1606 2363 1741 
L 1663 1913 
Q 978 2088 700 2398 
Q 422 2709 422 3284 
Q 422 3978 883 4364 
Q 1344 4750 2175 4750 
Q 2584 4750 3026 4681 
Q 3469 4613 3944 4475 
L 3944 3444 
L 3547 3444 
Q 3456 3925 3150 4148 
Q 2844 4372 2278 4372 
Q 1816 4372 1580 4211 
Q 1344 4050 1344 3731 
Q 1344 3441 1506 3289 
Q 1669 3138 2303 2975 
L 3003 2803 
Q 3653 2641 3945 2297 
Q 4238 1953 4238 1350 
Q 4238 644 3750 276 
Q 3263 -91 2316 -91 
Q 1859 -91 1409 -12 
Q 959 66 494 225 
z
" transform="scale(0.015625)"/>
      <path id="DejaVuSerif-Bold-75" d="M 3963 3322 
L 3963 378 
L 4434 378 
L 4434 0 
L 2853 0 
L 2853 469 
Q 2656 172 2400 40 
Q 2144 -91 1753 -91 
Q 1194 -91 908 239 
Q 622 569 622 1209 
L 622 2944 
L 147 2944 
L 147 3322 
L 1728 3322 
L 1728 1381 
Q 1728 763 1831 595 
Q 1934 428 2209 428 
Q 2544 428 2698 675 
Q 2853 922 2853 1459 
L 2853 2944 
L 2450 2944 
L 2450 3322 
L 3963 3322 
z
" transform="scale(0.015625)"/>
     </defs>
     <use xlink:href="#DejaVuSerif-Bold-50"/>
     <use xlink:href="#DejaVuSerif-Bold-61" transform="translate(72.570312 0)"/>
     <use xlink:href="#DejaVuSerif-Bold-63" transform="translate(137.365234 0)"/>
     <use xlink:href="#DejaVuSerif-Bold-69" transform="translate(198.253906 0)"/>
     <use xlink:href="#DejaVuSerif-Bold-66" transform="translate(236.242188 0)"/>
     <use xlink:href="#DejaVuSerif-Bold-69" transform="translate(279.259766 0)"/>
     <use xlink:href="#DejaVuSerif-Bold-63" transform="translate(317.248047 0)"/>
     <use xlink:href="#DejaVuSerif-Bold-20" transform="translate(378.136719 0)"/>
     <use xlink:href="#DejaVuSerif-Bold-53" transform="translate(412.951172 0)"/>
     <use xlink:href="#DejaVuSerif-Bold-6f" transform="translate(485.167969 0)"/>
     <use xlink:href="#DejaVuSerif-Bold-75" transform="translate(551.867188 0)"/>
     <use xlink:href="#DejaVuSerif-Bold-74" transform="translate(624.572266 0)"/>
     <use xlink:href="#DejaVuSerif-Bold-68" transform="translate(670.763672 0)"/>
     <use xlink:href="#DejaVuSerif-Bold-77" transform="translate(743.46875 0)"/>
     <use xlink:href="#DejaVuSerif-Bold-65" transform="translate(829.552734 0)"/>
     <use xlink:href="#DejaVuSerif-Bold-73" transform="translate(893.175781 0)"/>
     <use xlink:href="#DejaVuSerif-Bold-74" transform="translate(949.474609 0)"/>
    </g>
   </g>
   <g id="text_5">
    <!-- +20% -->
    <g style="fill: #1f2328" transform="translate(66.488813 258.242549) scale(0.08 -0.08)">
     <defs>
      <path id="DejaVuSerif-32" d="M 819 3553 
L 469 3553 
L 469 4384 
Q 803 4563 1142 4656 
Q 1481 4750 1806 4750 
Q 2534 4750 2956 4397 
Q 3378 4044 3378 3438 
Q 3378 2753 2422 1800 
Q 2347 1728 2309 1691 
L 1131 513 
L 3078 513 
L 3078 1088 
L 3444 1088 
L 3444 0 
L 434 0 
L 434 341 
L 1850 1753 
Q 2319 2222 2519 2614 
Q 2719 3006 2719 3438 
Q 2719 3909 2473 4175 
Q 2228 4441 1797 4441 
Q 1350 4441 1106 4219 
Q 863 3997 819 3553 
z
" transform="scale(0.015625)"/>
      <path id="DejaVuSerif-30" d="M 2034 219 
Q 2513 219 2750 744 
Q 2988 1269 2988 2328 
Q 2988 3391 2750 3916 
Q 2513 4441 2034 4441 
Q 1556 4441 1318 3916 
Q 1081 3391 1081 2328 
Q 1081 1269 1318 744 
Q 1556 219 2034 219 
z
M 2034 -91 
Q 1275 -91 848 546 
Q 422 1184 422 2328 
Q 422 3475 848 4112 
Q 1275 4750 2034 4750 
Q 2797 4750 3222 4112 
Q 3647 3475 3647 2328 
Q 3647 1184 3222 546 
Q 2797 -91 2034 -91 
z
" transform="scale(0.015625)"/>
     </defs>
     <use xlink:href="#DejaVuSerif-2b"/>
     <use xlink:href="#DejaVuSerif-32" transform="translate(83.789062 0)"/>
     <use xlink:href="#DejaVuSerif-30" transform="translate(147.412109 0)"/>
     <use xlink:href="#DejaVuSerif-25" transform="translate(211.035156 0)"/>
    </g>
   </g>
   <g id="text_6">
    <!-- r=+0.06 -->
    <g style="fill: #5a6470" transform="translate(63.399673 272.272874) scale(0.07 -0.07)">
     <defs>
      <path id="DejaVuSerif-Italic-36" d="M 1070 553 
Q 1244 219 1684 219 
Q 2125 219 2425 542 
Q 2725 866 2842 1472 
Q 2959 2078 2786 2401 
Q 2613 2725 2172 2725 
Q 1725 2725 1429 2412 
Q 1134 2100 1019 1509 
Q 897 888 1070 553 
z
M 1122 2569 
Q 1378 2803 1670 2918 
Q 1963 3034 2300 3034 
Q 2997 3034 3320 2615 
Q 3644 2197 3503 1472 
Q 3366 763 2845 336 
Q 2325 -91 1597 -91 
Q 806 -91 497 498 
Q 188 1088 400 2181 
Q 638 3406 1272 4078 
Q 1906 4750 2822 4750 
Q 3069 4750 3331 4703 
Q 3594 4656 3859 4563 
L 3709 3794 
L 3356 3794 
Q 3381 4109 3209 4275 
Q 3038 4441 2694 4441 
Q 2088 4441 1702 3981 
Q 1316 3522 1122 2569 
z
" transform="scale(0.015625)"/>
     </defs>
     <use xlink:href="#DejaVuSerif-Italic-72"/>
     <use xlink:href="#DejaVuSerif-Italic-3d" transform="translate(47.802734 0)"/>
     <use xlink:href="#DejaVuSerif-Italic-2b" transform="translate(131.591797 0)"/>
     <use xlink:href="#DejaVuSerif-Italic-30" transform="translate(215.380859 0)"/>
     <use xlink:href="#DejaVuSerif-Italic-2e" transform="translate(279.003906 0)"/>
     <use xlink:href="#DejaVuSerif-Italic-30" transform="translate(310.791016 0)"/>
     <use xlink:href="#DejaVuSerif-Italic-36" transform="translate(374.414062 0)"/>
    </g>
   </g>
   <g id="text_7">
    <!-- Rocky Mountain -->
    <g style="fill: #1f2328" transform="translate(144.746408 201.229452) scale(0.09 -0.09)">
     <defs>
      <path id="DejaVuSerif-Bold-52" d="M 3397 2278 
Q 3675 2238 3865 2094 
Q 4056 1950 4197 1678 
L 4878 378 
L 5356 378 
L 5356 0 
L 3822 0 
L 3078 1409 
Q 2863 1847 2711 1967 
Q 2559 2088 2291 2088 
L 2100 2088 
L 2100 378 
L 2700 378 
L 2700 0 
L 300 0 
L 300 378 
L 897 378 
L 897 4288 
L 300 4288 
L 300 4666 
L 2963 4666 
Q 3775 4666 4217 4339 
Q 4659 4013 4659 3413 
Q 4659 2925 4345 2642 
Q 4031 2359 3397 2278 
z
M 2100 2463 
L 2509 2463 
Q 2947 2463 3183 2700 
Q 3419 2938 3419 3378 
Q 3419 3819 3183 4053 
Q 2947 4288 2509 4288 
L 2100 4288 
L 2100 2463 
z
" transform="scale(0.015625)"/>
      <path id="DejaVuSerif-Bold-6b" d="M 2216 0 
L 219 0 
L 219 378 
L 691 378 
L 691 4488 
L 219 4488 
L 219 4863 
L 1797 4863 
L 1797 1741 
L 3138 2944 
L 2741 2944 
L 2741 3322 
L 4256 3322 
L 4256 2944 
L 3641 2944 
L 2784 2175 
L 4184 378 
L 4544 378 
L 4544 0 
L 2638 0 
L 2638 378 
L 3028 378 
L 2106 1563 
L 1797 1288 
L 1797 378 
L 2216 378 
L 2216 0 
z
" transform="scale(0.015625)"/>
      <path id="DejaVuSerif-Bold-79" d="M 1997 -750 
Q 1847 -1116 1634 -1269 
Q 1422 -1422 1063 -1422 
Q 909 -1422 721 -1387 
Q 534 -1353 313 -1288 
L 313 -594 
L 666 -597 
Q 675 -838 779 -953 
Q 884 -1069 1094 -1069 
Q 1297 -1069 1422 -958 
Q 1547 -847 1672 -538 
L 1722 -422 
L 275 2944 
L -84 2944 
L -84 3322 
L 1831 3322 
L 1831 2944 
L 1434 2944 
L 2278 978 
L 3066 2944 
L 2625 2944 
L 2625 3322 
L 3872 3322 
L 3872 2944 
L 3469 2944 
L 1997 -750 
z
" transform="scale(0.015625)"/>
      <path id="DejaVuSerif-Bold-4d" d="M 269 0 
L 269 378 
L 863 378 
L 863 4288 
L 269 4288 
L 269 4666 
L 2194 4666 
L 3525 1672 
L 4863 4666 
L 6784 4666 
L 6784 4288 
L 6188 4288 
L 6188 378 
L 6784 378 
L 6784 0 
L 4384 0 
L 4384 378 
L 4978 378 
L 4978 3938 
L 3531 684 
L 2741 684 
L 1300 3938 
L 1300 378 
L 1894 378 
L 1894 0 
L 269 0 
z
" transform="scale(0.015625)"/>
      <path id="DejaVuSerif-Bold-6e" d="M 219 0 
L 219 378 
L 691 378 
L 691 2944 
L 219 2944 
L 219 3322 
L 1797 3322 
L 1797 2853 
Q 1997 3150 2253 3281 
Q 2509 3413 2900 3413 
Q 3459 3413 3745 3083 
Q 4031 2753 4031 2113 
L 4031 378 
L 4506 378 
L 4506 0 
L 2522 0 
L 2522 378 
L 2925 378 
L 2925 2144 
Q 2925 2566 2817 2730 
Q 2709 2894 2444 2894 
Q 2109 2894 1953 2648 
Q 1797 2403 1797 1869 
L 1797 378 
L 2203 378 
L 2203 0 
L 219 0 
z
" transform="scale(0.015625)"/>
     </defs>
     <use xlink:href="#DejaVuSerif-Bold-52"/>
     <use xlink:href="#DejaVuSerif-Bold-6f" transform="translate(83.105469 0)"/>
     <use xlink:href="#DejaVuSerif-Bold-63" transform="translate(149.804688 0)"/>
     <use xlink:href="#DejaVuSerif-Bold-6b" transform="translate(210.693359 0)"/>
     <use xlink:href="#DejaVuSerif-Bold-79" transform="translate(279.980469 0)"/>
     <use xlink:href="#DejaVuSerif-Bold-20" transform="translate(338.085938 0)"/>
     <use xlink:href="#DejaVuSerif-Bold-4d" transform="translate(372.900391 0)"/>
     <use xlink:href="#DejaVuSerif-Bold-6f" transform="translate(483.59375 0)"/>
     <use xlink:href="#DejaVuSerif-Bold-75" transform="translate(550.292969 0)"/>
     <use xlink:href="#DejaVuSerif-Bold-6e" transform="translate(622.998047 0)"/>
     <use xlink:href="#DejaVuSerif-Bold-74" transform="translate(695.703125 0)"/>
     <use xlink:href="#DejaVuSerif-Bold-61" transform="translate(741.894531 0)"/>
     <use xlink:href="#DejaVuSerif-Bold-69" transform="translate(806.689453 0)"/>
     <use xlink:href="#DejaVuSerif-Bold-6e" transform="translate(844.677734 0)"/>
    </g>
   </g>
   <g id="text_8">
    <!-- +47% -->
    <g style="fill: #1f2328" transform="translate(173.785783 222.476892) scale(0.08 -0.08)">
     <defs>
      <path id="DejaVuSerif-34" d="M 2234 1581 
L 2234 4063 
L 641 1581 
L 2234 1581 
z
M 3609 0 
L 1484 0 
L 1484 331 
L 2234 331 
L 2234 1247 
L 197 1247 
L 197 1588 
L 2241 4750 
L 2859 4750 
L 2859 1581 
L 3750 1581 
L 3750 1247 
L 2859 1247 
L 2859 331 
L 3609 331 
L 3609 0 
z
" transform="scale(0.015625)"/>
      <path id="DejaVuSerif-37" d="M 3609 4347 
L 1784 0 
L 1319 0 
L 3059 4153 
L 903 4153 
L 903 3578 
L 538 3578 
L 538 4666 
L 3609 4666 
L 3609 4347 
z
" transform="scale(0.015625)"/>
     </defs>
     <use xlink:href="#DejaVuSerif-2b"/>
     <use xlink:href="#DejaVuSerif-34" transform="translate(83.789062 0)"/>
     <use xlink:href="#DejaVuSerif-37" transform="translate(147.412109 0)"/>
     <use xlink:href="#DejaVuSerif-25" transform="translate(211.035156 0)"/>
    </g>
   </g>
   <g id="text_9">
    <!-- r=+0.91 -->
    <g style="fill: #5a6470" transform="translate(170.696642 236.507217) scale(0.07 -0.07)">
     <defs>
      <path id="DejaVuSerif-Italic-31" d="M 447 0 
L 513 331 
L 1325 331 
L 2078 4213 
L 1019 3603 
L 1100 4013 
L 2381 4750 
L 2813 4750 
L 1953 331 
L 2766 331 
L 2700 0 
L 447 0 
z
" transform="scale(0.015625)"/>
     </defs>
     <use xlink:href="#DejaVuSerif-Italic-72"/>
     <use xlink:href="#DejaVuSerif-Italic-3d" transform="translate(47.802734 0)"/>
     <use xlink:href="#DejaVuSerif-Italic-2b" transform="translate(131.591797 0)"/>
     <use xlink:href="#DejaVuSerif-Italic-30" transform="translate(215.380859 0)"/>
     <use xlink:href="#DejaVuSerif-Italic-2e" transform="translate(279.003906 0)"/>
     <use xlink:href="#DejaVuSerif-Italic-39" transform="translate(310.791016 0)"/>
     <use xlink:href="#DejaVuSerif-Italic-31" transform="translate(374.414062 0)"/>
    </g>
   </g>
   <g id="text_10">
    <!-- Midwest -->
    <g style="fill: #1f2328" transform="translate(272.140096 165.527779) scale(0.09 -0.09)">
     <defs>
      <path id="DejaVuSerif-Bold-64" d="M 2747 1497 
L 2747 1825 
Q 2747 2406 2597 2665 
Q 2447 2925 2119 2925 
Q 1775 2925 1636 2651 
Q 1497 2378 1497 1663 
Q 1497 947 1637 672 
Q 1778 397 2119 397 
Q 2447 397 2597 656 
Q 2747 916 2747 1497 
z
M 3853 378 
L 4325 378 
L 4325 0 
L 2747 0 
L 2747 422 
Q 2606 163 2367 36 
Q 2128 -91 1778 -91 
Q 1072 -91 667 378 
Q 263 847 263 1663 
Q 263 2481 667 2947 
Q 1072 3413 1778 3413 
Q 2128 3413 2367 3286 
Q 2606 3159 2747 2900 
L 2747 4488 
L 2272 4488 
L 2272 4863 
L 3853 4863 
L 3853 378 
z
" transform="scale(0.015625)"/>
     </defs>
     <use xlink:href="#DejaVuSerif-Bold-4d"/>
     <use xlink:href="#DejaVuSerif-Bold-69" transform="translate(110.693359 0)"/>
     <use xlink:href="#DejaVuSerif-Bold-64" transform="translate(148.681641 0)"/>
     <use xlink:href="#DejaVuSerif-Bold-77" transform="translate(218.603516 0)"/>
     <use xlink:href="#DejaVuSerif-Bold-65" transform="translate(304.6875 0)"/>
     <use xlink:href="#DejaVuSerif-Bold-73" transform="translate(368.310547 0)"/>
     <use xlink:href="#DejaVuSerif-Bold-74" transform="translate(424.609375 0)"/>
    </g>
   </g>
   <g id="text_11">
    <!-- -25% -->
    <g style="fill: #1f2328" transform="translate(283.082753 186.711236) scale(0.08 -0.08)">
     <defs>
      <path id="DejaVuSerif-2d" d="M 281 1959 
L 1881 1959 
L 1881 1472 
L 281 1472 
L 281 1959 
z
" transform="scale(0.015625)"/>
      <path id="DejaVuSerif-35" d="M 3219 4666 
L 3219 4153 
L 1081 4153 
L 1081 2816 
Q 1244 2928 1461 2984 
Q 1678 3041 1947 3041 
Q 2703 3041 3140 2622 
Q 3578 2203 3578 1478 
Q 3578 738 3136 323 
Q 2694 -91 1894 -91 
Q 1572 -91 1234 -12 
Q 897 66 544 225 
L 544 1131 
L 897 1131 
Q 925 688 1179 453 
Q 1434 219 1894 219 
Q 2388 219 2653 544 
Q 2919 869 2919 1478 
Q 2919 2084 2655 2407 
Q 2391 2731 1894 2731 
Q 1613 2731 1398 2631 
Q 1184 2531 1019 2322 
L 750 2322 
L 750 4666 
L 3219 4666 
z
" transform="scale(0.015625)"/>
     </defs>
     <use xlink:href="#DejaVuSerif-2d"/>
     <use xlink:href="#DejaVuSerif-32" transform="translate(33.789062 0)"/>
     <use xlink:href="#DejaVuSerif-35" transform="translate(97.412109 0)"/>
     <use xlink:href="#DejaVuSerif-25" transform="translate(161.035156 0)"/>
    </g>
   </g>
   <g id="text_12">
    <!-- r=-0.38 -->
    <g style="fill: #5a6470" transform="translate(279.743612 200.741561) scale(0.07 -0.07)">
     <defs>
      <path id="DejaVuSerif-Italic-2d" d="M 328 1959 
L 1928 1959 
L 1834 1472 
L 234 1472 
L 328 1959 
z
" transform="scale(0.015625)"/>
      <path id="DejaVuSerif-Italic-33" d="M 1038 4469 
Q 1431 4606 1781 4678 
Q 2131 4750 2425 4750 
Q 3109 4750 3436 4454 
Q 3763 4159 3659 3634 
Q 3578 3213 3258 2930 
Q 2938 2647 2431 2547 
Q 2988 2466 3241 2130 
Q 3494 1794 3388 1259 
Q 3263 606 2755 257 
Q 2247 -91 1422 -91 
Q 1056 -91 723 -12 
Q 391 66 78 225 
L 253 1131 
L 603 1131 
Q 547 681 775 450 
Q 1003 219 1497 219 
Q 1975 219 2304 495 
Q 2634 772 2728 1253 
Q 2834 1803 2604 2086 
Q 2375 2369 1825 2369 
L 1528 2369 
L 1591 2688 
L 1747 2688 
Q 2294 2688 2611 2914 
Q 2928 3141 3019 3597 
Q 3097 4006 2914 4223 
Q 2731 4441 2309 4441 
Q 1888 4441 1616 4241 
Q 1344 4041 1228 3647 
L 878 3647 
L 1038 4469 
z
" transform="scale(0.015625)"/>
      <path id="DejaVuSerif-Italic-38" d="M 2775 1275 
Q 2872 1775 2678 2051 
Q 2484 2328 2034 2328 
Q 1584 2328 1281 2051 
Q 978 1775 881 1275 
Q 784 772 979 495 
Q 1175 219 1625 219 
Q 2075 219 2376 495 
Q 2678 772 2775 1275 
z
M 3088 3541 
Q 3172 3966 3001 4203 
Q 2831 4441 2444 4441 
Q 2059 4441 1796 4203 
Q 1534 3966 1450 3541 
Q 1369 3113 1539 2875 
Q 1709 2638 2094 2638 
Q 2481 2638 2743 2875 
Q 3006 3113 3088 3541 
z
M 2547 2484 
Q 3063 2413 3297 2092 
Q 3531 1772 3434 1275 
Q 3309 619 2823 264 
Q 2338 -91 1563 -91 
Q 791 -91 444 264 
Q 97 619 222 1275 
Q 319 1772 678 2092 
Q 1038 2413 1588 2484 
Q 1131 2569 932 2842 
Q 734 3116 816 3541 
Q 925 4103 1376 4426 
Q 1828 4750 2506 4750 
Q 3184 4750 3507 4426 
Q 3831 4103 3722 3541 
Q 3641 3116 3336 2842 
Q 3031 2569 2547 2484 
z
" transform="scale(0.015625)"/>
     </defs>
     <use xlink:href="#DejaVuSerif-Italic-72"/>
     <use xlink:href="#DejaVuSerif-Italic-3d" transform="translate(47.802734 0)"/>
     <use xlink:href="#DejaVuSerif-Italic-2d" transform="translate(131.591797 0)"/>
     <use xlink:href="#DejaVuSerif-Italic-30" transform="translate(165.380859 0)"/>
     <use xlink:href="#DejaVuSerif-Italic-2e" transform="translate(229.003906 0)"/>
     <use xlink:href="#DejaVuSerif-Italic-33" transform="translate(260.791016 0)"/>
     <use xlink:href="#DejaVuSerif-Italic-38" transform="translate(324.414062 0)"/>
    </g>
   </g>
   <g id="text_13">
    <!-- Northeast -->
    <g style="fill: #1f2328" transform="translate(375.395503 129.762123) scale(0.09 -0.09)">
     <use xlink:href="#DejaVuSerif-Bold-4e"/>
     <use xlink:href="#DejaVuSerif-Bold-6f" transform="translate(91.40625 0)"/>
     <use xlink:href="#DejaVuSerif-Bold-72" transform="translate(158.105469 0)"/>
     <use xlink:href="#DejaVuSerif-Bold-74" transform="translate(210.791016 0)"/>
     <use xlink:href="#DejaVuSerif-Bold-68" transform="translate(256.982422 0)"/>
     <use xlink:href="#DejaVuSerif-Bold-65" transform="translate(329.6875 0)"/>
     <use xlink:href="#DejaVuSerif-Bold-61" transform="translate(393.310547 0)"/>
     <use xlink:href="#DejaVuSerif-Bold-73" transform="translate(458.105469 0)"/>
     <use xlink:href="#DejaVuSerif-Bold-74" transform="translate(514.404297 0)"/>
    </g>
   </g>
   <g id="text_14">
    <!-- +3% -->
    <g style="fill: #1f2328" transform="translate(390.924722 150.945579) scale(0.08 -0.08)">
     <defs>
      <path id="DejaVuSerif-33" d="M 622 4469 
Q 988 4606 1323 4678 
Q 1659 4750 1953 4750 
Q 2638 4750 3022 4454 
Q 3406 4159 3406 3634 
Q 3406 3213 3140 2930 
Q 2875 2647 2388 2547 
Q 2963 2466 3280 2130 
Q 3597 1794 3597 1259 
Q 3597 606 3158 257 
Q 2719 -91 1894 -91 
Q 1528 -91 1179 -12 
Q 831 66 488 225 
L 488 1131 
L 838 1131 
Q 869 681 1141 450 
Q 1413 219 1906 219 
Q 2384 219 2661 495 
Q 2938 772 2938 1253 
Q 2938 1803 2653 2086 
Q 2369 2369 1819 2369 
L 1522 2369 
L 1522 2688 
L 1678 2688 
Q 2225 2688 2498 2914 
Q 2772 3141 2772 3597 
Q 2772 4006 2547 4223 
Q 2322 4441 1900 4441 
Q 1478 4441 1245 4241 
Q 1013 4041 972 3647 
L 622 3647 
L 622 4469 
z
" transform="scale(0.015625)"/>
     </defs>
     <use xlink:href="#DejaVuSerif-2b"/>
     <use xlink:href="#DejaVuSerif-33" transform="translate(83.789062 0)"/>
     <use xlink:href="#DejaVuSerif-25" transform="translate(147.412109 0)"/>
    </g>
   </g>
   <g id="text_15">
    <!-- r=+0.25 -->
    <g style="fill: #5a6470" transform="translate(385.290582 164.975904) scale(0.07 -0.07)">
     <defs>
      <path id="DejaVuSerif-Italic-32" d="M 1050 3553 
L 700 3553 
L 863 4384 
Q 1231 4563 1589 4656 
Q 1947 4750 2272 4750 
Q 3000 4750 3353 4397 
Q 3706 4044 3588 3438 
Q 3456 2753 2313 1800 
Q 2225 1728 2178 1691 
L 772 513 
L 2719 513 
L 2831 1088 
L 3197 1088 
L 2984 0 
L -25 0 
L 41 341 
L 1731 1753 
Q 2291 2222 2567 2614 
Q 2844 3006 2928 3438 
Q 3019 3909 2825 4175 
Q 2631 4441 2200 4441 
Q 1753 4441 1467 4219 
Q 1181 3997 1050 3553 
z
" transform="scale(0.015625)"/>
      <path id="DejaVuSerif-Italic-35" d="M 3681 4666 
L 3581 4153 
L 1444 4153 
L 1184 2816 
Q 1369 2928 1597 2984 
Q 1825 3041 2094 3041 
Q 2850 3041 3206 2622 
Q 3563 2203 3422 1478 
Q 3278 738 2754 323 
Q 2231 -91 1431 -91 
Q 1109 -91 787 -12 
Q 466 66 144 225 
L 319 1131 
L 672 1131 
Q 613 688 822 453 
Q 1031 219 1491 219 
Q 1984 219 2314 544 
Q 2644 869 2763 1478 
Q 2878 2084 2678 2407 
Q 2478 2731 1981 2731 
Q 1700 2731 1465 2631 
Q 1231 2531 1025 2322 
L 756 2322 
L 1213 4666 
L 3681 4666 
z
" transform="scale(0.015625)"/>
     </defs>
     <use xlink:href="#DejaVuSerif-Italic-72"/>
     <use xlink:href="#DejaVuSerif-Italic-3d" transform="translate(47.802734 0)"/>
     <use xlink:href="#DejaVuSerif-Italic-2b" transform="translate(131.591797 0)"/>
     <use xlink:href="#DejaVuSerif-Italic-30" transform="translate(215.380859 0)"/>
     <use xlink:href="#DejaVuSerif-Italic-2e" transform="translate(279.003906 0)"/>
     <use xlink:href="#DejaVuSerif-Italic-32" transform="translate(310.791016 0)"/>
     <use xlink:href="#DejaVuSerif-Italic-35" transform="translate(374.414062 0)"/>
    </g>
   </g>
   <g id="text_16">
    <!-- Southeast -->
    <g style="fill: #1f2328" transform="translate(339.592581 272.824749) scale(0.09 -0.09)">
     <use xlink:href="#DejaVuSerif-Bold-53"/>
     <use xlink:href="#DejaVuSerif-Bold-6f" transform="translate(72.216797 0)"/>
     <use xlink:href="#DejaVuSerif-Bold-75" transform="translate(138.916016 0)"/>
     <use xlink:href="#DejaVuSerif-Bold-74" transform="translate(211.621094 0)"/>
     <use xlink:href="#DejaVuSerif-Bold-68" transform="translate(257.8125 0)"/>
     <use xlink:href="#DejaVuSerif-Bold-65" transform="translate(330.517578 0)"/>
     <use xlink:href="#DejaVuSerif-Bold-61" transform="translate(394.140625 0)"/>
     <use xlink:href="#DejaVuSerif-Bold-73" transform="translate(458.935547 0)"/>
     <use xlink:href="#DejaVuSerif-Bold-74" transform="translate(515.234375 0)"/>
    </g>
   </g>
   <g id="text_17">
    <!-- -19% -->
    <g style="fill: #1f2328" transform="translate(354.614066 294.008205) scale(0.08 -0.08)">
     <defs>
      <path id="DejaVuSerif-39" d="M 2994 2091 
Q 2784 1856 2512 1740 
Q 2241 1625 1900 1625 
Q 1206 1625 804 2044 
Q 403 2463 403 3188 
Q 403 3897 839 4323 
Q 1275 4750 2003 4750 
Q 2794 4750 3217 4161 
Q 3641 3572 3641 2478 
Q 3641 1253 3137 581 
Q 2634 -91 1722 -91 
Q 1475 -91 1203 -44 
Q 931 3 647 97 
L 647 872 
L 997 872 
Q 1038 556 1241 387 
Q 1444 219 1784 219 
Q 2391 219 2687 676 
Q 2984 1134 2994 2091 
z
M 1978 4441 
Q 1534 4441 1298 4117 
Q 1063 3794 1063 3188 
Q 1063 2581 1298 2256 
Q 1534 1931 1978 1931 
Q 2422 1931 2658 2245 
Q 2894 2559 2894 3150 
Q 2894 3772 2656 4106 
Q 2419 4441 1978 4441 
z
" transform="scale(0.015625)"/>
     </defs>
     <use xlink:href="#DejaVuSerif-2d"/>
     <use xlink:href="#DejaVuSerif-31" transform="translate(33.789062 0)"/>
     <use xlink:href="#DejaVuSerif-39" transform="translate(97.412109 0)"/>
     <use xlink:href="#DejaVuSerif-25" transform="translate(161.035156 0)"/>
    </g>
   </g>
   <g id="text_18">
    <!-- r=+0.02 -->
    <g style="fill: #5a6470" transform="translate(349.524925 308.038531) scale(0.07 -0.07)">
     <use xlink:href="#DejaVuSerif-Italic-72"/>
     <use xlink:href="#DejaVuSerif-Italic-3d" transform="translate(47.802734 0)"/>
     <use xlink:href="#DejaVuSerif-Italic-2b" transform="translate(131.591797 0)"/>
     <use xlink:href="#DejaVuSerif-Italic-30" transform="translate(215.380859 0)"/>
     <use xlink:href="#DejaVuSerif-Italic-2e" transform="translate(279.003906 0)"/>
     <use xlink:href="#DejaVuSerif-Italic-30" transform="translate(310.791016 0)"/>
     <use xlink:href="#DejaVuSerif-Italic-32" transform="translate(374.414062 0)"/>
    </g>
   </g>
   <g id="text_19">
    <!-- NSAA regions: visit growth (2000→2024) × correlation with real GDP -->
    <g transform="translate(7.2 15.558281) scale(0.11 -0.11)">
     <defs>
      <path id="DejaVuSerif-Bold-41" d="M -50 0 
L -50 378 
L 331 378 
L 2088 4666 
L 2834 4666 
L 4594 378 
L 5038 378 
L 5038 0 
L 2853 0 
L 2853 378 
L 3309 378 
L 2925 1331 
L 1172 1331 
L 781 378 
L 1338 378 
L 1338 0 
L -50 0 
z
M 1325 1709 
L 2772 1709 
L 2053 3494 
L 1325 1709 
z
" transform="scale(0.015625)"/>
      <path id="DejaVuSerif-Bold-67" d="M 3853 2944 
L 3853 44 
Q 3853 -656 3354 -1039 
Q 2856 -1422 1947 -1422 
Q 1616 -1422 1275 -1370 
Q 934 -1319 575 -1216 
L 575 -422 
L 928 -422 
Q 975 -750 1192 -909 
Q 1409 -1069 1813 -1069 
Q 2325 -1069 2536 -823 
Q 2747 -578 2747 44 
L 2747 422 
Q 2606 163 2367 36 
Q 2128 -91 1778 -91 
Q 1072 -91 667 378 
Q 263 847 263 1663 
Q 263 2481 667 2947 
Q 1072 3413 1778 3413 
Q 2128 3413 2367 3286 
Q 2606 3159 2747 2900 
L 2747 3322 
L 4325 3322 
L 4325 2944 
L 3853 2944 
z
M 2747 1825 
Q 2747 2406 2597 2665 
Q 2447 2925 2119 2925 
Q 1775 2925 1636 2651 
Q 1497 2378 1497 1663 
Q 1497 947 1637 672 
Q 1778 397 2119 397 
Q 2447 397 2597 656 
Q 2747 916 2747 1497 
L 2747 1825 
z
" transform="scale(0.015625)"/>
      <path id="DejaVuSerif-Bold-3a" d="M 588 2541 
Q 588 2788 761 2963 
Q 934 3138 1178 3138 
Q 1422 3138 1597 2961 
Q 1772 2784 1772 2541 
Q 1772 2297 1598 2125 
Q 1425 1953 1178 1953 
Q 931 1953 759 2125 
Q 588 2297 588 2541 
z
M 588 506 
Q 588 750 761 925 
Q 934 1100 1178 1100 
Q 1422 1100 1597 925 
Q 1772 750 1772 506 
Q 1772 259 1597 84 
Q 1422 -91 1178 -91 
Q 934 -91 761 84 
Q 588 259 588 506 
z
" transform="scale(0.015625)"/>
      <path id="DejaVuSerif-Bold-76" d="M 1428 0 
L 250 2944 
L -116 2944 
L -116 3322 
L 1791 3322 
L 1791 2944 
L 1388 2944 
L 2228 844 
L 3066 2944 
L 2631 2944 
L 2631 3322 
L 3878 3322 
L 3878 2944 
L 3494 2944 
L 2316 0 
L 1428 0 
z
" transform="scale(0.015625)"/>
      <path id="DejaVuSerif-Bold-28" d="M 2694 -997 
Q 1641 -606 1122 122 
Q 603 850 603 1931 
Q 603 3013 1115 3731 
Q 1628 4450 2694 4863 
L 2694 4488 
Q 2200 4188 1983 3598 
Q 1766 3009 1766 1931 
Q 1766 856 1983 267 
Q 2200 -322 2694 -622 
L 2694 -997 
z
" transform="scale(0.015625)"/>
      <path id="DejaVuSerif-Bold-32" d="M 844 3513 
L 469 3513 
L 469 4519 
Q 850 4634 1223 4692 
Q 1597 4750 1978 4750 
Q 2869 4750 3367 4386 
Q 3866 4022 3866 3372 
Q 3866 2909 3591 2542 
Q 3316 2175 2541 1672 
L 1241 819 
L 3450 819 
L 3450 1369 
L 3878 1369 
L 3878 0 
L 428 0 
L 428 763 
L 1119 1241 
Q 2003 1850 2297 2278 
Q 2591 2706 2591 3278 
Q 2591 3819 2367 4101 
Q 2144 4384 1716 4384 
Q 1347 4384 1125 4161 
Q 903 3938 844 3513 
z
" transform="scale(0.015625)"/>
      <path id="DejaVuSerif-Bold-30" d="M 2228 275 
Q 2603 275 2742 615 
Q 2881 956 2881 2328 
Q 2881 3691 2742 4037 
Q 2603 4384 2228 4384 
Q 1853 4384 1714 4043 
Q 1575 3703 1575 2328 
Q 1575 956 1714 615 
Q 1853 275 2228 275 
z
M 2228 -91 
Q 1294 -91 797 532 
Q 300 1156 300 2328 
Q 300 3500 797 4125 
Q 1294 4750 2228 4750 
Q 3159 4750 3656 4125 
Q 4153 3500 4153 2328 
Q 4153 1156 3656 532 
Q 3159 -91 2228 -91 
z
" transform="scale(0.015625)"/>
      <path id="DejaVuSerif-Bold-2192" d="M 366 1725 
L 366 2413 
L 4066 2413 
L 3659 3375 
L 3822 3375 
L 5125 2084 
L 5125 2053 
L 3822 763 
L 3659 763 
L 4066 1725 
L 366 1725 
z
" transform="scale(0.015625)"/>
      <path id="DejaVuSerif-Bold-34" d="M 4084 0 
L 1516 0 
L 1516 378 
L 2209 378 
L 2209 1228 
L 263 1228 
L 263 1588 
L 2216 4750 
L 3391 4750 
L 3391 1631 
L 4191 1631 
L 4191 1228 
L 3391 1228 
L 3391 378 
L 4084 378 
L 4084 0 
z
M 2209 1631 
L 2209 3897 
L 819 1631 
L 2209 1631 
z
" transform="scale(0.015625)"/>
      <path id="DejaVuSerif-Bold-29" d="M 325 -997 
L 325 -622 
Q 819 -322 1036 267 
Q 1253 856 1253 1931 
Q 1253 3009 1036 3598 
Q 819 4188 325 4488 
L 325 4863 
Q 1391 4450 1905 3731 
Q 2419 3013 2419 1931 
Q 2419 850 1898 122 
Q 1378 -606 325 -997 
z
" transform="scale(0.015625)"/>
      <path id="DejaVuSerif-Bold-d7" d="M 4538 3378 
L 3163 2003 
L 4538 628 
L 4056 147 
L 2681 1522 
L 1306 147 
L 825 628 
L 2203 2003 
L 825 3378 
L 1306 3866 
L 2681 2491 
L 4056 3866 
L 4538 3378 
z
" transform="scale(0.015625)"/>
      <path id="DejaVuSerif-Bold-6c" d="M 1797 378 
L 2272 378 
L 2272 0 
L 219 0 
L 219 378 
L 691 378 
L 691 4488 
L 219 4488 
L 219 4863 
L 1797 4863 
L 1797 378 
z
" transform="scale(0.015625)"/>
      <path id="DejaVuSerif-Bold-47" d="M 4403 3200 
Q 4263 3819 3934 4095 
Q 3606 4372 3009 4372 
Q 2284 4372 1945 3880 
Q 1606 3388 1606 2328 
Q 1606 1278 1931 783 
Q 2256 288 2944 288 
Q 3206 288 3431 347 
Q 3656 406 3841 525 
L 3841 1806 
L 3278 1806 
L 3278 2181 
L 4959 2181 
L 4959 391 
Q 4434 147 3911 28 
Q 3388 -91 2841 -91 
Q 1641 -91 955 556 
Q 269 1203 269 2328 
Q 269 3456 955 4103 
Q 1641 4750 2841 4750 
Q 3341 4750 3825 4650 
Q 4309 4550 4800 4347 
L 4800 3200 
L 4403 3200 
z
" transform="scale(0.015625)"/>
      <path id="DejaVuSerif-Bold-44" d="M 2100 378 
L 2534 378 
Q 3266 378 3605 847 
Q 3944 1316 3944 2338 
Q 3944 3353 3606 3820 
Q 3269 4288 2534 4288 
L 2100 4288 
L 2100 378 
z
M 300 0 
L 300 378 
L 897 378 
L 897 4288 
L 300 4288 
L 300 4666 
L 2694 4666 
Q 3950 4666 4615 4066 
Q 5281 3466 5281 2338 
Q 5281 1203 4614 601 
Q 3947 0 2694 0 
L 300 0 
z
" transform="scale(0.015625)"/>
     </defs>
     <use xlink:href="#DejaVuSerif-Bold-4e"/>
     <use xlink:href="#DejaVuSerif-Bold-53" transform="translate(91.40625 0)"/>
     <use xlink:href="#DejaVuSerif-Bold-41" transform="translate(163.623047 0)"/>
     <use xlink:href="#DejaVuSerif-Bold-41" transform="translate(241.210938 0)"/>
     <use xlink:href="#DejaVuSerif-Bold-20" transform="translate(318.798828 0)"/>
     <use xlink:href="#DejaVuSerif-Bold-72" transform="translate(353.613281 0)"/>
     <use xlink:href="#DejaVuSerif-Bold-65" transform="translate(406.298828 0)"/>
     <use xlink:href="#DejaVuSerif-Bold-67" transform="translate(469.921875 0)"/>
     <use xlink:href="#DejaVuSerif-Bold-69" transform="translate(539.84375 0)"/>
     <use xlink:href="#DejaVuSerif-Bold-6f" transform="translate(577.832031 0)"/>
     <use xlink:href="#DejaVuSerif-Bold-6e" transform="translate(644.53125 0)"/>
     <use xlink:href="#DejaVuSerif-Bold-73" transform="translate(717.236328 0)"/>
     <use xlink:href="#DejaVuSerif-Bold-3a" transform="translate(773.535156 0)"/>
     <use xlink:href="#DejaVuSerif-Bold-20" transform="translate(810.449219 0)"/>
     <use xlink:href="#DejaVuSerif-Bold-76" transform="translate(845.263672 0)"/>
     <use xlink:href="#DejaVuSerif-Bold-69" transform="translate(903.369141 0)"/>
     <use xlink:href="#DejaVuSerif-Bold-73" transform="translate(941.357422 0)"/>
     <use xlink:href="#DejaVuSerif-Bold-69" transform="translate(997.65625 0)"/>
     <use xlink:href="#DejaVuSerif-Bold-74" transform="translate(1035.644531 0)"/>
     <use xlink:href="#DejaVuSerif-Bold-20" transform="translate(1081.835938 0)"/>
     <use xlink:href="#DejaVuSerif-Bold-67" transform="translate(1116.650391 0)"/>
     <use xlink:href="#DejaVuSerif-Bold-72" transform="translate(1186.572266 0)"/>
     <use xlink:href="#DejaVuSerif-Bold-6f" transform="translate(1239.257812 0)"/>
     <use xlink:href="#DejaVuSerif-Bold-77" transform="translate(1305.957031 0)"/>
     <use xlink:href="#DejaVuSerif-Bold-74" transform="translate(1392.041016 0)"/>
     <use xlink:href="#DejaVuSerif-Bold-68" transform="translate(1438.232422 0)"/>
     <use xlink:href="#DejaVuSerif-Bold-20" transform="translate(1510.9375 0)"/>
     <use xlink:href="#DejaVuSerif-Bold-28" transform="translate(1545.751953 0)"/>
     <use xlink:href="#DejaVuSerif-Bold-32" transform="translate(1593.066406 0)"/>
     <use xlink:href="#DejaVuSerif-Bold-30" transform="translate(1662.646484 0)"/>
     <use xlink:href="#DejaVuSerif-Bold-30" transform="translate(1732.226562 0)"/>
     <use xlink:href="#DejaVuSerif-Bold-30" transform="translate(1801.806641 0)"/>
     <use xlink:href="#DejaVuSerif-Bold-2192" transform="translate(1871.386719 0)"/>
     <use xlink:href="#DejaVuSerif-Bold-32" transform="translate(1955.175781 0)"/>
     <use xlink:href="#DejaVuSerif-Bold-30" transform="translate(2024.755859 0)"/>
     <use xlink:href="#DejaVuSerif-Bold-32" transform="translate(2094.335938 0)"/>
     <use xlink:href="#DejaVuSerif-Bold-34" transform="translate(2163.916016 0)"/>
     <use xlink:href="#DejaVuSerif-Bold-29" transform="translate(2233.496094 0)"/>
     <use xlink:href="#DejaVuSerif-Bold-20" transform="translate(2280.810547 0)"/>
     <use xlink:href="#DejaVuSerif-Bold-d7" transform="translate(2315.625 0)"/>
     <use xlink:href="#DejaVuSerif-Bold-20" transform="translate(2399.414062 0)"/>
     <use xlink:href="#DejaVuSerif-Bold-63" transform="translate(2434.228516 0)"/>
     <use xlink:href="#DejaVuSerif-Bold-6f" transform="translate(2495.117188 0)"/>
     <use xlink:href="#DejaVuSerif-Bold-72" transform="translate(2561.816406 0)"/>
     <use xlink:href="#DejaVuSerif-Bold-72" transform="translate(2614.501953 0)"/>
     <use xlink:href="#DejaVuSerif-Bold-65" transform="translate(2667.1875 0)"/>
     <use xlink:href="#DejaVuSerif-Bold-6c" transform="translate(2730.810547 0)"/>
     <use xlink:href="#DejaVuSerif-Bold-61" transform="translate(2768.798828 0)"/>
     <use xlink:href="#DejaVuSerif-Bold-74" transform="translate(2833.59375 0)"/>
     <use xlink:href="#DejaVuSerif-Bold-69" transform="translate(2879.785156 0)"/>
     <use xlink:href="#DejaVuSerif-Bold-6f" transform="translate(2917.773438 0)"/>
     <use xlink:href="#DejaVuSerif-Bold-6e" transform="translate(2984.472656 0)"/>
     <use xlink:href="#DejaVuSerif-Bold-20" transform="translate(3057.177734 0)"/>
     <use xlink:href="#DejaVuSerif-Bold-77" transform="translate(3091.992188 0)"/>
     <use xlink:href="#DejaVuSerif-Bold-69" transform="translate(3178.076172 0)"/>
     <use xlink:href="#DejaVuSerif-Bold-74" transform="translate(3216.064453 0)"/>
     <use xlink:href="#DejaVuSerif-Bold-68" transform="translate(3262.255859 0)"/>
     <use xlink:href="#DejaVuSerif-Bold-20" transform="translate(3334.960938 0)"/>
     <use xlink:href="#DejaVuSerif-Bold-72" transform="translate(3369.775391 0)"/>
     <use xlink:href="#DejaVuSerif-Bold-65" transform="translate(3422.460938 0)"/>
     <use xlink:href="#DejaVuSerif-Bold-61" transform="translate(3486.083984 0)"/>
     <use xlink:href="#DejaVuSerif-Bold-6c" transform="translate(3550.878906 0)"/>
     <use xlink:href="#DejaVuSerif-Bold-20" transform="translate(3588.867188 0)"/>
     <use xlink:href="#DejaVuSerif-Bold-47" transform="translate(3623.681641 0)"/>
     <use xlink:href="#DejaVuSerif-Bold-44" transform="translate(3709.082031 0)"/>
     <use xlink:href="#DejaVuSerif-Bold-50" transform="translate(3795.800781 0)"/>
    </g>
   </g>
  </g>
  <g id="axes_2">
   <g id="patch_8">
    <path d="M 590.005159 273.567674 
L 649.381118 273.567674 
L 649.381118 214.191715 
L 590.005159 214.191715 
z
" clip-path="url(#p5de4051b74)" style="fill: #e8e8e8; stroke: #ffffff; stroke-linejoin: miter"/>
   </g>
   <g id="patch_9">
    <path d="M 649.381118 273.567674 
L 708.757077 273.567674 
L 708.757077 214.191715 
L 649.381118 214.191715 
z
" clip-path="url(#p5de4051b74)" style="fill: #dec5b9; stroke: #ffffff; stroke-linejoin: miter"/>
   </g>
   <g id="patch_10">
    <path d="M 708.757077 273.567674 
L 768.133035 273.567674 
L 768.133035 214.191715 
L 708.757077 214.191715 
z
" clip-path="url(#p5de4051b74)" style="fill: #cb8b78; stroke: #ffffff; stroke-linejoin: miter"/>
   </g>
   <g id="patch_11">
    <path d="M 590.005159 214.191715 
L 649.381118 214.191715 
L 649.381118 154.815756 
L 590.005159 154.815756 
z
" clip-path="url(#p5de4051b74)" style="fill: #cae6f0; stroke: #ffffff; stroke-linejoin: miter"/>
   </g>
   <g id="patch_12">
    <path d="M 649.381118 214.191715 
L 708.757077 214.191715 
L 708.757077 154.815756 
L 649.381118 154.815756 
z
" clip-path="url(#p5de4051b74)" style="fill: #a695af; stroke: #ffffff; stroke-linejoin: miter"/>
   </g>
   <g id="patch_13">
    <path d="M 708.757077 214.191715 
L 768.133035 214.191715 
L 768.133035 154.815756 
L 708.757077 154.815756 
z
" clip-path="url(#p5de4051b74)" style="fill: #985676; stroke: #ffffff; stroke-linejoin: miter"/>
   </g>
   <g id="patch_14">
    <path d="M 590.005159 154.815756 
L 649.381118 154.815756 
L 649.381118 95.439798 
L 590.005159 95.439798 
z
" clip-path="url(#p5de4051b74)" style="fill: #5ac8c8; stroke: #ffffff; stroke-linejoin: miter"/>
   </g>
   <g id="patch_15">
    <path d="M 649.381118 154.815756 
L 708.757077 154.815756 
L 708.757077 95.439798 
L 649.381118 95.439798 
z
" clip-path="url(#p5de4051b74)" style="fill: #5698b9; stroke: #ffffff; stroke-linejoin: miter"/>
   </g>
   <g id="patch_16">
    <path d="M 708.757077 154.815756 
L 768.133035 154.815756 
L 768.133035 95.439798 
L 708.757077 95.439798 
z
" clip-path="url(#p5de4051b74)" style="fill: #3a4f7c; stroke: #ffffff; stroke-linejoin: miter"/>
   </g>
   <g id="patch_17">
    <path d="M 592.002719 273.567674 
Q 685.005719 273.567674 776.890684 273.567674 
" style="fill: none; stroke: #1f2328; stroke-linecap: round"/>
    <path d="M 772.890684 271.567674 
L 776.890684 273.567674 
L 772.890684 275.567674 
" style="fill: none; stroke: #1f2328; stroke-linecap: round"/>
   </g>
   <g id="patch_18">
    <path d="M 590.005159 271.570114 
Q 590.005159 178.567114 590.005159 86.682149 
" style="fill: none; stroke: #1f2328; stroke-linecap: round"/>
    <path d="M 588.005159 90.682149 
L 590.005159 86.682149 
L 592.005159 90.682149 
" style="fill: none; stroke: #1f2328; stroke-linecap: round"/>
   </g>
   <g id="text_20">
    <!-- visit growth → -->
    <g style="fill: #1f2328" transform="translate(646.600191 298.219055) scale(0.09 -0.09)">
     <defs>
      <path id="DejaVuSerif-76" d="M 1581 0 
L 359 2988 
L -19 2988 
L -19 3322 
L 1509 3322 
L 1509 2988 
L 978 2988 
L 1913 703 
L 2847 2988 
L 2350 2988 
L 2350 3322 
L 3597 3322 
L 3597 2988 
L 3225 2988 
L 2003 0 
L 1581 0 
z
" transform="scale(0.015625)"/>
      <path id="DejaVuSerif-69" d="M 622 4353 
Q 622 4497 726 4603 
Q 831 4709 978 4709 
Q 1122 4709 1226 4603 
Q 1331 4497 1331 4353 
Q 1331 4206 1228 4103 
Q 1125 4000 978 4000 
Q 831 4000 726 4103 
Q 622 4206 622 4353 
z
M 1356 331 
L 1900 331 
L 1900 0 
L 231 0 
L 231 331 
L 781 331 
L 781 2988 
L 231 2988 
L 231 3322 
L 1356 3322 
L 1356 331 
z
" transform="scale(0.015625)"/>
      <path id="DejaVuSerif-73" d="M 359 184 
L 359 959 
L 691 959 
Q 703 588 923 403 
Q 1144 219 1575 219 
Q 1963 219 2166 364 
Q 2369 509 2369 788 
Q 2369 1006 2220 1140 
Q 2072 1275 1594 1428 
L 1178 1569 
Q 750 1706 558 1912 
Q 366 2119 366 2438 
Q 366 2894 700 3153 
Q 1034 3413 1625 3413 
Q 1888 3413 2178 3344 
Q 2469 3275 2778 3144 
L 2778 2419 
L 2447 2419 
Q 2434 2741 2221 2922 
Q 2009 3103 1644 3103 
Q 1281 3103 1095 2975 
Q 909 2847 909 2591 
Q 909 2381 1050 2254 
Q 1191 2128 1613 1997 
L 2069 1856 
Q 2541 1709 2748 1489 
Q 2956 1269 2956 922 
Q 2956 450 2595 179 
Q 2234 -91 1600 -91 
Q 1278 -91 972 -22 
Q 666 47 359 184 
z
" transform="scale(0.015625)"/>
      <path id="DejaVuSerif-74" d="M 691 2988 
L 184 2988 
L 184 3322 
L 691 3322 
L 691 4353 
L 1269 4353 
L 1269 3322 
L 2350 3322 
L 2350 2988 
L 1269 2988 
L 1269 878 
Q 1269 456 1350 337 
Q 1431 219 1650 219 
Q 1875 219 1978 351 
Q 2081 484 2088 781 
L 2522 781 
Q 2497 328 2275 118 
Q 2053 -91 1600 -91 
Q 1103 -91 897 129 
Q 691 350 691 878 
L 691 2988 
z
" transform="scale(0.015625)"/>
      <path id="DejaVuSerif-20" transform="scale(0.015625)"/>
      <path id="DejaVuSerif-67" d="M 3359 2988 
L 3359 72 
Q 3359 -644 2965 -1033 
Q 2572 -1422 1844 -1422 
Q 1516 -1422 1216 -1362 
Q 916 -1303 641 -1184 
L 641 -488 
L 941 -488 
Q 997 -813 1206 -963 
Q 1416 -1113 1806 -1113 
Q 2313 -1113 2548 -827 
Q 2784 -541 2784 72 
L 2784 519 
Q 2616 206 2355 57 
Q 2094 -91 1709 -91 
Q 1097 -91 708 395 
Q 319 881 319 1663 
Q 319 2444 706 2928 
Q 1094 3413 1709 3413 
Q 2094 3413 2355 3264 
Q 2616 3116 2784 2803 
L 2784 3322 
L 3909 3322 
L 3909 2988 
L 3359 2988 
z
M 2784 1825 
Q 2784 2422 2554 2737 
Q 2325 3053 1888 3053 
Q 1444 3053 1217 2703 
Q 991 2353 991 1663 
Q 991 975 1217 622 
Q 1444 269 1888 269 
Q 2325 269 2554 583 
Q 2784 897 2784 1497 
L 2784 1825 
z
" transform="scale(0.015625)"/>
      <path id="DejaVuSerif-72" d="M 3059 3328 
L 3059 2497 
L 2728 2497 
Q 2713 2744 2591 2866 
Q 2469 2988 2234 2988 
Q 1809 2988 1582 2694 
Q 1356 2400 1356 1850 
L 1356 331 
L 2022 331 
L 2022 0 
L 263 0 
L 263 331 
L 781 331 
L 781 2994 
L 231 2994 
L 231 3322 
L 1356 3322 
L 1356 2731 
Q 1525 3078 1790 3245 
Q 2056 3413 2438 3413 
Q 2578 3413 2733 3391 
Q 2888 3369 3059 3328 
z
" transform="scale(0.015625)"/>
      <path id="DejaVuSerif-6f" d="M 1925 219 
Q 2388 219 2623 584 
Q 2859 950 2859 1663 
Q 2859 2375 2623 2739 
Q 2388 3103 1925 3103 
Q 1463 3103 1227 2739 
Q 991 2375 991 1663 
Q 991 950 1228 584 
Q 1466 219 1925 219 
z
M 1925 -91 
Q 1200 -91 759 389 
Q 319 869 319 1663 
Q 319 2456 758 2934 
Q 1197 3413 1925 3413 
Q 2653 3413 3092 2934 
Q 3531 2456 3531 1663 
Q 3531 869 3092 389 
Q 2653 -91 1925 -91 
z
" transform="scale(0.015625)"/>
      <path id="DejaVuSerif-77" d="M 3072 3322 
L 3922 728 
L 4672 2988 
L 4191 2988 
L 4191 3322 
L 5394 3322 
L 5394 2988 
L 5025 2988 
L 4038 0 
L 3559 0 
L 2741 2484 
L 1919 0 
L 1459 0 
L 475 2988 
L 103 2988 
L 103 3322 
L 1606 3322 
L 1606 2988 
L 1069 2988 
L 1813 728 
L 2669 3322 
L 3072 3322 
z
" transform="scale(0.015625)"/>
      <path id="DejaVuSerif-68" d="M 263 0 
L 263 331 
L 781 331 
L 781 4531 
L 231 4531 
L 231 4863 
L 1356 4863 
L 1356 2731 
Q 1516 3069 1770 3241 
Q 2025 3413 2363 3413 
Q 2913 3413 3172 3097 
Q 3431 2781 3431 2113 
L 3431 331 
L 3944 331 
L 3944 0 
L 2356 0 
L 2356 331 
L 2853 331 
L 2853 1931 
Q 2853 2541 2704 2764 
Q 2556 2988 2175 2988 
Q 1775 2988 1565 2697 
Q 1356 2406 1356 1850 
L 1356 331 
L 1856 331 
L 1856 0 
L 263 0 
z
" transform="scale(0.015625)"/>
      <path id="DejaVuSerif-2192" d="M 366 2322 
L 4391 2322 
L 3788 3375 
L 3822 3375 
L 5125 2084 
L 5125 2053 
L 3822 763 
L 3788 763 
L 4391 1816 
L 366 1816 
L 366 2322 
z
" transform="scale(0.015625)"/>
     </defs>
     <use xlink:href="#DejaVuSerif-76"/>
     <use xlink:href="#DejaVuSerif-69" transform="translate(56.494141 0)"/>
     <use xlink:href="#DejaVuSerif-73" transform="translate(88.476562 0)"/>
     <use xlink:href="#DejaVuSerif-69" transform="translate(139.794922 0)"/>
     <use xlink:href="#DejaVuSerif-74" transform="translate(171.777344 0)"/>
     <use xlink:href="#DejaVuSerif-20" transform="translate(211.962891 0)"/>
     <use xlink:href="#DejaVuSerif-67" transform="translate(243.75 0)"/>
     <use xlink:href="#DejaVuSerif-72" transform="translate(307.763672 0)"/>
     <use xlink:href="#DejaVuSerif-6f" transform="translate(355.566406 0)"/>
     <use xlink:href="#DejaVuSerif-77" transform="translate(415.771484 0)"/>
     <use xlink:href="#DejaVuSerif-74" transform="translate(501.367188 0)"/>
     <use xlink:href="#DejaVuSerif-68" transform="translate(541.552734 0)"/>
     <use xlink:href="#DejaVuSerif-20" transform="translate(605.957031 0)"/>
     <use xlink:href="#DejaVuSerif-2192" transform="translate(637.744141 0)"/>
    </g>
   </g>
   <g id="text_21">
    <!-- GDP correlation → -->
    <g style="fill: #1f2328" transform="translate(579.227046 226.537251) rotate(-90) scale(0.09 -0.09)">
     <defs>
      <path id="DejaVuSerif-47" d="M 4097 3272 
Q 3988 3856 3641 4136 
Q 3294 4416 2675 4416 
Q 1869 4416 1472 3897 
Q 1075 3378 1075 2328 
Q 1075 1300 1484 772 
Q 1894 244 2688 244 
Q 3041 244 3362 331 
Q 3684 419 3975 594 
L 3975 1797 
L 3097 1797 
L 3097 2131 
L 4609 2131 
L 4609 391 
Q 4194 150 3714 29 
Q 3234 -91 2688 -91 
Q 1631 -91 995 570 
Q 359 1231 359 2328 
Q 359 3434 996 4092 
Q 1634 4750 2713 4750 
Q 3113 4750 3539 4658 
Q 3966 4566 4447 4378 
L 4447 3272 
L 4097 3272 
z
" transform="scale(0.015625)"/>
      <path id="DejaVuSerif-44" d="M 1581 331 
L 2163 331 
Q 3072 331 3558 850 
Q 4044 1369 4044 2338 
Q 4044 3306 3559 3818 
Q 3075 4331 2163 4331 
L 1581 4331 
L 1581 331 
z
M 353 0 
L 353 331 
L 947 331 
L 947 4331 
L 353 4331 
L 353 4666 
L 2209 4666 
Q 3416 4666 4089 4050 
Q 4763 3434 4763 2338 
Q 4763 1238 4088 619 
Q 3413 0 2209 0 
L 353 0 
z
" transform="scale(0.015625)"/>
      <path id="DejaVuSerif-50" d="M 1581 2375 
L 2406 2375 
Q 2872 2375 3115 2626 
Q 3359 2878 3359 3353 
Q 3359 3831 3115 4081 
Q 2872 4331 2406 4331 
L 1581 4331 
L 1581 2375 
z
M 353 0 
L 353 331 
L 947 331 
L 947 4331 
L 353 4331 
L 353 4666 
L 2559 4666 
Q 3259 4666 3668 4311 
Q 4078 3956 4078 3353 
Q 4078 2753 3668 2397 
Q 3259 2041 2559 2041 
L 1581 2041 
L 1581 331 
L 2303 331 
L 2303 0 
L 353 0 
z
" transform="scale(0.015625)"/>
      <path id="DejaVuSerif-63" d="M 3291 997 
Q 3169 466 2822 187 
Q 2475 -91 1925 -91 
Q 1200 -91 759 389 
Q 319 869 319 1663 
Q 319 2459 759 2936 
Q 1200 3413 1925 3413 
Q 2241 3413 2553 3339 
Q 2866 3266 3181 3116 
L 3181 2266 
L 2847 2266 
Q 2781 2703 2561 2903 
Q 2341 3103 1931 3103 
Q 1466 3103 1228 2742 
Q 991 2381 991 1663 
Q 991 944 1227 581 
Q 1463 219 1931 219 
Q 2303 219 2525 412 
Q 2747 606 2828 997 
L 3291 997 
z
" transform="scale(0.015625)"/>
      <path id="DejaVuSerif-65" d="M 3469 1600 
L 991 1600 
L 991 1575 
Q 991 903 1244 561 
Q 1497 219 1991 219 
Q 2369 219 2611 417 
Q 2853 616 2950 1006 
L 3413 1006 
Q 3275 459 2904 184 
Q 2534 -91 1931 -91 
Q 1203 -91 761 389 
Q 319 869 319 1663 
Q 319 2450 753 2931 
Q 1188 3413 1894 3413 
Q 2647 3413 3050 2948 
Q 3453 2484 3469 1600 
z
M 2791 1931 
Q 2772 2513 2545 2808 
Q 2319 3103 1894 3103 
Q 1497 3103 1269 2806 
Q 1041 2509 991 1931 
L 2791 1931 
z
" transform="scale(0.015625)"/>
      <path id="DejaVuSerif-6c" d="M 1313 331 
L 1856 331 
L 1856 0 
L 184 0 
L 184 331 
L 738 331 
L 738 4531 
L 184 4531 
L 184 4863 
L 1313 4863 
L 1313 331 
z
" transform="scale(0.015625)"/>
      <path id="DejaVuSerif-61" d="M 2547 1044 
L 2547 1747 
L 1806 1747 
Q 1378 1747 1168 1562 
Q 959 1378 959 997 
Q 959 650 1171 447 
Q 1384 244 1747 244 
Q 2106 244 2326 466 
Q 2547 688 2547 1044 
z
M 3122 2075 
L 3122 331 
L 3634 331 
L 3634 0 
L 2547 0 
L 2547 359 
Q 2356 128 2106 18 
Q 1856 -91 1522 -91 
Q 969 -91 644 203 
Q 319 497 319 997 
Q 319 1513 691 1797 
Q 1063 2081 1741 2081 
L 2547 2081 
L 2547 2309 
Q 2547 2688 2317 2895 
Q 2088 3103 1672 3103 
Q 1328 3103 1125 2947 
Q 922 2791 872 2484 
L 575 2484 
L 575 3156 
Q 875 3284 1158 3348 
Q 1441 3413 1709 3413 
Q 2400 3413 2761 3070 
Q 3122 2728 3122 2075 
z
" transform="scale(0.015625)"/>
      <path id="DejaVuSerif-6e" d="M 263 0 
L 263 331 
L 781 331 
L 781 2988 
L 231 2988 
L 231 3322 
L 1356 3322 
L 1356 2731 
Q 1516 3069 1770 3241 
Q 2025 3413 2363 3413 
Q 2913 3413 3172 3097 
Q 3431 2781 3431 2113 
L 3431 331 
L 3944 331 
L 3944 0 
L 2356 0 
L 2356 331 
L 2853 331 
L 2853 1931 
Q 2853 2541 2703 2767 
Q 2553 2994 2175 2994 
Q 1775 2994 1565 2701 
Q 1356 2409 1356 1850 
L 1356 331 
L 1856 331 
L 1856 0 
L 263 0 
z
" transform="scale(0.015625)"/>
     </defs>
     <use xlink:href="#DejaVuSerif-47"/>
     <use xlink:href="#DejaVuSerif-44" transform="translate(79.882812 0)"/>
     <use xlink:href="#DejaVuSerif-50" transform="translate(160.058594 0)"/>
     <use xlink:href="#DejaVuSerif-20" transform="translate(227.34375 0)"/>
     <use xlink:href="#DejaVuSerif-63" transform="translate(259.130859 0)"/>
     <use xlink:href="#DejaVuSerif-6f" transform="translate(315.136719 0)"/>
     <use xlink:href="#DejaVuSerif-72" transform="translate(375.341797 0)"/>
     <use xlink:href="#DejaVuSerif-72" transform="translate(423.144531 0)"/>
     <use xlink:href="#DejaVuSerif-65" transform="translate(470.947266 0)"/>
     <use xlink:href="#DejaVuSerif-6c" transform="translate(530.126953 0)"/>
     <use xlink:href="#DejaVuSerif-61" transform="translate(562.109375 0)"/>
     <use xlink:href="#DejaVuSerif-74" transform="translate(621.728516 0)"/>
     <use xlink:href="#DejaVuSerif-69" transform="translate(661.914062 0)"/>
     <use xlink:href="#DejaVuSerif-6f" transform="translate(693.896484 0)"/>
     <use xlink:href="#DejaVuSerif-6e" transform="translate(754.101562 0)"/>
     <use xlink:href="#DejaVuSerif-20" transform="translate(818.505859 0)"/>
     <use xlink:href="#DejaVuSerif-2192" transform="translate(850.292969 0)"/>
    </g>
   </g>
   <g id="text_22">
    <!-- &lt;0% -->
    <g style="fill: #5a6470" transform="translate(611.207826 281.855378) scale(0.07 -0.07)">
     <defs>
      <path id="DejaVuSerif-3c" d="M 4684 3188 
L 1441 2003 
L 4684 825 
L 4684 294 
L 678 1747 
L 678 2266 
L 4684 3719 
L 4684 3188 
z
" transform="scale(0.015625)"/>
     </defs>
     <use xlink:href="#DejaVuSerif-3c"/>
     <use xlink:href="#DejaVuSerif-30" transform="translate(83.789062 0)"/>
     <use xlink:href="#DejaVuSerif-25" transform="translate(147.412109 0)"/>
    </g>
   </g>
   <g id="text_23">
    <!-- 0–30% -->
    <g style="fill: #5a6470" transform="translate(667.312925 281.855378) scale(0.07 -0.07)">
     <defs>
      <path id="DejaVuSerif-2013" d="M 281 1906 
L 2919 1906 
L 2919 1491 
L 281 1491 
L 281 1906 
z
" transform="scale(0.015625)"/>
     </defs>
     <use xlink:href="#DejaVuSerif-30"/>
     <use xlink:href="#DejaVuSerif-2013" transform="translate(63.623047 0)"/>
     <use xlink:href="#DejaVuSerif-33" transform="translate(113.623047 0)"/>
     <use xlink:href="#DejaVuSerif-30" transform="translate(177.246094 0)"/>
     <use xlink:href="#DejaVuSerif-25" transform="translate(240.869141 0)"/>
    </g>
   </g>
   <g id="text_24">
    <!-- &gt;30% -->
    <g style="fill: #5a6470" transform="translate(727.732869 281.855378) scale(0.07 -0.07)">
     <defs>
      <path id="DejaVuSerif-3e" d="M 678 3188 
L 678 3719 
L 4684 2266 
L 4684 1747 
L 678 294 
L 678 825 
L 3922 2003 
L 678 3188 
z
" transform="scale(0.015625)"/>
     </defs>
     <use xlink:href="#DejaVuSerif-3e"/>
     <use xlink:href="#DejaVuSerif-33" transform="translate(83.789062 0)"/>
     <use xlink:href="#DejaVuSerif-30" transform="translate(147.412109 0)"/>
     <use xlink:href="#DejaVuSerif-25" transform="translate(211.035156 0)"/>
    </g>
   </g>
   <g id="text_25">
    <!-- &lt;0 -->
    <g style="fill: #5a6470" transform="translate(576.71683 245.811257) scale(0.07 -0.07)">
     <use xlink:href="#DejaVuSerif-3c"/>
     <use xlink:href="#DejaVuSerif-30" transform="translate(83.789062 0)"/>
    </g>
   </g>
   <g id="text_26">
    <!-- 0–0.5 -->
    <g style="fill: #5a6470" transform="translate(567.950424 186.435298) scale(0.07 -0.07)">
     <defs>
      <path id="DejaVuSerif-2e" d="M 603 325 
Q 603 500 722 622 
Q 841 744 1019 744 
Q 1191 744 1312 622 
Q 1434 500 1434 325 
Q 1434 153 1312 31 
Q 1191 -91 1019 -91 
Q 841 -91 722 29 
Q 603 150 603 325 
z
" transform="scale(0.015625)"/>
     </defs>
     <use xlink:href="#DejaVuSerif-30"/>
     <use xlink:href="#DejaVuSerif-2013" transform="translate(63.623047 0)"/>
     <use xlink:href="#DejaVuSerif-30" transform="translate(113.623047 0)"/>
     <use xlink:href="#DejaVuSerif-2e" transform="translate(177.246094 0)"/>
     <use xlink:href="#DejaVuSerif-35" transform="translate(209.033203 0)"/>
    </g>
   </g>
   <g id="text_27">
    <!-- &gt;0.5 -->
    <g style="fill: #5a6470" transform="translate(570.038392 127.059339) scale(0.07 -0.07)">
     <use xlink:href="#DejaVuSerif-3e"/>
     <use xlink:href="#DejaVuSerif-30" transform="translate(83.789062 0)"/>
     <use xlink:href="#DejaVuSerif-2e" transform="translate(147.412109 0)"/>
     <use xlink:href="#DejaVuSerif-35" transform="translate(179.199219 0)"/>
    </g>
   </g>
   <g id="text_28">
    <!-- Bivariate legend -->
    <g transform="translate(560.31718 61.751818) scale(0.09 -0.09)">
     <defs>
      <path id="DejaVuSerif-Bold-42" d="M 300 0 
L 300 378 
L 897 378 
L 897 4288 
L 300 4288 
L 300 4666 
L 3066 4666 
Q 3919 4666 4347 4378 
Q 4775 4091 4775 3513 
Q 4775 3097 4479 2853 
Q 4184 2609 3603 2547 
Q 4306 2481 4681 2172 
Q 5056 1863 5056 1350 
Q 5056 656 4532 328 
Q 4009 0 2894 0 
L 300 0 
z
M 2100 2719 
L 2509 2719 
Q 3047 2719 3306 2914 
Q 3566 3109 3566 3513 
Q 3566 3919 3314 4103 
Q 3063 4288 2509 4288 
L 2100 4288 
L 2100 2719 
z
M 2100 378 
L 2547 378 
Q 3144 378 3431 615 
Q 3719 853 3719 1350 
Q 3719 1850 3428 2097 
Q 3138 2344 2547 2344 
L 2100 2344 
L 2100 378 
z
" transform="scale(0.015625)"/>
     </defs>
     <use xlink:href="#DejaVuSerif-Bold-42"/>
     <use xlink:href="#DejaVuSerif-Bold-69" transform="translate(84.521484 0)"/>
     <use xlink:href="#DejaVuSerif-Bold-76" transform="translate(122.509766 0)"/>
     <use xlink:href="#DejaVuSerif-Bold-61" transform="translate(180.615234 0)"/>
     <use xlink:href="#DejaVuSerif-Bold-72" transform="translate(245.410156 0)"/>
     <use xlink:href="#DejaVuSerif-Bold-69" transform="translate(298.095703 0)"/>
     <use xlink:href="#DejaVuSerif-Bold-61" transform="translate(336.083984 0)"/>
     <use xlink:href="#DejaVuSerif-Bold-74" transform="translate(400.878906 0)"/>
     <use xlink:href="#DejaVuSerif-Bold-65" transform="translate(447.070312 0)"/>
     <use xlink:href="#DejaVuSerif-Bold-20" transform="translate(510.693359 0)"/>
     <use xlink:href="#DejaVuSerif-Bold-6c" transform="translate(545.507812 0)"/>
     <use xlink:href="#DejaVuSerif-Bold-65" transform="translate(583.496094 0)"/>
     <use xlink:href="#DejaVuSerif-Bold-67" transform="translate(647.119141 0)"/>
     <use xlink:href="#DejaVuSerif-Bold-65" transform="translate(717.041016 0)"/>
     <use xlink:href="#DejaVuSerif-Bold-6e" transform="translate(780.664062 0)"/>
     <use xlink:href="#DejaVuSerif-Bold-64" transform="translate(853.369141 0)"/>
    </g>
   </g>
  </g>
 </g>
 <defs>
  <clipPath id="p0ad306ded2">
   <rect x="7.2" y="23.558281" width="464.953535" height="321.890909"/>
  </clipPath>
  <clipPath id="p5de4051b74">
   <rect x="560.31718" y="65.751818" width="237.503835" height="237.503835"/>
  </clipPath>
 </defs>
</svg>
